<svg id="Layer_1" data-name="Layer 1" xmlns="http://www.w3.org/2000/svg" viewBox="0 0 160.86 161.27"><defs><style>.cls-1{fill:#5a6f83;}</style></defs><title>Artboard 4@1x</title><path class="cls-1" d="M125,13.48A80.56,80.56,0,0,0,24.78,22.33V.27H10.86V44.83H52.63V30.91H32.32A69,69,0,0,1,145.8,102.53l10.81,3.66A80.5,80.5,0,0,0,125,13.48Z"/><polygon class="cls-1" points="104.26 53.83 67.79 90.3 55.97 78.49 47.9 86.56 69.56 108.22 114.1 63.68 104.26 53.83"/><path class="cls-1" d="M147.3,125v-7.76H105.53v13.92H127.2a69,69,0,0,1-95.49-1.87A69.36,69.36,0,0,1,14.63,59.46L3.76,56a80.83,80.83,0,0,0,19.9,81.38,80.31,80.31,0,0,0,72.53,21.9,79.9,79.9,0,0,0,40-20.89v22.9H147.3s0-36.24,0-36.25Z"/></svg>
