<svg id="Layer_1" data-name="Layer 1" xmlns="http://www.w3.org/2000/svg" viewBox="0 0 165.25 81.76"><defs><style>.cls-1{fill:#5a6f83;}</style></defs><title>Artboard 3@1x</title><circle class="cls-1" cx="3.84" cy="3.84" r="3.84"/><circle class="cls-1" cx="13.11" cy="3.84" r="3.84"/><circle class="cls-1" cx="22.37" cy="3.84" r="3.84"/><circle class="cls-1" cx="31.64" cy="3.84" r="3.84"/><circle class="cls-1" cx="40.91" cy="3.84" r="3.84"/><circle class="cls-1" cx="50.18" cy="3.84" r="3.84"/><circle class="cls-1" cx="59.45" cy="3.84" r="3.84"/><circle class="cls-1" cx="68.72" cy="3.84" r="3.84"/><circle class="cls-1" cx="77.99" cy="3.84" r="3.84"/><circle class="cls-1" cx="87.26" cy="3.84" r="3.84"/><circle class="cls-1" cx="96.53" cy="3.84" r="3.84"/><circle class="cls-1" cx="13.11" cy="13.1" r="3.84"/><circle class="cls-1" cx="22.37" cy="13.1" r="3.84"/><circle class="cls-1" cx="31.64" cy="13.1" r="3.84"/><circle class="cls-1" cx="40.91" cy="13.1" r="3.84"/><circle class="cls-1" cx="50.18" cy="13.1" r="3.84"/><circle class="cls-1" cx="59.45" cy="13.1" r="3.84"/><circle class="cls-1" cx="68.72" cy="13.1" r="3.84"/><circle class="cls-1" cx="77.99" cy="13.1" r="3.84"/><circle class="cls-1" cx="87.26" cy="13.1" r="3.84"/><circle class="cls-1" cx="96.53" cy="13.1" r="3.84"/><circle class="cls-1" cx="105.79" cy="13.1" r="3.84"/><circle class="cls-1" cx="115.07" cy="13.1" r="3.84"/><circle class="cls-1" cx="161.41" cy="13.1" r="3.84"/><circle class="cls-1" cx="13.11" cy="22.36" r="3.84"/><circle class="cls-1" cx="22.37" cy="22.36" r="3.84"/><circle class="cls-1" cx="31.64" cy="22.36" r="3.84"/><circle class="cls-1" cx="40.91" cy="22.36" r="3.84"/><circle class="cls-1" cx="50.18" cy="22.36" r="3.84"/><circle class="cls-1" cx="59.45" cy="22.36" r="3.84"/><circle class="cls-1" cx="68.72" cy="22.36" r="3.84"/><circle class="cls-1" cx="77.99" cy="22.36" r="3.84"/><circle class="cls-1" cx="87.26" cy="22.36" r="3.84"/><circle class="cls-1" cx="96.53" cy="22.36" r="3.84"/><circle class="cls-1" cx="105.79" cy="22.36" r="3.84"/><circle class="cls-1" cx="115.07" cy="22.36" r="3.84"/><circle class="cls-1" cx="142.87" cy="22.36" r="3.84"/><circle class="cls-1" cx="152.14" cy="22.36" r="3.84"/><circle class="cls-1" cx="161.41" cy="22.36" r="3.84"/><circle class="cls-1" cx="13.11" cy="31.62" r="3.84"/><circle class="cls-1" cx="22.37" cy="31.62" r="3.84"/><circle class="cls-1" cx="31.64" cy="31.62" r="3.84"/><circle class="cls-1" cx="40.91" cy="31.62" r="3.84"/><circle class="cls-1" cx="50.18" cy="31.62" r="3.84"/><circle class="cls-1" cx="59.45" cy="31.62" r="3.84"/><circle class="cls-1" cx="68.72" cy="31.62" r="3.84"/><circle class="cls-1" cx="77.99" cy="31.62" r="3.84"/><circle class="cls-1" cx="87.26" cy="31.62" r="3.84"/><circle class="cls-1" cx="96.53" cy="31.62" r="3.84"/><circle class="cls-1" cx="105.79" cy="31.62" r="3.84"/><circle class="cls-1" cx="115.07" cy="31.62" r="3.84"/><circle class="cls-1" cx="124.34" cy="31.62" r="3.84"/><circle class="cls-1" cx="133.6" cy="31.62" r="3.84"/><circle class="cls-1" cx="142.87" cy="31.62" r="3.84"/><circle class="cls-1" cx="152.14" cy="31.62" r="3.84"/><circle class="cls-1" cx="13.11" cy="40.88" r="3.84"/><circle class="cls-1" cx="22.37" cy="40.88" r="3.84"/><circle class="cls-1" cx="31.64" cy="40.88" r="3.84"/><circle class="cls-1" cx="40.91" cy="40.88" r="3.84"/><circle class="cls-1" cx="50.18" cy="40.88" r="3.84"/><circle class="cls-1" cx="59.45" cy="40.88" r="3.84"/><circle class="cls-1" cx="68.72" cy="40.88" r="3.84"/><circle class="cls-1" cx="77.99" cy="40.88" r="3.84"/><circle class="cls-1" cx="87.26" cy="40.88" r="3.84"/><circle class="cls-1" cx="96.53" cy="40.88" r="3.84"/><circle class="cls-1" cx="105.79" cy="40.88" r="3.84"/><circle class="cls-1" cx="115.07" cy="40.88" r="3.84"/><circle class="cls-1" cx="124.34" cy="40.88" r="3.84"/><circle class="cls-1" cx="133.6" cy="40.88" r="3.84"/><circle class="cls-1" cx="142.87" cy="40.88" r="3.84"/><circle class="cls-1" cx="22.37" cy="50.14" r="3.84"/><circle class="cls-1" cx="31.64" cy="50.14" r="3.84"/><circle class="cls-1" cx="40.91" cy="50.14" r="3.84"/><circle class="cls-1" cx="50.18" cy="50.14" r="3.84"/><circle class="cls-1" cx="59.45" cy="50.14" r="3.84"/><circle class="cls-1" cx="68.72" cy="50.14" r="3.84"/><circle class="cls-1" cx="77.99" cy="50.14" r="3.84"/><circle class="cls-1" cx="87.26" cy="50.14" r="3.84"/><circle class="cls-1" cx="96.53" cy="50.14" r="3.84"/><circle class="cls-1" cx="105.79" cy="50.14" r="3.84"/><circle class="cls-1" cx="115.07" cy="50.14" r="3.84"/><circle class="cls-1" cx="124.34" cy="50.14" r="3.84"/><circle class="cls-1" cx="133.6" cy="50.14" r="3.84"/><circle class="cls-1" cx="142.87" cy="50.14" r="3.84"/><circle class="cls-1" cx="31.64" cy="59.4" r="3.84"/><circle class="cls-1" cx="40.91" cy="59.4" r="3.84"/><circle class="cls-1" cx="50.18" cy="59.4" r="3.84"/><circle class="cls-1" cx="59.45" cy="59.4" r="3.84"/><circle class="cls-1" cx="68.72" cy="59.4" r="3.84"/><circle class="cls-1" cx="77.99" cy="59.4" r="3.84"/><circle class="cls-1" cx="87.26" cy="59.4" r="3.84"/><circle class="cls-1" cx="96.53" cy="59.4" r="3.84"/><circle class="cls-1" cx="105.79" cy="59.4" r="3.84"/><circle class="cls-1" cx="115.07" cy="59.4" r="3.84"/><circle class="cls-1" cx="124.34" cy="59.4" r="3.84"/><circle class="cls-1" cx="133.6" cy="59.4" r="3.84"/><circle class="cls-1" cx="59.45" cy="68.66" r="3.84"/><circle class="cls-1" cx="68.72" cy="68.66" r="3.84"/><circle class="cls-1" cx="77.99" cy="68.66" r="3.84"/><circle class="cls-1" cx="87.26" cy="68.66" r="3.84"/><circle class="cls-1" cx="96.53" cy="68.66" r="3.84"/><circle class="cls-1" cx="105.79" cy="68.66" r="3.84"/><circle class="cls-1" cx="124.34" cy="68.66" r="3.84"/><circle class="cls-1" cx="77.99" cy="77.93" r="3.84"/><circle class="cls-1" cx="124.34" cy="77.93" r="3.84"/></svg>
