<svg id="Layer_1" data-name="Layer 1" xmlns="http://www.w3.org/2000/svg" viewBox="0 0 166.68 165.94"><defs><style>.cls-1{fill:#5a6f83;}</style></defs><title>Artboard 5@1x</title><path class="cls-1" d="M125.67,1a41,41,0,1,0,41,41A41,41,0,0,0,125.67,1Zm23.79,46.2a2.84,2.84,0,0,1-.63,1.65,2,2,0,0,1-1.68.87H133.95V63.53a2.44,2.44,0,0,1-.58,1.63,2.14,2.14,0,0,1-1.73.68H119.9a2.85,2.85,0,0,1-1.65-.63,2,2,0,0,1-.86-1.68V49.74H104.18q-2.31,0-2.31-2.52V36.59a2,2,0,0,1,2.31-2.31h13.21V20.55q0-2.31,2.52-2.31h11.74a2,2,0,0,1,2.31,2.31V34.28h13.21a2.38,2.38,0,0,1,1.63.6,2.16,2.16,0,0,1,.68,1.7V47.23Z"/><path class="cls-1" d="M68.87,153.83l-.44-.17-.07-.07-.23-.15-.13.11-.16.07h-.18l-.19-.09.16.49.34.36.46.22.52.08.45-.16-.12-.35Zm-1.05-12.47.14-.19,0-.25-.05,0-.37-.29-.11,0h-.16l-.21.12-.54.47-.11,0-.16,0L65,140.64l-.28,0-.59,0-.24-.05-.76-.4-.37,0-.11,0-.09.06-.14.12-.08.12.08,0,.24,0,.19.13.16.19.14.21-.18.43.35.33.57.21.49.07,3.09-.63ZM75,150.07h0l-.08.05-.15,0,0,0,0,.06.06.14.05.09h0l.14-.29v-.13Zm-14-8.49-.16-.38,0-.43-.22.18-.24.1-.84,0-.16.06-.16.09-.21.08h-.3l-.59-.11-.26.12.26.24.32.37.27.39.11.31.13.17.3.21.34.14.25,0L60,143h.13l.16,0,.23,0,.15,0,.73-.49.18-.19.1-.26,0-.41-.41.11Zm-4-.78-.13-.09-.15-.07-.16-.07-.1-.12-.09-.15-.15-.13-.06.32-.19.11-.42,0-.26.19,0,.18.11,0,.18-.19.4.18.37.07h.86l-.08-.17Zm12.88.57-.2,0-.12-.07-.17,0h-.14l0,0,0,.05.24.11.13,0,.19,0,.19,0,0-.05Zm73.64-5.14V136l-.45-.29-.16-.18-.13-.12-.24-.13-1.17-.85-.21-.25-.07-.06-.28-.18-.07-.06-.11-.12-.06,0-.06,0h-.25l-.09,0-.07-.08-.06-.11,0-.2,0-.16h0l.08-.25.06-.25-.14-.17h0l-.07-.34-.15-.17-.19-.15-.17-.28,0-.11,0-.4,0-.14,0-.07-.06-.07-.91-1.87-.38-.06-.3-.18-.18-.32,0-.47-.05-.21-.11-.27-.16-.23-.2-.1-.22-.08-.1-.2c-.05-.7-.11-1.4-.16-2.11-3.17-3-6.35-5.9-9.47-8.9s-6.13-5.9-9.19-8.85-6.16-6-9.23-9l-.5-.49-9.48-8.86q-4.47-4.19-8.92-8.4l-2.09-2-9.78-8.63Q73,65.21,68.15,60.89l-6.67-6c0-4.3,0-8.6,0-12.9q0-6,0-12,0-6.69,0-13.38t0-13.23q0-1.71,0-3.43H2.52l.16.34.06.19,0,.2L2.69,2.46l-.1.32-.34.71L1.87,4v.12l.47.2.7.51.56.62,0,.53,0,.29.19.45L4,7.13l.12.18.05.1,0,.49v.18l.09.18.12.14.14.11.15.08-.19.33.08.59.23,1.13,0,.56-.27,1.07-.12,1L4,14.49l-.26.64-.16.69-.22.27,0,.3,0,.34L3.4,17l0,.26.45.73.14.39,0,.43-.84,2.74-.62,1-.15.4.26-.14.23-.32.63-1.12.08-.06.57.07.16-.07.13.1.06,0-.23.42L4,22,3.67,22l-.37.14-.19.24-.36.74-.16.16,0,.73-.13.35-.32-.15L1.92,24V24L2,23.6l0-.14L1.63,24l-.24.44L1.2,25l0,.05.06.08,0,.08-.06,0-.05,0,0,0,0,.06,0,.21-.39.73-.11.27-.26,1,0,.3-.07.28-.13.3L0,28.77,0,29l.21.38.42,1.11L.76,31l-.16.84,0,.43.22.2.2.1,1.86,1.68.77.46.27.25.55.81,0,.13,0,.41.06.16.11.06.34.12.13.07.44.42,2,2.94.08.3.07.8.14.41.11.23.09.1L8.3,42l.08.15.06.18.08.16.09.29,0,1.26L9,45.07l-.05.17-.2.17-.15.4-.16.8-.14,1.25L8,48.48l.26.64v.33l.12.13.11.24.15.48.17.82L9,51.5l.23.16.52,1.24,0,.19,0,.6,0,.18.14.36,0,.19-.06.45-.15.23-.19.18-.18.31.06.53.4.6,1,1.07.74.61.12.18.13.27.29.28.53.38.43.44,2.36,3.18.47.42,1.69.89.42.45.36,1,.35.35,0,.88.16.27v-.48l.81.55.25.29.06.14.07.33.06.15.39.48L21.11,70l.56.67.22.37.09.42-.25-.35-.35-.32-.32-.36-.14-.47-.15-.29-.73-.76-.28-.23.42,1,0,.48-.46,1.75-.39.7-.09.27.37,0,.1,0,.11-.06,0,0v-.05l.16-.23.08-.15.11-.15.19-.15-.1-.06-.06-.07-.14-.24.12,0,.1-.07.09-.1.08-.15.25.54.39.33.9.45.08.07.19.14.15.21.13.48.16.15.34.17.18.16.35.49.17.09.15-.12.07-.23L24,74l.78.65.41.45.47.34.2.19.25.19.33.1.32,0,.19-.19,0-.31-.16-.25-.09-.21.19-.2L27,75l.18.1.13-.08,0-.28-.16-.25-.43-.37-.18-.23.09,0,.12-.13.08-.07-.14-.18,0-.2.14-.16.4-.14L27,72.78l-.37-.25-.11-.34v-1l-.08-.47H27l.37-.09.27-.25.25-.49,1.48.85.24.31.06.16.16.14.2.09.45.09.71.31h.28l.18,0,.16-.11.49-.46.09-.12.06-.15.09-.36,0-.11.14-.11L33,70.2l.27-.1h.21l.24.18v.23l-.26.57.64.2.7,0-.11.21-.07.08-.11.07.17.06h.23l.25-.06.21-.1,0-.19.17,0,.49.08h.19l.53-.11.29-.16.3-.36.42-.7h.09l-.06.42-.13.33-.2.26-.27.21-.15,0-.16,0-.15.05-.12.12,0,.16,0,.15.07.11.11,0,.63-.1.33-.13.14-.19v-.24l0-.13.2-.24.1-.06.09,0,.09.06.1,0,.07,0,.11-.16.07,0h.32l.25.06.2.12,1,.81.24.09.15.13.24.3.19.29v.13l-.23-.1-.29-.23-.25-.28-.13-.24-.24,0-.32-.15-.5-.38-.06-.12,0-.14L39.17,71,39,70.95h-.15l-.12.08-.09.09-.07,0h-.32l-.15.05-.06.15v.15l0,.18,0,.15-.06.06-.13,0-.14.06-.11.1,0,.12.07,0,.42.14-.28.14-.29,0-.57-.22-1.7-.18-.68-.23-1.7-.21-.32.1-.65.42-.33.09-.28-.09-.53-.42-.3-.1-.32.05-.21.15-.66.67-.15.07-.19,0-.14,0-.14-.06h-.11l-.11.4-.17.28-.22.21-.22.06.37.61.56.26.48.34.13.84-.19.66v.38l.25.17.29,0,.72.27.27.16-.57.24.08,0,.21.11-.09.26.12.05.36-.07.17.11.09.14.27.68.59,2,.18.37.22.26h.34l.09,0,.06.08.09.15,0,.08,0,.12V82l.05,0,.11,0,.23.11-.2.17-.28.07-.31,0-.27-.11L32,82.08l-.15-.31-.16-.23-.19,0-.15-.12-.15-.16L31,81.19l-.3.14-.08-.13-.06-.2-.07-.15-.2-.13-.15,0-.1-.08,0-.31-.1-.06-.46.08h-.15L29.07,80l-.1-.09-.12,0-.25,0-.12-.05-.17-.17,0-.13v-.15l-.11-.21v-.17l.09-1.12,0-.16.1-.09.22-.08h-.22l-.07-.09v-.28l-.19-.72L28,76.21l-.29-.06-.6,0-.29.07-.21.15-.24.69.09.76.19.76.06.68-.09.32-.24.52-.05.42.09.78.16.16.18,0h.18l.16.06.21.31.14.76.17.32.19.28.13.36L28,84l0,.35-.07.76-.14.69v.65l.32.65.42.35.18.23.08.34.15.2.9.69.79,1,.43.43,1.07.66.27.11.31,0,.32-.07.31-.12.28,0,.23.21.47-.3.41,0,.38.21.38.48.81,1.55.34.47-.29,1.07.12.07.12,0,.12,0,.13-.07.05.12,0,.11,0,.11-.05.12L36.5,95l-.21,0-.11.17-.07.84-.12.35-.17.33-.2.26-.28.16-.23-.13-.23-.22-.28-.09-.22.13-.19.28-.26.65.23.08.18.14.16.09.14.13.06.23-.06.15-.27,0-.06.15,0,.31.35.83.15.74,0,.74,0,.14.18.5,0,.21v.12l0,.1.1.16.15.12.15.07.12.11,0,.24.06.17.15.17.18.13.42.11,1.34.9.41.45.71,1.18.23.63.17.31.22.13.33,0,.28.12.23.19.18.23.14.27.12.33.09.37,0,.39.08.34.2.25.48.42.33.49.19.22.5.26.16.39.15.75.53,1,.3,0,.81.43.5.09.41.44.42.82.49.56.4.53.39.37.4.28.95.15.36.16.17.21.09.25.12.47.11.19.28.37.1.25-.22.14-.2,0-.08-.11.13-.29-.1-.11-.38,1.1,0,.62,0,.28.14.27.36.33.84.34.37.26.06-.08.24-.08.29,0,.22,0,.12.09L52,122l.12.06.24.09.11.08.13.52.07.59,0,.66-.09.67-.42,1.07-.05.39.06.15.41.36.11.13.08.13.06.15,0,.18,0,.39-.21.67-.05.39.18.25.15.3.11.32,0,.44-.12.31-.12.23-.09.27-.14.54-.13.28.09.19.17.17.36.11.42.12h.33l.52.42.4.57.33.66.6,0,1.32-.29,2.08-.13.68.06.59.24.71-.21.82.28,1.43.72.26-.05.31-.13.3-.08.23.09.18.15.32.19.34.15.25,0,.16-.12.12-.16.13-.14.7-.16.3.09h.34l.17,0,.15.07.32.28.89.4.51.15,1.68,1.5L71,137h.33l.15,0,.14.09.06.14v.18l0,.16.18.1-.07.2,0,.23.12.24.15.21.05.11,0,.21,0,.08.07,0,.14,0,.08.05.62.56.37.2.44,0-.2,0-.12,0-.1,0-.07-.15.47.09,1.16.71,1.4.4.7.07.55.24.25.24.25-.15.28-.12,2-.24.2,0L81,141h.11l.15-.07.21-.12.35.08.42.28.44.39.53.83.32.77.28.62.09.3,0,.25,0,.55-.11.23-.2.23-.07.28.28.37.09.05.15,0h.16l.13-.07.15,0,.14.15.14.19.14.09.14,0,.16.07.16,0,.15,0,.07-.1v-.29l.1-.5.08-.1.18,0,.11,0,.12-.07.13,0,.34.25h.23l.28,0,.38,0,.26.12,1.9,1.9.49.39,1.66.85.67.54.58.75.28.16.62.38.23.17.81.86,1.29.91,2,2.76.74,1.58.27.85,0,.31.12.2.36,1.68v.27l-.13.33-.16.17-.11.18,0,.36.35.53,0,.24,0,.34-.1.73,0,.17.14.29.06.21.06-.15.07-.53.14-.19.18-.09h.09l.25.06.24.13.31.14.15.14.23.33.19.38.05.29-.11.14-.17,0-.11-.22-.2-.33-.15-.31-.17-.15,0-.22-.26-.11h-.2l-.14.18-.11.16h.4l.31.22.23.38.25.49,0,.42,0,.38.08.47.1.12h0l12.84-1.15,12.84-1.15,7.76-.69v0l.05-.21.53-.39,1.46.3.59-.14.14-.25v-.6l.05-.29.18-.22.52-.36.16-.21,0-.36-.22-1.06,0-.21,0-.16v-.16l-.06-.21-.39-.57-.49-.27-1.27-.09-.55-.22-.42-.59,0-.58.21-.62.07-.72-.14-1-.1-.23-.44-.5,0-.25.13-.46.17-.18.05-.14-.08-.18-.11-.13-.14-.21-.06-.19.13-.09.68,0,.34-.1.25-.19.52-1,.13-.41.14-.17.28-.28.19-.25,0-.11.05-.22-.08-.36v-.22l.13-.1,0-.08v-.55l.07-.41.15-.24.16-.19.09-.25-.15-.3-.06-.18.07-.08,0-.09v-.39l0-.09-.17-.18-.05-.4V144l0-.26.25-.21.11-.15,0-.15-.27-.32-.11-.19,0-.2.09-.37.22-.23.55-.37.23-.23.22-.27.16-.32.12-.71.15-.31.23-.23.51-.16,1.43-1,.27-.07.44-.57.47-.46.44-.34.12-.23ZM84.3,151.45,83.1,151l-.23-.05-.93-.57-.37-.09-.33,0-.11.23.16.22.32.18.36.12.27,0,.37.1.13.24,0,.7.08.37.12.29.2.19.31.07.14,0,.35-.17.14,0,.19,0,.47.29.28,0,.22-.09.06-.23-.82-1.22Zm-.63,9-.52-.68-.67-.51-.28-.3-.2-.44-.08-.11-.1-.17-.08-.18,0-.16-.06-.14-.16,0-.19,0-.17-.08,0,.39.21.43.26.41.25.62.53.74.25.58.31.27.35.2.26.11h.14l.1,0,.09-.05.1,0h.38l.18,0,.16-.09-.65-.5ZM19.53,78l-.08.09,0,0v0h0v0l.05-.17,0,0Zm7.92-3,0,.05h-.07l0,.08v.14h0l.09,0,.11,0,.08-.21h0Zm.78.71.05.22h0l.17.19V76h0l-.09,0,0-.29h-.17Z"/></svg>
