<svg xmlns="http://www.w3.org/2000/svg" xmlns:xlink="http://www.w3.org/1999/xlink" width="33" height="47" viewBox="0 0 33 47">
    <defs>
        <path id="t9ktt2utra" d="M0 47L33 47 33 0 0 0z"/>
    </defs>
    <g fill="none" fill-rule="evenodd">
        <path fill="#FFF" d="M20.25 34.317h-1.5v-1.929l-2.03-2.02c-.141-.139-.22-.329-.22-.527v-8.206c0-.198.079-.388.22-.528l2.25-2.238c.14-.14.33-.218.53-.218h.75v1.492h-.44l-1.81 1.8v7.59l2.03 2.019c.141.14.22.329.22.527v2.238z"/>
        <path fill="#FFF" d="M21 24.619h-1.5v-9.698c0-1.237 1.007-2.238 2.25-2.238S24 13.684 24 14.92v7.46h-1.5v-7.46c0-.412-.335-.746-.75-.746s-.75.334-.75.746v9.698z"/>
        <path fill="#FFF" d="M27 22.381h-1.5v-8.952c0-.412-.335-.746-.75-.746s-.75.334-.75.746v8.952h-1.5v-8.952c0-1.237 1.007-2.239 2.25-2.239S27 12.192 27 13.43v8.952z"/>
        <path fill="#FFF" d="M30 22.381h-1.5v-7.46c0-.412-.335-.746-.75-.746s-.75.334-.75.746v7.46h-1.5v-7.46c0-1.237 1.007-2.238 2.25-2.238S30 13.684 30 14.92v7.46z"/>
        <path fill="#FFF" d="M30.75 34.317h-1.5V32.08c0-.198.079-.388.22-.527l2.03-2.02v-13.12c0-.411-.335-.745-.75-.745S30 16 30 16.413v5.968h-1.5v-5.968c0-1.236 1.007-2.238 2.25-2.238S33 15.177 33 16.413V29.84c0 .198-.079.388-.22.528l-2.03 2.02v1.928z"/>
        <path fill="#FFF" d="M31.5 39.54h-8.25v-1.492h7.5v-2.985h-12v2.985h3v1.492H18c-.415 0-.75-.334-.75-.746v-4.477c0-.412.335-.746.75-.746h13.5c.415 0 .75.334.75.746v4.477c0 .412-.335.746-.75.746"/>
        <mask id="3q70d2pzbb" fill="#fff">
            <use xlink:href="#t9ktt2utra"/>
        </mask>
        <path fill="#FFF" d="M18.75 47L20.25 47 20.25 38.794 18.75 38.794zM29.25 47L30.75 47 30.75 38.794 29.25 38.794zM3 38.048H1.5v-1.184L.22 35.591c-.141-.14-.22-.33-.22-.528V28.35c0-.197.079-.388.22-.527l.75-.746c.14-.14.331-.219.53-.219H3v1.492H1.81l-.31.31v6.096l1.28 1.273c.141.14.22.33.22.528v1.492z" mask="url(#3q70d2pzbb)"/>
        <path fill="#FFF" d="M3.75 32.08h-1.5v-7.461c0-.412.336-.746.75-.746h2.25c.414 0 .75.334.75.746v5.222H4.5v-4.476h-.75v6.714z" mask="url(#3q70d2pzbb)"/>
        <path fill="#FFF" d="M8.25 29.841h-1.5v-5.968H6v1.492H4.5v-2.238c0-.412.336-.746.75-.746H7.5c.414 0 .75.334.75.746v6.714z" mask="url(#3q70d2pzbb)"/>
        <path fill="#FFF" d="M10.5 29.841H9v-4.476h-.75v.746h-1.5V24.62c0-.412.336-.746.75-.746h2.25c.414 0 .75.334.75.746v5.222z" mask="url(#3q70d2pzbb)"/>
        <path fill="#FFF" d="M11.25 38.048h-1.5v-1.492c0-.199.079-.388.22-.528l1.28-1.273V26.11h-1.5V24.62H12c.414 0 .75.334.75.746v9.698c0 .199-.079.388-.22.528l-1.28 1.273v1.184z" mask="url(#3q70d2pzbb)"/>
        <path fill="#FFF" d="M12 41.778H.75c-.414 0-.75-.334-.75-.746v-2.984c0-.413.336-.746.75-.746H4.5v1.492h-3v1.492h9.75v-1.492H6v-1.492h6c.414 0 .75.333.75.746v2.984c0 .412-.336.746-.75.746" mask="url(#3q70d2pzbb)"/>
        <path fill="#FFF" d="M1.5 47L3 47 3 41.032 1.5 41.032zM9.75 47L11.25 47 11.25 41.032 9.75 41.032zM13.5 23.127c-.199 0-.39-.078-.53-.219l-3.53-3.511H1.5c-.414 0-.75-.334-.75-.746V.746C.75.334 1.086 0 1.5 0h21c.415 0 .75.334.75.746v9.698h-1.5V1.492H2.25v16.413h7.5c.199 0 .39.078.53.218l2.47 2.457v-1.93c0-.411.336-.745.75-.745h3.75v1.492h-3v2.984c0 .412-.336.746-.75.746" mask="url(#3q70d2pzbb)"/>
        <path fill="#FFF" d="M12 4.476c-2.9 0-5.25 2.338-5.25 5.222 0 2.885 2.35 5.223 5.25 5.223s5.25-2.338 5.25-5.223C17.247 6.816 14.898 4.48 12 4.476m0 11.937c-3.728 0-6.75-3.006-6.75-6.715 0-3.708 3.022-6.714 6.75-6.714s6.75 3.006 6.75 6.714c-.005 3.707-3.024 6.71-6.75 6.715" mask="url(#3q70d2pzbb)"/>
        <path fill="#FFF" d="M10.5 12.683c-.199 0-.39-.079-.53-.219l-1.5-1.492 1.06-1.055.97.965 3.97-3.95 1.06 1.056-4.5 4.476c-.14.14-.331.219-.53.219" mask="url(#3q70d2pzbb)"/>
    </g>
</svg>
