<?xml version="1.0" encoding="UTF-8"?>
<svg width="34px" height="34px" viewBox="0 0 34 34" version="1.1" xmlns="http://www.w3.org/2000/svg" xmlns:xlink="http://www.w3.org/1999/xlink">
    <title>ic/grade bubble/0</title>
    <g id="ic/grade-bubble/0" stroke="none" stroke-width="1" fill="none" fill-rule="evenodd">
        <circle id="Oval" fill="#B02424" cx="17.5" cy="17.5" r="16.5"></circle>
        <path d="M17,0 C26.3888407,0 34,7.61115925 34,17 C34,26.3888407 26.3888407,34 17,34 C7.61115925,34 0,26.3888407 0,17 C0,7.61115925 7.61115925,0 17,0 Z M17,2 C8.71572875,2 2,8.71572875 2,17 C2,25.2842712 8.71572875,32 17,32 C25.2842712,32 32,25.2842712 32,17 C32,8.71572875 25.2842712,2 17,2 Z" id="Oval" fill="#FFFFFF" fill-rule="nonzero"></path>
        <path d="M16.983,23.136 C17.629,23.136 18.2310833,23.0099167 18.78925,22.75775 C19.3474167,22.5055833 19.8305,22.12025 20.2385,21.60175 C20.6465,21.08325 20.9666667,20.4273333 21.199,19.634 C21.4313333,18.8406667 21.5475,17.9056667 21.5475,16.829 C21.5475,15.7523333 21.4313333,14.81875 21.199,14.02825 C20.9666667,13.23775 20.6465,12.58325 20.2385,12.06475 C19.8305,11.54625 19.3474167,11.1609167 18.78925,10.90875 C18.2310833,10.6565833 17.629,10.5305 16.983,10.5305 C16.337,10.5305 15.7363333,10.6565833 15.181,10.90875 C14.6256667,11.1609167 14.1468333,11.54625 13.7445,12.06475 C13.3421667,12.58325 13.02625,13.23775 12.79675,14.02825 C12.56725,14.81875 12.4525,15.7523333 12.4525,16.829 C12.4525,17.9056667 12.56725,18.8406667 12.79675,19.634 C13.02625,20.4273333 13.3421667,21.08325 13.7445,21.60175 C14.1468333,22.12025 14.6256667,22.5055833 15.181,22.75775 C15.7363333,23.0099167 16.337,23.136 16.983,23.136 Z M16.983,21.2235 C16.711,21.2235 16.4489167,21.1583333 16.19675,21.028 C15.9445833,20.8976667 15.72075,20.6681667 15.52525,20.3395 C15.32975,20.0108333 15.1725,19.5631667 15.0535,18.9965 C14.9345,18.4298333 14.875,17.7073333 14.875,16.829 C14.875,15.9563333 14.9345,15.2366667 15.0535,14.67 C15.1725,14.1033333 15.32975,13.6556667 15.52525,13.327 C15.72075,12.9983333 15.9445833,12.7688333 16.19675,12.6385 C16.4489167,12.5081667 16.711,12.443 16.983,12.443 C17.255,12.443 17.5199167,12.5081667 17.77775,12.6385 C18.0355833,12.7688333 18.2636667,12.9983333 18.462,13.327 C18.6603333,13.6556667 18.8204167,14.1033333 18.94225,14.67 C19.0640833,15.2366667 19.125,15.9563333 19.125,16.829 C19.125,17.7073333 19.0640833,18.4298333 18.94225,18.9965 C18.8204167,19.5631667 18.6603333,20.0108333 18.462,20.3395 C18.2636667,20.6681667 18.0355833,20.8976667 17.77775,21.028 C17.5199167,21.1583333 17.255,21.2235 16.983,21.2235 Z" id="0" fill="#FFFFFF" fill-rule="nonzero"></path>
    </g>
</svg>