<?xml version="1.0" encoding="UTF-8"?>
<svg width="34px" height="34px" viewBox="0 0 34 34" version="1.1" xmlns="http://www.w3.org/2000/svg" xmlns:xlink="http://www.w3.org/1999/xlink">
    <title>ic/grade bubble/1</title>
    <g id="ic/grade-bubble/1" stroke="none" stroke-width="1" fill="none" fill-rule="evenodd">
        <circle id="Oval" fill="#B02424" cx="17.5" cy="17.5" r="16.5"></circle>
        <path d="M17,0 C26.3888407,0 34,7.61115925 34,17 C34,26.3888407 26.3888407,34 17,34 C7.61115925,34 0,26.3888407 0,17 C0,7.61115925 7.61115925,0 17,0 Z M17,2 C8.71572875,2 2,8.71572875 2,17 C2,25.2842712 8.71572875,32 17,32 C25.2842712,32 32,25.2842712 32,17 C32,8.71572875 25.2842712,2 17,2 Z" id="Oval" fill="#FFFFFF" fill-rule="nonzero"></path>
        <path d="M20.854,23.342 L20.854,21.6165 L18.7205,21.6165 L18.7205,11 L16.791,11 L13,14.213 L13.7395,15.2075 C13.7791667,15.2585 13.8358333,15.3080833 13.9095,15.35625 C13.9831667,15.4044167 14.0681667,15.4384167 14.1645,15.45825 C14.2608333,15.4780833 14.3628333,15.4766667 14.4705,15.454 C14.5781667,15.4313333 14.6886667,15.3775 14.802,15.2925 L14.802,15.2925 L16.417,13.9495 C16.4056667,14.1081667 16.3971667,14.264 16.3915,14.417 C16.3858333,14.57 16.383,14.7201667 16.383,14.8675 L16.383,14.8675 L16.383,21.6165 L13.935,21.6165 L13.935,23.342 L20.854,23.342 Z" id="1" fill="#FFFFFF" fill-rule="nonzero"></path>
    </g>
</svg>