<?xml version="1.0" encoding="UTF-8"?>
<svg width="34px" height="34px" viewBox="0 0 34 34" version="1.1" xmlns="http://www.w3.org/2000/svg" xmlns:xlink="http://www.w3.org/1999/xlink">
    <title>ic/grade bubble/10</title>
    <g id="ic/grade-bubble/10" stroke="none" stroke-width="1" fill="none" fill-rule="evenodd">
        <circle id="Oval" fill="#B02424" cx="17.5" cy="17.5" r="16.5"></circle>
        <path d="M17,0 C26.3888407,0 34,7.61115925 34,17 C34,26.3888407 26.3888407,34 17,34 C7.61115925,34 0,26.3888407 0,17 C0,7.61115925 7.61115925,0 17,0 Z M17,2 C8.71572875,2 2,8.71572875 2,17 C2,25.2842712 8.71572875,32 17,32 C25.2842712,32 32,25.2842712 32,17 C32,8.71572875 25.2842712,2 17,2 Z" id="Oval" fill="#FFFFFF" fill-rule="nonzero"></path>
        <path d="M15.854,23.4695 L15.854,21.744 L13.7205,21.744 L13.7205,11.1275 L11.791,11.1275 L8,14.3405 L8.7395,15.335 C8.77916667,15.386 8.83583333,15.4355833 8.9095,15.48375 C8.98316667,15.5319167 9.06816667,15.5659167 9.1645,15.58575 C9.26083333,15.6055833 9.36283333,15.6041667 9.4705,15.5815 C9.57816667,15.5588333 9.68866667,15.505 9.802,15.42 L9.802,15.42 L11.417,14.077 C11.4056667,14.2356667 11.3971667,14.3915 11.3915,14.5445 C11.3858333,14.6975 11.383,14.8476667 11.383,14.995 L11.383,14.995 L11.383,21.744 L8.935,21.744 L8.935,23.4695 L15.854,23.4695 Z M21.77,23.6055 C22.416,23.6055 23.0180833,23.4794167 23.57625,23.22725 C24.1344167,22.9750833 24.6175,22.58975 25.0255,22.07125 C25.4335,21.55275 25.7536667,20.8968333 25.986,20.1035 C26.2183333,19.3101667 26.3345,18.3751667 26.3345,17.2985 C26.3345,16.2218333 26.2183333,15.28825 25.986,14.49775 C25.7536667,13.70725 25.4335,13.05275 25.0255,12.53425 C24.6175,12.01575 24.1344167,11.6304167 23.57625,11.37825 C23.0180833,11.1260833 22.416,11 21.77,11 C21.124,11 20.5233333,11.1260833 19.968,11.37825 C19.4126667,11.6304167 18.9338333,12.01575 18.5315,12.53425 C18.1291667,13.05275 17.81325,13.70725 17.58375,14.49775 C17.35425,15.28825 17.2395,16.2218333 17.2395,17.2985 C17.2395,18.3751667 17.35425,19.3101667 17.58375,20.1035 C17.81325,20.8968333 18.1291667,21.55275 18.5315,22.07125 C18.9338333,22.58975 19.4126667,22.9750833 19.968,23.22725 C20.5233333,23.4794167 21.124,23.6055 21.77,23.6055 Z M21.77,21.693 C21.498,21.693 21.2359167,21.6278333 20.98375,21.4975 C20.7315833,21.3671667 20.50775,21.1376667 20.31225,20.809 C20.11675,20.4803333 19.9595,20.0326667 19.8405,19.466 C19.7215,18.8993333 19.662,18.1768333 19.662,17.2985 C19.662,16.4258333 19.7215,15.7061667 19.8405,15.1395 C19.9595,14.5728333 20.11675,14.1251667 20.31225,13.7965 C20.50775,13.4678333 20.7315833,13.2383333 20.98375,13.108 C21.2359167,12.9776667 21.498,12.9125 21.77,12.9125 C22.042,12.9125 22.3069167,12.9776667 22.56475,13.108 C22.8225833,13.2383333 23.0506667,13.4678333 23.249,13.7965 C23.4473333,14.1251667 23.6074167,14.5728333 23.72925,15.1395 C23.8510833,15.7061667 23.912,16.4258333 23.912,17.2985 C23.912,18.1768333 23.8510833,18.8993333 23.72925,19.466 C23.6074167,20.0326667 23.4473333,20.4803333 23.249,20.809 C23.0506667,21.1376667 22.8225833,21.3671667 22.56475,21.4975 C22.3069167,21.6278333 22.042,21.693 21.77,21.693 Z" id="10" fill="#FFFFFF" fill-rule="nonzero"></path>
    </g>
</svg>