<?xml version="1.0" encoding="UTF-8"?>
<svg width="34px" height="34px" viewBox="0 0 34 34" version="1.1" xmlns="http://www.w3.org/2000/svg" xmlns:xlink="http://www.w3.org/1999/xlink">
    <title>ic/grade bubble/100</title>
    <g id="ic/grade-bubble/100" stroke="none" stroke-width="1" fill="none" fill-rule="evenodd">
        <circle id="Oval" fill="#1F8234" cx="17.5" cy="17.5" r="16.5"></circle>
        <path d="M17,0 C26.3888407,0 34,7.61115925 34,17 C34,26.3888407 26.3888407,34 17,34 C7.61115925,34 0,26.3888407 0,17 C0,7.61115925 7.61115925,0 17,0 Z M17,2 C8.71572875,2 2,8.71572875 2,17 C2,25.2842712 8.71572875,32 17,32 C25.2842712,32 32,25.2842712 32,17 C32,8.71572875 25.2842712,2 17,2 Z" id="Oval" fill="#FFFFFF" fill-rule="nonzero"></path>
        <path d="M11.468,22.269 L11.468,20.848 L9.711,20.848 L9.711,12.105 L8.122,12.105 L5,14.751 L5.609,15.57 C5.64166667,15.612 5.68833333,15.6528333 5.749,15.6925 C5.80966667,15.7321667 5.87966667,15.7601667 5.959,15.7765 C6.03833333,15.7928333 6.12233333,15.7916667 6.211,15.773 C6.29966667,15.7543333 6.39066667,15.71 6.484,15.64 L6.484,15.64 L7.814,14.534 C7.80466667,14.6646667 7.79766667,14.793 7.793,14.919 C7.78833333,15.045 7.786,15.1686667 7.786,15.29 L7.786,15.29 L7.786,20.848 L5.77,20.848 L5.77,22.269 L11.468,22.269 Z M16.34,22.381 C16.872,22.381 17.3678333,22.2771667 17.8275,22.0695 C18.2871667,21.8618333 18.685,21.5445 19.021,21.1175 C19.357,20.6905 19.6206667,20.1503333 19.812,19.497 C20.0033333,18.8436667 20.099,18.0736667 20.099,17.187 C20.099,16.3003333 20.0033333,15.5315 19.812,14.8805 C19.6206667,14.2295 19.357,13.6905 19.021,13.2635 C18.685,12.8365 18.2871667,12.5191667 17.8275,12.3115 C17.3678333,12.1038333 16.872,12 16.34,12 C15.808,12 15.3133333,12.1038333 14.856,12.3115 C14.3986667,12.5191667 14.0043333,12.8365 13.673,13.2635 C13.3416667,13.6905 13.0815,14.2295 12.8925,14.8805 C12.7035,15.5315 12.609,16.3003333 12.609,17.187 C12.609,18.0736667 12.7035,18.8436667 12.8925,19.497 C13.0815,20.1503333 13.3416667,20.6905 13.673,21.1175 C14.0043333,21.5445 14.3986667,21.8618333 14.856,22.0695 C15.3133333,22.2771667 15.808,22.381 16.34,22.381 Z M16.34,20.806 C16.116,20.806 15.9001667,20.7523333 15.6925,20.645 C15.4848333,20.5376667 15.3005,20.3486667 15.1395,20.078 C14.9785,19.8073333 14.849,19.4386667 14.751,18.972 C14.653,18.5053333 14.604,17.9103333 14.604,17.187 C14.604,16.4683333 14.653,15.8756667 14.751,15.409 C14.849,14.9423333 14.9785,14.5736667 15.1395,14.303 C15.3005,14.0323333 15.4848333,13.8433333 15.6925,13.736 C15.9001667,13.6286667 16.116,13.575 16.34,13.575 C16.564,13.575 16.7821667,13.6286667 16.9945,13.736 C17.2068333,13.8433333 17.3946667,14.0323333 17.558,14.303 C17.7213333,14.5736667 17.8531667,14.9423333 17.9535,15.409 C18.0538333,15.8756667 18.104,16.4683333 18.104,17.187 C18.104,17.9103333 18.0538333,18.5053333 17.9535,18.972 C17.8531667,19.4386667 17.7213333,19.8073333 17.558,20.078 C17.3946667,20.3486667 17.2068333,20.5376667 16.9945,20.645 C16.7821667,20.7523333 16.564,20.806 16.34,20.806 Z M24.46,22.381 C24.992,22.381 25.4878333,22.2771667 25.9475,22.0695 C26.4071667,21.8618333 26.805,21.5445 27.141,21.1175 C27.477,20.6905 27.7406667,20.1503333 27.932,19.497 C28.1233333,18.8436667 28.219,18.0736667 28.219,17.187 C28.219,16.3003333 28.1233333,15.5315 27.932,14.8805 C27.7406667,14.2295 27.477,13.6905 27.141,13.2635 C26.805,12.8365 26.4071667,12.5191667 25.9475,12.3115 C25.4878333,12.1038333 24.992,12 24.46,12 C23.928,12 23.4333333,12.1038333 22.976,12.3115 C22.5186667,12.5191667 22.1243333,12.8365 21.793,13.2635 C21.4616667,13.6905 21.2015,14.2295 21.0125,14.8805 C20.8235,15.5315 20.729,16.3003333 20.729,17.187 C20.729,18.0736667 20.8235,18.8436667 21.0125,19.497 C21.2015,20.1503333 21.4616667,20.6905 21.793,21.1175 C22.1243333,21.5445 22.5186667,21.8618333 22.976,22.0695 C23.4333333,22.2771667 23.928,22.381 24.46,22.381 Z M24.46,20.806 C24.236,20.806 24.0201667,20.7523333 23.8125,20.645 C23.6048333,20.5376667 23.4205,20.3486667 23.2595,20.078 C23.0985,19.8073333 22.969,19.4386667 22.871,18.972 C22.773,18.5053333 22.724,17.9103333 22.724,17.187 C22.724,16.4683333 22.773,15.8756667 22.871,15.409 C22.969,14.9423333 23.0985,14.5736667 23.2595,14.303 C23.4205,14.0323333 23.6048333,13.8433333 23.8125,13.736 C24.0201667,13.6286667 24.236,13.575 24.46,13.575 C24.684,13.575 24.9021667,13.6286667 25.1145,13.736 C25.3268333,13.8433333 25.5146667,14.0323333 25.678,14.303 C25.8413333,14.5736667 25.9731667,14.9423333 26.0735,15.409 C26.1738333,15.8756667 26.224,16.4683333 26.224,17.187 C26.224,17.9103333 26.1738333,18.5053333 26.0735,18.972 C25.9731667,19.4386667 25.8413333,19.8073333 25.678,20.078 C25.5146667,20.3486667 25.3268333,20.5376667 25.1145,20.645 C24.9021667,20.7523333 24.684,20.806 24.46,20.806 Z" id="100" fill="#FFFFFF" fill-rule="nonzero"></path>
    </g>
</svg>