<?xml version="1.0" encoding="UTF-8"?>
<svg width="34px" height="34px" viewBox="0 0 34 34" version="1.1" xmlns="http://www.w3.org/2000/svg" xmlns:xlink="http://www.w3.org/1999/xlink">
    <title>ic/grade bubble/11</title>
    <g id="ic/grade-bubble/11" stroke="none" stroke-width="1" fill="none" fill-rule="evenodd">
        <circle id="Oval" fill="#B02424" cx="17.5" cy="17.5" r="16.5"></circle>
        <path d="M17,0 C26.3888407,0 34,7.61115925 34,17 C34,26.3888407 26.3888407,34 17,34 C7.61115925,34 0,26.3888407 0,17 C0,7.61115925 7.61115925,0 17,0 Z M17,2 C8.71572875,2 2,8.71572875 2,17 C2,25.2842712 8.71572875,32 17,32 C25.2842712,32 32,25.2842712 32,17 C32,8.71572875 25.2842712,2 17,2 Z" id="Oval" fill="#FFFFFF" fill-rule="nonzero"></path>
        <path d="M15.854,23.342 L15.854,21.6165 L13.7205,21.6165 L13.7205,11 L11.791,11 L8,14.213 L8.7395,15.2075 C8.77916667,15.2585 8.83583333,15.3080833 8.9095,15.35625 C8.98316667,15.4044167 9.06816667,15.4384167 9.1645,15.45825 C9.26083333,15.4780833 9.36283333,15.4766667 9.4705,15.454 C9.57816667,15.4313333 9.68866667,15.3775 9.802,15.2925 L9.802,15.2925 L11.417,13.9495 C11.4056667,14.1081667 11.3971667,14.264 11.3915,14.417 C11.3858333,14.57 11.383,14.7201667 11.383,14.8675 L11.383,14.8675 L11.383,21.6165 L8.935,21.6165 L8.935,23.342 L15.854,23.342 Z M25.714,23.342 L25.714,21.6165 L23.5805,21.6165 L23.5805,11 L21.651,11 L17.86,14.213 L18.5995,15.2075 C18.6391667,15.2585 18.6958333,15.3080833 18.7695,15.35625 C18.8431667,15.4044167 18.9281667,15.4384167 19.0245,15.45825 C19.1208333,15.4780833 19.2228333,15.4766667 19.3305,15.454 C19.4381667,15.4313333 19.5486667,15.3775 19.662,15.2925 L19.662,15.2925 L21.277,13.9495 C21.2656667,14.1081667 21.2571667,14.264 21.2515,14.417 C21.2458333,14.57 21.243,14.7201667 21.243,14.8675 L21.243,14.8675 L21.243,21.6165 L18.795,21.6165 L18.795,23.342 L25.714,23.342 Z" id="11" fill="#FFFFFF" fill-rule="nonzero"></path>
    </g>
</svg>