<?xml version="1.0" encoding="UTF-8"?>
<svg width="34px" height="34px" viewBox="0 0 34 34" version="1.1" xmlns="http://www.w3.org/2000/svg" xmlns:xlink="http://www.w3.org/1999/xlink">
    <title>ic/grade bubble/12</title>
    <g id="ic/grade-bubble/12" stroke="none" stroke-width="1" fill="none" fill-rule="evenodd">
        <circle id="Oval" fill="#B02424" cx="17.5" cy="17.5" r="16.5"></circle>
        <path d="M17,0 C26.3888407,0 34,7.61115925 34,17 C34,26.3888407 26.3888407,34 17,34 C7.61115925,34 0,26.3888407 0,17 C0,7.61115925 7.61115925,0 17,0 Z M17,2 C8.71572875,2 2,8.71572875 2,17 C2,25.2842712 8.71572875,32 17,32 C25.2842712,32 32,25.2842712 32,17 C32,8.71572875 25.2842712,2 17,2 Z" id="Oval" fill="#FFFFFF" fill-rule="nonzero"></path>
        <path d="M15.854,23.4695 L15.854,21.744 L13.7205,21.744 L13.7205,11.1275 L11.791,11.1275 L8,14.3405 L8.7395,15.335 C8.77916667,15.386 8.83583333,15.4355833 8.9095,15.48375 C8.98316667,15.5319167 9.06816667,15.5659167 9.1645,15.58575 C9.26083333,15.6055833 9.36283333,15.6041667 9.4705,15.5815 C9.57816667,15.5588333 9.68866667,15.505 9.802,15.42 L9.802,15.42 L11.417,14.077 C11.4056667,14.2356667 11.3971667,14.3915 11.3915,14.5445 C11.3858333,14.6975 11.383,14.8476667 11.383,14.995 L11.383,14.995 L11.383,21.744 L8.935,21.744 L8.935,23.4695 L15.854,23.4695 Z M25.9945,23.4695 L25.9945,22.0925 C25.9945,21.8601667 25.92225,21.6731667 25.77775,21.5315 C25.63325,21.3898333 25.4335,21.319 25.1785,21.319 L25.1785,21.319 L22.4075,21.319 C22.1581667,21.319 21.8918333,21.3430833 21.6085,21.39125 C21.3251667,21.4394167 21.039,21.506 20.75,21.591 L20.75,21.591 L23.368,18.9135 C23.6966667,18.5791667 24.0083333,18.2476667 24.303,17.919 C24.5976667,17.5903333 24.8569167,17.25175 25.08075,16.90325 C25.3045833,16.55475 25.4816667,16.1878333 25.612,15.8025 C25.7423333,15.4171667 25.8075,14.9978333 25.8075,14.5445 C25.8075,14.0175 25.714,13.5358333 25.527,13.0995 C25.34,12.6631667 25.0765,12.2905833 24.7365,11.98175 C24.3965,11.6729167 23.9870833,11.4320833 23.50825,11.25925 C23.0294167,11.0864167 22.4981667,11 21.9145,11 C21.3591667,11 20.8406667,11.0750833 20.359,11.22525 C19.8773333,11.3754167 19.4495,11.6006667 19.0755,11.901 C18.7015,12.2013333 18.3898333,12.5781667 18.1405,13.0315 C17.8911667,13.4848333 17.7211667,14.0118333 17.6305,14.6125 L17.6305,14.6125 L18.8715,14.8335 C19.1888333,14.8845 19.4339167,14.86325 19.60675,14.76975 C19.7795833,14.67625 19.917,14.4878333 20.019,14.2045 C20.07,14.0231667 20.1493333,13.856 20.257,13.703 C20.3646667,13.55 20.4935833,13.4168333 20.64375,13.3035 C20.7939167,13.1901667 20.9639167,13.1009167 21.15375,13.03575 C21.3435833,12.9705833 21.5518333,12.938 21.7785,12.938 C22.2941667,12.938 22.6936667,13.0810833 22.977,13.36725 C23.2603333,13.6534167 23.402,14.0713333 23.402,14.621 C23.402,14.9326667 23.3623333,15.2301667 23.283,15.5135 C23.2036667,15.7968333 23.0846667,16.0759167 22.926,16.35075 C22.7673333,16.6255833 22.569,16.9060833 22.331,17.19225 C22.093,17.4784167 21.8181667,17.7773333 21.5065,18.089 L21.5065,18.089 L17.8515,21.7525 C17.7041667,21.8941667 17.5993333,22.0514167 17.537,22.22425 C17.4746667,22.3970833 17.4435,22.5571667 17.4435,22.7045 L17.4435,22.7045 L17.4435,23.4695 L25.9945,23.4695 Z" id="12" fill="#FFFFFF" fill-rule="nonzero"></path>
    </g>
</svg>