<?xml version="1.0" encoding="UTF-8"?>
<svg width="34px" height="34px" viewBox="0 0 34 34" version="1.1" xmlns="http://www.w3.org/2000/svg" xmlns:xlink="http://www.w3.org/1999/xlink">
    <title>ic/grade bubble/13</title>
    <g id="ic/grade-bubble/13" stroke="none" stroke-width="1" fill="none" fill-rule="evenodd">
        <circle id="Oval" fill="#B02424" cx="17.5" cy="17.5" r="16.5"></circle>
        <path d="M17,0 C26.3888407,0 34,7.61115925 34,17 C34,26.3888407 26.3888407,34 17,34 C7.61115925,34 0,26.3888407 0,17 C0,7.61115925 7.61115925,0 17,0 Z M17,2 C8.71572875,2 2,8.71572875 2,17 C2,25.2842712 8.71572875,32 17,32 C25.2842712,32 32,25.2842712 32,17 C32,8.71572875 25.2842712,2 17,2 Z" id="Oval" fill="#FFFFFF" fill-rule="nonzero"></path>
        <path d="M15.854,23.4695 L15.854,21.744 L13.7205,21.744 L13.7205,11.1275 L11.791,11.1275 L8,14.3405 L8.7395,15.335 C8.77916667,15.386 8.83583333,15.4355833 8.9095,15.48375 C8.98316667,15.5319167 9.06816667,15.5659167 9.1645,15.58575 C9.26083333,15.6055833 9.36283333,15.6041667 9.4705,15.5815 C9.57816667,15.5588333 9.68866667,15.505 9.802,15.42 L9.802,15.42 L11.417,14.077 C11.4056667,14.2356667 11.3971667,14.3915 11.3915,14.5445 C11.3858333,14.6975 11.383,14.8476667 11.383,14.995 L11.383,14.995 L11.383,21.744 L8.935,21.744 L8.935,23.4695 L15.854,23.4695 Z M21.702,23.6055 C22.2686667,23.6055 22.81125,23.52475 23.32975,23.36325 C23.84825,23.20175 24.303,22.9595 24.694,22.6365 C25.085,22.3135 25.3966667,21.9125833 25.629,21.43375 C25.8613333,20.9549167 25.9775,20.401 25.9775,19.772 C25.9775,18.3496667 25.2691667,17.4061667 23.8525,16.9415 C24.1585,16.8395 24.4290833,16.712 24.66425,16.559 C24.8994167,16.406 25.09775,16.219 25.25925,15.998 C25.42075,15.777 25.5425833,15.51775 25.62475,15.22025 C25.7069167,14.92275 25.748,14.5785 25.748,14.1875 C25.748,13.7455 25.6615833,13.3318333 25.48875,12.9465 C25.3159167,12.5611667 25.068,12.224 24.745,11.935 C24.422,11.646 24.02675,11.4179167 23.55925,11.25075 C23.09175,11.0835833 22.5633333,11 21.974,11 C21.4186667,11 20.9015833,11.0750833 20.42275,11.22525 C19.9439167,11.3754167 19.5175,11.6006667 19.1435,11.901 C18.7695,12.2013333 18.4578333,12.5781667 18.2085,13.0315 C17.9591667,13.4848333 17.7891667,14.0118333 17.6985,14.6125 L17.6985,14.6125 L18.931,14.8335 C19.254,14.8845 19.5005,14.86325 19.6705,14.76975 C19.8405,14.67625 19.9793333,14.4878333 20.087,14.2045 C20.138,14.0231667 20.2173333,13.856 20.325,13.703 C20.4326667,13.55 20.5615833,13.4168333 20.71175,13.3035 C20.8619167,13.1901667 21.0319167,13.1009167 21.22175,13.03575 C21.4115833,12.9705833 21.6198333,12.938 21.8465,12.938 C22.3621667,12.938 22.76025,13.0796667 23.04075,13.363 C23.32125,13.6463333 23.4615,14.0571667 23.4615,14.5955 C23.4615,14.8505 23.4260833,15.0856667 23.35525,15.301 C23.2844167,15.5163333 23.1555,15.7005 22.9685,15.8535 C22.7815,16.0065 22.5236667,16.1255 22.195,16.2105 C21.8663333,16.2955 21.4441667,16.338 20.9285,16.338 L20.9285,16.338 L20.9285,17.987 C21.5461667,17.987 22.0349167,18.0309167 22.39475,18.11875 C22.7545833,18.2065833 23.0265833,18.33125 23.21075,18.49275 C23.3949167,18.65425 23.5125,18.84975 23.5635,19.07925 C23.6145,19.30875 23.64,19.5651667 23.64,19.8485 C23.64,20.0638333 23.5989167,20.2805833 23.51675,20.49875 C23.4345833,20.7169167 23.3113333,20.9124167 23.147,21.08525 C22.9826667,21.2580833 22.7786667,21.3983333 22.535,21.506 C22.2913333,21.6136667 22.0051667,21.6675 21.6765,21.6675 C21.4158333,21.6675 21.1849167,21.6306667 20.98375,21.557 C20.7825833,21.4833333 20.6026667,21.3799167 20.444,21.24675 C20.2853333,21.1135833 20.14225,20.9563333 20.01475,20.775 C19.88725,20.5936667 19.7668333,20.3953333 19.6535,20.18 C19.5515,19.9816667 19.3829167,19.857 19.14775,19.806 C18.9125833,19.755 18.659,19.7861667 18.387,19.8995 L18.387,19.8995 L17.35,20.3245 C17.537,20.8741667 17.7551667,21.3544167 18.0045,21.76525 C18.2538333,22.1760833 18.55275,22.5175 18.90125,22.7895 C19.24975,23.0615 19.6535,23.2655 20.1125,23.4015 C20.5715,23.5375 21.1013333,23.6055 21.702,23.6055 Z" id="13" fill="#FFFFFF" fill-rule="nonzero"></path>
    </g>
</svg>