<?xml version="1.0" encoding="UTF-8"?>
<svg width="34px" height="34px" viewBox="0 0 34 34" version="1.1" xmlns="http://www.w3.org/2000/svg" xmlns:xlink="http://www.w3.org/1999/xlink">
    <title>ic/grade bubble/14</title>
    <g id="ic/grade-bubble/14" stroke="none" stroke-width="1" fill="none" fill-rule="evenodd">
        <circle id="Oval" fill="#B02424" cx="17.5" cy="17.5" r="16.5"></circle>
        <path d="M17,0 C26.3888407,0 34,7.61115925 34,17 C34,26.3888407 26.3888407,34 17,34 C7.61115925,34 0,26.3888407 0,17 C0,7.61115925 7.61115925,0 17,0 Z M17,2 C8.71572875,2 2,8.71572875 2,17 C2,25.2842712 8.71572875,32 17,32 C25.2842712,32 32,25.2842712 32,17 C32,8.71572875 25.2842712,2 17,2 Z" id="Oval" fill="#FFFFFF" fill-rule="nonzero"></path>
        <path d="M15.854,23.342 L15.854,21.6165 L13.7205,21.6165 L13.7205,11 L11.791,11 L8,14.213 L8.7395,15.2075 C8.77916667,15.2585 8.83583333,15.3080833 8.9095,15.35625 C8.98316667,15.4044167 9.06816667,15.4384167 9.1645,15.45825 C9.26083333,15.4780833 9.36283333,15.4766667 9.4705,15.454 C9.57816667,15.4313333 9.68866667,15.3775 9.802,15.2925 L9.802,15.2925 L11.417,13.9495 C11.4056667,14.1081667 11.3971667,14.264 11.3915,14.417 C11.3858333,14.57 11.383,14.7201667 11.383,14.8675 L11.383,14.8675 L11.383,21.6165 L8.935,21.6165 L8.935,23.342 L15.854,23.342 Z M24.881,23.342 L24.881,20.4095 L25.8415,20.4095 C25.9888333,20.4095 26.1035833,20.3655833 26.18575,20.27775 C26.2679167,20.1899167 26.309,20.0836667 26.309,19.959 L26.309,19.959 L26.309,18.633 L24.881,18.633 L24.881,11 L22.654,11 L16.874,18.7435 L17.1205,19.9165 C17.1488333,20.0638333 17.2239167,20.1828333 17.34575,20.2735 C17.4675833,20.3641667 17.6021667,20.4095 17.7495,20.4095 L17.7495,20.4095 L22.841,20.4095 L22.841,23.342 L24.881,23.342 Z M22.841,18.633 L19.356,18.633 L22.926,13.6605 C22.8976667,13.8985 22.8764167,14.1265833 22.86225,14.34475 C22.8480833,14.5629167 22.841,14.7683333 22.841,14.961 L22.841,14.961 L22.841,18.633 Z" id="14" fill="#FFFFFF" fill-rule="nonzero"></path>
    </g>
</svg>