<?xml version="1.0" encoding="UTF-8"?>
<svg width="34px" height="34px" viewBox="0 0 34 34" version="1.1" xmlns="http://www.w3.org/2000/svg" xmlns:xlink="http://www.w3.org/1999/xlink">
    <title>ic/grade bubble/15</title>
    <g id="ic/grade-bubble/15" stroke="none" stroke-width="1" fill="none" fill-rule="evenodd">
        <circle id="Oval" fill="#B02424" cx="17.5" cy="17.5" r="16.5"></circle>
        <path d="M17,0 C26.3888407,0 34,7.61115925 34,17 C34,26.3888407 26.3888407,34 17,34 C7.61115925,34 0,26.3888407 0,17 C0,7.61115925 7.61115925,0 17,0 Z M17,2 C8.71572875,2 2,8.71572875 2,17 C2,25.2842712 8.71572875,32 17,32 C25.2842712,32 32,25.2842712 32,17 C32,8.71572875 25.2842712,2 17,2 Z" id="Oval" fill="#FFFFFF" fill-rule="nonzero"></path>
        <path d="M15.854,23.342 L15.854,21.6165 L13.7205,21.6165 L13.7205,11 L11.791,11 L8,14.213 L8.7395,15.2075 C8.77916667,15.2585 8.83583333,15.3080833 8.9095,15.35625 C8.98316667,15.4044167 9.06816667,15.4384167 9.1645,15.45825 C9.26083333,15.4780833 9.36283333,15.4766667 9.4705,15.454 C9.57816667,15.4313333 9.68866667,15.3775 9.802,15.2925 L9.802,15.2925 L11.417,13.9495 C11.4056667,14.1081667 11.3971667,14.264 11.3915,14.417 C11.3858333,14.57 11.383,14.7201667 11.383,14.8675 L11.383,14.8675 L11.383,21.6165 L8.935,21.6165 L8.935,23.342 L15.854,23.342 Z M21.2005,23.478 C21.8748333,23.478 22.49675,23.3703333 23.06625,23.155 C23.63575,22.9396667 24.1259167,22.6379167 24.53675,22.24975 C24.9475833,21.8615833 25.2691667,21.3969167 25.5015,20.85575 C25.7338333,20.3145833 25.85,19.7153333 25.85,19.058 C25.85,18.531 25.765,18.038 25.595,17.579 C25.425,17.12 25.1714167,16.7205 24.83425,16.3805 C24.4970833,16.0405 24.0805833,15.77275 23.58475,15.57725 C23.0889167,15.38175 22.518,15.284 21.872,15.284 C21.651,15.284 21.4229167,15.2953333 21.18775,15.318 C20.9525833,15.3406667 20.7075,15.3775 20.4525,15.4285 L20.4525,15.4285 L20.852,13.0995 L24.0395,13.0995 C24.2888333,13.0995 24.4999167,13.0725833 24.67275,13.01875 C24.8455833,12.9649167 24.98725,12.8884167 25.09775,12.78925 C25.20825,12.6900833 25.2875833,12.5739167 25.33575,12.44075 C25.3839167,12.3075833 25.408,12.1588333 25.408,11.9945 L25.408,11.9945 L25.408,11.0085 L19.22,11.0085 L18.183,17.0775 L19.6365,17.4855 C20.2145,17.2701667 20.7896667,17.1625 21.362,17.1625 C22.059,17.1625 22.59025,17.33675 22.95575,17.68525 C23.32125,18.03375 23.504,18.5281667 23.504,19.1685 C23.504,19.5028333 23.4600833,19.8159167 23.37225,20.10775 C23.2844167,20.3995833 23.15125,20.65175 22.97275,20.86425 C22.79425,21.07675 22.569,21.2439167 22.297,21.36575 C22.025,21.4875833 21.7048333,21.5485 21.3365,21.5485 C20.9795,21.5485 20.6763333,21.5031667 20.427,21.4125 C20.1776667,21.3218333 19.9595,21.22125 19.7725,21.11075 C19.5855,21.00025 19.4183333,20.8996667 19.271,20.809 C19.1236667,20.7183333 18.9735,20.673 18.8205,20.673 C18.5768333,20.673 18.3785,20.7778333 18.2255,20.9875 L18.2255,20.9875 L17.503,21.9735 C17.7126667,22.1718333 17.9506667,22.3616667 18.217,22.543 C18.4833333,22.7243333 18.7709167,22.8844167 19.07975,23.02325 C19.3885833,23.1620833 19.7215,23.2725833 20.0785,23.35475 C20.4355,23.4369167 20.8095,23.478 21.2005,23.478 Z" id="15" fill="#FFFFFF" fill-rule="nonzero"></path>
    </g>
</svg>