<?xml version="1.0" encoding="UTF-8"?>
<svg width="34px" height="34px" viewBox="0 0 34 34" version="1.1" xmlns="http://www.w3.org/2000/svg" xmlns:xlink="http://www.w3.org/1999/xlink">
    <title>ic/grade bubble/16</title>
    <g id="ic/grade-bubble/16" stroke="none" stroke-width="1" fill="none" fill-rule="evenodd">
        <circle id="Oval" fill="#B02424" cx="17.5" cy="17.5" r="16.5"></circle>
        <path d="M17,0 C26.3888407,0 34,7.61115925 34,17 C34,26.3888407 26.3888407,34 17,34 C7.61115925,34 0,26.3888407 0,17 C0,7.61115925 7.61115925,0 17,0 Z M17,2 C8.71572875,2 2,8.71572875 2,17 C2,25.2842712 8.71572875,32 17,32 C25.2842712,32 32,25.2842712 32,17 C32,8.71572875 25.2842712,2 17,2 Z" id="Oval" fill="#FFFFFF" fill-rule="nonzero"></path>
        <path d="M15.854,23.342 L15.854,21.6165 L13.7205,21.6165 L13.7205,11 L11.791,11 L8,14.213 L8.7395,15.2075 C8.77916667,15.2585 8.83583333,15.3080833 8.9095,15.35625 C8.98316667,15.4044167 9.06816667,15.4384167 9.1645,15.45825 C9.26083333,15.4780833 9.36283333,15.4766667 9.4705,15.454 C9.57816667,15.4313333 9.68866667,15.3775 9.802,15.2925 L9.802,15.2925 L11.417,13.9495 C11.4056667,14.1081667 11.3971667,14.264 11.3915,14.417 C11.3858333,14.57 11.383,14.7201667 11.383,14.8675 L11.383,14.8675 L11.383,21.6165 L8.935,21.6165 L8.935,23.342 L15.854,23.342 Z M21.8125,23.478 C22.4755,23.478 23.0775833,23.3675 23.61875,23.1465 C24.1599167,22.9255 24.6245833,22.6251667 25.01275,22.2455 C25.4009167,21.8658333 25.70125,21.421 25.91375,20.911 C26.12625,20.401 26.2325,19.8598333 26.2325,19.2875 C26.2325,18.6641667 26.1290833,18.1215833 25.92225,17.65975 C25.7154167,17.1979167 25.442,16.814 25.102,16.508 C24.762,16.202 24.3738333,15.9725 23.9375,15.8195 C23.5011667,15.6665 23.0535,15.59 22.5945,15.59 C22.3055,15.59 22.0363333,15.6155 21.787,15.6665 C21.5376667,15.7175 21.3053333,15.7911667 21.09,15.8875 L21.09,15.8875 L21.464,15.437 L25.119,11.0085 L23.0365,11.0085 C22.7531667,11.0085 22.501,11.0623333 22.28,11.17 C22.059,11.2776667 21.8918333,11.4051667 21.7785,11.5525 L21.7785,11.5525 L18.914,15.4115 C18.4323333,16.0575 18.0739167,16.6865 17.83875,17.2985 C17.6035833,17.9105 17.486,18.514 17.486,19.109 C17.486,19.755 17.5851667,20.34575 17.7835,20.88125 C17.9818333,21.41675 18.268,21.8771667 18.642,22.2625 C19.016,22.6478333 19.4693333,22.94675 20.002,23.15925 C20.5346667,23.37175 21.1381667,23.478 21.8125,23.478 Z M21.77,21.591 C21.43,21.591 21.1339167,21.54 20.88175,21.438 C20.6295833,21.336 20.4185,21.1915 20.2485,21.0045 C20.0785,20.8175 19.951,20.59225 19.866,20.32875 C19.781,20.06525 19.7385,19.772 19.7385,19.449 C19.7385,19.1373333 19.7880833,18.8511667 19.88725,18.5905 C19.9864167,18.3298333 20.12525,18.1045833 20.30375,17.91475 C20.48225,17.7249167 20.6961667,17.5775833 20.9455,17.47275 C21.1948333,17.3679167 21.4696667,17.3155 21.77,17.3155 C22.0873333,17.3155 22.3763333,17.3636667 22.637,17.46 C22.8976667,17.5563333 23.1215,17.6965833 23.3085,17.88075 C23.4955,18.0649167 23.64,18.2901667 23.742,18.5565 C23.844,18.8228333 23.895,19.1231667 23.895,19.4575 C23.895,19.7635 23.8411667,20.0454167 23.7335,20.30325 C23.6258333,20.5610833 23.4785,20.7863333 23.2915,20.979 C23.1045,21.1716667 22.8806667,21.3218333 22.62,21.4295 C22.3593333,21.5371667 22.076,21.591 21.77,21.591 Z" id="16" fill="#FFFFFF" fill-rule="nonzero"></path>
    </g>
</svg>