<?xml version="1.0" encoding="UTF-8"?>
<svg width="34px" height="34px" viewBox="0 0 34 34" version="1.1" xmlns="http://www.w3.org/2000/svg" xmlns:xlink="http://www.w3.org/1999/xlink">
    <title>ic/grade bubble/17</title>
    <g id="ic/grade-bubble/17" stroke="none" stroke-width="1" fill="none" fill-rule="evenodd">
        <circle id="Oval" fill="#B02424" cx="17.5" cy="17.5" r="16.5"></circle>
        <path d="M17,0 C26.3888407,0 34,7.61115925 34,17 C34,26.3888407 26.3888407,34 17,34 C7.61115925,34 0,26.3888407 0,17 C0,7.61115925 7.61115925,0 17,0 Z M17,2 C8.71572875,2 2,8.71572875 2,17 C2,25.2842712 8.71572875,32 17,32 C25.2842712,32 32,25.2842712 32,17 C32,8.71572875 25.2842712,2 17,2 Z" id="Oval" fill="#FFFFFF" fill-rule="nonzero"></path>
        <path d="M15.854,23.342 L15.854,21.6165 L13.7205,21.6165 L13.7205,11 L11.791,11 L8,14.213 L8.7395,15.2075 C8.77916667,15.2585 8.83583333,15.3080833 8.9095,15.35625 C8.98316667,15.4044167 9.06816667,15.4384167 9.1645,15.45825 C9.26083333,15.4780833 9.36283333,15.4766667 9.4705,15.454 C9.57816667,15.4313333 9.68866667,15.3775 9.802,15.2925 L9.802,15.2925 L11.417,13.9495 C11.4056667,14.1081667 11.3971667,14.264 11.3915,14.417 C11.3858333,14.57 11.383,14.7201667 11.383,14.8675 L11.383,14.8675 L11.383,21.6165 L8.935,21.6165 L8.935,23.342 L15.854,23.342 Z M20.1635,23.342 C20.4921667,23.342 20.7528333,23.2655 20.9455,23.1125 C21.1381667,22.9595 21.2911667,22.7753333 21.4045,22.56 L21.4045,22.56 L25.8925,13.1845 C25.9548333,13.0598333 26.0185833,12.9068333 26.08375,12.7255 C26.1489167,12.5441667 26.1815,12.3061667 26.1815,12.0115 L26.1815,12.0115 L26.1815,11.0085 L17.588,11.0085 L17.588,12.5725 C17.588,12.7085 17.64325,12.8303333 17.75375,12.938 C17.86425,13.0456667 17.9875,13.0995 18.1235,13.0995 L18.1235,13.0995 L23.81,13.0995 C23.6626667,13.2581667 23.5295,13.4253333 23.4105,13.601 C23.2915,13.7766667 23.1753333,13.9721667 23.062,14.1875 L23.062,14.1875 L18.4635,23.342 L20.1635,23.342 Z" id="17" fill="#FFFFFF" fill-rule="nonzero"></path>
    </g>
</svg>