<?xml version="1.0" encoding="UTF-8"?>
<svg width="34px" height="34px" viewBox="0 0 34 34" version="1.1" xmlns="http://www.w3.org/2000/svg" xmlns:xlink="http://www.w3.org/1999/xlink">
    <title>ic/grade bubble/18</title>
    <g id="ic/grade-bubble/18" stroke="none" stroke-width="1" fill="none" fill-rule="evenodd">
        <circle id="Oval" fill="#B02424" cx="17.5" cy="17.5" r="16.5"></circle>
        <path d="M17,0 C26.3888407,0 34,7.61115925 34,17 C34,26.3888407 26.3888407,34 17,34 C7.61115925,34 0,26.3888407 0,17 C0,7.61115925 7.61115925,0 17,0 Z M17,2 C8.71572875,2 2,8.71572875 2,17 C2,25.2842712 8.71572875,32 17,32 C25.2842712,32 32,25.2842712 32,17 C32,8.71572875 25.2842712,2 17,2 Z" id="Oval" fill="#FFFFFF" fill-rule="nonzero"></path>
        <path d="M15.854,23.4695 L15.854,21.744 L13.7205,21.744 L13.7205,11.1275 L11.791,11.1275 L8,14.3405 L8.7395,15.335 C8.77916667,15.386 8.83583333,15.4355833 8.9095,15.48375 C8.98316667,15.5319167 9.06816667,15.5659167 9.1645,15.58575 C9.26083333,15.6055833 9.36283333,15.6041667 9.4705,15.5815 C9.57816667,15.5588333 9.68866667,15.505 9.802,15.42 L9.802,15.42 L11.417,14.077 C11.4056667,14.2356667 11.3971667,14.3915 11.3915,14.5445 C11.3858333,14.6975 11.383,14.8476667 11.383,14.995 L11.383,14.995 L11.383,21.744 L8.935,21.744 L8.935,23.4695 L15.854,23.4695 Z M21.787,23.6055 C22.433,23.6055 23.0223333,23.5190833 23.555,23.34625 C24.0876667,23.1734167 24.5438333,22.92975 24.9235,22.61525 C25.3031667,22.30075 25.5978333,21.9196667 25.8075,21.472 C26.0171667,21.0243333 26.122,20.5256667 26.122,19.976 C26.122,19.2733333 25.952,18.67125 25.612,18.16975 C25.272,17.66825 24.728,17.2928333 23.98,17.0435 C24.5636667,16.7885 24.9985833,16.4315 25.28475,15.9725 C25.5709167,15.5135 25.714,14.9666667 25.714,14.332 C25.714,13.856 25.6176667,13.4154167 25.425,13.01025 C25.2323333,12.6050833 24.96175,12.25375 24.61325,11.95625 C24.26475,11.65875 23.8496667,11.425 23.368,11.255 C22.8863333,11.085 22.3593333,11 21.787,11 C21.2146667,11 20.6876667,11.085 20.206,11.255 C19.7243333,11.425 19.30925,11.65875 18.96075,11.95625 C18.61225,12.25375 18.3416667,12.6050833 18.149,13.01025 C17.9563333,13.4154167 17.86,13.856 17.86,14.332 C17.86,14.9666667 18.0030833,15.5135 18.28925,15.9725 C18.5754167,16.4315 19.0103333,16.7885 19.594,17.0435 C18.846,17.2928333 18.302,17.66825 17.962,18.16975 C17.622,18.67125 17.452,19.2733333 17.452,19.976 C17.452,20.5256667 17.5568333,21.0243333 17.7665,21.472 C17.9761667,21.9196667 18.2708333,22.30075 18.6505,22.61525 C19.0301667,22.92975 19.4863333,23.1734167 20.019,23.34625 C20.5516667,23.5190833 21.141,23.6055 21.787,23.6055 Z M21.787,16.1935 C21.464,16.1935 21.1976667,16.1425 20.988,16.0405 C20.7783333,15.9385 20.6111667,15.8025 20.4865,15.6325 C20.3618333,15.4625 20.274,15.2684167 20.223,15.05025 C20.172,14.8320833 20.1465,14.6068333 20.1465,14.3745 C20.1465,14.1591667 20.1776667,13.9523333 20.24,13.754 C20.3023333,13.5556667 20.4000833,13.3814167 20.53325,13.23125 C20.6664167,13.0810833 20.8364167,12.9606667 21.04325,12.87 C21.2500833,12.7793333 21.498,12.734 21.787,12.734 C22.076,12.734 22.3239167,12.7793333 22.53075,12.87 C22.7375833,12.9606667 22.9075833,13.0810833 23.04075,13.23125 C23.1739167,13.3814167 23.2716667,13.5556667 23.334,13.754 C23.3963333,13.9523333 23.4275,14.1591667 23.4275,14.3745 C23.4275,14.6068333 23.402,14.8320833 23.351,15.05025 C23.3,15.2684167 23.2121667,15.4625 23.0875,15.6325 C22.9628333,15.8025 22.7956667,15.9385 22.586,16.0405 C22.3763333,16.1425 22.11,16.1935 21.787,16.1935 Z M21.787,21.812 C21.464,21.812 21.1820833,21.7638333 20.94125,21.6675 C20.7004167,21.5711667 20.5006667,21.4394167 20.342,21.27225 C20.1833333,21.1050833 20.0643333,20.90675 19.985,20.67725 C19.9056667,20.44775 19.866,20.1998333 19.866,19.9335 C19.866,19.3215 20.02325,18.8469167 20.33775,18.50975 C20.65225,18.1725833 21.1353333,18.004 21.787,18.004 C22.4386667,18.004 22.92175,18.1725833 23.23625,18.50975 C23.55075,18.8469167 23.708,19.3215 23.708,19.9335 C23.708,20.1998333 23.6683333,20.44775 23.589,20.67725 C23.5096667,20.90675 23.3906667,21.1050833 23.232,21.27225 C23.0733333,21.4394167 22.8735833,21.5711667 22.63275,21.6675 C22.3919167,21.7638333 22.11,21.812 21.787,21.812 Z" id="18" fill="#FFFFFF" fill-rule="nonzero"></path>
    </g>
</svg>