<?xml version="1.0" encoding="UTF-8"?>
<svg width="34px" height="34px" viewBox="0 0 34 34" version="1.1" xmlns="http://www.w3.org/2000/svg" xmlns:xlink="http://www.w3.org/1999/xlink">
    <title>ic/grade bubble/19</title>
    <g id="ic/grade-bubble/19" stroke="none" stroke-width="1" fill="none" fill-rule="evenodd">
        <circle id="Oval" fill="#B02424" cx="17.5" cy="17.5" r="16.5"></circle>
        <path d="M17,0 C26.3888407,0 34,7.61115925 34,17 C34,26.3888407 26.3888407,34 17,34 C7.61115925,34 0,26.3888407 0,17 C0,7.61115925 7.61115925,0 17,0 Z M17,2 C8.71572875,2 2,8.71572875 2,17 C2,25.2842712 8.71572875,32 17,32 C25.2842712,32 32,25.2842712 32,17 C32,8.71572875 25.2842712,2 17,2 Z" id="Oval" fill="#FFFFFF" fill-rule="nonzero"></path>
        <path d="M15.854,23.4695 L15.854,21.744 L13.7205,21.744 L13.7205,11.1275 L11.791,11.1275 L8,14.3405 L8.7395,15.335 C8.77916667,15.386 8.83583333,15.4355833 8.9095,15.48375 C8.98316667,15.5319167 9.06816667,15.5659167 9.1645,15.58575 C9.26083333,15.6055833 9.36283333,15.6041667 9.4705,15.5815 C9.57816667,15.5588333 9.68866667,15.505 9.802,15.42 L9.802,15.42 L11.417,14.077 C11.4056667,14.2356667 11.3971667,14.3915 11.3915,14.5445 C11.3858333,14.6975 11.383,14.8476667 11.383,14.995 L11.383,14.995 L11.383,21.744 L8.935,21.744 L8.935,23.4695 L15.854,23.4695 Z M20.597,23.4695 C20.869,23.4695 21.11125,23.4185 21.32375,23.3165 C21.53625,23.2145 21.6991667,23.0898333 21.8125,22.9425 L21.8125,22.9425 L24.558,19.024 C24.7676667,18.735 24.9560833,18.4403333 25.12325,18.14 C25.2904167,17.8396667 25.4335,17.5308333 25.5525,17.2135 C25.6715,16.8961667 25.7621667,16.5618333 25.8245,16.2105 C25.8868333,15.8591667 25.918,15.488 25.918,15.097 C25.918,14.4963333 25.8216667,13.94525 25.629,13.44375 C25.4363333,12.94225 25.1615,12.5101667 24.8045,12.1475 C24.4475,11.7848333 24.0111667,11.5029167 23.4955,11.30175 C22.9798333,11.1005833 22.399,11 21.753,11 C21.1126667,11 20.5304167,11.1076667 20.00625,11.323 C19.4820833,11.5383333 19.033,11.82875 18.659,12.19425 C18.285,12.55975 17.996,12.9875833 17.792,13.47775 C17.588,13.9679167 17.486,14.4878333 17.486,15.0375 C17.486,15.6381667 17.5851667,16.1609167 17.7835,16.60575 C17.9818333,17.0505833 18.2425,17.4203333 18.5655,17.715 C18.8885,18.0096667 19.2525833,18.2306667 19.65775,18.378 C20.0629167,18.5253333 20.4723333,18.599 20.886,18.599 C21.243,18.599 21.5815833,18.5579167 21.90175,18.47575 C22.2219167,18.3935833 22.518,18.2731667 22.79,18.1145 L22.79,18.1145 L22.552,18.4205 C22.4726667,18.5225 22.3905,18.6273333 22.3055,18.735 L22.3055,18.735 L18.438,23.4695 L20.597,23.4695 Z M21.719,16.865 C21.1013333,16.865 20.6324167,16.695 20.31225,16.355 C19.9920833,16.015 19.832,15.5191667 19.832,14.8675 C19.832,14.5841667 19.8759167,14.3206667 19.96375,14.077 C20.0515833,13.8333333 20.1776667,13.62225 20.342,13.44375 C20.5063333,13.26525 20.7046667,13.1264167 20.937,13.02725 C21.1693333,12.9280833 21.4328333,12.8785 21.7275,12.8785 C22.0165,12.8785 22.28,12.9224167 22.518,13.01025 C22.756,13.0980833 22.9614167,13.227 23.13425,13.397 C23.3070833,13.567 23.4416667,13.77525 23.538,14.02175 C23.6343333,14.26825 23.6825,14.553 23.6825,14.876 C23.6825,15.165 23.6385833,15.4313333 23.55075,15.675 C23.4629167,15.9186667 23.3368333,16.1283333 23.1725,16.304 C23.0081667,16.4796667 22.80275,16.6170833 22.55625,16.71625 C22.30975,16.8154167 22.0306667,16.865 21.719,16.865 Z" id="19" fill="#FFFFFF" fill-rule="nonzero"></path>
    </g>
</svg>