<?xml version="1.0" encoding="UTF-8"?>
<svg width="34px" height="34px" viewBox="0 0 34 34" version="1.1" xmlns="http://www.w3.org/2000/svg" xmlns:xlink="http://www.w3.org/1999/xlink">
    <title>ic/grade bubble/2</title>
    <g id="ic/grade-bubble/2" stroke="none" stroke-width="1" fill="none" fill-rule="evenodd">
        <circle id="Oval" fill="#B02424" cx="17.5" cy="17.5" r="16.5"></circle>
        <path d="M17,0 C26.3888407,0 34,7.61115925 34,17 C34,26.3888407 26.3888407,34 17,34 C7.61115925,34 0,26.3888407 0,17 C0,7.61115925 7.61115925,0 17,0 Z M17,2 C8.71572875,2 2,8.71572875 2,17 C2,25.2842712 8.71572875,32 17,32 C25.2842712,32 32,25.2842712 32,17 C32,8.71572875 25.2842712,2 17,2 Z" id="Oval" fill="#FFFFFF" fill-rule="nonzero"></path>
        <path d="M21.551,23.4695 L21.551,22.0925 C21.551,21.8601667 21.47875,21.6731667 21.33425,21.5315 C21.18975,21.3898333 20.99,21.319 20.735,21.319 L20.735,21.319 L17.964,21.319 C17.7146667,21.319 17.4483333,21.3430833 17.165,21.39125 C16.8816667,21.4394167 16.5955,21.506 16.3065,21.591 L16.3065,21.591 L18.9245,18.9135 C19.2531667,18.5791667 19.5648333,18.2476667 19.8595,17.919 C20.1541667,17.5903333 20.4134167,17.25175 20.63725,16.90325 C20.8610833,16.55475 21.0381667,16.1878333 21.1685,15.8025 C21.2988333,15.4171667 21.364,14.9978333 21.364,14.5445 C21.364,14.0175 21.2705,13.5358333 21.0835,13.0995 C20.8965,12.6631667 20.633,12.2905833 20.293,11.98175 C19.953,11.6729167 19.5435833,11.4320833 19.06475,11.25925 C18.5859167,11.0864167 18.0546667,11 17.471,11 C16.9156667,11 16.3971667,11.0750833 15.9155,11.22525 C15.4338333,11.3754167 15.006,11.6006667 14.632,11.901 C14.258,12.2013333 13.9463333,12.5781667 13.697,13.0315 C13.4476667,13.4848333 13.2776667,14.0118333 13.187,14.6125 L13.187,14.6125 L14.428,14.8335 C14.7453333,14.8845 14.9904167,14.86325 15.16325,14.76975 C15.3360833,14.67625 15.4735,14.4878333 15.5755,14.2045 C15.6265,14.0231667 15.7058333,13.856 15.8135,13.703 C15.9211667,13.55 16.0500833,13.4168333 16.20025,13.3035 C16.3504167,13.1901667 16.5204167,13.1009167 16.71025,13.03575 C16.9000833,12.9705833 17.1083333,12.938 17.335,12.938 C17.8506667,12.938 18.2501667,13.0810833 18.5335,13.36725 C18.8168333,13.6534167 18.9585,14.0713333 18.9585,14.621 C18.9585,14.9326667 18.9188333,15.2301667 18.8395,15.5135 C18.7601667,15.7968333 18.6411667,16.0759167 18.4825,16.35075 C18.3238333,16.6255833 18.1255,16.9060833 17.8875,17.19225 C17.6495,17.4784167 17.3746667,17.7773333 17.063,18.089 L17.063,18.089 L13.408,21.7525 C13.2606667,21.8941667 13.1558333,22.0514167 13.0935,22.22425 C13.0311667,22.3970833 13,22.5571667 13,22.7045 L13,22.7045 L13,23.4695 L21.551,23.4695 Z" id="2" fill="#FFFFFF" fill-rule="nonzero"></path>
    </g>
</svg>