<?xml version="1.0" encoding="UTF-8"?>
<svg width="34px" height="34px" viewBox="0 0 34 34" version="1.1" xmlns="http://www.w3.org/2000/svg" xmlns:xlink="http://www.w3.org/1999/xlink">
    <title>ic/grade bubble/20</title>
    <g id="ic/grade-bubble/20" stroke="none" stroke-width="1" fill="none" fill-rule="evenodd">
        <circle id="Oval" fill="#B02424" cx="17.5" cy="17.5" r="16.5"></circle>
        <path d="M17,0 C26.3888407,0 34,7.61115925 34,17 C34,26.3888407 26.3888407,34 17,34 C7.61115925,34 0,26.3888407 0,17 C0,7.61115925 7.61115925,0 17,0 Z M17,2 C8.71572875,2 2,8.71572875 2,17 C2,25.2842712 8.71572875,32 17,32 C25.2842712,32 32,25.2842712 32,17 C32,8.71572875 25.2842712,2 17,2 Z" id="Oval" fill="#FFFFFF" fill-rule="nonzero"></path>
        <path d="M16.551,23.4695 L16.551,22.0925 C16.551,21.8601667 16.47875,21.6731667 16.33425,21.5315 C16.18975,21.3898333 15.99,21.319 15.735,21.319 L15.735,21.319 L12.964,21.319 C12.7146667,21.319 12.4483333,21.3430833 12.165,21.39125 C11.8816667,21.4394167 11.5955,21.506 11.3065,21.591 L11.3065,21.591 L13.9245,18.9135 C14.2531667,18.5791667 14.5648333,18.2476667 14.8595,17.919 C15.1541667,17.5903333 15.4134167,17.25175 15.63725,16.90325 C15.8610833,16.55475 16.0381667,16.1878333 16.1685,15.8025 C16.2988333,15.4171667 16.364,14.9978333 16.364,14.5445 C16.364,14.0175 16.2705,13.5358333 16.0835,13.0995 C15.8965,12.6631667 15.633,12.2905833 15.293,11.98175 C14.953,11.6729167 14.5435833,11.4320833 14.06475,11.25925 C13.5859167,11.0864167 13.0546667,11 12.471,11 C11.9156667,11 11.3971667,11.0750833 10.9155,11.22525 C10.4338333,11.3754167 10.006,11.6006667 9.632,11.901 C9.258,12.2013333 8.94633333,12.5781667 8.697,13.0315 C8.44766667,13.4848333 8.27766667,14.0118333 8.187,14.6125 L8.187,14.6125 L9.428,14.8335 C9.74533333,14.8845 9.99041667,14.86325 10.16325,14.76975 C10.3360833,14.67625 10.4735,14.4878333 10.5755,14.2045 C10.6265,14.0231667 10.7058333,13.856 10.8135,13.703 C10.9211667,13.55 11.0500833,13.4168333 11.20025,13.3035 C11.3504167,13.1901667 11.5204167,13.1009167 11.71025,13.03575 C11.9000833,12.9705833 12.1083333,12.938 12.335,12.938 C12.8506667,12.938 13.2501667,13.0810833 13.5335,13.36725 C13.8168333,13.6534167 13.9585,14.0713333 13.9585,14.621 C13.9585,14.9326667 13.9188333,15.2301667 13.8395,15.5135 C13.7601667,15.7968333 13.6411667,16.0759167 13.4825,16.35075 C13.3238333,16.6255833 13.1255,16.9060833 12.8875,17.19225 C12.6495,17.4784167 12.3746667,17.7773333 12.063,18.089 L12.063,18.089 L8.408,21.7525 C8.26066667,21.8941667 8.15583333,22.0514167 8.0935,22.22425 C8.03116667,22.3970833 8,22.5571667 8,22.7045 L8,22.7045 L8,23.4695 L16.551,23.4695 Z M22.1865,23.6055 C22.8325,23.6055 23.4345833,23.4794167 23.99275,23.22725 C24.5509167,22.9750833 25.034,22.58975 25.442,22.07125 C25.85,21.55275 26.1701667,20.8968333 26.4025,20.1035 C26.6348333,19.3101667 26.751,18.3751667 26.751,17.2985 C26.751,16.2218333 26.6348333,15.28825 26.4025,14.49775 C26.1701667,13.70725 25.85,13.05275 25.442,12.53425 C25.034,12.01575 24.5509167,11.6304167 23.99275,11.37825 C23.4345833,11.1260833 22.8325,11 22.1865,11 C21.5405,11 20.9398333,11.1260833 20.3845,11.37825 C19.8291667,11.6304167 19.3503333,12.01575 18.948,12.53425 C18.5456667,13.05275 18.22975,13.70725 18.00025,14.49775 C17.77075,15.28825 17.656,16.2218333 17.656,17.2985 C17.656,18.3751667 17.77075,19.3101667 18.00025,20.1035 C18.22975,20.8968333 18.5456667,21.55275 18.948,22.07125 C19.3503333,22.58975 19.8291667,22.9750833 20.3845,23.22725 C20.9398333,23.4794167 21.5405,23.6055 22.1865,23.6055 Z M22.1865,21.693 C21.9145,21.693 21.6524167,21.6278333 21.40025,21.4975 C21.1480833,21.3671667 20.92425,21.1376667 20.72875,20.809 C20.53325,20.4803333 20.376,20.0326667 20.257,19.466 C20.138,18.8993333 20.0785,18.1768333 20.0785,17.2985 C20.0785,16.4258333 20.138,15.7061667 20.257,15.1395 C20.376,14.5728333 20.53325,14.1251667 20.72875,13.7965 C20.92425,13.4678333 21.1480833,13.2383333 21.40025,13.108 C21.6524167,12.9776667 21.9145,12.9125 22.1865,12.9125 C22.4585,12.9125 22.7234167,12.9776667 22.98125,13.108 C23.2390833,13.2383333 23.4671667,13.4678333 23.6655,13.7965 C23.8638333,14.1251667 24.0239167,14.5728333 24.14575,15.1395 C24.2675833,15.7061667 24.3285,16.4258333 24.3285,17.2985 C24.3285,18.1768333 24.2675833,18.8993333 24.14575,19.466 C24.0239167,20.0326667 23.8638333,20.4803333 23.6655,20.809 C23.4671667,21.1376667 23.2390833,21.3671667 22.98125,21.4975 C22.7234167,21.6278333 22.4585,21.693 22.1865,21.693 Z" id="20" fill="#FFFFFF" fill-rule="nonzero"></path>
    </g>
</svg>