<?xml version="1.0" encoding="UTF-8"?>
<svg width="34px" height="34px" viewBox="0 0 34 34" version="1.1" xmlns="http://www.w3.org/2000/svg" xmlns:xlink="http://www.w3.org/1999/xlink">
    <title>ic/grade bubble/22</title>
    <g id="ic/grade-bubble/22" stroke="none" stroke-width="1" fill="none" fill-rule="evenodd">
        <circle id="Oval" fill="#B02424" cx="17.5" cy="17.5" r="16.5"></circle>
        <path d="M17,0 C26.3888407,0 34,7.61115925 34,17 C34,26.3888407 26.3888407,34 17,34 C7.61115925,34 0,26.3888407 0,17 C0,7.61115925 7.61115925,0 17,0 Z M17,2 C8.71572875,2 2,8.71572875 2,17 C2,25.2842712 8.71572875,32 17,32 C25.2842712,32 32,25.2842712 32,17 C32,8.71572875 25.2842712,2 17,2 Z" id="Oval" fill="#FFFFFF" fill-rule="nonzero"></path>
        <path d="M16.551,23.4695 L16.551,22.0925 C16.551,21.8601667 16.47875,21.6731667 16.33425,21.5315 C16.18975,21.3898333 15.99,21.319 15.735,21.319 L15.735,21.319 L12.964,21.319 C12.7146667,21.319 12.4483333,21.3430833 12.165,21.39125 C11.8816667,21.4394167 11.5955,21.506 11.3065,21.591 L11.3065,21.591 L13.9245,18.9135 C14.2531667,18.5791667 14.5648333,18.2476667 14.8595,17.919 C15.1541667,17.5903333 15.4134167,17.25175 15.63725,16.90325 C15.8610833,16.55475 16.0381667,16.1878333 16.1685,15.8025 C16.2988333,15.4171667 16.364,14.9978333 16.364,14.5445 C16.364,14.0175 16.2705,13.5358333 16.0835,13.0995 C15.8965,12.6631667 15.633,12.2905833 15.293,11.98175 C14.953,11.6729167 14.5435833,11.4320833 14.06475,11.25925 C13.5859167,11.0864167 13.0546667,11 12.471,11 C11.9156667,11 11.3971667,11.0750833 10.9155,11.22525 C10.4338333,11.3754167 10.006,11.6006667 9.632,11.901 C9.258,12.2013333 8.94633333,12.5781667 8.697,13.0315 C8.44766667,13.4848333 8.27766667,14.0118333 8.187,14.6125 L8.187,14.6125 L9.428,14.8335 C9.74533333,14.8845 9.99041667,14.86325 10.16325,14.76975 C10.3360833,14.67625 10.4735,14.4878333 10.5755,14.2045 C10.6265,14.0231667 10.7058333,13.856 10.8135,13.703 C10.9211667,13.55 11.0500833,13.4168333 11.20025,13.3035 C11.3504167,13.1901667 11.5204167,13.1009167 11.71025,13.03575 C11.9000833,12.9705833 12.1083333,12.938 12.335,12.938 C12.8506667,12.938 13.2501667,13.0810833 13.5335,13.36725 C13.8168333,13.6534167 13.9585,14.0713333 13.9585,14.621 C13.9585,14.9326667 13.9188333,15.2301667 13.8395,15.5135 C13.7601667,15.7968333 13.6411667,16.0759167 13.4825,16.35075 C13.3238333,16.6255833 13.1255,16.9060833 12.8875,17.19225 C12.6495,17.4784167 12.3746667,17.7773333 12.063,18.089 L12.063,18.089 L8.408,21.7525 C8.26066667,21.8941667 8.15583333,22.0514167 8.0935,22.22425 C8.03116667,22.3970833 8,22.5571667 8,22.7045 L8,22.7045 L8,23.4695 L16.551,23.4695 Z M26.411,23.4695 L26.411,22.0925 C26.411,21.8601667 26.33875,21.6731667 26.19425,21.5315 C26.04975,21.3898333 25.85,21.319 25.595,21.319 L25.595,21.319 L22.824,21.319 C22.5746667,21.319 22.3083333,21.3430833 22.025,21.39125 C21.7416667,21.4394167 21.4555,21.506 21.1665,21.591 L21.1665,21.591 L23.7845,18.9135 C24.1131667,18.5791667 24.4248333,18.2476667 24.7195,17.919 C25.0141667,17.5903333 25.2734167,17.25175 25.49725,16.90325 C25.7210833,16.55475 25.8981667,16.1878333 26.0285,15.8025 C26.1588333,15.4171667 26.224,14.9978333 26.224,14.5445 C26.224,14.0175 26.1305,13.5358333 25.9435,13.0995 C25.7565,12.6631667 25.493,12.2905833 25.153,11.98175 C24.813,11.6729167 24.4035833,11.4320833 23.92475,11.25925 C23.4459167,11.0864167 22.9146667,11 22.331,11 C21.7756667,11 21.2571667,11.0750833 20.7755,11.22525 C20.2938333,11.3754167 19.866,11.6006667 19.492,11.901 C19.118,12.2013333 18.8063333,12.5781667 18.557,13.0315 C18.3076667,13.4848333 18.1376667,14.0118333 18.047,14.6125 L18.047,14.6125 L19.288,14.8335 C19.6053333,14.8845 19.8504167,14.86325 20.02325,14.76975 C20.1960833,14.67625 20.3335,14.4878333 20.4355,14.2045 C20.4865,14.0231667 20.5658333,13.856 20.6735,13.703 C20.7811667,13.55 20.9100833,13.4168333 21.06025,13.3035 C21.2104167,13.1901667 21.3804167,13.1009167 21.57025,13.03575 C21.7600833,12.9705833 21.9683333,12.938 22.195,12.938 C22.7106667,12.938 23.1101667,13.0810833 23.3935,13.36725 C23.6768333,13.6534167 23.8185,14.0713333 23.8185,14.621 C23.8185,14.9326667 23.7788333,15.2301667 23.6995,15.5135 C23.6201667,15.7968333 23.5011667,16.0759167 23.3425,16.35075 C23.1838333,16.6255833 22.9855,16.9060833 22.7475,17.19225 C22.5095,17.4784167 22.2346667,17.7773333 21.923,18.089 L21.923,18.089 L18.268,21.7525 C18.1206667,21.8941667 18.0158333,22.0514167 17.9535,22.22425 C17.8911667,22.3970833 17.86,22.5571667 17.86,22.7045 L17.86,22.7045 L17.86,23.4695 L26.411,23.4695 Z" id="22" fill="#FFFFFF" fill-rule="nonzero"></path>
    </g>
</svg>