<?xml version="1.0" encoding="UTF-8"?>
<svg width="34px" height="34px" viewBox="0 0 34 34" version="1.1" xmlns="http://www.w3.org/2000/svg" xmlns:xlink="http://www.w3.org/1999/xlink">
    <title>ic/grade bubble/23</title>
    <g id="ic/grade-bubble/23" stroke="none" stroke-width="1" fill="none" fill-rule="evenodd">
        <circle id="Oval" fill="#B02424" cx="17.5" cy="17.5" r="16.5"></circle>
        <path d="M17,0 C26.3888407,0 34,7.61115925 34,17 C34,26.3888407 26.3888407,34 17,34 C7.61115925,34 0,26.3888407 0,17 C0,7.61115925 7.61115925,0 17,0 Z M17,2 C8.71572875,2 2,8.71572875 2,17 C2,25.2842712 8.71572875,32 17,32 C25.2842712,32 32,25.2842712 32,17 C32,8.71572875 25.2842712,2 17,2 Z" id="Oval" fill="#FFFFFF" fill-rule="nonzero"></path>
        <path d="M16.551,23.4695 L16.551,22.0925 C16.551,21.8601667 16.47875,21.6731667 16.33425,21.5315 C16.18975,21.3898333 15.99,21.319 15.735,21.319 L15.735,21.319 L12.964,21.319 C12.7146667,21.319 12.4483333,21.3430833 12.165,21.39125 C11.8816667,21.4394167 11.5955,21.506 11.3065,21.591 L11.3065,21.591 L13.9245,18.9135 C14.2531667,18.5791667 14.5648333,18.2476667 14.8595,17.919 C15.1541667,17.5903333 15.4134167,17.25175 15.63725,16.90325 C15.8610833,16.55475 16.0381667,16.1878333 16.1685,15.8025 C16.2988333,15.4171667 16.364,14.9978333 16.364,14.5445 C16.364,14.0175 16.2705,13.5358333 16.0835,13.0995 C15.8965,12.6631667 15.633,12.2905833 15.293,11.98175 C14.953,11.6729167 14.5435833,11.4320833 14.06475,11.25925 C13.5859167,11.0864167 13.0546667,11 12.471,11 C11.9156667,11 11.3971667,11.0750833 10.9155,11.22525 C10.4338333,11.3754167 10.006,11.6006667 9.632,11.901 C9.258,12.2013333 8.94633333,12.5781667 8.697,13.0315 C8.44766667,13.4848333 8.27766667,14.0118333 8.187,14.6125 L8.187,14.6125 L9.428,14.8335 C9.74533333,14.8845 9.99041667,14.86325 10.16325,14.76975 C10.3360833,14.67625 10.4735,14.4878333 10.5755,14.2045 C10.6265,14.0231667 10.7058333,13.856 10.8135,13.703 C10.9211667,13.55 11.0500833,13.4168333 11.20025,13.3035 C11.3504167,13.1901667 11.5204167,13.1009167 11.71025,13.03575 C11.9000833,12.9705833 12.1083333,12.938 12.335,12.938 C12.8506667,12.938 13.2501667,13.0810833 13.5335,13.36725 C13.8168333,13.6534167 13.9585,14.0713333 13.9585,14.621 C13.9585,14.9326667 13.9188333,15.2301667 13.8395,15.5135 C13.7601667,15.7968333 13.6411667,16.0759167 13.4825,16.35075 C13.3238333,16.6255833 13.1255,16.9060833 12.8875,17.19225 C12.6495,17.4784167 12.3746667,17.7773333 12.063,18.089 L12.063,18.089 L8.408,21.7525 C8.26066667,21.8941667 8.15583333,22.0514167 8.0935,22.22425 C8.03116667,22.3970833 8,22.5571667 8,22.7045 L8,22.7045 L8,23.4695 L16.551,23.4695 Z M22.1185,23.6055 C22.6851667,23.6055 23.22775,23.52475 23.74625,23.36325 C24.26475,23.20175 24.7195,22.9595 25.1105,22.6365 C25.5015,22.3135 25.8131667,21.9125833 26.0455,21.43375 C26.2778333,20.9549167 26.394,20.401 26.394,19.772 C26.394,18.3496667 25.6856667,17.4061667 24.269,16.9415 C24.575,16.8395 24.8455833,16.712 25.08075,16.559 C25.3159167,16.406 25.51425,16.219 25.67575,15.998 C25.83725,15.777 25.9590833,15.51775 26.04125,15.22025 C26.1234167,14.92275 26.1645,14.5785 26.1645,14.1875 C26.1645,13.7455 26.0780833,13.3318333 25.90525,12.9465 C25.7324167,12.5611667 25.4845,12.224 25.1615,11.935 C24.8385,11.646 24.44325,11.4179167 23.97575,11.25075 C23.50825,11.0835833 22.9798333,11 22.3905,11 C21.8351667,11 21.3180833,11.0750833 20.83925,11.22525 C20.3604167,11.3754167 19.934,11.6006667 19.56,11.901 C19.186,12.2013333 18.8743333,12.5781667 18.625,13.0315 C18.3756667,13.4848333 18.2056667,14.0118333 18.115,14.6125 L18.115,14.6125 L19.3475,14.8335 C19.6705,14.8845 19.917,14.86325 20.087,14.76975 C20.257,14.67625 20.3958333,14.4878333 20.5035,14.2045 C20.5545,14.0231667 20.6338333,13.856 20.7415,13.703 C20.8491667,13.55 20.9780833,13.4168333 21.12825,13.3035 C21.2784167,13.1901667 21.4484167,13.1009167 21.63825,13.03575 C21.8280833,12.9705833 22.0363333,12.938 22.263,12.938 C22.7786667,12.938 23.17675,13.0796667 23.45725,13.363 C23.73775,13.6463333 23.878,14.0571667 23.878,14.5955 C23.878,14.8505 23.8425833,15.0856667 23.77175,15.301 C23.7009167,15.5163333 23.572,15.7005 23.385,15.8535 C23.198,16.0065 22.9401667,16.1255 22.6115,16.2105 C22.2828333,16.2955 21.8606667,16.338 21.345,16.338 L21.345,16.338 L21.345,17.987 C21.9626667,17.987 22.4514167,18.0309167 22.81125,18.11875 C23.1710833,18.2065833 23.4430833,18.33125 23.62725,18.49275 C23.8114167,18.65425 23.929,18.84975 23.98,19.07925 C24.031,19.30875 24.0565,19.5651667 24.0565,19.8485 C24.0565,20.0638333 24.0154167,20.2805833 23.93325,20.49875 C23.8510833,20.7169167 23.7278333,20.9124167 23.5635,21.08525 C23.3991667,21.2580833 23.1951667,21.3983333 22.9515,21.506 C22.7078333,21.6136667 22.4216667,21.6675 22.093,21.6675 C21.8323333,21.6675 21.6014167,21.6306667 21.40025,21.557 C21.1990833,21.4833333 21.0191667,21.3799167 20.8605,21.24675 C20.7018333,21.1135833 20.55875,20.9563333 20.43125,20.775 C20.30375,20.5936667 20.1833333,20.3953333 20.07,20.18 C19.968,19.9816667 19.7994167,19.857 19.56425,19.806 C19.3290833,19.755 19.0755,19.7861667 18.8035,19.8995 L18.8035,19.8995 L17.7665,20.3245 C17.9535,20.8741667 18.1716667,21.3544167 18.421,21.76525 C18.6703333,22.1760833 18.96925,22.5175 19.31775,22.7895 C19.66625,23.0615 20.07,23.2655 20.529,23.4015 C20.988,23.5375 21.5178333,23.6055 22.1185,23.6055 Z" id="23" fill="#FFFFFF" fill-rule="nonzero"></path>
    </g>
</svg>