<?xml version="1.0" encoding="UTF-8"?>
<svg width="34px" height="34px" viewBox="0 0 34 34" version="1.1" xmlns="http://www.w3.org/2000/svg" xmlns:xlink="http://www.w3.org/1999/xlink">
    <title>ic/grade bubble/25</title>
    <g id="ic/grade-bubble/25" stroke="none" stroke-width="1" fill="none" fill-rule="evenodd">
        <circle id="Oval" fill="#B02424" cx="17.5" cy="17.5" r="16.5"></circle>
        <path d="M17,0 C26.3888407,0 34,7.61115925 34,17 C34,26.3888407 26.3888407,34 17,34 C7.61115925,34 0,26.3888407 0,17 C0,7.61115925 7.61115925,0 17,0 Z M17,2 C8.71572875,2 2,8.71572875 2,17 C2,25.2842712 8.71572875,32 17,32 C25.2842712,32 32,25.2842712 32,17 C32,8.71572875 25.2842712,2 17,2 Z" id="Oval" fill="#FFFFFF" fill-rule="nonzero"></path>
        <path d="M16.551,23.4695 L16.551,22.0925 C16.551,21.8601667 16.47875,21.6731667 16.33425,21.5315 C16.18975,21.3898333 15.99,21.319 15.735,21.319 L15.735,21.319 L12.964,21.319 C12.7146667,21.319 12.4483333,21.3430833 12.165,21.39125 C11.8816667,21.4394167 11.5955,21.506 11.3065,21.591 L11.3065,21.591 L13.9245,18.9135 C14.2531667,18.5791667 14.5648333,18.2476667 14.8595,17.919 C15.1541667,17.5903333 15.4134167,17.25175 15.63725,16.90325 C15.8610833,16.55475 16.0381667,16.1878333 16.1685,15.8025 C16.2988333,15.4171667 16.364,14.9978333 16.364,14.5445 C16.364,14.0175 16.2705,13.5358333 16.0835,13.0995 C15.8965,12.6631667 15.633,12.2905833 15.293,11.98175 C14.953,11.6729167 14.5435833,11.4320833 14.06475,11.25925 C13.5859167,11.0864167 13.0546667,11 12.471,11 C11.9156667,11 11.3971667,11.0750833 10.9155,11.22525 C10.4338333,11.3754167 10.006,11.6006667 9.632,11.901 C9.258,12.2013333 8.94633333,12.5781667 8.697,13.0315 C8.44766667,13.4848333 8.27766667,14.0118333 8.187,14.6125 L8.187,14.6125 L9.428,14.8335 C9.74533333,14.8845 9.99041667,14.86325 10.16325,14.76975 C10.3360833,14.67625 10.4735,14.4878333 10.5755,14.2045 C10.6265,14.0231667 10.7058333,13.856 10.8135,13.703 C10.9211667,13.55 11.0500833,13.4168333 11.20025,13.3035 C11.3504167,13.1901667 11.5204167,13.1009167 11.71025,13.03575 C11.9000833,12.9705833 12.1083333,12.938 12.335,12.938 C12.8506667,12.938 13.2501667,13.0810833 13.5335,13.36725 C13.8168333,13.6534167 13.9585,14.0713333 13.9585,14.621 C13.9585,14.9326667 13.9188333,15.2301667 13.8395,15.5135 C13.7601667,15.7968333 13.6411667,16.0759167 13.4825,16.35075 C13.3238333,16.6255833 13.1255,16.9060833 12.8875,17.19225 C12.6495,17.4784167 12.3746667,17.7773333 12.063,18.089 L12.063,18.089 L8.408,21.7525 C8.26066667,21.8941667 8.15583333,22.0514167 8.0935,22.22425 C8.03116667,22.3970833 8,22.5571667 8,22.7045 L8,22.7045 L8,23.4695 L16.551,23.4695 Z M21.617,23.6055 C22.2913333,23.6055 22.91325,23.4978333 23.48275,23.2825 C24.05225,23.0671667 24.5424167,22.7654167 24.95325,22.37725 C25.3640833,21.9890833 25.6856667,21.5244167 25.918,20.98325 C26.1503333,20.4420833 26.2665,19.8428333 26.2665,19.1855 C26.2665,18.6585 26.1815,18.1655 26.0115,17.7065 C25.8415,17.2475 25.5879167,16.848 25.25075,16.508 C24.9135833,16.168 24.4970833,15.90025 24.00125,15.70475 C23.5054167,15.50925 22.9345,15.4115 22.2885,15.4115 C22.0675,15.4115 21.8394167,15.4228333 21.60425,15.4455 C21.3690833,15.4681667 21.124,15.505 20.869,15.556 L20.869,15.556 L21.2685,13.227 L24.456,13.227 C24.7053333,13.227 24.9164167,13.2000833 25.08925,13.14625 C25.2620833,13.0924167 25.40375,13.0159167 25.51425,12.91675 C25.62475,12.8175833 25.7040833,12.7014167 25.75225,12.56825 C25.8004167,12.4350833 25.8245,12.2863333 25.8245,12.122 L25.8245,12.122 L25.8245,11.136 L19.6365,11.136 L18.5995,17.205 L20.053,17.613 C20.631,17.3976667 21.2061667,17.29 21.7785,17.29 C22.4755,17.29 23.00675,17.46425 23.37225,17.81275 C23.73775,18.16125 23.9205,18.6556667 23.9205,19.296 C23.9205,19.6303333 23.8765833,19.9434167 23.78875,20.23525 C23.7009167,20.5270833 23.56775,20.77925 23.38925,20.99175 C23.21075,21.20425 22.9855,21.3714167 22.7135,21.49325 C22.4415,21.6150833 22.1213333,21.676 21.753,21.676 C21.396,21.676 21.0928333,21.6306667 20.8435,21.54 C20.5941667,21.4493333 20.376,21.34875 20.189,21.23825 C20.002,21.12775 19.8348333,21.0271667 19.6875,20.9365 C19.5401667,20.8458333 19.39,20.8005 19.237,20.8005 C18.9933333,20.8005 18.795,20.9053333 18.642,21.115 L18.642,21.115 L17.9195,22.101 C18.1291667,22.2993333 18.3671667,22.4891667 18.6335,22.6705 C18.8998333,22.8518333 19.1874167,23.0119167 19.49625,23.15075 C19.8050833,23.2895833 20.138,23.4000833 20.495,23.48225 C20.852,23.5644167 21.226,23.6055 21.617,23.6055 Z" id="25" fill="#FFFFFF" fill-rule="nonzero"></path>
    </g>
</svg>