<?xml version="1.0" encoding="UTF-8"?>
<svg width="34px" height="34px" viewBox="0 0 34 34" version="1.1" xmlns="http://www.w3.org/2000/svg" xmlns:xlink="http://www.w3.org/1999/xlink">
    <title>ic/grade bubble/26</title>
    <g id="ic/grade-bubble/26" stroke="none" stroke-width="1" fill="none" fill-rule="evenodd">
        <circle id="Oval" fill="#B02424" cx="17.5" cy="17.5" r="16.5"></circle>
        <path d="M17,0 C26.3888407,0 34,7.61115925 34,17 C34,26.3888407 26.3888407,34 17,34 C7.61115925,34 0,26.3888407 0,17 C0,7.61115925 7.61115925,0 17,0 Z M17,2 C8.71572875,2 2,8.71572875 2,17 C2,25.2842712 8.71572875,32 17,32 C25.2842712,32 32,25.2842712 32,17 C32,8.71572875 25.2842712,2 17,2 Z" id="Oval" fill="#FFFFFF" fill-rule="nonzero"></path>
        <path d="M16.551,23.4695 L16.551,22.0925 C16.551,21.8601667 16.47875,21.6731667 16.33425,21.5315 C16.18975,21.3898333 15.99,21.319 15.735,21.319 L15.735,21.319 L12.964,21.319 C12.7146667,21.319 12.4483333,21.3430833 12.165,21.39125 C11.8816667,21.4394167 11.5955,21.506 11.3065,21.591 L11.3065,21.591 L13.9245,18.9135 C14.2531667,18.5791667 14.5648333,18.2476667 14.8595,17.919 C15.1541667,17.5903333 15.4134167,17.25175 15.63725,16.90325 C15.8610833,16.55475 16.0381667,16.1878333 16.1685,15.8025 C16.2988333,15.4171667 16.364,14.9978333 16.364,14.5445 C16.364,14.0175 16.2705,13.5358333 16.0835,13.0995 C15.8965,12.6631667 15.633,12.2905833 15.293,11.98175 C14.953,11.6729167 14.5435833,11.4320833 14.06475,11.25925 C13.5859167,11.0864167 13.0546667,11 12.471,11 C11.9156667,11 11.3971667,11.0750833 10.9155,11.22525 C10.4338333,11.3754167 10.006,11.6006667 9.632,11.901 C9.258,12.2013333 8.94633333,12.5781667 8.697,13.0315 C8.44766667,13.4848333 8.27766667,14.0118333 8.187,14.6125 L8.187,14.6125 L9.428,14.8335 C9.74533333,14.8845 9.99041667,14.86325 10.16325,14.76975 C10.3360833,14.67625 10.4735,14.4878333 10.5755,14.2045 C10.6265,14.0231667 10.7058333,13.856 10.8135,13.703 C10.9211667,13.55 11.0500833,13.4168333 11.20025,13.3035 C11.3504167,13.1901667 11.5204167,13.1009167 11.71025,13.03575 C11.9000833,12.9705833 12.1083333,12.938 12.335,12.938 C12.8506667,12.938 13.2501667,13.0810833 13.5335,13.36725 C13.8168333,13.6534167 13.9585,14.0713333 13.9585,14.621 C13.9585,14.9326667 13.9188333,15.2301667 13.8395,15.5135 C13.7601667,15.7968333 13.6411667,16.0759167 13.4825,16.35075 C13.3238333,16.6255833 13.1255,16.9060833 12.8875,17.19225 C12.6495,17.4784167 12.3746667,17.7773333 12.063,18.089 L12.063,18.089 L8.408,21.7525 C8.26066667,21.8941667 8.15583333,22.0514167 8.0935,22.22425 C8.03116667,22.3970833 8,22.5571667 8,22.7045 L8,22.7045 L8,23.4695 L16.551,23.4695 Z M22.229,23.6055 C22.892,23.6055 23.4940833,23.495 24.03525,23.274 C24.5764167,23.053 25.0410833,22.7526667 25.42925,22.373 C25.8174167,21.9933333 26.11775,21.5485 26.33025,21.0385 C26.54275,20.5285 26.649,19.9873333 26.649,19.415 C26.649,18.7916667 26.5455833,18.2490833 26.33875,17.78725 C26.1319167,17.3254167 25.8585,16.9415 25.5185,16.6355 C25.1785,16.3295 24.7903333,16.1 24.354,15.947 C23.9176667,15.794 23.47,15.7175 23.011,15.7175 C22.722,15.7175 22.4528333,15.743 22.2035,15.794 C21.9541667,15.845 21.7218333,15.9186667 21.5065,16.015 L21.5065,16.015 L21.8805,15.5645 L25.5355,11.136 L23.453,11.136 C23.1696667,11.136 22.9175,11.1898333 22.6965,11.2975 C22.4755,11.4051667 22.3083333,11.5326667 22.195,11.68 L22.195,11.68 L19.3305,15.539 C18.8488333,16.185 18.4904167,16.814 18.25525,17.426 C18.0200833,18.038 17.9025,18.6415 17.9025,19.2365 C17.9025,19.8825 18.0016667,20.47325 18.2,21.00875 C18.3983333,21.54425 18.6845,22.0046667 19.0585,22.39 C19.4325,22.7753333 19.8858333,23.07425 20.4185,23.28675 C20.9511667,23.49925 21.5546667,23.6055 22.229,23.6055 Z M22.1865,21.7185 C21.8465,21.7185 21.5504167,21.6675 21.29825,21.5655 C21.0460833,21.4635 20.835,21.319 20.665,21.132 C20.495,20.945 20.3675,20.71975 20.2825,20.45625 C20.1975,20.19275 20.155,19.8995 20.155,19.5765 C20.155,19.2648333 20.2045833,18.9786667 20.30375,18.718 C20.4029167,18.4573333 20.54175,18.2320833 20.72025,18.04225 C20.89875,17.8524167 21.1126667,17.7050833 21.362,17.60025 C21.6113333,17.4954167 21.8861667,17.443 22.1865,17.443 C22.5038333,17.443 22.7928333,17.4911667 23.0535,17.5875 C23.3141667,17.6838333 23.538,17.8240833 23.725,18.00825 C23.912,18.1924167 24.0565,18.4176667 24.1585,18.684 C24.2605,18.9503333 24.3115,19.2506667 24.3115,19.585 C24.3115,19.891 24.2576667,20.1729167 24.15,20.43075 C24.0423333,20.6885833 23.895,20.9138333 23.708,21.1065 C23.521,21.2991667 23.2971667,21.4493333 23.0365,21.557 C22.7758333,21.6646667 22.4925,21.7185 22.1865,21.7185 Z" id="26" fill="#FFFFFF" fill-rule="nonzero"></path>
    </g>
</svg>