<?xml version="1.0" encoding="UTF-8"?>
<svg width="34px" height="34px" viewBox="0 0 34 34" version="1.1" xmlns="http://www.w3.org/2000/svg" xmlns:xlink="http://www.w3.org/1999/xlink">
    <title>ic/grade bubble/28</title>
    <g id="ic/grade-bubble/28" stroke="none" stroke-width="1" fill="none" fill-rule="evenodd">
        <circle id="Oval" fill="#B02424" cx="17.5" cy="17.5" r="16.5"></circle>
        <path d="M17,0 C26.3888407,0 34,7.61115925 34,17 C34,26.3888407 26.3888407,34 17,34 C7.61115925,34 0,26.3888407 0,17 C0,7.61115925 7.61115925,0 17,0 Z M17,2 C8.71572875,2 2,8.71572875 2,17 C2,25.2842712 8.71572875,32 17,32 C25.2842712,32 32,25.2842712 32,17 C32,8.71572875 25.2842712,2 17,2 Z" id="Oval" fill="#FFFFFF" fill-rule="nonzero"></path>
        <path d="M16.551,23.4695 L16.551,22.0925 C16.551,21.8601667 16.47875,21.6731667 16.33425,21.5315 C16.18975,21.3898333 15.99,21.319 15.735,21.319 L15.735,21.319 L12.964,21.319 C12.7146667,21.319 12.4483333,21.3430833 12.165,21.39125 C11.8816667,21.4394167 11.5955,21.506 11.3065,21.591 L11.3065,21.591 L13.9245,18.9135 C14.2531667,18.5791667 14.5648333,18.2476667 14.8595,17.919 C15.1541667,17.5903333 15.4134167,17.25175 15.63725,16.90325 C15.8610833,16.55475 16.0381667,16.1878333 16.1685,15.8025 C16.2988333,15.4171667 16.364,14.9978333 16.364,14.5445 C16.364,14.0175 16.2705,13.5358333 16.0835,13.0995 C15.8965,12.6631667 15.633,12.2905833 15.293,11.98175 C14.953,11.6729167 14.5435833,11.4320833 14.06475,11.25925 C13.5859167,11.0864167 13.0546667,11 12.471,11 C11.9156667,11 11.3971667,11.0750833 10.9155,11.22525 C10.4338333,11.3754167 10.006,11.6006667 9.632,11.901 C9.258,12.2013333 8.94633333,12.5781667 8.697,13.0315 C8.44766667,13.4848333 8.27766667,14.0118333 8.187,14.6125 L8.187,14.6125 L9.428,14.8335 C9.74533333,14.8845 9.99041667,14.86325 10.16325,14.76975 C10.3360833,14.67625 10.4735,14.4878333 10.5755,14.2045 C10.6265,14.0231667 10.7058333,13.856 10.8135,13.703 C10.9211667,13.55 11.0500833,13.4168333 11.20025,13.3035 C11.3504167,13.1901667 11.5204167,13.1009167 11.71025,13.03575 C11.9000833,12.9705833 12.1083333,12.938 12.335,12.938 C12.8506667,12.938 13.2501667,13.0810833 13.5335,13.36725 C13.8168333,13.6534167 13.9585,14.0713333 13.9585,14.621 C13.9585,14.9326667 13.9188333,15.2301667 13.8395,15.5135 C13.7601667,15.7968333 13.6411667,16.0759167 13.4825,16.35075 C13.3238333,16.6255833 13.1255,16.9060833 12.8875,17.19225 C12.6495,17.4784167 12.3746667,17.7773333 12.063,18.089 L12.063,18.089 L8.408,21.7525 C8.26066667,21.8941667 8.15583333,22.0514167 8.0935,22.22425 C8.03116667,22.3970833 8,22.5571667 8,22.7045 L8,22.7045 L8,23.4695 L16.551,23.4695 Z M22.2035,23.6055 C22.8495,23.6055 23.4388333,23.5190833 23.9715,23.34625 C24.5041667,23.1734167 24.9603333,22.92975 25.34,22.61525 C25.7196667,22.30075 26.0143333,21.9196667 26.224,21.472 C26.4336667,21.0243333 26.5385,20.5256667 26.5385,19.976 C26.5385,19.2733333 26.3685,18.67125 26.0285,18.16975 C25.6885,17.66825 25.1445,17.2928333 24.3965,17.0435 C24.9801667,16.7885 25.4150833,16.4315 25.70125,15.9725 C25.9874167,15.5135 26.1305,14.9666667 26.1305,14.332 C26.1305,13.856 26.0341667,13.4154167 25.8415,13.01025 C25.6488333,12.6050833 25.37825,12.25375 25.02975,11.95625 C24.68125,11.65875 24.2661667,11.425 23.7845,11.255 C23.3028333,11.085 22.7758333,11 22.2035,11 C21.6311667,11 21.1041667,11.085 20.6225,11.255 C20.1408333,11.425 19.72575,11.65875 19.37725,11.95625 C19.02875,12.25375 18.7581667,12.6050833 18.5655,13.01025 C18.3728333,13.4154167 18.2765,13.856 18.2765,14.332 C18.2765,14.9666667 18.4195833,15.5135 18.70575,15.9725 C18.9919167,16.4315 19.4268333,16.7885 20.0105,17.0435 C19.2625,17.2928333 18.7185,17.66825 18.3785,18.16975 C18.0385,18.67125 17.8685,19.2733333 17.8685,19.976 C17.8685,20.5256667 17.9733333,21.0243333 18.183,21.472 C18.3926667,21.9196667 18.6873333,22.30075 19.067,22.61525 C19.4466667,22.92975 19.9028333,23.1734167 20.4355,23.34625 C20.9681667,23.5190833 21.5575,23.6055 22.2035,23.6055 Z M22.2035,16.1935 C21.8805,16.1935 21.6141667,16.1425 21.4045,16.0405 C21.1948333,15.9385 21.0276667,15.8025 20.903,15.6325 C20.7783333,15.4625 20.6905,15.2684167 20.6395,15.05025 C20.5885,14.8320833 20.563,14.6068333 20.563,14.3745 C20.563,14.1591667 20.5941667,13.9523333 20.6565,13.754 C20.7188333,13.5556667 20.8165833,13.3814167 20.94975,13.23125 C21.0829167,13.0810833 21.2529167,12.9606667 21.45975,12.87 C21.6665833,12.7793333 21.9145,12.734 22.2035,12.734 C22.4925,12.734 22.7404167,12.7793333 22.94725,12.87 C23.1540833,12.9606667 23.3240833,13.0810833 23.45725,13.23125 C23.5904167,13.3814167 23.6881667,13.5556667 23.7505,13.754 C23.8128333,13.9523333 23.844,14.1591667 23.844,14.3745 C23.844,14.6068333 23.8185,14.8320833 23.7675,15.05025 C23.7165,15.2684167 23.6286667,15.4625 23.504,15.6325 C23.3793333,15.8025 23.2121667,15.9385 23.0025,16.0405 C22.7928333,16.1425 22.5265,16.1935 22.2035,16.1935 Z M22.2035,21.812 C21.8805,21.812 21.5985833,21.7638333 21.35775,21.6675 C21.1169167,21.5711667 20.9171667,21.4394167 20.7585,21.27225 C20.5998333,21.1050833 20.4808333,20.90675 20.4015,20.67725 C20.3221667,20.44775 20.2825,20.1998333 20.2825,19.9335 C20.2825,19.3215 20.43975,18.8469167 20.75425,18.50975 C21.06875,18.1725833 21.5518333,18.004 22.2035,18.004 C22.8551667,18.004 23.33825,18.1725833 23.65275,18.50975 C23.96725,18.8469167 24.1245,19.3215 24.1245,19.9335 C24.1245,20.1998333 24.0848333,20.44775 24.0055,20.67725 C23.9261667,20.90675 23.8071667,21.1050833 23.6485,21.27225 C23.4898333,21.4394167 23.2900833,21.5711667 23.04925,21.6675 C22.8084167,21.7638333 22.5265,21.812 22.2035,21.812 Z" id="28" fill="#FFFFFF" fill-rule="nonzero"></path>
    </g>
</svg>