<?xml version="1.0" encoding="UTF-8"?>
<svg width="34px" height="34px" viewBox="0 0 34 34" version="1.1" xmlns="http://www.w3.org/2000/svg" xmlns:xlink="http://www.w3.org/1999/xlink">
    <title>ic/grade bubble/29</title>
    <g id="ic/grade-bubble/29" stroke="none" stroke-width="1" fill="none" fill-rule="evenodd">
        <circle id="Oval" fill="#B02424" cx="17.5" cy="17.5" r="16.5"></circle>
        <path d="M17,0 C26.3888407,0 34,7.61115925 34,17 C34,26.3888407 26.3888407,34 17,34 C7.61115925,34 0,26.3888407 0,17 C0,7.61115925 7.61115925,0 17,0 Z M17,2 C8.71572875,2 2,8.71572875 2,17 C2,25.2842712 8.71572875,32 17,32 C25.2842712,32 32,25.2842712 32,17 C32,8.71572875 25.2842712,2 17,2 Z" id="Oval" fill="#FFFFFF" fill-rule="nonzero"></path>
        <path d="M16.551,23.4695 L16.551,22.0925 C16.551,21.8601667 16.47875,21.6731667 16.33425,21.5315 C16.18975,21.3898333 15.99,21.319 15.735,21.319 L15.735,21.319 L12.964,21.319 C12.7146667,21.319 12.4483333,21.3430833 12.165,21.39125 C11.8816667,21.4394167 11.5955,21.506 11.3065,21.591 L11.3065,21.591 L13.9245,18.9135 C14.2531667,18.5791667 14.5648333,18.2476667 14.8595,17.919 C15.1541667,17.5903333 15.4134167,17.25175 15.63725,16.90325 C15.8610833,16.55475 16.0381667,16.1878333 16.1685,15.8025 C16.2988333,15.4171667 16.364,14.9978333 16.364,14.5445 C16.364,14.0175 16.2705,13.5358333 16.0835,13.0995 C15.8965,12.6631667 15.633,12.2905833 15.293,11.98175 C14.953,11.6729167 14.5435833,11.4320833 14.06475,11.25925 C13.5859167,11.0864167 13.0546667,11 12.471,11 C11.9156667,11 11.3971667,11.0750833 10.9155,11.22525 C10.4338333,11.3754167 10.006,11.6006667 9.632,11.901 C9.258,12.2013333 8.94633333,12.5781667 8.697,13.0315 C8.44766667,13.4848333 8.27766667,14.0118333 8.187,14.6125 L8.187,14.6125 L9.428,14.8335 C9.74533333,14.8845 9.99041667,14.86325 10.16325,14.76975 C10.3360833,14.67625 10.4735,14.4878333 10.5755,14.2045 C10.6265,14.0231667 10.7058333,13.856 10.8135,13.703 C10.9211667,13.55 11.0500833,13.4168333 11.20025,13.3035 C11.3504167,13.1901667 11.5204167,13.1009167 11.71025,13.03575 C11.9000833,12.9705833 12.1083333,12.938 12.335,12.938 C12.8506667,12.938 13.2501667,13.0810833 13.5335,13.36725 C13.8168333,13.6534167 13.9585,14.0713333 13.9585,14.621 C13.9585,14.9326667 13.9188333,15.2301667 13.8395,15.5135 C13.7601667,15.7968333 13.6411667,16.0759167 13.4825,16.35075 C13.3238333,16.6255833 13.1255,16.9060833 12.8875,17.19225 C12.6495,17.4784167 12.3746667,17.7773333 12.063,18.089 L12.063,18.089 L8.408,21.7525 C8.26066667,21.8941667 8.15583333,22.0514167 8.0935,22.22425 C8.03116667,22.3970833 8,22.5571667 8,22.7045 L8,22.7045 L8,23.4695 L16.551,23.4695 Z M21.0135,23.4695 C21.2855,23.4695 21.52775,23.4185 21.74025,23.3165 C21.95275,23.2145 22.1156667,23.0898333 22.229,22.9425 L22.229,22.9425 L24.9745,19.024 C25.1841667,18.735 25.3725833,18.4403333 25.53975,18.14 C25.7069167,17.8396667 25.85,17.5308333 25.969,17.2135 C26.088,16.8961667 26.1786667,16.5618333 26.241,16.2105 C26.3033333,15.8591667 26.3345,15.488 26.3345,15.097 C26.3345,14.4963333 26.2381667,13.94525 26.0455,13.44375 C25.8528333,12.94225 25.578,12.5101667 25.221,12.1475 C24.864,11.7848333 24.4276667,11.5029167 23.912,11.30175 C23.3963333,11.1005833 22.8155,11 22.1695,11 C21.5291667,11 20.9469167,11.1076667 20.42275,11.323 C19.8985833,11.5383333 19.4495,11.82875 19.0755,12.19425 C18.7015,12.55975 18.4125,12.9875833 18.2085,13.47775 C18.0045,13.9679167 17.9025,14.4878333 17.9025,15.0375 C17.9025,15.6381667 18.0016667,16.1609167 18.2,16.60575 C18.3983333,17.0505833 18.659,17.4203333 18.982,17.715 C19.305,18.0096667 19.6690833,18.2306667 20.07425,18.378 C20.4794167,18.5253333 20.8888333,18.599 21.3025,18.599 C21.6595,18.599 21.9980833,18.5579167 22.31825,18.47575 C22.6384167,18.3935833 22.9345,18.2731667 23.2065,18.1145 L23.2065,18.1145 L22.9685,18.4205 C22.8891667,18.5225 22.807,18.6273333 22.722,18.735 L22.722,18.735 L18.8545,23.4695 L21.0135,23.4695 Z M22.1355,16.865 C21.5178333,16.865 21.0489167,16.695 20.72875,16.355 C20.4085833,16.015 20.2485,15.5191667 20.2485,14.8675 C20.2485,14.5841667 20.2924167,14.3206667 20.38025,14.077 C20.4680833,13.8333333 20.5941667,13.62225 20.7585,13.44375 C20.9228333,13.26525 21.1211667,13.1264167 21.3535,13.02725 C21.5858333,12.9280833 21.8493333,12.8785 22.144,12.8785 C22.433,12.8785 22.6965,12.9224167 22.9345,13.01025 C23.1725,13.0980833 23.3779167,13.227 23.55075,13.397 C23.7235833,13.567 23.8581667,13.77525 23.9545,14.02175 C24.0508333,14.26825 24.099,14.553 24.099,14.876 C24.099,15.165 24.0550833,15.4313333 23.96725,15.675 C23.8794167,15.9186667 23.7533333,16.1283333 23.589,16.304 C23.4246667,16.4796667 23.21925,16.6170833 22.97275,16.71625 C22.72625,16.8154167 22.4471667,16.865 22.1355,16.865 Z" id="29" fill="#FFFFFF" fill-rule="nonzero"></path>
    </g>
</svg>