<?xml version="1.0" encoding="UTF-8"?>
<svg width="34px" height="34px" viewBox="0 0 34 34" version="1.1" xmlns="http://www.w3.org/2000/svg" xmlns:xlink="http://www.w3.org/1999/xlink">
    <title>ic/grade bubble/3</title>
    <g id="ic/grade-bubble/3" stroke="none" stroke-width="1" fill="none" fill-rule="evenodd">
        <circle id="Oval" fill="#B02424" cx="17.5" cy="17.5" r="16.5"></circle>
        <path d="M17,0 C26.3888407,0 34,7.61115925 34,17 C34,26.3888407 26.3888407,34 17,34 C7.61115925,34 0,26.3888407 0,17 C0,7.61115925 7.61115925,0 17,0 Z M17,2 C8.71572875,2 2,8.71572875 2,17 C2,25.2842712 8.71572875,32 17,32 C25.2842712,32 32,25.2842712 32,17 C32,8.71572875 25.2842712,2 17,2 Z" id="Oval" fill="#FFFFFF" fill-rule="nonzero"></path>
        <path d="M17.352,23.6055 C17.9186667,23.6055 18.46125,23.52475 18.97975,23.36325 C19.49825,23.20175 19.953,22.9595 20.344,22.6365 C20.735,22.3135 21.0466667,21.9125833 21.279,21.43375 C21.5113333,20.9549167 21.6275,20.401 21.6275,19.772 C21.6275,18.3496667 20.9191667,17.4061667 19.5025,16.9415 C19.8085,16.8395 20.0790833,16.712 20.31425,16.559 C20.5494167,16.406 20.74775,16.219 20.90925,15.998 C21.07075,15.777 21.1925833,15.51775 21.27475,15.22025 C21.3569167,14.92275 21.398,14.5785 21.398,14.1875 C21.398,13.7455 21.3115833,13.3318333 21.13875,12.9465 C20.9659167,12.5611667 20.718,12.224 20.395,11.935 C20.072,11.646 19.67675,11.4179167 19.20925,11.25075 C18.74175,11.0835833 18.2133333,11 17.624,11 C17.0686667,11 16.5515833,11.0750833 16.07275,11.22525 C15.5939167,11.3754167 15.1675,11.6006667 14.7935,11.901 C14.4195,12.2013333 14.1078333,12.5781667 13.8585,13.0315 C13.6091667,13.4848333 13.4391667,14.0118333 13.3485,14.6125 L13.3485,14.6125 L14.581,14.8335 C14.904,14.8845 15.1505,14.86325 15.3205,14.76975 C15.4905,14.67625 15.6293333,14.4878333 15.737,14.2045 C15.788,14.0231667 15.8673333,13.856 15.975,13.703 C16.0826667,13.55 16.2115833,13.4168333 16.36175,13.3035 C16.5119167,13.1901667 16.6819167,13.1009167 16.87175,13.03575 C17.0615833,12.9705833 17.2698333,12.938 17.4965,12.938 C18.0121667,12.938 18.41025,13.0796667 18.69075,13.363 C18.97125,13.6463333 19.1115,14.0571667 19.1115,14.5955 C19.1115,14.8505 19.0760833,15.0856667 19.00525,15.301 C18.9344167,15.5163333 18.8055,15.7005 18.6185,15.8535 C18.4315,16.0065 18.1736667,16.1255 17.845,16.2105 C17.5163333,16.2955 17.0941667,16.338 16.5785,16.338 L16.5785,16.338 L16.5785,17.987 C17.1961667,17.987 17.6849167,18.0309167 18.04475,18.11875 C18.4045833,18.2065833 18.6765833,18.33125 18.86075,18.49275 C19.0449167,18.65425 19.1625,18.84975 19.2135,19.07925 C19.2645,19.30875 19.29,19.5651667 19.29,19.8485 C19.29,20.0638333 19.2489167,20.2805833 19.16675,20.49875 C19.0845833,20.7169167 18.9613333,20.9124167 18.797,21.08525 C18.6326667,21.2580833 18.4286667,21.3983333 18.185,21.506 C17.9413333,21.6136667 17.6551667,21.6675 17.3265,21.6675 C17.0658333,21.6675 16.8349167,21.6306667 16.63375,21.557 C16.4325833,21.4833333 16.2526667,21.3799167 16.094,21.24675 C15.9353333,21.1135833 15.79225,20.9563333 15.66475,20.775 C15.53725,20.5936667 15.4168333,20.3953333 15.3035,20.18 C15.2015,19.9816667 15.0329167,19.857 14.79775,19.806 C14.5625833,19.755 14.309,19.7861667 14.037,19.8995 L14.037,19.8995 L13,20.3245 C13.187,20.8741667 13.4051667,21.3544167 13.6545,21.76525 C13.9038333,22.1760833 14.20275,22.5175 14.55125,22.7895 C14.89975,23.0615 15.3035,23.2655 15.7625,23.4015 C16.2215,23.5375 16.7513333,23.6055 17.352,23.6055 Z" id="3" fill="#FFFFFF" fill-rule="nonzero"></path>
    </g>
</svg>