<?xml version="1.0" encoding="UTF-8"?>
<svg width="34px" height="34px" viewBox="0 0 34 34" version="1.1" xmlns="http://www.w3.org/2000/svg" xmlns:xlink="http://www.w3.org/1999/xlink">
    <title>ic/grade bubble/30</title>
    <g id="ic/grade-bubble/30" stroke="none" stroke-width="1" fill="none" fill-rule="evenodd">
        <circle id="Oval" fill="#C14923" cx="17.5" cy="17.5" r="16.5"></circle>
        <path d="M17,0 C26.3888407,0 34,7.61115925 34,17 C34,26.3888407 26.3888407,34 17,34 C7.61115925,34 0,26.3888407 0,17 C0,7.61115925 7.61115925,0 17,0 Z M17,2 C8.71572875,2 2,8.71572875 2,17 C2,25.2842712 8.71572875,32 17,32 C25.2842712,32 32,25.2842712 32,17 C32,8.71572875 25.2842712,2 17,2 Z" id="Oval" fill="#FFFFFF" fill-rule="nonzero"></path>
        <path d="M12.352,23.6055 C12.9186667,23.6055 13.46125,23.52475 13.97975,23.36325 C14.49825,23.20175 14.953,22.9595 15.344,22.6365 C15.735,22.3135 16.0466667,21.9125833 16.279,21.43375 C16.5113333,20.9549167 16.6275,20.401 16.6275,19.772 C16.6275,18.3496667 15.9191667,17.4061667 14.5025,16.9415 C14.8085,16.8395 15.0790833,16.712 15.31425,16.559 C15.5494167,16.406 15.74775,16.219 15.90925,15.998 C16.07075,15.777 16.1925833,15.51775 16.27475,15.22025 C16.3569167,14.92275 16.398,14.5785 16.398,14.1875 C16.398,13.7455 16.3115833,13.3318333 16.13875,12.9465 C15.9659167,12.5611667 15.718,12.224 15.395,11.935 C15.072,11.646 14.67675,11.4179167 14.20925,11.25075 C13.74175,11.0835833 13.2133333,11 12.624,11 C12.0686667,11 11.5515833,11.0750833 11.07275,11.22525 C10.5939167,11.3754167 10.1675,11.6006667 9.7935,11.901 C9.4195,12.2013333 9.10783333,12.5781667 8.8585,13.0315 C8.60916667,13.4848333 8.43916667,14.0118333 8.3485,14.6125 L8.3485,14.6125 L9.581,14.8335 C9.904,14.8845 10.1505,14.86325 10.3205,14.76975 C10.4905,14.67625 10.6293333,14.4878333 10.737,14.2045 C10.788,14.0231667 10.8673333,13.856 10.975,13.703 C11.0826667,13.55 11.2115833,13.4168333 11.36175,13.3035 C11.5119167,13.1901667 11.6819167,13.1009167 11.87175,13.03575 C12.0615833,12.9705833 12.2698333,12.938 12.4965,12.938 C13.0121667,12.938 13.41025,13.0796667 13.69075,13.363 C13.97125,13.6463333 14.1115,14.0571667 14.1115,14.5955 C14.1115,14.8505 14.0760833,15.0856667 14.00525,15.301 C13.9344167,15.5163333 13.8055,15.7005 13.6185,15.8535 C13.4315,16.0065 13.1736667,16.1255 12.845,16.2105 C12.5163333,16.2955 12.0941667,16.338 11.5785,16.338 L11.5785,16.338 L11.5785,17.987 C12.1961667,17.987 12.6849167,18.0309167 13.04475,18.11875 C13.4045833,18.2065833 13.6765833,18.33125 13.86075,18.49275 C14.0449167,18.65425 14.1625,18.84975 14.2135,19.07925 C14.2645,19.30875 14.29,19.5651667 14.29,19.8485 C14.29,20.0638333 14.2489167,20.2805833 14.16675,20.49875 C14.0845833,20.7169167 13.9613333,20.9124167 13.797,21.08525 C13.6326667,21.2580833 13.4286667,21.3983333 13.185,21.506 C12.9413333,21.6136667 12.6551667,21.6675 12.3265,21.6675 C12.0658333,21.6675 11.8349167,21.6306667 11.63375,21.557 C11.4325833,21.4833333 11.2526667,21.3799167 11.094,21.24675 C10.9353333,21.1135833 10.79225,20.9563333 10.66475,20.775 C10.53725,20.5936667 10.4168333,20.3953333 10.3035,20.18 C10.2015,19.9816667 10.0329167,19.857 9.79775,19.806 C9.56258333,19.755 9.309,19.7861667 9.037,19.8995 L9.037,19.8995 L8,20.3245 C8.187,20.8741667 8.40516667,21.3544167 8.6545,21.76525 C8.90383333,22.1760833 9.20275,22.5175 9.55125,22.7895 C9.89975,23.0615 10.3035,23.2655 10.7625,23.4015 C11.2215,23.5375 11.7513333,23.6055 12.352,23.6055 Z M22.28,23.6055 C22.926,23.6055 23.5280833,23.4794167 24.08625,23.22725 C24.6444167,22.9750833 25.1275,22.58975 25.5355,22.07125 C25.9435,21.55275 26.2636667,20.8968333 26.496,20.1035 C26.7283333,19.3101667 26.8445,18.3751667 26.8445,17.2985 C26.8445,16.2218333 26.7283333,15.28825 26.496,14.49775 C26.2636667,13.70725 25.9435,13.05275 25.5355,12.53425 C25.1275,12.01575 24.6444167,11.6304167 24.08625,11.37825 C23.5280833,11.1260833 22.926,11 22.28,11 C21.634,11 21.0333333,11.1260833 20.478,11.37825 C19.9226667,11.6304167 19.4438333,12.01575 19.0415,12.53425 C18.6391667,13.05275 18.32325,13.70725 18.09375,14.49775 C17.86425,15.28825 17.7495,16.2218333 17.7495,17.2985 C17.7495,18.3751667 17.86425,19.3101667 18.09375,20.1035 C18.32325,20.8968333 18.6391667,21.55275 19.0415,22.07125 C19.4438333,22.58975 19.9226667,22.9750833 20.478,23.22725 C21.0333333,23.4794167 21.634,23.6055 22.28,23.6055 Z M22.28,21.693 C22.008,21.693 21.7459167,21.6278333 21.49375,21.4975 C21.2415833,21.3671667 21.01775,21.1376667 20.82225,20.809 C20.62675,20.4803333 20.4695,20.0326667 20.3505,19.466 C20.2315,18.8993333 20.172,18.1768333 20.172,17.2985 C20.172,16.4258333 20.2315,15.7061667 20.3505,15.1395 C20.4695,14.5728333 20.62675,14.1251667 20.82225,13.7965 C21.01775,13.4678333 21.2415833,13.2383333 21.49375,13.108 C21.7459167,12.9776667 22.008,12.9125 22.28,12.9125 C22.552,12.9125 22.8169167,12.9776667 23.07475,13.108 C23.3325833,13.2383333 23.5606667,13.4678333 23.759,13.7965 C23.9573333,14.1251667 24.1174167,14.5728333 24.23925,15.1395 C24.3610833,15.7061667 24.422,16.4258333 24.422,17.2985 C24.422,18.1768333 24.3610833,18.8993333 24.23925,19.466 C24.1174167,20.0326667 23.9573333,20.4803333 23.759,20.809 C23.5606667,21.1376667 23.3325833,21.3671667 23.07475,21.4975 C22.8169167,21.6278333 22.552,21.693 22.28,21.693 Z" id="30" fill="#FFFFFF" fill-rule="nonzero"></path>
    </g>
</svg>