<?xml version="1.0" encoding="UTF-8"?>
<svg width="34px" height="34px" viewBox="0 0 34 34" version="1.1" xmlns="http://www.w3.org/2000/svg" xmlns:xlink="http://www.w3.org/1999/xlink">
    <title>ic/grade bubble/32</title>
    <g id="ic/grade-bubble/32" stroke="none" stroke-width="1" fill="none" fill-rule="evenodd">
        <circle id="Oval" fill="#C14923" cx="17.5" cy="17.5" r="16.5"></circle>
        <path d="M17,0 C26.3888407,0 34,7.61115925 34,17 C34,26.3888407 26.3888407,34 17,34 C7.61115925,34 0,26.3888407 0,17 C0,7.61115925 7.61115925,0 17,0 Z M17,2 C8.71572875,2 2,8.71572875 2,17 C2,25.2842712 8.71572875,32 17,32 C25.2842712,32 32,25.2842712 32,17 C32,8.71572875 25.2842712,2 17,2 Z" id="Oval" fill="#FFFFFF" fill-rule="nonzero"></path>
        <path d="M12.352,23.6055 C12.9186667,23.6055 13.46125,23.52475 13.97975,23.36325 C14.49825,23.20175 14.953,22.9595 15.344,22.6365 C15.735,22.3135 16.0466667,21.9125833 16.279,21.43375 C16.5113333,20.9549167 16.6275,20.401 16.6275,19.772 C16.6275,18.3496667 15.9191667,17.4061667 14.5025,16.9415 C14.8085,16.8395 15.0790833,16.712 15.31425,16.559 C15.5494167,16.406 15.74775,16.219 15.90925,15.998 C16.07075,15.777 16.1925833,15.51775 16.27475,15.22025 C16.3569167,14.92275 16.398,14.5785 16.398,14.1875 C16.398,13.7455 16.3115833,13.3318333 16.13875,12.9465 C15.9659167,12.5611667 15.718,12.224 15.395,11.935 C15.072,11.646 14.67675,11.4179167 14.20925,11.25075 C13.74175,11.0835833 13.2133333,11 12.624,11 C12.0686667,11 11.5515833,11.0750833 11.07275,11.22525 C10.5939167,11.3754167 10.1675,11.6006667 9.7935,11.901 C9.4195,12.2013333 9.10783333,12.5781667 8.8585,13.0315 C8.60916667,13.4848333 8.43916667,14.0118333 8.3485,14.6125 L8.3485,14.6125 L9.581,14.8335 C9.904,14.8845 10.1505,14.86325 10.3205,14.76975 C10.4905,14.67625 10.6293333,14.4878333 10.737,14.2045 C10.788,14.0231667 10.8673333,13.856 10.975,13.703 C11.0826667,13.55 11.2115833,13.4168333 11.36175,13.3035 C11.5119167,13.1901667 11.6819167,13.1009167 11.87175,13.03575 C12.0615833,12.9705833 12.2698333,12.938 12.4965,12.938 C13.0121667,12.938 13.41025,13.0796667 13.69075,13.363 C13.97125,13.6463333 14.1115,14.0571667 14.1115,14.5955 C14.1115,14.8505 14.0760833,15.0856667 14.00525,15.301 C13.9344167,15.5163333 13.8055,15.7005 13.6185,15.8535 C13.4315,16.0065 13.1736667,16.1255 12.845,16.2105 C12.5163333,16.2955 12.0941667,16.338 11.5785,16.338 L11.5785,16.338 L11.5785,17.987 C12.1961667,17.987 12.6849167,18.0309167 13.04475,18.11875 C13.4045833,18.2065833 13.6765833,18.33125 13.86075,18.49275 C14.0449167,18.65425 14.1625,18.84975 14.2135,19.07925 C14.2645,19.30875 14.29,19.5651667 14.29,19.8485 C14.29,20.0638333 14.2489167,20.2805833 14.16675,20.49875 C14.0845833,20.7169167 13.9613333,20.9124167 13.797,21.08525 C13.6326667,21.2580833 13.4286667,21.3983333 13.185,21.506 C12.9413333,21.6136667 12.6551667,21.6675 12.3265,21.6675 C12.0658333,21.6675 11.8349167,21.6306667 11.63375,21.557 C11.4325833,21.4833333 11.2526667,21.3799167 11.094,21.24675 C10.9353333,21.1135833 10.79225,20.9563333 10.66475,20.775 C10.53725,20.5936667 10.4168333,20.3953333 10.3035,20.18 C10.2015,19.9816667 10.0329167,19.857 9.79775,19.806 C9.56258333,19.755 9.309,19.7861667 9.037,19.8995 L9.037,19.8995 L8,20.3245 C8.187,20.8741667 8.40516667,21.3544167 8.6545,21.76525 C8.90383333,22.1760833 9.20275,22.5175 9.55125,22.7895 C9.89975,23.0615 10.3035,23.2655 10.7625,23.4015 C11.2215,23.5375 11.7513333,23.6055 12.352,23.6055 Z M26.5045,23.4695 L26.5045,22.0925 C26.5045,21.8601667 26.43225,21.6731667 26.28775,21.5315 C26.14325,21.3898333 25.9435,21.319 25.6885,21.319 L25.6885,21.319 L22.9175,21.319 C22.6681667,21.319 22.4018333,21.3430833 22.1185,21.39125 C21.8351667,21.4394167 21.549,21.506 21.26,21.591 L21.26,21.591 L23.878,18.9135 C24.2066667,18.5791667 24.5183333,18.2476667 24.813,17.919 C25.1076667,17.5903333 25.3669167,17.25175 25.59075,16.90325 C25.8145833,16.55475 25.9916667,16.1878333 26.122,15.8025 C26.2523333,15.4171667 26.3175,14.9978333 26.3175,14.5445 C26.3175,14.0175 26.224,13.5358333 26.037,13.0995 C25.85,12.6631667 25.5865,12.2905833 25.2465,11.98175 C24.9065,11.6729167 24.4970833,11.4320833 24.01825,11.25925 C23.5394167,11.0864167 23.0081667,11 22.4245,11 C21.8691667,11 21.3506667,11.0750833 20.869,11.22525 C20.3873333,11.3754167 19.9595,11.6006667 19.5855,11.901 C19.2115,12.2013333 18.8998333,12.5781667 18.6505,13.0315 C18.4011667,13.4848333 18.2311667,14.0118333 18.1405,14.6125 L18.1405,14.6125 L19.3815,14.8335 C19.6988333,14.8845 19.9439167,14.86325 20.11675,14.76975 C20.2895833,14.67625 20.427,14.4878333 20.529,14.2045 C20.58,14.0231667 20.6593333,13.856 20.767,13.703 C20.8746667,13.55 21.0035833,13.4168333 21.15375,13.3035 C21.3039167,13.1901667 21.4739167,13.1009167 21.66375,13.03575 C21.8535833,12.9705833 22.0618333,12.938 22.2885,12.938 C22.8041667,12.938 23.2036667,13.0810833 23.487,13.36725 C23.7703333,13.6534167 23.912,14.0713333 23.912,14.621 C23.912,14.9326667 23.8723333,15.2301667 23.793,15.5135 C23.7136667,15.7968333 23.5946667,16.0759167 23.436,16.35075 C23.2773333,16.6255833 23.079,16.9060833 22.841,17.19225 C22.603,17.4784167 22.3281667,17.7773333 22.0165,18.089 L22.0165,18.089 L18.3615,21.7525 C18.2141667,21.8941667 18.1093333,22.0514167 18.047,22.22425 C17.9846667,22.3970833 17.9535,22.5571667 17.9535,22.7045 L17.9535,22.7045 L17.9535,23.4695 L26.5045,23.4695 Z" id="32" fill="#FFFFFF" fill-rule="nonzero"></path>
    </g>
</svg>