<?xml version="1.0" encoding="UTF-8"?>
<svg width="34px" height="34px" viewBox="0 0 34 34" version="1.1" xmlns="http://www.w3.org/2000/svg" xmlns:xlink="http://www.w3.org/1999/xlink">
    <title>ic/grade bubble/33</title>
    <g id="ic/grade-bubble/33" stroke="none" stroke-width="1" fill="none" fill-rule="evenodd">
        <circle id="Oval" fill="#C14923" cx="17.5" cy="17.5" r="16.5"></circle>
        <path d="M17,0 C26.3888407,0 34,7.61115925 34,17 C34,26.3888407 26.3888407,34 17,34 C7.61115925,34 0,26.3888407 0,17 C0,7.61115925 7.61115925,0 17,0 Z M17,2 C8.71572875,2 2,8.71572875 2,17 C2,25.2842712 8.71572875,32 17,32 C25.2842712,32 32,25.2842712 32,17 C32,8.71572875 25.2842712,2 17,2 Z" id="Oval" fill="#FFFFFF" fill-rule="nonzero"></path>
        <path d="M12.352,23.6055 C12.9186667,23.6055 13.46125,23.52475 13.97975,23.36325 C14.49825,23.20175 14.953,22.9595 15.344,22.6365 C15.735,22.3135 16.0466667,21.9125833 16.279,21.43375 C16.5113333,20.9549167 16.6275,20.401 16.6275,19.772 C16.6275,18.3496667 15.9191667,17.4061667 14.5025,16.9415 C14.8085,16.8395 15.0790833,16.712 15.31425,16.559 C15.5494167,16.406 15.74775,16.219 15.90925,15.998 C16.07075,15.777 16.1925833,15.51775 16.27475,15.22025 C16.3569167,14.92275 16.398,14.5785 16.398,14.1875 C16.398,13.7455 16.3115833,13.3318333 16.13875,12.9465 C15.9659167,12.5611667 15.718,12.224 15.395,11.935 C15.072,11.646 14.67675,11.4179167 14.20925,11.25075 C13.74175,11.0835833 13.2133333,11 12.624,11 C12.0686667,11 11.5515833,11.0750833 11.07275,11.22525 C10.5939167,11.3754167 10.1675,11.6006667 9.7935,11.901 C9.4195,12.2013333 9.10783333,12.5781667 8.8585,13.0315 C8.60916667,13.4848333 8.43916667,14.0118333 8.3485,14.6125 L8.3485,14.6125 L9.581,14.8335 C9.904,14.8845 10.1505,14.86325 10.3205,14.76975 C10.4905,14.67625 10.6293333,14.4878333 10.737,14.2045 C10.788,14.0231667 10.8673333,13.856 10.975,13.703 C11.0826667,13.55 11.2115833,13.4168333 11.36175,13.3035 C11.5119167,13.1901667 11.6819167,13.1009167 11.87175,13.03575 C12.0615833,12.9705833 12.2698333,12.938 12.4965,12.938 C13.0121667,12.938 13.41025,13.0796667 13.69075,13.363 C13.97125,13.6463333 14.1115,14.0571667 14.1115,14.5955 C14.1115,14.8505 14.0760833,15.0856667 14.00525,15.301 C13.9344167,15.5163333 13.8055,15.7005 13.6185,15.8535 C13.4315,16.0065 13.1736667,16.1255 12.845,16.2105 C12.5163333,16.2955 12.0941667,16.338 11.5785,16.338 L11.5785,16.338 L11.5785,17.987 C12.1961667,17.987 12.6849167,18.0309167 13.04475,18.11875 C13.4045833,18.2065833 13.6765833,18.33125 13.86075,18.49275 C14.0449167,18.65425 14.1625,18.84975 14.2135,19.07925 C14.2645,19.30875 14.29,19.5651667 14.29,19.8485 C14.29,20.0638333 14.2489167,20.2805833 14.16675,20.49875 C14.0845833,20.7169167 13.9613333,20.9124167 13.797,21.08525 C13.6326667,21.2580833 13.4286667,21.3983333 13.185,21.506 C12.9413333,21.6136667 12.6551667,21.6675 12.3265,21.6675 C12.0658333,21.6675 11.8349167,21.6306667 11.63375,21.557 C11.4325833,21.4833333 11.2526667,21.3799167 11.094,21.24675 C10.9353333,21.1135833 10.79225,20.9563333 10.66475,20.775 C10.53725,20.5936667 10.4168333,20.3953333 10.3035,20.18 C10.2015,19.9816667 10.0329167,19.857 9.79775,19.806 C9.56258333,19.755 9.309,19.7861667 9.037,19.8995 L9.037,19.8995 L8,20.3245 C8.187,20.8741667 8.40516667,21.3544167 8.6545,21.76525 C8.90383333,22.1760833 9.20275,22.5175 9.55125,22.7895 C9.89975,23.0615 10.3035,23.2655 10.7625,23.4015 C11.2215,23.5375 11.7513333,23.6055 12.352,23.6055 Z M22.212,23.6055 C22.7786667,23.6055 23.32125,23.52475 23.83975,23.36325 C24.35825,23.20175 24.813,22.9595 25.204,22.6365 C25.595,22.3135 25.9066667,21.9125833 26.139,21.43375 C26.3713333,20.9549167 26.4875,20.401 26.4875,19.772 C26.4875,18.3496667 25.7791667,17.4061667 24.3625,16.9415 C24.6685,16.8395 24.9390833,16.712 25.17425,16.559 C25.4094167,16.406 25.60775,16.219 25.76925,15.998 C25.93075,15.777 26.0525833,15.51775 26.13475,15.22025 C26.2169167,14.92275 26.258,14.5785 26.258,14.1875 C26.258,13.7455 26.1715833,13.3318333 25.99875,12.9465 C25.8259167,12.5611667 25.578,12.224 25.255,11.935 C24.932,11.646 24.53675,11.4179167 24.06925,11.25075 C23.60175,11.0835833 23.0733333,11 22.484,11 C21.9286667,11 21.4115833,11.0750833 20.93275,11.22525 C20.4539167,11.3754167 20.0275,11.6006667 19.6535,11.901 C19.2795,12.2013333 18.9678333,12.5781667 18.7185,13.0315 C18.4691667,13.4848333 18.2991667,14.0118333 18.2085,14.6125 L18.2085,14.6125 L19.441,14.8335 C19.764,14.8845 20.0105,14.86325 20.1805,14.76975 C20.3505,14.67625 20.4893333,14.4878333 20.597,14.2045 C20.648,14.0231667 20.7273333,13.856 20.835,13.703 C20.9426667,13.55 21.0715833,13.4168333 21.22175,13.3035 C21.3719167,13.1901667 21.5419167,13.1009167 21.73175,13.03575 C21.9215833,12.9705833 22.1298333,12.938 22.3565,12.938 C22.8721667,12.938 23.27025,13.0796667 23.55075,13.363 C23.83125,13.6463333 23.9715,14.0571667 23.9715,14.5955 C23.9715,14.8505 23.9360833,15.0856667 23.86525,15.301 C23.7944167,15.5163333 23.6655,15.7005 23.4785,15.8535 C23.2915,16.0065 23.0336667,16.1255 22.705,16.2105 C22.3763333,16.2955 21.9541667,16.338 21.4385,16.338 L21.4385,16.338 L21.4385,17.987 C22.0561667,17.987 22.5449167,18.0309167 22.90475,18.11875 C23.2645833,18.2065833 23.5365833,18.33125 23.72075,18.49275 C23.9049167,18.65425 24.0225,18.84975 24.0735,19.07925 C24.1245,19.30875 24.15,19.5651667 24.15,19.8485 C24.15,20.0638333 24.1089167,20.2805833 24.02675,20.49875 C23.9445833,20.7169167 23.8213333,20.9124167 23.657,21.08525 C23.4926667,21.2580833 23.2886667,21.3983333 23.045,21.506 C22.8013333,21.6136667 22.5151667,21.6675 22.1865,21.6675 C21.9258333,21.6675 21.6949167,21.6306667 21.49375,21.557 C21.2925833,21.4833333 21.1126667,21.3799167 20.954,21.24675 C20.7953333,21.1135833 20.65225,20.9563333 20.52475,20.775 C20.39725,20.5936667 20.2768333,20.3953333 20.1635,20.18 C20.0615,19.9816667 19.8929167,19.857 19.65775,19.806 C19.4225833,19.755 19.169,19.7861667 18.897,19.8995 L18.897,19.8995 L17.86,20.3245 C18.047,20.8741667 18.2651667,21.3544167 18.5145,21.76525 C18.7638333,22.1760833 19.06275,22.5175 19.41125,22.7895 C19.75975,23.0615 20.1635,23.2655 20.6225,23.4015 C21.0815,23.5375 21.6113333,23.6055 22.212,23.6055 Z" id="33" fill="#FFFFFF" fill-rule="nonzero"></path>
    </g>
</svg>