<?xml version="1.0" encoding="UTF-8"?>
<svg width="34px" height="34px" viewBox="0 0 34 34" version="1.1" xmlns="http://www.w3.org/2000/svg" xmlns:xlink="http://www.w3.org/1999/xlink">
    <title>ic/grade bubble/36</title>
    <g id="ic/grade-bubble/36" stroke="none" stroke-width="1" fill="none" fill-rule="evenodd">
        <circle id="Oval" fill="#C14923" cx="17.5" cy="17.5" r="16.5"></circle>
        <path d="M17,0 C26.3888407,0 34,7.61115925 34,17 C34,26.3888407 26.3888407,34 17,34 C7.61115925,34 0,26.3888407 0,17 C0,7.61115925 7.61115925,0 17,0 Z M17,2 C8.71572875,2 2,8.71572875 2,17 C2,25.2842712 8.71572875,32 17,32 C25.2842712,32 32,25.2842712 32,17 C32,8.71572875 25.2842712,2 17,2 Z" id="Oval" fill="#FFFFFF" fill-rule="nonzero"></path>
        <path d="M12.352,23.6055 C12.9186667,23.6055 13.46125,23.52475 13.97975,23.36325 C14.49825,23.20175 14.953,22.9595 15.344,22.6365 C15.735,22.3135 16.0466667,21.9125833 16.279,21.43375 C16.5113333,20.9549167 16.6275,20.401 16.6275,19.772 C16.6275,18.3496667 15.9191667,17.4061667 14.5025,16.9415 C14.8085,16.8395 15.0790833,16.712 15.31425,16.559 C15.5494167,16.406 15.74775,16.219 15.90925,15.998 C16.07075,15.777 16.1925833,15.51775 16.27475,15.22025 C16.3569167,14.92275 16.398,14.5785 16.398,14.1875 C16.398,13.7455 16.3115833,13.3318333 16.13875,12.9465 C15.9659167,12.5611667 15.718,12.224 15.395,11.935 C15.072,11.646 14.67675,11.4179167 14.20925,11.25075 C13.74175,11.0835833 13.2133333,11 12.624,11 C12.0686667,11 11.5515833,11.0750833 11.07275,11.22525 C10.5939167,11.3754167 10.1675,11.6006667 9.7935,11.901 C9.4195,12.2013333 9.10783333,12.5781667 8.8585,13.0315 C8.60916667,13.4848333 8.43916667,14.0118333 8.3485,14.6125 L8.3485,14.6125 L9.581,14.8335 C9.904,14.8845 10.1505,14.86325 10.3205,14.76975 C10.4905,14.67625 10.6293333,14.4878333 10.737,14.2045 C10.788,14.0231667 10.8673333,13.856 10.975,13.703 C11.0826667,13.55 11.2115833,13.4168333 11.36175,13.3035 C11.5119167,13.1901667 11.6819167,13.1009167 11.87175,13.03575 C12.0615833,12.9705833 12.2698333,12.938 12.4965,12.938 C13.0121667,12.938 13.41025,13.0796667 13.69075,13.363 C13.97125,13.6463333 14.1115,14.0571667 14.1115,14.5955 C14.1115,14.8505 14.0760833,15.0856667 14.00525,15.301 C13.9344167,15.5163333 13.8055,15.7005 13.6185,15.8535 C13.4315,16.0065 13.1736667,16.1255 12.845,16.2105 C12.5163333,16.2955 12.0941667,16.338 11.5785,16.338 L11.5785,16.338 L11.5785,17.987 C12.1961667,17.987 12.6849167,18.0309167 13.04475,18.11875 C13.4045833,18.2065833 13.6765833,18.33125 13.86075,18.49275 C14.0449167,18.65425 14.1625,18.84975 14.2135,19.07925 C14.2645,19.30875 14.29,19.5651667 14.29,19.8485 C14.29,20.0638333 14.2489167,20.2805833 14.16675,20.49875 C14.0845833,20.7169167 13.9613333,20.9124167 13.797,21.08525 C13.6326667,21.2580833 13.4286667,21.3983333 13.185,21.506 C12.9413333,21.6136667 12.6551667,21.6675 12.3265,21.6675 C12.0658333,21.6675 11.8349167,21.6306667 11.63375,21.557 C11.4325833,21.4833333 11.2526667,21.3799167 11.094,21.24675 C10.9353333,21.1135833 10.79225,20.9563333 10.66475,20.775 C10.53725,20.5936667 10.4168333,20.3953333 10.3035,20.18 C10.2015,19.9816667 10.0329167,19.857 9.79775,19.806 C9.56258333,19.755 9.309,19.7861667 9.037,19.8995 L9.037,19.8995 L8,20.3245 C8.187,20.8741667 8.40516667,21.3544167 8.6545,21.76525 C8.90383333,22.1760833 9.20275,22.5175 9.55125,22.7895 C9.89975,23.0615 10.3035,23.2655 10.7625,23.4015 C11.2215,23.5375 11.7513333,23.6055 12.352,23.6055 Z M22.3225,23.6055 C22.9855,23.6055 23.5875833,23.495 24.12875,23.274 C24.6699167,23.053 25.1345833,22.7526667 25.52275,22.373 C25.9109167,21.9933333 26.21125,21.5485 26.42375,21.0385 C26.63625,20.5285 26.7425,19.9873333 26.7425,19.415 C26.7425,18.7916667 26.6390833,18.2490833 26.43225,17.78725 C26.2254167,17.3254167 25.952,16.9415 25.612,16.6355 C25.272,16.3295 24.8838333,16.1 24.4475,15.947 C24.0111667,15.794 23.5635,15.7175 23.1045,15.7175 C22.8155,15.7175 22.5463333,15.743 22.297,15.794 C22.0476667,15.845 21.8153333,15.9186667 21.6,16.015 L21.6,16.015 L21.974,15.5645 L25.629,11.136 L23.5465,11.136 C23.2631667,11.136 23.011,11.1898333 22.79,11.2975 C22.569,11.4051667 22.4018333,11.5326667 22.2885,11.68 L22.2885,11.68 L19.424,15.539 C18.9423333,16.185 18.5839167,16.814 18.34875,17.426 C18.1135833,18.038 17.996,18.6415 17.996,19.2365 C17.996,19.8825 18.0951667,20.47325 18.2935,21.00875 C18.4918333,21.54425 18.778,22.0046667 19.152,22.39 C19.526,22.7753333 19.9793333,23.07425 20.512,23.28675 C21.0446667,23.49925 21.6481667,23.6055 22.3225,23.6055 Z M22.28,21.7185 C21.94,21.7185 21.6439167,21.6675 21.39175,21.5655 C21.1395833,21.4635 20.9285,21.319 20.7585,21.132 C20.5885,20.945 20.461,20.71975 20.376,20.45625 C20.291,20.19275 20.2485,19.8995 20.2485,19.5765 C20.2485,19.2648333 20.2980833,18.9786667 20.39725,18.718 C20.4964167,18.4573333 20.63525,18.2320833 20.81375,18.04225 C20.99225,17.8524167 21.2061667,17.7050833 21.4555,17.60025 C21.7048333,17.4954167 21.9796667,17.443 22.28,17.443 C22.5973333,17.443 22.8863333,17.4911667 23.147,17.5875 C23.4076667,17.6838333 23.6315,17.8240833 23.8185,18.00825 C24.0055,18.1924167 24.15,18.4176667 24.252,18.684 C24.354,18.9503333 24.405,19.2506667 24.405,19.585 C24.405,19.891 24.3511667,20.1729167 24.2435,20.43075 C24.1358333,20.6885833 23.9885,20.9138333 23.8015,21.1065 C23.6145,21.2991667 23.3906667,21.4493333 23.13,21.557 C22.8693333,21.6646667 22.586,21.7185 22.28,21.7185 Z" id="36" fill="#FFFFFF" fill-rule="nonzero"></path>
    </g>
</svg>