<?xml version="1.0" encoding="UTF-8"?>
<svg width="34px" height="34px" viewBox="0 0 34 34" version="1.1" xmlns="http://www.w3.org/2000/svg" xmlns:xlink="http://www.w3.org/1999/xlink">
    <title>ic/grade bubble/39</title>
    <g id="ic/grade-bubble/39" stroke="none" stroke-width="1" fill="none" fill-rule="evenodd">
        <circle id="Oval" fill="#C14923" cx="17.5" cy="17.5" r="16.5"></circle>
        <path d="M17,0 C26.3888407,0 34,7.61115925 34,17 C34,26.3888407 26.3888407,34 17,34 C7.61115925,34 0,26.3888407 0,17 C0,7.61115925 7.61115925,0 17,0 Z M17,2 C8.71572875,2 2,8.71572875 2,17 C2,25.2842712 8.71572875,32 17,32 C25.2842712,32 32,25.2842712 32,17 C32,8.71572875 25.2842712,2 17,2 Z" id="Oval" fill="#FFFFFF" fill-rule="nonzero"></path>
        <path d="M12.352,23.6055 C12.9186667,23.6055 13.46125,23.52475 13.97975,23.36325 C14.49825,23.20175 14.953,22.9595 15.344,22.6365 C15.735,22.3135 16.0466667,21.9125833 16.279,21.43375 C16.5113333,20.9549167 16.6275,20.401 16.6275,19.772 C16.6275,18.3496667 15.9191667,17.4061667 14.5025,16.9415 C14.8085,16.8395 15.0790833,16.712 15.31425,16.559 C15.5494167,16.406 15.74775,16.219 15.90925,15.998 C16.07075,15.777 16.1925833,15.51775 16.27475,15.22025 C16.3569167,14.92275 16.398,14.5785 16.398,14.1875 C16.398,13.7455 16.3115833,13.3318333 16.13875,12.9465 C15.9659167,12.5611667 15.718,12.224 15.395,11.935 C15.072,11.646 14.67675,11.4179167 14.20925,11.25075 C13.74175,11.0835833 13.2133333,11 12.624,11 C12.0686667,11 11.5515833,11.0750833 11.07275,11.22525 C10.5939167,11.3754167 10.1675,11.6006667 9.7935,11.901 C9.4195,12.2013333 9.10783333,12.5781667 8.8585,13.0315 C8.60916667,13.4848333 8.43916667,14.0118333 8.3485,14.6125 L8.3485,14.6125 L9.581,14.8335 C9.904,14.8845 10.1505,14.86325 10.3205,14.76975 C10.4905,14.67625 10.6293333,14.4878333 10.737,14.2045 C10.788,14.0231667 10.8673333,13.856 10.975,13.703 C11.0826667,13.55 11.2115833,13.4168333 11.36175,13.3035 C11.5119167,13.1901667 11.6819167,13.1009167 11.87175,13.03575 C12.0615833,12.9705833 12.2698333,12.938 12.4965,12.938 C13.0121667,12.938 13.41025,13.0796667 13.69075,13.363 C13.97125,13.6463333 14.1115,14.0571667 14.1115,14.5955 C14.1115,14.8505 14.0760833,15.0856667 14.00525,15.301 C13.9344167,15.5163333 13.8055,15.7005 13.6185,15.8535 C13.4315,16.0065 13.1736667,16.1255 12.845,16.2105 C12.5163333,16.2955 12.0941667,16.338 11.5785,16.338 L11.5785,16.338 L11.5785,17.987 C12.1961667,17.987 12.6849167,18.0309167 13.04475,18.11875 C13.4045833,18.2065833 13.6765833,18.33125 13.86075,18.49275 C14.0449167,18.65425 14.1625,18.84975 14.2135,19.07925 C14.2645,19.30875 14.29,19.5651667 14.29,19.8485 C14.29,20.0638333 14.2489167,20.2805833 14.16675,20.49875 C14.0845833,20.7169167 13.9613333,20.9124167 13.797,21.08525 C13.6326667,21.2580833 13.4286667,21.3983333 13.185,21.506 C12.9413333,21.6136667 12.6551667,21.6675 12.3265,21.6675 C12.0658333,21.6675 11.8349167,21.6306667 11.63375,21.557 C11.4325833,21.4833333 11.2526667,21.3799167 11.094,21.24675 C10.9353333,21.1135833 10.79225,20.9563333 10.66475,20.775 C10.53725,20.5936667 10.4168333,20.3953333 10.3035,20.18 C10.2015,19.9816667 10.0329167,19.857 9.79775,19.806 C9.56258333,19.755 9.309,19.7861667 9.037,19.8995 L9.037,19.8995 L8,20.3245 C8.187,20.8741667 8.40516667,21.3544167 8.6545,21.76525 C8.90383333,22.1760833 9.20275,22.5175 9.55125,22.7895 C9.89975,23.0615 10.3035,23.2655 10.7625,23.4015 C11.2215,23.5375 11.7513333,23.6055 12.352,23.6055 Z M21.107,23.4695 C21.379,23.4695 21.62125,23.4185 21.83375,23.3165 C22.04625,23.2145 22.2091667,23.0898333 22.3225,22.9425 L22.3225,22.9425 L25.068,19.024 C25.2776667,18.735 25.4660833,18.4403333 25.63325,18.14 C25.8004167,17.8396667 25.9435,17.5308333 26.0625,17.2135 C26.1815,16.8961667 26.2721667,16.5618333 26.3345,16.2105 C26.3968333,15.8591667 26.428,15.488 26.428,15.097 C26.428,14.4963333 26.3316667,13.94525 26.139,13.44375 C25.9463333,12.94225 25.6715,12.5101667 25.3145,12.1475 C24.9575,11.7848333 24.5211667,11.5029167 24.0055,11.30175 C23.4898333,11.1005833 22.909,11 22.263,11 C21.6226667,11 21.0404167,11.1076667 20.51625,11.323 C19.9920833,11.5383333 19.543,11.82875 19.169,12.19425 C18.795,12.55975 18.506,12.9875833 18.302,13.47775 C18.098,13.9679167 17.996,14.4878333 17.996,15.0375 C17.996,15.6381667 18.0951667,16.1609167 18.2935,16.60575 C18.4918333,17.0505833 18.7525,17.4203333 19.0755,17.715 C19.3985,18.0096667 19.7625833,18.2306667 20.16775,18.378 C20.5729167,18.5253333 20.9823333,18.599 21.396,18.599 C21.753,18.599 22.0915833,18.5579167 22.41175,18.47575 C22.7319167,18.3935833 23.028,18.2731667 23.3,18.1145 L23.3,18.1145 L23.062,18.4205 C22.9826667,18.5225 22.9005,18.6273333 22.8155,18.735 L22.8155,18.735 L18.948,23.4695 L21.107,23.4695 Z M22.229,16.865 C21.6113333,16.865 21.1424167,16.695 20.82225,16.355 C20.5020833,16.015 20.342,15.5191667 20.342,14.8675 C20.342,14.5841667 20.3859167,14.3206667 20.47375,14.077 C20.5615833,13.8333333 20.6876667,13.62225 20.852,13.44375 C21.0163333,13.26525 21.2146667,13.1264167 21.447,13.02725 C21.6793333,12.9280833 21.9428333,12.8785 22.2375,12.8785 C22.5265,12.8785 22.79,12.9224167 23.028,13.01025 C23.266,13.0980833 23.4714167,13.227 23.64425,13.397 C23.8170833,13.567 23.9516667,13.77525 24.048,14.02175 C24.1443333,14.26825 24.1925,14.553 24.1925,14.876 C24.1925,15.165 24.1485833,15.4313333 24.06075,15.675 C23.9729167,15.9186667 23.8468333,16.1283333 23.6825,16.304 C23.5181667,16.4796667 23.31275,16.6170833 23.06625,16.71625 C22.81975,16.8154167 22.5406667,16.865 22.229,16.865 Z" id="39" fill="#FFFFFF" fill-rule="nonzero"></path>
    </g>
</svg>