<?xml version="1.0" encoding="UTF-8"?>
<svg width="34px" height="34px" viewBox="0 0 34 34" version="1.1" xmlns="http://www.w3.org/2000/svg" xmlns:xlink="http://www.w3.org/1999/xlink">
    <title>ic/grade bubble/4</title>
    <g id="ic/grade-bubble/4" stroke="none" stroke-width="1" fill="none" fill-rule="evenodd">
        <circle id="Oval" fill="#B02424" cx="17.5" cy="17.5" r="16.5"></circle>
        <path d="M17,0 C26.3888407,0 34,7.61115925 34,17 C34,26.3888407 26.3888407,34 17,34 C7.61115925,34 0,26.3888407 0,17 C0,7.61115925 7.61115925,0 17,0 Z M17,2 C8.71572875,2 2,8.71572875 2,17 C2,25.2842712 8.71572875,32 17,32 C25.2842712,32 32,25.2842712 32,17 C32,8.71572875 25.2842712,2 17,2 Z" id="Oval" fill="#FFFFFF" fill-rule="nonzero"></path>
        <path d="M20.007,23.342 L20.007,20.4095 L20.9675,20.4095 C21.1148333,20.4095 21.2295833,20.3655833 21.31175,20.27775 C21.3939167,20.1899167 21.435,20.0836667 21.435,19.959 L21.435,19.959 L21.435,18.633 L20.007,18.633 L20.007,11 L17.78,11 L12,18.7435 L12.2465,19.9165 C12.2748333,20.0638333 12.3499167,20.1828333 12.47175,20.2735 C12.5935833,20.3641667 12.7281667,20.4095 12.8755,20.4095 L12.8755,20.4095 L17.967,20.4095 L17.967,23.342 L20.007,23.342 Z M17.967,18.633 L14.482,18.633 L18.052,13.6605 C18.0236667,13.8985 18.0024167,14.1265833 17.98825,14.34475 C17.9740833,14.5629167 17.967,14.7683333 17.967,14.961 L17.967,14.961 L17.967,18.633 Z" id="4" fill="#FFFFFF" fill-rule="nonzero"></path>
    </g>
</svg>