<?xml version="1.0" encoding="UTF-8"?>
<svg width="34px" height="34px" viewBox="0 0 34 34" version="1.1" xmlns="http://www.w3.org/2000/svg" xmlns:xlink="http://www.w3.org/1999/xlink">
    <title>ic/grade bubble/40</title>
    <g id="ic/grade-bubble/40" stroke="none" stroke-width="1" fill="none" fill-rule="evenodd">
        <circle id="Oval" fill="#C14923" cx="17.5" cy="17.5" r="16.5"></circle>
        <path d="M17,0 C26.3888407,0 34,7.61115925 34,17 C34,26.3888407 26.3888407,34 17,34 C7.61115925,34 0,26.3888407 0,17 C0,7.61115925 7.61115925,0 17,0 Z M17,2 C8.71572875,2 2,8.71572875 2,17 C2,25.2842712 8.71572875,32 17,32 C25.2842712,32 32,25.2842712 32,17 C32,8.71572875 25.2842712,2 17,2 Z" id="Oval" fill="#FFFFFF" fill-rule="nonzero"></path>
        <path d="M15.007,23.4695 L15.007,20.537 L15.9675,20.537 C16.1148333,20.537 16.2295833,20.4930833 16.31175,20.40525 C16.3939167,20.3174167 16.435,20.2111667 16.435,20.0865 L16.435,20.0865 L16.435,18.7605 L15.007,18.7605 L15.007,11.1275 L12.78,11.1275 L7,18.871 L7.2465,20.044 C7.27483333,20.1913333 7.34991667,20.3103333 7.47175,20.401 C7.59358333,20.4916667 7.72816667,20.537 7.8755,20.537 L7.8755,20.537 L12.967,20.537 L12.967,23.4695 L15.007,23.4695 Z M12.967,18.7605 L9.482,18.7605 L13.052,13.788 C13.0236667,14.026 13.0024167,14.2540833 12.98825,14.47225 C12.9740833,14.6904167 12.967,14.8958333 12.967,15.0885 L12.967,15.0885 L12.967,18.7605 Z M21.756,23.6055 C22.402,23.6055 23.0040833,23.4794167 23.56225,23.22725 C24.1204167,22.9750833 24.6035,22.58975 25.0115,22.07125 C25.4195,21.55275 25.7396667,20.8968333 25.972,20.1035 C26.2043333,19.3101667 26.3205,18.3751667 26.3205,17.2985 C26.3205,16.2218333 26.2043333,15.28825 25.972,14.49775 C25.7396667,13.70725 25.4195,13.05275 25.0115,12.53425 C24.6035,12.01575 24.1204167,11.6304167 23.56225,11.37825 C23.0040833,11.1260833 22.402,11 21.756,11 C21.11,11 20.5093333,11.1260833 19.954,11.37825 C19.3986667,11.6304167 18.9198333,12.01575 18.5175,12.53425 C18.1151667,13.05275 17.79925,13.70725 17.56975,14.49775 C17.34025,15.28825 17.2255,16.2218333 17.2255,17.2985 C17.2255,18.3751667 17.34025,19.3101667 17.56975,20.1035 C17.79925,20.8968333 18.1151667,21.55275 18.5175,22.07125 C18.9198333,22.58975 19.3986667,22.9750833 19.954,23.22725 C20.5093333,23.4794167 21.11,23.6055 21.756,23.6055 Z M21.756,21.693 C21.484,21.693 21.2219167,21.6278333 20.96975,21.4975 C20.7175833,21.3671667 20.49375,21.1376667 20.29825,20.809 C20.10275,20.4803333 19.9455,20.0326667 19.8265,19.466 C19.7075,18.8993333 19.648,18.1768333 19.648,17.2985 C19.648,16.4258333 19.7075,15.7061667 19.8265,15.1395 C19.9455,14.5728333 20.10275,14.1251667 20.29825,13.7965 C20.49375,13.4678333 20.7175833,13.2383333 20.96975,13.108 C21.2219167,12.9776667 21.484,12.9125 21.756,12.9125 C22.028,12.9125 22.2929167,12.9776667 22.55075,13.108 C22.8085833,13.2383333 23.0366667,13.4678333 23.235,13.7965 C23.4333333,14.1251667 23.5934167,14.5728333 23.71525,15.1395 C23.8370833,15.7061667 23.898,16.4258333 23.898,17.2985 C23.898,18.1768333 23.8370833,18.8993333 23.71525,19.466 C23.5934167,20.0326667 23.4333333,20.4803333 23.235,20.809 C23.0366667,21.1376667 22.8085833,21.3671667 22.55075,21.4975 C22.2929167,21.6278333 22.028,21.693 21.756,21.693 Z" id="40" fill="#FFFFFF" fill-rule="nonzero"></path>
    </g>
</svg>