<?xml version="1.0" encoding="UTF-8"?>
<svg width="34px" height="34px" viewBox="0 0 34 34" version="1.1" xmlns="http://www.w3.org/2000/svg" xmlns:xlink="http://www.w3.org/1999/xlink">
    <title>ic/grade bubble/41</title>
    <g id="ic/grade-bubble/41" stroke="none" stroke-width="1" fill="none" fill-rule="evenodd">
        <circle id="Oval" fill="#C14923" cx="17.5" cy="17.5" r="16.5"></circle>
        <path d="M17,0 C26.3888407,0 34,7.61115925 34,17 C34,26.3888407 26.3888407,34 17,34 C7.61115925,34 0,26.3888407 0,17 C0,7.61115925 7.61115925,0 17,0 Z M17,2 C8.71572875,2 2,8.71572875 2,17 C2,25.2842712 8.71572875,32 17,32 C25.2842712,32 32,25.2842712 32,17 C32,8.71572875 25.2842712,2 17,2 Z" id="Oval" fill="#FFFFFF" fill-rule="nonzero"></path>
        <path d="M15.007,23.342 L15.007,20.4095 L15.9675,20.4095 C16.1148333,20.4095 16.2295833,20.3655833 16.31175,20.27775 C16.3939167,20.1899167 16.435,20.0836667 16.435,19.959 L16.435,19.959 L16.435,18.633 L15.007,18.633 L15.007,11 L12.78,11 L7,18.7435 L7.2465,19.9165 C7.27483333,20.0638333 7.34991667,20.1828333 7.47175,20.2735 C7.59358333,20.3641667 7.72816667,20.4095 7.8755,20.4095 L7.8755,20.4095 L12.967,20.4095 L12.967,23.342 L15.007,23.342 Z M12.967,18.633 L9.482,18.633 L13.052,13.6605 C13.0236667,13.8985 13.0024167,14.1265833 12.98825,14.34475 C12.9740833,14.5629167 12.967,14.7683333 12.967,14.961 L12.967,14.961 L12.967,18.633 Z M25.7,23.342 L25.7,21.6165 L23.5665,21.6165 L23.5665,11 L21.637,11 L17.846,14.213 L18.5855,15.2075 C18.6251667,15.2585 18.6818333,15.3080833 18.7555,15.35625 C18.8291667,15.4044167 18.9141667,15.4384167 19.0105,15.45825 C19.1068333,15.4780833 19.2088333,15.4766667 19.3165,15.454 C19.4241667,15.4313333 19.5346667,15.3775 19.648,15.2925 L19.648,15.2925 L21.263,13.9495 C21.2516667,14.1081667 21.2431667,14.264 21.2375,14.417 C21.2318333,14.57 21.229,14.7201667 21.229,14.8675 L21.229,14.8675 L21.229,21.6165 L18.781,21.6165 L18.781,23.342 L25.7,23.342 Z" id="41" fill="#FFFFFF" fill-rule="nonzero"></path>
    </g>
</svg>