<?xml version="1.0" encoding="UTF-8"?>
<svg width="34px" height="34px" viewBox="0 0 34 34" version="1.1" xmlns="http://www.w3.org/2000/svg" xmlns:xlink="http://www.w3.org/1999/xlink">
    <title>ic/grade bubble/42</title>
    <g id="ic/grade-bubble/42" stroke="none" stroke-width="1" fill="none" fill-rule="evenodd">
        <circle id="Oval" fill="#C14923" cx="17.5" cy="17.5" r="16.5"></circle>
        <path d="M17,0 C26.3888407,0 34,7.61115925 34,17 C34,26.3888407 26.3888407,34 17,34 C7.61115925,34 0,26.3888407 0,17 C0,7.61115925 7.61115925,0 17,0 Z M17,2 C8.71572875,2 2,8.71572875 2,17 C2,25.2842712 8.71572875,32 17,32 C25.2842712,32 32,25.2842712 32,17 C32,8.71572875 25.2842712,2 17,2 Z" id="Oval" fill="#FFFFFF" fill-rule="nonzero"></path>
        <path d="M15.007,23.4695 L15.007,20.537 L15.9675,20.537 C16.1148333,20.537 16.2295833,20.4930833 16.31175,20.40525 C16.3939167,20.3174167 16.435,20.2111667 16.435,20.0865 L16.435,20.0865 L16.435,18.7605 L15.007,18.7605 L15.007,11.1275 L12.78,11.1275 L7,18.871 L7.2465,20.044 C7.27483333,20.1913333 7.34991667,20.3103333 7.47175,20.401 C7.59358333,20.4916667 7.72816667,20.537 7.8755,20.537 L7.8755,20.537 L12.967,20.537 L12.967,23.4695 L15.007,23.4695 Z M12.967,18.7605 L9.482,18.7605 L13.052,13.788 C13.0236667,14.026 13.0024167,14.2540833 12.98825,14.47225 C12.9740833,14.6904167 12.967,14.8958333 12.967,15.0885 L12.967,15.0885 L12.967,18.7605 Z M25.9805,23.4695 L25.9805,22.0925 C25.9805,21.8601667 25.90825,21.6731667 25.76375,21.5315 C25.61925,21.3898333 25.4195,21.319 25.1645,21.319 L25.1645,21.319 L22.3935,21.319 C22.1441667,21.319 21.8778333,21.3430833 21.5945,21.39125 C21.3111667,21.4394167 21.025,21.506 20.736,21.591 L20.736,21.591 L23.354,18.9135 C23.6826667,18.5791667 23.9943333,18.2476667 24.289,17.919 C24.5836667,17.5903333 24.8429167,17.25175 25.06675,16.90325 C25.2905833,16.55475 25.4676667,16.1878333 25.598,15.8025 C25.7283333,15.4171667 25.7935,14.9978333 25.7935,14.5445 C25.7935,14.0175 25.7,13.5358333 25.513,13.0995 C25.326,12.6631667 25.0625,12.2905833 24.7225,11.98175 C24.3825,11.6729167 23.9730833,11.4320833 23.49425,11.25925 C23.0154167,11.0864167 22.4841667,11 21.9005,11 C21.3451667,11 20.8266667,11.0750833 20.345,11.22525 C19.8633333,11.3754167 19.4355,11.6006667 19.0615,11.901 C18.6875,12.2013333 18.3758333,12.5781667 18.1265,13.0315 C17.8771667,13.4848333 17.7071667,14.0118333 17.6165,14.6125 L17.6165,14.6125 L18.8575,14.8335 C19.1748333,14.8845 19.4199167,14.86325 19.59275,14.76975 C19.7655833,14.67625 19.903,14.4878333 20.005,14.2045 C20.056,14.0231667 20.1353333,13.856 20.243,13.703 C20.3506667,13.55 20.4795833,13.4168333 20.62975,13.3035 C20.7799167,13.1901667 20.9499167,13.1009167 21.13975,13.03575 C21.3295833,12.9705833 21.5378333,12.938 21.7645,12.938 C22.2801667,12.938 22.6796667,13.0810833 22.963,13.36725 C23.2463333,13.6534167 23.388,14.0713333 23.388,14.621 C23.388,14.9326667 23.3483333,15.2301667 23.269,15.5135 C23.1896667,15.7968333 23.0706667,16.0759167 22.912,16.35075 C22.7533333,16.6255833 22.555,16.9060833 22.317,17.19225 C22.079,17.4784167 21.8041667,17.7773333 21.4925,18.089 L21.4925,18.089 L17.8375,21.7525 C17.6901667,21.8941667 17.5853333,22.0514167 17.523,22.22425 C17.4606667,22.3970833 17.4295,22.5571667 17.4295,22.7045 L17.4295,22.7045 L17.4295,23.4695 L25.9805,23.4695 Z" id="42" fill="#FFFFFF" fill-rule="nonzero"></path>
    </g>
</svg>