<?xml version="1.0" encoding="UTF-8"?>
<svg width="34px" height="34px" viewBox="0 0 34 34" version="1.1" xmlns="http://www.w3.org/2000/svg" xmlns:xlink="http://www.w3.org/1999/xlink">
    <title>ic/grade bubble/44</title>
    <g id="ic/grade-bubble/44" stroke="none" stroke-width="1" fill="none" fill-rule="evenodd">
        <circle id="Oval" fill="#C14923" cx="17.5" cy="17.5" r="16.5"></circle>
        <path d="M17,0 C26.3888407,0 34,7.61115925 34,17 C34,26.3888407 26.3888407,34 17,34 C7.61115925,34 0,26.3888407 0,17 C0,7.61115925 7.61115925,0 17,0 Z M17,2 C8.71572875,2 2,8.71572875 2,17 C2,25.2842712 8.71572875,32 17,32 C25.2842712,32 32,25.2842712 32,17 C32,8.71572875 25.2842712,2 17,2 Z" id="Oval" fill="#FFFFFF" fill-rule="nonzero"></path>
        <path d="M15.007,23.342 L15.007,20.4095 L15.9675,20.4095 C16.1148333,20.4095 16.2295833,20.3655833 16.31175,20.27775 C16.3939167,20.1899167 16.435,20.0836667 16.435,19.959 L16.435,19.959 L16.435,18.633 L15.007,18.633 L15.007,11 L12.78,11 L7,18.7435 L7.2465,19.9165 C7.27483333,20.0638333 7.34991667,20.1828333 7.47175,20.2735 C7.59358333,20.3641667 7.72816667,20.4095 7.8755,20.4095 L7.8755,20.4095 L12.967,20.4095 L12.967,23.342 L15.007,23.342 Z M12.967,18.633 L9.482,18.633 L13.052,13.6605 C13.0236667,13.8985 13.0024167,14.1265833 12.98825,14.34475 C12.9740833,14.5629167 12.967,14.7683333 12.967,14.961 L12.967,14.961 L12.967,18.633 Z M24.867,23.342 L24.867,20.4095 L25.8275,20.4095 C25.9748333,20.4095 26.0895833,20.3655833 26.17175,20.27775 C26.2539167,20.1899167 26.295,20.0836667 26.295,19.959 L26.295,19.959 L26.295,18.633 L24.867,18.633 L24.867,11 L22.64,11 L16.86,18.7435 L17.1065,19.9165 C17.1348333,20.0638333 17.2099167,20.1828333 17.33175,20.2735 C17.4535833,20.3641667 17.5881667,20.4095 17.7355,20.4095 L17.7355,20.4095 L22.827,20.4095 L22.827,23.342 L24.867,23.342 Z M22.827,18.633 L19.342,18.633 L22.912,13.6605 C22.8836667,13.8985 22.8624167,14.1265833 22.84825,14.34475 C22.8340833,14.5629167 22.827,14.7683333 22.827,14.961 L22.827,14.961 L22.827,18.633 Z" id="44" fill="#FFFFFF" fill-rule="nonzero"></path>
    </g>
</svg>