<?xml version="1.0" encoding="UTF-8"?>
<svg width="34px" height="34px" viewBox="0 0 34 34" version="1.1" xmlns="http://www.w3.org/2000/svg" xmlns:xlink="http://www.w3.org/1999/xlink">
    <title>ic/grade bubble/46</title>
    <g id="ic/grade-bubble/46" stroke="none" stroke-width="1" fill="none" fill-rule="evenodd">
        <circle id="Oval" fill="#C14923" cx="17.5" cy="17.5" r="16.5"></circle>
        <path d="M17,0 C26.3888407,0 34,7.61115925 34,17 C34,26.3888407 26.3888407,34 17,34 C7.61115925,34 0,26.3888407 0,17 C0,7.61115925 7.61115925,0 17,0 Z M17,2 C8.71572875,2 2,8.71572875 2,17 C2,25.2842712 8.71572875,32 17,32 C25.2842712,32 32,25.2842712 32,17 C32,8.71572875 25.2842712,2 17,2 Z" id="Oval" fill="#FFFFFF" fill-rule="nonzero"></path>
        <path d="M15.007,23.342 L15.007,20.4095 L15.9675,20.4095 C16.1148333,20.4095 16.2295833,20.3655833 16.31175,20.27775 C16.3939167,20.1899167 16.435,20.0836667 16.435,19.959 L16.435,19.959 L16.435,18.633 L15.007,18.633 L15.007,11 L12.78,11 L7,18.7435 L7.2465,19.9165 C7.27483333,20.0638333 7.34991667,20.1828333 7.47175,20.2735 C7.59358333,20.3641667 7.72816667,20.4095 7.8755,20.4095 L7.8755,20.4095 L12.967,20.4095 L12.967,23.342 L15.007,23.342 Z M12.967,18.633 L9.482,18.633 L13.052,13.6605 C13.0236667,13.8985 13.0024167,14.1265833 12.98825,14.34475 C12.9740833,14.5629167 12.967,14.7683333 12.967,14.961 L12.967,14.961 L12.967,18.633 Z M21.7985,23.478 C22.4615,23.478 23.0635833,23.3675 23.60475,23.1465 C24.1459167,22.9255 24.6105833,22.6251667 24.99875,22.2455 C25.3869167,21.8658333 25.68725,21.421 25.89975,20.911 C26.11225,20.401 26.2185,19.8598333 26.2185,19.2875 C26.2185,18.6641667 26.1150833,18.1215833 25.90825,17.65975 C25.7014167,17.1979167 25.428,16.814 25.088,16.508 C24.748,16.202 24.3598333,15.9725 23.9235,15.8195 C23.4871667,15.6665 23.0395,15.59 22.5805,15.59 C22.2915,15.59 22.0223333,15.6155 21.773,15.6665 C21.5236667,15.7175 21.2913333,15.7911667 21.076,15.8875 L21.076,15.8875 L21.45,15.437 L25.105,11.0085 L23.0225,11.0085 C22.7391667,11.0085 22.487,11.0623333 22.266,11.17 C22.045,11.2776667 21.8778333,11.4051667 21.7645,11.5525 L21.7645,11.5525 L18.9,15.4115 C18.4183333,16.0575 18.0599167,16.6865 17.82475,17.2985 C17.5895833,17.9105 17.472,18.514 17.472,19.109 C17.472,19.755 17.5711667,20.34575 17.7695,20.88125 C17.9678333,21.41675 18.254,21.8771667 18.628,22.2625 C19.002,22.6478333 19.4553333,22.94675 19.988,23.15925 C20.5206667,23.37175 21.1241667,23.478 21.7985,23.478 Z M21.756,21.591 C21.416,21.591 21.1199167,21.54 20.86775,21.438 C20.6155833,21.336 20.4045,21.1915 20.2345,21.0045 C20.0645,20.8175 19.937,20.59225 19.852,20.32875 C19.767,20.06525 19.7245,19.772 19.7245,19.449 C19.7245,19.1373333 19.7740833,18.8511667 19.87325,18.5905 C19.9724167,18.3298333 20.11125,18.1045833 20.28975,17.91475 C20.46825,17.7249167 20.6821667,17.5775833 20.9315,17.47275 C21.1808333,17.3679167 21.4556667,17.3155 21.756,17.3155 C22.0733333,17.3155 22.3623333,17.3636667 22.623,17.46 C22.8836667,17.5563333 23.1075,17.6965833 23.2945,17.88075 C23.4815,18.0649167 23.626,18.2901667 23.728,18.5565 C23.83,18.8228333 23.881,19.1231667 23.881,19.4575 C23.881,19.7635 23.8271667,20.0454167 23.7195,20.30325 C23.6118333,20.5610833 23.4645,20.7863333 23.2775,20.979 C23.0905,21.1716667 22.8666667,21.3218333 22.606,21.4295 C22.3453333,21.5371667 22.062,21.591 21.756,21.591 Z" id="46" fill="#FFFFFF" fill-rule="nonzero"></path>
    </g>
</svg>