<?xml version="1.0" encoding="UTF-8"?>
<svg width="34px" height="34px" viewBox="0 0 34 34" version="1.1" xmlns="http://www.w3.org/2000/svg" xmlns:xlink="http://www.w3.org/1999/xlink">
    <title>ic/grade bubble/47</title>
    <g id="ic/grade-bubble/47" stroke="none" stroke-width="1" fill="none" fill-rule="evenodd">
        <circle id="Oval" fill="#C14923" cx="17.5" cy="17.5" r="16.5"></circle>
        <path d="M17,0 C26.3888407,0 34,7.61115925 34,17 C34,26.3888407 26.3888407,34 17,34 C7.61115925,34 0,26.3888407 0,17 C0,7.61115925 7.61115925,0 17,0 Z M17,2 C8.71572875,2 2,8.71572875 2,17 C2,25.2842712 8.71572875,32 17,32 C25.2842712,32 32,25.2842712 32,17 C32,8.71572875 25.2842712,2 17,2 Z" id="Oval" fill="#FFFFFF" fill-rule="nonzero"></path>
        <path d="M15.007,23.342 L15.007,20.4095 L15.9675,20.4095 C16.1148333,20.4095 16.2295833,20.3655833 16.31175,20.27775 C16.3939167,20.1899167 16.435,20.0836667 16.435,19.959 L16.435,19.959 L16.435,18.633 L15.007,18.633 L15.007,11 L12.78,11 L7,18.7435 L7.2465,19.9165 C7.27483333,20.0638333 7.34991667,20.1828333 7.47175,20.2735 C7.59358333,20.3641667 7.72816667,20.4095 7.8755,20.4095 L7.8755,20.4095 L12.967,20.4095 L12.967,23.342 L15.007,23.342 Z M12.967,18.633 L9.482,18.633 L13.052,13.6605 C13.0236667,13.8985 13.0024167,14.1265833 12.98825,14.34475 C12.9740833,14.5629167 12.967,14.7683333 12.967,14.961 L12.967,14.961 L12.967,18.633 Z M20.1495,23.342 C20.4781667,23.342 20.7388333,23.2655 20.9315,23.1125 C21.1241667,22.9595 21.2771667,22.7753333 21.3905,22.56 L21.3905,22.56 L25.8785,13.1845 C25.9408333,13.0598333 26.0045833,12.9068333 26.06975,12.7255 C26.1349167,12.5441667 26.1675,12.3061667 26.1675,12.0115 L26.1675,12.0115 L26.1675,11.0085 L17.574,11.0085 L17.574,12.5725 C17.574,12.7085 17.62925,12.8303333 17.73975,12.938 C17.85025,13.0456667 17.9735,13.0995 18.1095,13.0995 L18.1095,13.0995 L23.796,13.0995 C23.6486667,13.2581667 23.5155,13.4253333 23.3965,13.601 C23.2775,13.7766667 23.1613333,13.9721667 23.048,14.1875 L23.048,14.1875 L18.4495,23.342 L20.1495,23.342 Z" id="47" fill="#FFFFFF" fill-rule="nonzero"></path>
    </g>
</svg>