<?xml version="1.0" encoding="UTF-8"?>
<svg width="34px" height="34px" viewBox="0 0 34 34" version="1.1" xmlns="http://www.w3.org/2000/svg" xmlns:xlink="http://www.w3.org/1999/xlink">
    <title>ic/grade bubble/49</title>
    <g id="ic/grade-bubble/49" stroke="none" stroke-width="1" fill="none" fill-rule="evenodd">
        <circle id="Oval" fill="#C14923" cx="17.5" cy="17.5" r="16.5"></circle>
        <path d="M17,0 C26.3888407,0 34,7.61115925 34,17 C34,26.3888407 26.3888407,34 17,34 C7.61115925,34 0,26.3888407 0,17 C0,7.61115925 7.61115925,0 17,0 Z M17,2 C8.71572875,2 2,8.71572875 2,17 C2,25.2842712 8.71572875,32 17,32 C25.2842712,32 32,25.2842712 32,17 C32,8.71572875 25.2842712,2 17,2 Z" id="Oval" fill="#FFFFFF" fill-rule="nonzero"></path>
        <path d="M15.007,23.4695 L15.007,20.537 L15.9675,20.537 C16.1148333,20.537 16.2295833,20.4930833 16.31175,20.40525 C16.3939167,20.3174167 16.435,20.2111667 16.435,20.0865 L16.435,20.0865 L16.435,18.7605 L15.007,18.7605 L15.007,11.1275 L12.78,11.1275 L7,18.871 L7.2465,20.044 C7.27483333,20.1913333 7.34991667,20.3103333 7.47175,20.401 C7.59358333,20.4916667 7.72816667,20.537 7.8755,20.537 L7.8755,20.537 L12.967,20.537 L12.967,23.4695 L15.007,23.4695 Z M12.967,18.7605 L9.482,18.7605 L13.052,13.788 C13.0236667,14.026 13.0024167,14.2540833 12.98825,14.47225 C12.9740833,14.6904167 12.967,14.8958333 12.967,15.0885 L12.967,15.0885 L12.967,18.7605 Z M20.583,23.4695 C20.855,23.4695 21.09725,23.4185 21.30975,23.3165 C21.52225,23.2145 21.6851667,23.0898333 21.7985,22.9425 L21.7985,22.9425 L24.544,19.024 C24.7536667,18.735 24.9420833,18.4403333 25.10925,18.14 C25.2764167,17.8396667 25.4195,17.5308333 25.5385,17.2135 C25.6575,16.8961667 25.7481667,16.5618333 25.8105,16.2105 C25.8728333,15.8591667 25.904,15.488 25.904,15.097 C25.904,14.4963333 25.8076667,13.94525 25.615,13.44375 C25.4223333,12.94225 25.1475,12.5101667 24.7905,12.1475 C24.4335,11.7848333 23.9971667,11.5029167 23.4815,11.30175 C22.9658333,11.1005833 22.385,11 21.739,11 C21.0986667,11 20.5164167,11.1076667 19.99225,11.323 C19.4680833,11.5383333 19.019,11.82875 18.645,12.19425 C18.271,12.55975 17.982,12.9875833 17.778,13.47775 C17.574,13.9679167 17.472,14.4878333 17.472,15.0375 C17.472,15.6381667 17.5711667,16.1609167 17.7695,16.60575 C17.9678333,17.0505833 18.2285,17.4203333 18.5515,17.715 C18.8745,18.0096667 19.2385833,18.2306667 19.64375,18.378 C20.0489167,18.5253333 20.4583333,18.599 20.872,18.599 C21.229,18.599 21.5675833,18.5579167 21.88775,18.47575 C22.2079167,18.3935833 22.504,18.2731667 22.776,18.1145 L22.776,18.1145 L22.538,18.4205 C22.4586667,18.5225 22.3765,18.6273333 22.2915,18.735 L22.2915,18.735 L18.424,23.4695 L20.583,23.4695 Z M21.705,16.865 C21.0873333,16.865 20.6184167,16.695 20.29825,16.355 C19.9780833,16.015 19.818,15.5191667 19.818,14.8675 C19.818,14.5841667 19.8619167,14.3206667 19.94975,14.077 C20.0375833,13.8333333 20.1636667,13.62225 20.328,13.44375 C20.4923333,13.26525 20.6906667,13.1264167 20.923,13.02725 C21.1553333,12.9280833 21.4188333,12.8785 21.7135,12.8785 C22.0025,12.8785 22.266,12.9224167 22.504,13.01025 C22.742,13.0980833 22.9474167,13.227 23.12025,13.397 C23.2930833,13.567 23.4276667,13.77525 23.524,14.02175 C23.6203333,14.26825 23.6685,14.553 23.6685,14.876 C23.6685,15.165 23.6245833,15.4313333 23.53675,15.675 C23.4489167,15.9186667 23.3228333,16.1283333 23.1585,16.304 C22.9941667,16.4796667 22.78875,16.6170833 22.54225,16.71625 C22.29575,16.8154167 22.0166667,16.865 21.705,16.865 Z" id="49" fill="#FFFFFF" fill-rule="nonzero"></path>
    </g>
</svg>