<?xml version="1.0" encoding="UTF-8"?>
<svg width="34px" height="34px" viewBox="0 0 34 34" version="1.1" xmlns="http://www.w3.org/2000/svg" xmlns:xlink="http://www.w3.org/1999/xlink">
    <title>ic/grade bubble/5</title>
    <g id="ic/grade-bubble/5" stroke="none" stroke-width="1" fill="none" fill-rule="evenodd">
        <circle id="Oval" fill="#B02424" cx="17.5" cy="17.5" r="16.5"></circle>
        <path d="M17,0 C26.3888407,0 34,7.61115925 34,17 C34,26.3888407 26.3888407,34 17,34 C7.61115925,34 0,26.3888407 0,17 C0,7.61115925 7.61115925,0 17,0 Z M17,2 C8.71572875,2 2,8.71572875 2,17 C2,25.2842712 8.71572875,32 17,32 C25.2842712,32 32,25.2842712 32,17 C32,8.71572875 25.2842712,2 17,2 Z" id="Oval" fill="#FFFFFF" fill-rule="nonzero"></path>
        <path d="M16.6975,23.4695 C17.3718333,23.4695 17.99375,23.3618333 18.56325,23.1465 C19.13275,22.9311667 19.6229167,22.6294167 20.03375,22.24125 C20.4445833,21.8530833 20.7661667,21.3884167 20.9985,20.84725 C21.2308333,20.3060833 21.347,19.7068333 21.347,19.0495 C21.347,18.5225 21.262,18.0295 21.092,17.5705 C20.922,17.1115 20.6684167,16.712 20.33125,16.372 C19.9940833,16.032 19.5775833,15.76425 19.08175,15.56875 C18.5859167,15.37325 18.015,15.2755 17.369,15.2755 C17.148,15.2755 16.9199167,15.2868333 16.68475,15.3095 C16.4495833,15.3321667 16.2045,15.369 15.9495,15.42 L15.9495,15.42 L16.349,13.091 L19.5365,13.091 C19.7858333,13.091 19.9969167,13.0640833 20.16975,13.01025 C20.3425833,12.9564167 20.48425,12.8799167 20.59475,12.78075 C20.70525,12.6815833 20.7845833,12.5654167 20.83275,12.43225 C20.8809167,12.2990833 20.905,12.1503333 20.905,11.986 L20.905,11.986 L20.905,11 L14.717,11 L13.68,17.069 L15.1335,17.477 C15.7115,17.2616667 16.2866667,17.154 16.859,17.154 C17.556,17.154 18.08725,17.32825 18.45275,17.67675 C18.81825,18.02525 19.001,18.5196667 19.001,19.16 C19.001,19.4943333 18.9570833,19.8074167 18.86925,20.09925 C18.7814167,20.3910833 18.64825,20.64325 18.46975,20.85575 C18.29125,21.06825 18.066,21.2354167 17.794,21.35725 C17.522,21.4790833 17.2018333,21.54 16.8335,21.54 C16.4765,21.54 16.1733333,21.4946667 15.924,21.404 C15.6746667,21.3133333 15.4565,21.21275 15.2695,21.10225 C15.0825,20.99175 14.9153333,20.8911667 14.768,20.8005 C14.6206667,20.7098333 14.4705,20.6645 14.3175,20.6645 C14.0738333,20.6645 13.8755,20.7693333 13.7225,20.979 L13.7225,20.979 L13,21.965 C13.2096667,22.1633333 13.4476667,22.3531667 13.714,22.5345 C13.9803333,22.7158333 14.2679167,22.8759167 14.57675,23.01475 C14.8855833,23.1535833 15.2185,23.2640833 15.5755,23.34625 C15.9325,23.4284167 16.3065,23.4695 16.6975,23.4695 Z" id="5" fill="#FFFFFF" fill-rule="nonzero"></path>
    </g>
</svg>