<?xml version="1.0" encoding="UTF-8"?>
<svg width="34px" height="34px" viewBox="0 0 34 34" version="1.1" xmlns="http://www.w3.org/2000/svg" xmlns:xlink="http://www.w3.org/1999/xlink">
    <title>ic/grade bubble/50</title>
    <g id="ic/grade-bubble/50" stroke="none" stroke-width="1" fill="none" fill-rule="evenodd">
        <circle id="Oval" fill="#C14923" cx="17.5" cy="17.5" r="16.5"></circle>
        <path d="M17,0 C26.3888407,0 34,7.61115925 34,17 C34,26.3888407 26.3888407,34 17,34 C7.61115925,34 0,26.3888407 0,17 C0,7.61115925 7.61115925,0 17,0 Z M17,2 C8.71572875,2 2,8.71572875 2,17 C2,25.2842712 8.71572875,32 17,32 C25.2842712,32 32,25.2842712 32,17 C32,8.71572875 25.2842712,2 17,2 Z" id="Oval" fill="#FFFFFF" fill-rule="nonzero"></path>
        <path d="M11.6975,23.6055 C12.3718333,23.6055 12.99375,23.4978333 13.56325,23.2825 C14.13275,23.0671667 14.6229167,22.7654167 15.03375,22.37725 C15.4445833,21.9890833 15.7661667,21.5244167 15.9985,20.98325 C16.2308333,20.4420833 16.347,19.8428333 16.347,19.1855 C16.347,18.6585 16.262,18.1655 16.092,17.7065 C15.922,17.2475 15.6684167,16.848 15.33125,16.508 C14.9940833,16.168 14.5775833,15.90025 14.08175,15.70475 C13.5859167,15.50925 13.015,15.4115 12.369,15.4115 C12.148,15.4115 11.9199167,15.4228333 11.68475,15.4455 C11.4495833,15.4681667 11.2045,15.505 10.9495,15.556 L10.9495,15.556 L11.349,13.227 L14.5365,13.227 C14.7858333,13.227 14.9969167,13.2000833 15.16975,13.14625 C15.3425833,13.0924167 15.48425,13.0159167 15.59475,12.91675 C15.70525,12.8175833 15.7845833,12.7014167 15.83275,12.56825 C15.8809167,12.4350833 15.905,12.2863333 15.905,12.122 L15.905,12.122 L15.905,11.136 L9.717,11.136 L8.68,17.205 L10.1335,17.613 C10.7115,17.3976667 11.2866667,17.29 11.859,17.29 C12.556,17.29 13.08725,17.46425 13.45275,17.81275 C13.81825,18.16125 14.001,18.6556667 14.001,19.296 C14.001,19.6303333 13.9570833,19.9434167 13.86925,20.23525 C13.7814167,20.5270833 13.64825,20.77925 13.46975,20.99175 C13.29125,21.20425 13.066,21.3714167 12.794,21.49325 C12.522,21.6150833 12.2018333,21.676 11.8335,21.676 C11.4765,21.676 11.1733333,21.6306667 10.924,21.54 C10.6746667,21.4493333 10.4565,21.34875 10.2695,21.23825 C10.0825,21.12775 9.91533333,21.0271667 9.768,20.9365 C9.62066667,20.8458333 9.4705,20.8005 9.3175,20.8005 C9.07383333,20.8005 8.8755,20.9053333 8.7225,21.115 L8.7225,21.115 L8,22.101 C8.20966667,22.2993333 8.44766667,22.4891667 8.714,22.6705 C8.98033333,22.8518333 9.26791667,23.0119167 9.57675,23.15075 C9.88558333,23.2895833 10.2185,23.4000833 10.5755,23.48225 C10.9325,23.5644167 11.3065,23.6055 11.6975,23.6055 Z M22.127,23.6055 C22.773,23.6055 23.3750833,23.4794167 23.93325,23.22725 C24.4914167,22.9750833 24.9745,22.58975 25.3825,22.07125 C25.7905,21.55275 26.1106667,20.8968333 26.343,20.1035 C26.5753333,19.3101667 26.6915,18.3751667 26.6915,17.2985 C26.6915,16.2218333 26.5753333,15.28825 26.343,14.49775 C26.1106667,13.70725 25.7905,13.05275 25.3825,12.53425 C24.9745,12.01575 24.4914167,11.6304167 23.93325,11.37825 C23.3750833,11.1260833 22.773,11 22.127,11 C21.481,11 20.8803333,11.1260833 20.325,11.37825 C19.7696667,11.6304167 19.2908333,12.01575 18.8885,12.53425 C18.4861667,13.05275 18.17025,13.70725 17.94075,14.49775 C17.71125,15.28825 17.5965,16.2218333 17.5965,17.2985 C17.5965,18.3751667 17.71125,19.3101667 17.94075,20.1035 C18.17025,20.8968333 18.4861667,21.55275 18.8885,22.07125 C19.2908333,22.58975 19.7696667,22.9750833 20.325,23.22725 C20.8803333,23.4794167 21.481,23.6055 22.127,23.6055 Z M22.127,21.693 C21.855,21.693 21.5929167,21.6278333 21.34075,21.4975 C21.0885833,21.3671667 20.86475,21.1376667 20.66925,20.809 C20.47375,20.4803333 20.3165,20.0326667 20.1975,19.466 C20.0785,18.8993333 20.019,18.1768333 20.019,17.2985 C20.019,16.4258333 20.0785,15.7061667 20.1975,15.1395 C20.3165,14.5728333 20.47375,14.1251667 20.66925,13.7965 C20.86475,13.4678333 21.0885833,13.2383333 21.34075,13.108 C21.5929167,12.9776667 21.855,12.9125 22.127,12.9125 C22.399,12.9125 22.6639167,12.9776667 22.92175,13.108 C23.1795833,13.2383333 23.4076667,13.4678333 23.606,13.7965 C23.8043333,14.1251667 23.9644167,14.5728333 24.08625,15.1395 C24.2080833,15.7061667 24.269,16.4258333 24.269,17.2985 C24.269,18.1768333 24.2080833,18.8993333 24.08625,19.466 C23.9644167,20.0326667 23.8043333,20.4803333 23.606,20.809 C23.4076667,21.1376667 23.1795833,21.3671667 22.92175,21.4975 C22.6639167,21.6278333 22.399,21.693 22.127,21.693 Z" id="50" fill="#FFFFFF" fill-rule="nonzero"></path>
    </g>
</svg>