<?xml version="1.0" encoding="UTF-8"?>
<svg width="34px" height="34px" viewBox="0 0 34 34" version="1.1" xmlns="http://www.w3.org/2000/svg" xmlns:xlink="http://www.w3.org/1999/xlink">
    <title>ic/grade bubble/51</title>
    <g id="ic/grade-bubble/51" stroke="none" stroke-width="1" fill="none" fill-rule="evenodd">
        <circle id="Oval" fill="#C14923" cx="17.5" cy="17.5" r="16.5"></circle>
        <path d="M17,0 C26.3888407,0 34,7.61115925 34,17 C34,26.3888407 26.3888407,34 17,34 C7.61115925,34 0,26.3888407 0,17 C0,7.61115925 7.61115925,0 17,0 Z M17,2 C8.71572875,2 2,8.71572875 2,17 C2,25.2842712 8.71572875,32 17,32 C25.2842712,32 32,25.2842712 32,17 C32,8.71572875 25.2842712,2 17,2 Z" id="Oval" fill="#FFFFFF" fill-rule="nonzero"></path>
        <path d="M11.6975,23.478 C12.3718333,23.478 12.99375,23.3703333 13.56325,23.155 C14.13275,22.9396667 14.6229167,22.6379167 15.03375,22.24975 C15.4445833,21.8615833 15.7661667,21.3969167 15.9985,20.85575 C16.2308333,20.3145833 16.347,19.7153333 16.347,19.058 C16.347,18.531 16.262,18.038 16.092,17.579 C15.922,17.12 15.6684167,16.7205 15.33125,16.3805 C14.9940833,16.0405 14.5775833,15.77275 14.08175,15.57725 C13.5859167,15.38175 13.015,15.284 12.369,15.284 C12.148,15.284 11.9199167,15.2953333 11.68475,15.318 C11.4495833,15.3406667 11.2045,15.3775 10.9495,15.4285 L10.9495,15.4285 L11.349,13.0995 L14.5365,13.0995 C14.7858333,13.0995 14.9969167,13.0725833 15.16975,13.01875 C15.3425833,12.9649167 15.48425,12.8884167 15.59475,12.78925 C15.70525,12.6900833 15.7845833,12.5739167 15.83275,12.44075 C15.8809167,12.3075833 15.905,12.1588333 15.905,11.9945 L15.905,11.9945 L15.905,11.0085 L9.717,11.0085 L8.68,17.0775 L10.1335,17.4855 C10.7115,17.2701667 11.2866667,17.1625 11.859,17.1625 C12.556,17.1625 13.08725,17.33675 13.45275,17.68525 C13.81825,18.03375 14.001,18.5281667 14.001,19.1685 C14.001,19.5028333 13.9570833,19.8159167 13.86925,20.10775 C13.7814167,20.3995833 13.64825,20.65175 13.46975,20.86425 C13.29125,21.07675 13.066,21.2439167 12.794,21.36575 C12.522,21.4875833 12.2018333,21.5485 11.8335,21.5485 C11.4765,21.5485 11.1733333,21.5031667 10.924,21.4125 C10.6746667,21.3218333 10.4565,21.22125 10.2695,21.11075 C10.0825,21.00025 9.91533333,20.8996667 9.768,20.809 C9.62066667,20.7183333 9.4705,20.673 9.3175,20.673 C9.07383333,20.673 8.8755,20.7778333 8.7225,20.9875 L8.7225,20.9875 L8,21.9735 C8.20966667,22.1718333 8.44766667,22.3616667 8.714,22.543 C8.98033333,22.7243333 9.26791667,22.8844167 9.57675,23.02325 C9.88558333,23.1620833 10.2185,23.2725833 10.5755,23.35475 C10.9325,23.4369167 11.3065,23.478 11.6975,23.478 Z M26.071,23.342 L26.071,21.6165 L23.9375,21.6165 L23.9375,11 L22.008,11 L18.217,14.213 L18.9565,15.2075 C18.9961667,15.2585 19.0528333,15.3080833 19.1265,15.35625 C19.2001667,15.4044167 19.2851667,15.4384167 19.3815,15.45825 C19.4778333,15.4780833 19.5798333,15.4766667 19.6875,15.454 C19.7951667,15.4313333 19.9056667,15.3775 20.019,15.2925 L20.019,15.2925 L21.634,13.9495 C21.6226667,14.1081667 21.6141667,14.264 21.6085,14.417 C21.6028333,14.57 21.6,14.7201667 21.6,14.8675 L21.6,14.8675 L21.6,21.6165 L19.152,21.6165 L19.152,23.342 L26.071,23.342 Z" id="51" fill="#FFFFFF" fill-rule="nonzero"></path>
    </g>
</svg>