<?xml version="1.0" encoding="UTF-8"?>
<svg width="34px" height="34px" viewBox="0 0 34 34" version="1.1" xmlns="http://www.w3.org/2000/svg" xmlns:xlink="http://www.w3.org/1999/xlink">
    <title>ic/grade bubble/52</title>
    <g id="ic/grade-bubble/52" stroke="none" stroke-width="1" fill="none" fill-rule="evenodd">
        <circle id="Oval" fill="#C14923" cx="17.5" cy="17.5" r="16.5"></circle>
        <path d="M17,0 C26.3888407,0 34,7.61115925 34,17 C34,26.3888407 26.3888407,34 17,34 C7.61115925,34 0,26.3888407 0,17 C0,7.61115925 7.61115925,0 17,0 Z M17,2 C8.71572875,2 2,8.71572875 2,17 C2,25.2842712 8.71572875,32 17,32 C25.2842712,32 32,25.2842712 32,17 C32,8.71572875 25.2842712,2 17,2 Z" id="Oval" fill="#FFFFFF" fill-rule="nonzero"></path>
        <path d="M11.6975,23.6055 C12.3718333,23.6055 12.99375,23.4978333 13.56325,23.2825 C14.13275,23.0671667 14.6229167,22.7654167 15.03375,22.37725 C15.4445833,21.9890833 15.7661667,21.5244167 15.9985,20.98325 C16.2308333,20.4420833 16.347,19.8428333 16.347,19.1855 C16.347,18.6585 16.262,18.1655 16.092,17.7065 C15.922,17.2475 15.6684167,16.848 15.33125,16.508 C14.9940833,16.168 14.5775833,15.90025 14.08175,15.70475 C13.5859167,15.50925 13.015,15.4115 12.369,15.4115 C12.148,15.4115 11.9199167,15.4228333 11.68475,15.4455 C11.4495833,15.4681667 11.2045,15.505 10.9495,15.556 L10.9495,15.556 L11.349,13.227 L14.5365,13.227 C14.7858333,13.227 14.9969167,13.2000833 15.16975,13.14625 C15.3425833,13.0924167 15.48425,13.0159167 15.59475,12.91675 C15.70525,12.8175833 15.7845833,12.7014167 15.83275,12.56825 C15.8809167,12.4350833 15.905,12.2863333 15.905,12.122 L15.905,12.122 L15.905,11.136 L9.717,11.136 L8.68,17.205 L10.1335,17.613 C10.7115,17.3976667 11.2866667,17.29 11.859,17.29 C12.556,17.29 13.08725,17.46425 13.45275,17.81275 C13.81825,18.16125 14.001,18.6556667 14.001,19.296 C14.001,19.6303333 13.9570833,19.9434167 13.86925,20.23525 C13.7814167,20.5270833 13.64825,20.77925 13.46975,20.99175 C13.29125,21.20425 13.066,21.3714167 12.794,21.49325 C12.522,21.6150833 12.2018333,21.676 11.8335,21.676 C11.4765,21.676 11.1733333,21.6306667 10.924,21.54 C10.6746667,21.4493333 10.4565,21.34875 10.2695,21.23825 C10.0825,21.12775 9.91533333,21.0271667 9.768,20.9365 C9.62066667,20.8458333 9.4705,20.8005 9.3175,20.8005 C9.07383333,20.8005 8.8755,20.9053333 8.7225,21.115 L8.7225,21.115 L8,22.101 C8.20966667,22.2993333 8.44766667,22.4891667 8.714,22.6705 C8.98033333,22.8518333 9.26791667,23.0119167 9.57675,23.15075 C9.88558333,23.2895833 10.2185,23.4000833 10.5755,23.48225 C10.9325,23.5644167 11.3065,23.6055 11.6975,23.6055 Z M26.3515,23.4695 L26.3515,22.0925 C26.3515,21.8601667 26.27925,21.6731667 26.13475,21.5315 C25.99025,21.3898333 25.7905,21.319 25.5355,21.319 L25.5355,21.319 L22.7645,21.319 C22.5151667,21.319 22.2488333,21.3430833 21.9655,21.39125 C21.6821667,21.4394167 21.396,21.506 21.107,21.591 L21.107,21.591 L23.725,18.9135 C24.0536667,18.5791667 24.3653333,18.2476667 24.66,17.919 C24.9546667,17.5903333 25.2139167,17.25175 25.43775,16.90325 C25.6615833,16.55475 25.8386667,16.1878333 25.969,15.8025 C26.0993333,15.4171667 26.1645,14.9978333 26.1645,14.5445 C26.1645,14.0175 26.071,13.5358333 25.884,13.0995 C25.697,12.6631667 25.4335,12.2905833 25.0935,11.98175 C24.7535,11.6729167 24.3440833,11.4320833 23.86525,11.25925 C23.3864167,11.0864167 22.8551667,11 22.2715,11 C21.7161667,11 21.1976667,11.0750833 20.716,11.22525 C20.2343333,11.3754167 19.8065,11.6006667 19.4325,11.901 C19.0585,12.2013333 18.7468333,12.5781667 18.4975,13.0315 C18.2481667,13.4848333 18.0781667,14.0118333 17.9875,14.6125 L17.9875,14.6125 L19.2285,14.8335 C19.5458333,14.8845 19.7909167,14.86325 19.96375,14.76975 C20.1365833,14.67625 20.274,14.4878333 20.376,14.2045 C20.427,14.0231667 20.5063333,13.856 20.614,13.703 C20.7216667,13.55 20.8505833,13.4168333 21.00075,13.3035 C21.1509167,13.1901667 21.3209167,13.1009167 21.51075,13.03575 C21.7005833,12.9705833 21.9088333,12.938 22.1355,12.938 C22.6511667,12.938 23.0506667,13.0810833 23.334,13.36725 C23.6173333,13.6534167 23.759,14.0713333 23.759,14.621 C23.759,14.9326667 23.7193333,15.2301667 23.64,15.5135 C23.5606667,15.7968333 23.4416667,16.0759167 23.283,16.35075 C23.1243333,16.6255833 22.926,16.9060833 22.688,17.19225 C22.45,17.4784167 22.1751667,17.7773333 21.8635,18.089 L21.8635,18.089 L18.2085,21.7525 C18.0611667,21.8941667 17.9563333,22.0514167 17.894,22.22425 C17.8316667,22.3970833 17.8005,22.5571667 17.8005,22.7045 L17.8005,22.7045 L17.8005,23.4695 L26.3515,23.4695 Z" id="52" fill="#FFFFFF" fill-rule="nonzero"></path>
    </g>
</svg>