<?xml version="1.0" encoding="UTF-8"?>
<svg width="34px" height="34px" viewBox="0 0 34 34" version="1.1" xmlns="http://www.w3.org/2000/svg" xmlns:xlink="http://www.w3.org/1999/xlink">
    <title>ic/grade bubble/53</title>
    <g id="ic/grade-bubble/53" stroke="none" stroke-width="1" fill="none" fill-rule="evenodd">
        <circle id="Oval" fill="#C14923" cx="17.5" cy="17.5" r="16.5"></circle>
        <path d="M17,0 C26.3888407,0 34,7.61115925 34,17 C34,26.3888407 26.3888407,34 17,34 C7.61115925,34 0,26.3888407 0,17 C0,7.61115925 7.61115925,0 17,0 Z M17,2 C8.71572875,2 2,8.71572875 2,17 C2,25.2842712 8.71572875,32 17,32 C25.2842712,32 32,25.2842712 32,17 C32,8.71572875 25.2842712,2 17,2 Z" id="Oval" fill="#FFFFFF" fill-rule="nonzero"></path>
        <path d="M11.6975,23.6055 C12.3718333,23.6055 12.99375,23.4978333 13.56325,23.2825 C14.13275,23.0671667 14.6229167,22.7654167 15.03375,22.37725 C15.4445833,21.9890833 15.7661667,21.5244167 15.9985,20.98325 C16.2308333,20.4420833 16.347,19.8428333 16.347,19.1855 C16.347,18.6585 16.262,18.1655 16.092,17.7065 C15.922,17.2475 15.6684167,16.848 15.33125,16.508 C14.9940833,16.168 14.5775833,15.90025 14.08175,15.70475 C13.5859167,15.50925 13.015,15.4115 12.369,15.4115 C12.148,15.4115 11.9199167,15.4228333 11.68475,15.4455 C11.4495833,15.4681667 11.2045,15.505 10.9495,15.556 L10.9495,15.556 L11.349,13.227 L14.5365,13.227 C14.7858333,13.227 14.9969167,13.2000833 15.16975,13.14625 C15.3425833,13.0924167 15.48425,13.0159167 15.59475,12.91675 C15.70525,12.8175833 15.7845833,12.7014167 15.83275,12.56825 C15.8809167,12.4350833 15.905,12.2863333 15.905,12.122 L15.905,12.122 L15.905,11.136 L9.717,11.136 L8.68,17.205 L10.1335,17.613 C10.7115,17.3976667 11.2866667,17.29 11.859,17.29 C12.556,17.29 13.08725,17.46425 13.45275,17.81275 C13.81825,18.16125 14.001,18.6556667 14.001,19.296 C14.001,19.6303333 13.9570833,19.9434167 13.86925,20.23525 C13.7814167,20.5270833 13.64825,20.77925 13.46975,20.99175 C13.29125,21.20425 13.066,21.3714167 12.794,21.49325 C12.522,21.6150833 12.2018333,21.676 11.8335,21.676 C11.4765,21.676 11.1733333,21.6306667 10.924,21.54 C10.6746667,21.4493333 10.4565,21.34875 10.2695,21.23825 C10.0825,21.12775 9.91533333,21.0271667 9.768,20.9365 C9.62066667,20.8458333 9.4705,20.8005 9.3175,20.8005 C9.07383333,20.8005 8.8755,20.9053333 8.7225,21.115 L8.7225,21.115 L8,22.101 C8.20966667,22.2993333 8.44766667,22.4891667 8.714,22.6705 C8.98033333,22.8518333 9.26791667,23.0119167 9.57675,23.15075 C9.88558333,23.2895833 10.2185,23.4000833 10.5755,23.48225 C10.9325,23.5644167 11.3065,23.6055 11.6975,23.6055 Z M22.059,23.6055 C22.6256667,23.6055 23.16825,23.52475 23.68675,23.36325 C24.20525,23.20175 24.66,22.9595 25.051,22.6365 C25.442,22.3135 25.7536667,21.9125833 25.986,21.43375 C26.2183333,20.9549167 26.3345,20.401 26.3345,19.772 C26.3345,18.3496667 25.6261667,17.4061667 24.2095,16.9415 C24.5155,16.8395 24.7860833,16.712 25.02125,16.559 C25.2564167,16.406 25.45475,16.219 25.61625,15.998 C25.77775,15.777 25.8995833,15.51775 25.98175,15.22025 C26.0639167,14.92275 26.105,14.5785 26.105,14.1875 C26.105,13.7455 26.0185833,13.3318333 25.84575,12.9465 C25.6729167,12.5611667 25.425,12.224 25.102,11.935 C24.779,11.646 24.38375,11.4179167 23.91625,11.25075 C23.44875,11.0835833 22.9203333,11 22.331,11 C21.7756667,11 21.2585833,11.0750833 20.77975,11.22525 C20.3009167,11.3754167 19.8745,11.6006667 19.5005,11.901 C19.1265,12.2013333 18.8148333,12.5781667 18.5655,13.0315 C18.3161667,13.4848333 18.1461667,14.0118333 18.0555,14.6125 L18.0555,14.6125 L19.288,14.8335 C19.611,14.8845 19.8575,14.86325 20.0275,14.76975 C20.1975,14.67625 20.3363333,14.4878333 20.444,14.2045 C20.495,14.0231667 20.5743333,13.856 20.682,13.703 C20.7896667,13.55 20.9185833,13.4168333 21.06875,13.3035 C21.2189167,13.1901667 21.3889167,13.1009167 21.57875,13.03575 C21.7685833,12.9705833 21.9768333,12.938 22.2035,12.938 C22.7191667,12.938 23.11725,13.0796667 23.39775,13.363 C23.67825,13.6463333 23.8185,14.0571667 23.8185,14.5955 C23.8185,14.8505 23.7830833,15.0856667 23.71225,15.301 C23.6414167,15.5163333 23.5125,15.7005 23.3255,15.8535 C23.1385,16.0065 22.8806667,16.1255 22.552,16.2105 C22.2233333,16.2955 21.8011667,16.338 21.2855,16.338 L21.2855,16.338 L21.2855,17.987 C21.9031667,17.987 22.3919167,18.0309167 22.75175,18.11875 C23.1115833,18.2065833 23.3835833,18.33125 23.56775,18.49275 C23.7519167,18.65425 23.8695,18.84975 23.9205,19.07925 C23.9715,19.30875 23.997,19.5651667 23.997,19.8485 C23.997,20.0638333 23.9559167,20.2805833 23.87375,20.49875 C23.7915833,20.7169167 23.6683333,20.9124167 23.504,21.08525 C23.3396667,21.2580833 23.1356667,21.3983333 22.892,21.506 C22.6483333,21.6136667 22.3621667,21.6675 22.0335,21.6675 C21.7728333,21.6675 21.5419167,21.6306667 21.34075,21.557 C21.1395833,21.4833333 20.9596667,21.3799167 20.801,21.24675 C20.6423333,21.1135833 20.49925,20.9563333 20.37175,20.775 C20.24425,20.5936667 20.1238333,20.3953333 20.0105,20.18 C19.9085,19.9816667 19.7399167,19.857 19.50475,19.806 C19.2695833,19.755 19.016,19.7861667 18.744,19.8995 L18.744,19.8995 L17.707,20.3245 C17.894,20.8741667 18.1121667,21.3544167 18.3615,21.76525 C18.6108333,22.1760833 18.90975,22.5175 19.25825,22.7895 C19.60675,23.0615 20.0105,23.2655 20.4695,23.4015 C20.9285,23.5375 21.4583333,23.6055 22.059,23.6055 Z" id="53" fill="#FFFFFF" fill-rule="nonzero"></path>
    </g>
</svg>