<?xml version="1.0" encoding="UTF-8"?>
<svg width="34px" height="34px" viewBox="0 0 34 34" version="1.1" xmlns="http://www.w3.org/2000/svg" xmlns:xlink="http://www.w3.org/1999/xlink">
    <title>ic/grade bubble/55</title>
    <g id="ic/grade-bubble/55" stroke="none" stroke-width="1" fill="none" fill-rule="evenodd">
        <circle id="Oval" fill="#C14923" cx="17.5" cy="17.5" r="16.5"></circle>
        <path d="M17,0 C26.3888407,0 34,7.61115925 34,17 C34,26.3888407 26.3888407,34 17,34 C7.61115925,34 0,26.3888407 0,17 C0,7.61115925 7.61115925,0 17,0 Z M17,2 C8.71572875,2 2,8.71572875 2,17 C2,25.2842712 8.71572875,32 17,32 C25.2842712,32 32,25.2842712 32,17 C32,8.71572875 25.2842712,2 17,2 Z" id="Oval" fill="#FFFFFF" fill-rule="nonzero"></path>
        <path d="M11.6975,23.4695 C12.3718333,23.4695 12.99375,23.3618333 13.56325,23.1465 C14.13275,22.9311667 14.6229167,22.6294167 15.03375,22.24125 C15.4445833,21.8530833 15.7661667,21.3884167 15.9985,20.84725 C16.2308333,20.3060833 16.347,19.7068333 16.347,19.0495 C16.347,18.5225 16.262,18.0295 16.092,17.5705 C15.922,17.1115 15.6684167,16.712 15.33125,16.372 C14.9940833,16.032 14.5775833,15.76425 14.08175,15.56875 C13.5859167,15.37325 13.015,15.2755 12.369,15.2755 C12.148,15.2755 11.9199167,15.2868333 11.68475,15.3095 C11.4495833,15.3321667 11.2045,15.369 10.9495,15.42 L10.9495,15.42 L11.349,13.091 L14.5365,13.091 C14.7858333,13.091 14.9969167,13.0640833 15.16975,13.01025 C15.3425833,12.9564167 15.48425,12.8799167 15.59475,12.78075 C15.70525,12.6815833 15.7845833,12.5654167 15.83275,12.43225 C15.8809167,12.2990833 15.905,12.1503333 15.905,11.986 L15.905,11.986 L15.905,11 L9.717,11 L8.68,17.069 L10.1335,17.477 C10.7115,17.2616667 11.2866667,17.154 11.859,17.154 C12.556,17.154 13.08725,17.32825 13.45275,17.67675 C13.81825,18.02525 14.001,18.5196667 14.001,19.16 C14.001,19.4943333 13.9570833,19.8074167 13.86925,20.09925 C13.7814167,20.3910833 13.64825,20.64325 13.46975,20.85575 C13.29125,21.06825 13.066,21.2354167 12.794,21.35725 C12.522,21.4790833 12.2018333,21.54 11.8335,21.54 C11.4765,21.54 11.1733333,21.4946667 10.924,21.404 C10.6746667,21.3133333 10.4565,21.21275 10.2695,21.10225 C10.0825,20.99175 9.91533333,20.8911667 9.768,20.8005 C9.62066667,20.7098333 9.4705,20.6645 9.3175,20.6645 C9.07383333,20.6645 8.8755,20.7693333 8.7225,20.979 L8.7225,20.979 L8,21.965 C8.20966667,22.1633333 8.44766667,22.3531667 8.714,22.5345 C8.98033333,22.7158333 9.26791667,22.8759167 9.57675,23.01475 C9.88558333,23.1535833 10.2185,23.2640833 10.5755,23.34625 C10.9325,23.4284167 11.3065,23.4695 11.6975,23.4695 Z M21.5575,23.4695 C22.2318333,23.4695 22.85375,23.3618333 23.42325,23.1465 C23.99275,22.9311667 24.4829167,22.6294167 24.89375,22.24125 C25.3045833,21.8530833 25.6261667,21.3884167 25.8585,20.84725 C26.0908333,20.3060833 26.207,19.7068333 26.207,19.0495 C26.207,18.5225 26.122,18.0295 25.952,17.5705 C25.782,17.1115 25.5284167,16.712 25.19125,16.372 C24.8540833,16.032 24.4375833,15.76425 23.94175,15.56875 C23.4459167,15.37325 22.875,15.2755 22.229,15.2755 C22.008,15.2755 21.7799167,15.2868333 21.54475,15.3095 C21.3095833,15.3321667 21.0645,15.369 20.8095,15.42 L20.8095,15.42 L21.209,13.091 L24.3965,13.091 C24.6458333,13.091 24.8569167,13.0640833 25.02975,13.01025 C25.2025833,12.9564167 25.34425,12.8799167 25.45475,12.78075 C25.56525,12.6815833 25.6445833,12.5654167 25.69275,12.43225 C25.7409167,12.2990833 25.765,12.1503333 25.765,11.986 L25.765,11.986 L25.765,11 L19.577,11 L18.54,17.069 L19.9935,17.477 C20.5715,17.2616667 21.1466667,17.154 21.719,17.154 C22.416,17.154 22.94725,17.32825 23.31275,17.67675 C23.67825,18.02525 23.861,18.5196667 23.861,19.16 C23.861,19.4943333 23.8170833,19.8074167 23.72925,20.09925 C23.6414167,20.3910833 23.50825,20.64325 23.32975,20.85575 C23.15125,21.06825 22.926,21.2354167 22.654,21.35725 C22.382,21.4790833 22.0618333,21.54 21.6935,21.54 C21.3365,21.54 21.0333333,21.4946667 20.784,21.404 C20.5346667,21.3133333 20.3165,21.21275 20.1295,21.10225 C19.9425,20.99175 19.7753333,20.8911667 19.628,20.8005 C19.4806667,20.7098333 19.3305,20.6645 19.1775,20.6645 C18.9338333,20.6645 18.7355,20.7693333 18.5825,20.979 L18.5825,20.979 L17.86,21.965 C18.0696667,22.1633333 18.3076667,22.3531667 18.574,22.5345 C18.8403333,22.7158333 19.1279167,22.8759167 19.43675,23.01475 C19.7455833,23.1535833 20.0785,23.2640833 20.4355,23.34625 C20.7925,23.4284167 21.1665,23.4695 21.5575,23.4695 Z" id="55" fill="#FFFFFF" fill-rule="nonzero"></path>
    </g>
</svg>