<?xml version="1.0" encoding="UTF-8"?>
<svg width="34px" height="34px" viewBox="0 0 34 34" version="1.1" xmlns="http://www.w3.org/2000/svg" xmlns:xlink="http://www.w3.org/1999/xlink">
    <title>ic/grade bubble/56</title>
    <g id="ic/grade-bubble/56" stroke="none" stroke-width="1" fill="none" fill-rule="evenodd">
        <circle id="Oval" fill="#C14923" cx="17.5" cy="17.5" r="16.5"></circle>
        <path d="M17,0 C26.3888407,0 34,7.61115925 34,17 C34,26.3888407 26.3888407,34 17,34 C7.61115925,34 0,26.3888407 0,17 C0,7.61115925 7.61115925,0 17,0 Z M17,2 C8.71572875,2 2,8.71572875 2,17 C2,25.2842712 8.71572875,32 17,32 C25.2842712,32 32,25.2842712 32,17 C32,8.71572875 25.2842712,2 17,2 Z" id="Oval" fill="#FFFFFF" fill-rule="nonzero"></path>
        <path d="M11.6975,23.4695 C12.3718333,23.4695 12.99375,23.3618333 13.56325,23.1465 C14.13275,22.9311667 14.6229167,22.6294167 15.03375,22.24125 C15.4445833,21.8530833 15.7661667,21.3884167 15.9985,20.84725 C16.2308333,20.3060833 16.347,19.7068333 16.347,19.0495 C16.347,18.5225 16.262,18.0295 16.092,17.5705 C15.922,17.1115 15.6684167,16.712 15.33125,16.372 C14.9940833,16.032 14.5775833,15.76425 14.08175,15.56875 C13.5859167,15.37325 13.015,15.2755 12.369,15.2755 C12.148,15.2755 11.9199167,15.2868333 11.68475,15.3095 C11.4495833,15.3321667 11.2045,15.369 10.9495,15.42 L10.9495,15.42 L11.349,13.091 L14.5365,13.091 C14.7858333,13.091 14.9969167,13.0640833 15.16975,13.01025 C15.3425833,12.9564167 15.48425,12.8799167 15.59475,12.78075 C15.70525,12.6815833 15.7845833,12.5654167 15.83275,12.43225 C15.8809167,12.2990833 15.905,12.1503333 15.905,11.986 L15.905,11.986 L15.905,11 L9.717,11 L8.68,17.069 L10.1335,17.477 C10.7115,17.2616667 11.2866667,17.154 11.859,17.154 C12.556,17.154 13.08725,17.32825 13.45275,17.67675 C13.81825,18.02525 14.001,18.5196667 14.001,19.16 C14.001,19.4943333 13.9570833,19.8074167 13.86925,20.09925 C13.7814167,20.3910833 13.64825,20.64325 13.46975,20.85575 C13.29125,21.06825 13.066,21.2354167 12.794,21.35725 C12.522,21.4790833 12.2018333,21.54 11.8335,21.54 C11.4765,21.54 11.1733333,21.4946667 10.924,21.404 C10.6746667,21.3133333 10.4565,21.21275 10.2695,21.10225 C10.0825,20.99175 9.91533333,20.8911667 9.768,20.8005 C9.62066667,20.7098333 9.4705,20.6645 9.3175,20.6645 C9.07383333,20.6645 8.8755,20.7693333 8.7225,20.979 L8.7225,20.979 L8,21.965 C8.20966667,22.1633333 8.44766667,22.3531667 8.714,22.5345 C8.98033333,22.7158333 9.26791667,22.8759167 9.57675,23.01475 C9.88558333,23.1535833 10.2185,23.2640833 10.5755,23.34625 C10.9325,23.4284167 11.3065,23.4695 11.6975,23.4695 Z M22.1695,23.4695 C22.8325,23.4695 23.4345833,23.359 23.97575,23.138 C24.5169167,22.917 24.9815833,22.6166667 25.36975,22.237 C25.7579167,21.8573333 26.05825,21.4125 26.27075,20.9025 C26.48325,20.3925 26.5895,19.8513333 26.5895,19.279 C26.5895,18.6556667 26.4860833,18.1130833 26.27925,17.65125 C26.0724167,17.1894167 25.799,16.8055 25.459,16.4995 C25.119,16.1935 24.7308333,15.964 24.2945,15.811 C23.8581667,15.658 23.4105,15.5815 22.9515,15.5815 C22.6625,15.5815 22.3933333,15.607 22.144,15.658 C21.8946667,15.709 21.6623333,15.7826667 21.447,15.879 L21.447,15.879 L21.821,15.4285 L25.476,11 L23.3935,11 C23.1101667,11 22.858,11.0538333 22.637,11.1615 C22.416,11.2691667 22.2488333,11.3966667 22.1355,11.544 L22.1355,11.544 L19.271,15.403 C18.7893333,16.049 18.4309167,16.678 18.19575,17.29 C17.9605833,17.902 17.843,18.5055 17.843,19.1005 C17.843,19.7465 17.9421667,20.33725 18.1405,20.87275 C18.3388333,21.40825 18.625,21.8686667 18.999,22.254 C19.373,22.6393333 19.8263333,22.93825 20.359,23.15075 C20.8916667,23.36325 21.4951667,23.4695 22.1695,23.4695 Z M22.127,21.5825 C21.787,21.5825 21.4909167,21.5315 21.23875,21.4295 C20.9865833,21.3275 20.7755,21.183 20.6055,20.996 C20.4355,20.809 20.308,20.58375 20.223,20.32025 C20.138,20.05675 20.0955,19.7635 20.0955,19.4405 C20.0955,19.1288333 20.1450833,18.8426667 20.24425,18.582 C20.3434167,18.3213333 20.48225,18.0960833 20.66075,17.90625 C20.83925,17.7164167 21.0531667,17.5690833 21.3025,17.46425 C21.5518333,17.3594167 21.8266667,17.307 22.127,17.307 C22.4443333,17.307 22.7333333,17.3551667 22.994,17.4515 C23.2546667,17.5478333 23.4785,17.6880833 23.6655,17.87225 C23.8525,18.0564167 23.997,18.2816667 24.099,18.548 C24.201,18.8143333 24.252,19.1146667 24.252,19.449 C24.252,19.755 24.1981667,20.0369167 24.0905,20.29475 C23.9828333,20.5525833 23.8355,20.7778333 23.6485,20.9705 C23.4615,21.1631667 23.2376667,21.3133333 22.977,21.421 C22.7163333,21.5286667 22.433,21.5825 22.127,21.5825 Z" id="56" fill="#FFFFFF" fill-rule="nonzero"></path>
    </g>
</svg>