<?xml version="1.0" encoding="UTF-8"?>
<svg width="34px" height="34px" viewBox="0 0 34 34" version="1.1" xmlns="http://www.w3.org/2000/svg" xmlns:xlink="http://www.w3.org/1999/xlink">
    <title>ic/grade bubble/57</title>
    <g id="ic/grade-bubble/57" stroke="none" stroke-width="1" fill="none" fill-rule="evenodd">
        <circle id="Oval" fill="#C14923" cx="17.5" cy="17.5" r="16.5"></circle>
        <path d="M17,0 C26.3888407,0 34,7.61115925 34,17 C34,26.3888407 26.3888407,34 17,34 C7.61115925,34 0,26.3888407 0,17 C0,7.61115925 7.61115925,0 17,0 Z M17,2 C8.71572875,2 2,8.71572875 2,17 C2,25.2842712 8.71572875,32 17,32 C25.2842712,32 32,25.2842712 32,17 C32,8.71572875 25.2842712,2 17,2 Z" id="Oval" fill="#FFFFFF" fill-rule="nonzero"></path>
        <path d="M11.6975,23.4695 C12.3718333,23.4695 12.99375,23.3618333 13.56325,23.1465 C14.13275,22.9311667 14.6229167,22.6294167 15.03375,22.24125 C15.4445833,21.8530833 15.7661667,21.3884167 15.9985,20.84725 C16.2308333,20.3060833 16.347,19.7068333 16.347,19.0495 C16.347,18.5225 16.262,18.0295 16.092,17.5705 C15.922,17.1115 15.6684167,16.712 15.33125,16.372 C14.9940833,16.032 14.5775833,15.76425 14.08175,15.56875 C13.5859167,15.37325 13.015,15.2755 12.369,15.2755 C12.148,15.2755 11.9199167,15.2868333 11.68475,15.3095 C11.4495833,15.3321667 11.2045,15.369 10.9495,15.42 L10.9495,15.42 L11.349,13.091 L14.5365,13.091 C14.7858333,13.091 14.9969167,13.0640833 15.16975,13.01025 C15.3425833,12.9564167 15.48425,12.8799167 15.59475,12.78075 C15.70525,12.6815833 15.7845833,12.5654167 15.83275,12.43225 C15.8809167,12.2990833 15.905,12.1503333 15.905,11.986 L15.905,11.986 L15.905,11 L9.717,11 L8.68,17.069 L10.1335,17.477 C10.7115,17.2616667 11.2866667,17.154 11.859,17.154 C12.556,17.154 13.08725,17.32825 13.45275,17.67675 C13.81825,18.02525 14.001,18.5196667 14.001,19.16 C14.001,19.4943333 13.9570833,19.8074167 13.86925,20.09925 C13.7814167,20.3910833 13.64825,20.64325 13.46975,20.85575 C13.29125,21.06825 13.066,21.2354167 12.794,21.35725 C12.522,21.4790833 12.2018333,21.54 11.8335,21.54 C11.4765,21.54 11.1733333,21.4946667 10.924,21.404 C10.6746667,21.3133333 10.4565,21.21275 10.2695,21.10225 C10.0825,20.99175 9.91533333,20.8911667 9.768,20.8005 C9.62066667,20.7098333 9.4705,20.6645 9.3175,20.6645 C9.07383333,20.6645 8.8755,20.7693333 8.7225,20.979 L8.7225,20.979 L8,21.965 C8.20966667,22.1633333 8.44766667,22.3531667 8.714,22.5345 C8.98033333,22.7158333 9.26791667,22.8759167 9.57675,23.01475 C9.88558333,23.1535833 10.2185,23.2640833 10.5755,23.34625 C10.9325,23.4284167 11.3065,23.4695 11.6975,23.4695 Z M20.5205,23.3335 C20.8491667,23.3335 21.1098333,23.257 21.3025,23.104 C21.4951667,22.951 21.6481667,22.7668333 21.7615,22.5515 L21.7615,22.5515 L26.2495,13.176 C26.3118333,13.0513333 26.3755833,12.8983333 26.44075,12.717 C26.5059167,12.5356667 26.5385,12.2976667 26.5385,12.003 L26.5385,12.003 L26.5385,11 L17.945,11 L17.945,12.564 C17.945,12.7 18.00025,12.8218333 18.11075,12.9295 C18.22125,13.0371667 18.3445,13.091 18.4805,13.091 L18.4805,13.091 L24.167,13.091 C24.0196667,13.2496667 23.8865,13.4168333 23.7675,13.5925 C23.6485,13.7681667 23.5323333,13.9636667 23.419,14.179 L23.419,14.179 L18.8205,23.3335 L20.5205,23.3335 Z" id="57" fill="#FFFFFF" fill-rule="nonzero"></path>
    </g>
</svg>