<?xml version="1.0" encoding="UTF-8"?>
<svg width="34px" height="34px" viewBox="0 0 34 34" version="1.1" xmlns="http://www.w3.org/2000/svg" xmlns:xlink="http://www.w3.org/1999/xlink">
    <title>ic/grade bubble/58</title>
    <g id="ic/grade-bubble/58" stroke="none" stroke-width="1" fill="none" fill-rule="evenodd">
        <circle id="Oval" fill="#C14923" cx="17.5" cy="17.5" r="16.5"></circle>
        <path d="M17,0 C26.3888407,0 34,7.61115925 34,17 C34,26.3888407 26.3888407,34 17,34 C7.61115925,34 0,26.3888407 0,17 C0,7.61115925 7.61115925,0 17,0 Z M17,2 C8.71572875,2 2,8.71572875 2,17 C2,25.2842712 8.71572875,32 17,32 C25.2842712,32 32,25.2842712 32,17 C32,8.71572875 25.2842712,2 17,2 Z" id="Oval" fill="#FFFFFF" fill-rule="nonzero"></path>
        <path d="M11.6975,23.6055 C12.3718333,23.6055 12.99375,23.4978333 13.56325,23.2825 C14.13275,23.0671667 14.6229167,22.7654167 15.03375,22.37725 C15.4445833,21.9890833 15.7661667,21.5244167 15.9985,20.98325 C16.2308333,20.4420833 16.347,19.8428333 16.347,19.1855 C16.347,18.6585 16.262,18.1655 16.092,17.7065 C15.922,17.2475 15.6684167,16.848 15.33125,16.508 C14.9940833,16.168 14.5775833,15.90025 14.08175,15.70475 C13.5859167,15.50925 13.015,15.4115 12.369,15.4115 C12.148,15.4115 11.9199167,15.4228333 11.68475,15.4455 C11.4495833,15.4681667 11.2045,15.505 10.9495,15.556 L10.9495,15.556 L11.349,13.227 L14.5365,13.227 C14.7858333,13.227 14.9969167,13.2000833 15.16975,13.14625 C15.3425833,13.0924167 15.48425,13.0159167 15.59475,12.91675 C15.70525,12.8175833 15.7845833,12.7014167 15.83275,12.56825 C15.8809167,12.4350833 15.905,12.2863333 15.905,12.122 L15.905,12.122 L15.905,11.136 L9.717,11.136 L8.68,17.205 L10.1335,17.613 C10.7115,17.3976667 11.2866667,17.29 11.859,17.29 C12.556,17.29 13.08725,17.46425 13.45275,17.81275 C13.81825,18.16125 14.001,18.6556667 14.001,19.296 C14.001,19.6303333 13.9570833,19.9434167 13.86925,20.23525 C13.7814167,20.5270833 13.64825,20.77925 13.46975,20.99175 C13.29125,21.20425 13.066,21.3714167 12.794,21.49325 C12.522,21.6150833 12.2018333,21.676 11.8335,21.676 C11.4765,21.676 11.1733333,21.6306667 10.924,21.54 C10.6746667,21.4493333 10.4565,21.34875 10.2695,21.23825 C10.0825,21.12775 9.91533333,21.0271667 9.768,20.9365 C9.62066667,20.8458333 9.4705,20.8005 9.3175,20.8005 C9.07383333,20.8005 8.8755,20.9053333 8.7225,21.115 L8.7225,21.115 L8,22.101 C8.20966667,22.2993333 8.44766667,22.4891667 8.714,22.6705 C8.98033333,22.8518333 9.26791667,23.0119167 9.57675,23.15075 C9.88558333,23.2895833 10.2185,23.4000833 10.5755,23.48225 C10.9325,23.5644167 11.3065,23.6055 11.6975,23.6055 Z M22.144,23.6055 C22.79,23.6055 23.3793333,23.5190833 23.912,23.34625 C24.4446667,23.1734167 24.9008333,22.92975 25.2805,22.61525 C25.6601667,22.30075 25.9548333,21.9196667 26.1645,21.472 C26.3741667,21.0243333 26.479,20.5256667 26.479,19.976 C26.479,19.2733333 26.309,18.67125 25.969,18.16975 C25.629,17.66825 25.085,17.2928333 24.337,17.0435 C24.9206667,16.7885 25.3555833,16.4315 25.64175,15.9725 C25.9279167,15.5135 26.071,14.9666667 26.071,14.332 C26.071,13.856 25.9746667,13.4154167 25.782,13.01025 C25.5893333,12.6050833 25.31875,12.25375 24.97025,11.95625 C24.62175,11.65875 24.2066667,11.425 23.725,11.255 C23.2433333,11.085 22.7163333,11 22.144,11 C21.5716667,11 21.0446667,11.085 20.563,11.255 C20.0813333,11.425 19.66625,11.65875 19.31775,11.95625 C18.96925,12.25375 18.6986667,12.6050833 18.506,13.01025 C18.3133333,13.4154167 18.217,13.856 18.217,14.332 C18.217,14.9666667 18.3600833,15.5135 18.64625,15.9725 C18.9324167,16.4315 19.3673333,16.7885 19.951,17.0435 C19.203,17.2928333 18.659,17.66825 18.319,18.16975 C17.979,18.67125 17.809,19.2733333 17.809,19.976 C17.809,20.5256667 17.9138333,21.0243333 18.1235,21.472 C18.3331667,21.9196667 18.6278333,22.30075 19.0075,22.61525 C19.3871667,22.92975 19.8433333,23.1734167 20.376,23.34625 C20.9086667,23.5190833 21.498,23.6055 22.144,23.6055 Z M22.144,16.1935 C21.821,16.1935 21.5546667,16.1425 21.345,16.0405 C21.1353333,15.9385 20.9681667,15.8025 20.8435,15.6325 C20.7188333,15.4625 20.631,15.2684167 20.58,15.05025 C20.529,14.8320833 20.5035,14.6068333 20.5035,14.3745 C20.5035,14.1591667 20.5346667,13.9523333 20.597,13.754 C20.6593333,13.5556667 20.7570833,13.3814167 20.89025,13.23125 C21.0234167,13.0810833 21.1934167,12.9606667 21.40025,12.87 C21.6070833,12.7793333 21.855,12.734 22.144,12.734 C22.433,12.734 22.6809167,12.7793333 22.88775,12.87 C23.0945833,12.9606667 23.2645833,13.0810833 23.39775,13.23125 C23.5309167,13.3814167 23.6286667,13.5556667 23.691,13.754 C23.7533333,13.9523333 23.7845,14.1591667 23.7845,14.3745 C23.7845,14.6068333 23.759,14.8320833 23.708,15.05025 C23.657,15.2684167 23.5691667,15.4625 23.4445,15.6325 C23.3198333,15.8025 23.1526667,15.9385 22.943,16.0405 C22.7333333,16.1425 22.467,16.1935 22.144,16.1935 Z M22.144,21.812 C21.821,21.812 21.5390833,21.7638333 21.29825,21.6675 C21.0574167,21.5711667 20.8576667,21.4394167 20.699,21.27225 C20.5403333,21.1050833 20.4213333,20.90675 20.342,20.67725 C20.2626667,20.44775 20.223,20.1998333 20.223,19.9335 C20.223,19.3215 20.38025,18.8469167 20.69475,18.50975 C21.00925,18.1725833 21.4923333,18.004 22.144,18.004 C22.7956667,18.004 23.27875,18.1725833 23.59325,18.50975 C23.90775,18.8469167 24.065,19.3215 24.065,19.9335 C24.065,20.1998333 24.0253333,20.44775 23.946,20.67725 C23.8666667,20.90675 23.7476667,21.1050833 23.589,21.27225 C23.4303333,21.4394167 23.2305833,21.5711667 22.98975,21.6675 C22.7489167,21.7638333 22.467,21.812 22.144,21.812 Z" id="58" fill="#FFFFFF" fill-rule="nonzero"></path>
    </g>
</svg>