<?xml version="1.0" encoding="UTF-8"?>
<svg width="34px" height="34px" viewBox="0 0 34 34" version="1.1" xmlns="http://www.w3.org/2000/svg" xmlns:xlink="http://www.w3.org/1999/xlink">
    <title>ic/grade bubble/59</title>
    <g id="ic/grade-bubble/59" stroke="none" stroke-width="1" fill="none" fill-rule="evenodd">
        <circle id="Oval" fill="#C14923" cx="17.5" cy="17.5" r="16.5"></circle>
        <path d="M17,0 C26.3888407,0 34,7.61115925 34,17 C34,26.3888407 26.3888407,34 17,34 C7.61115925,34 0,26.3888407 0,17 C0,7.61115925 7.61115925,0 17,0 Z M17,2 C8.71572875,2 2,8.71572875 2,17 C2,25.2842712 8.71572875,32 17,32 C25.2842712,32 32,25.2842712 32,17 C32,8.71572875 25.2842712,2 17,2 Z" id="Oval" fill="#FFFFFF" fill-rule="nonzero"></path>
        <path d="M11.6975,23.6055 C12.3718333,23.6055 12.99375,23.4978333 13.56325,23.2825 C14.13275,23.0671667 14.6229167,22.7654167 15.03375,22.37725 C15.4445833,21.9890833 15.7661667,21.5244167 15.9985,20.98325 C16.2308333,20.4420833 16.347,19.8428333 16.347,19.1855 C16.347,18.6585 16.262,18.1655 16.092,17.7065 C15.922,17.2475 15.6684167,16.848 15.33125,16.508 C14.9940833,16.168 14.5775833,15.90025 14.08175,15.70475 C13.5859167,15.50925 13.015,15.4115 12.369,15.4115 C12.148,15.4115 11.9199167,15.4228333 11.68475,15.4455 C11.4495833,15.4681667 11.2045,15.505 10.9495,15.556 L10.9495,15.556 L11.349,13.227 L14.5365,13.227 C14.7858333,13.227 14.9969167,13.2000833 15.16975,13.14625 C15.3425833,13.0924167 15.48425,13.0159167 15.59475,12.91675 C15.70525,12.8175833 15.7845833,12.7014167 15.83275,12.56825 C15.8809167,12.4350833 15.905,12.2863333 15.905,12.122 L15.905,12.122 L15.905,11.136 L9.717,11.136 L8.68,17.205 L10.1335,17.613 C10.7115,17.3976667 11.2866667,17.29 11.859,17.29 C12.556,17.29 13.08725,17.46425 13.45275,17.81275 C13.81825,18.16125 14.001,18.6556667 14.001,19.296 C14.001,19.6303333 13.9570833,19.9434167 13.86925,20.23525 C13.7814167,20.5270833 13.64825,20.77925 13.46975,20.99175 C13.29125,21.20425 13.066,21.3714167 12.794,21.49325 C12.522,21.6150833 12.2018333,21.676 11.8335,21.676 C11.4765,21.676 11.1733333,21.6306667 10.924,21.54 C10.6746667,21.4493333 10.4565,21.34875 10.2695,21.23825 C10.0825,21.12775 9.91533333,21.0271667 9.768,20.9365 C9.62066667,20.8458333 9.4705,20.8005 9.3175,20.8005 C9.07383333,20.8005 8.8755,20.9053333 8.7225,21.115 L8.7225,21.115 L8,22.101 C8.20966667,22.2993333 8.44766667,22.4891667 8.714,22.6705 C8.98033333,22.8518333 9.26791667,23.0119167 9.57675,23.15075 C9.88558333,23.2895833 10.2185,23.4000833 10.5755,23.48225 C10.9325,23.5644167 11.3065,23.6055 11.6975,23.6055 Z M20.954,23.4695 C21.226,23.4695 21.46825,23.4185 21.68075,23.3165 C21.89325,23.2145 22.0561667,23.0898333 22.1695,22.9425 L22.1695,22.9425 L24.915,19.024 C25.1246667,18.735 25.3130833,18.4403333 25.48025,18.14 C25.6474167,17.8396667 25.7905,17.5308333 25.9095,17.2135 C26.0285,16.8961667 26.1191667,16.5618333 26.1815,16.2105 C26.2438333,15.8591667 26.275,15.488 26.275,15.097 C26.275,14.4963333 26.1786667,13.94525 25.986,13.44375 C25.7933333,12.94225 25.5185,12.5101667 25.1615,12.1475 C24.8045,11.7848333 24.3681667,11.5029167 23.8525,11.30175 C23.3368333,11.1005833 22.756,11 22.11,11 C21.4696667,11 20.8874167,11.1076667 20.36325,11.323 C19.8390833,11.5383333 19.39,11.82875 19.016,12.19425 C18.642,12.55975 18.353,12.9875833 18.149,13.47775 C17.945,13.9679167 17.843,14.4878333 17.843,15.0375 C17.843,15.6381667 17.9421667,16.1609167 18.1405,16.60575 C18.3388333,17.0505833 18.5995,17.4203333 18.9225,17.715 C19.2455,18.0096667 19.6095833,18.2306667 20.01475,18.378 C20.4199167,18.5253333 20.8293333,18.599 21.243,18.599 C21.6,18.599 21.9385833,18.5579167 22.25875,18.47575 C22.5789167,18.3935833 22.875,18.2731667 23.147,18.1145 L23.147,18.1145 L22.909,18.4205 C22.8296667,18.5225 22.7475,18.6273333 22.6625,18.735 L22.6625,18.735 L18.795,23.4695 L20.954,23.4695 Z M22.076,16.865 C21.4583333,16.865 20.9894167,16.695 20.66925,16.355 C20.3490833,16.015 20.189,15.5191667 20.189,14.8675 C20.189,14.5841667 20.2329167,14.3206667 20.32075,14.077 C20.4085833,13.8333333 20.5346667,13.62225 20.699,13.44375 C20.8633333,13.26525 21.0616667,13.1264167 21.294,13.02725 C21.5263333,12.9280833 21.7898333,12.8785 22.0845,12.8785 C22.3735,12.8785 22.637,12.9224167 22.875,13.01025 C23.113,13.0980833 23.3184167,13.227 23.49125,13.397 C23.6640833,13.567 23.7986667,13.77525 23.895,14.02175 C23.9913333,14.26825 24.0395,14.553 24.0395,14.876 C24.0395,15.165 23.9955833,15.4313333 23.90775,15.675 C23.8199167,15.9186667 23.6938333,16.1283333 23.5295,16.304 C23.3651667,16.4796667 23.15975,16.6170833 22.91325,16.71625 C22.66675,16.8154167 22.3876667,16.865 22.076,16.865 Z" id="59" fill="#FFFFFF" fill-rule="nonzero"></path>
    </g>
</svg>