<?xml version="1.0" encoding="UTF-8"?>
<svg width="34px" height="34px" viewBox="0 0 34 34" version="1.1" xmlns="http://www.w3.org/2000/svg" xmlns:xlink="http://www.w3.org/1999/xlink">
    <title>ic/grade bubble/6</title>
    <g id="ic/grade-bubble/6" stroke="none" stroke-width="1" fill="none" fill-rule="evenodd">
        <circle id="Oval" fill="#B02424" cx="17.5" cy="17.5" r="16.5"></circle>
        <path d="M17,0 C26.3888407,0 34,7.61115925 34,17 C34,26.3888407 26.3888407,34 17,34 C7.61115925,34 0,26.3888407 0,17 C0,7.61115925 7.61115925,0 17,0 Z M17,2 C8.71572875,2 2,8.71572875 2,17 C2,25.2842712 8.71572875,32 17,32 C25.2842712,32 32,25.2842712 32,17 C32,8.71572875 25.2842712,2 17,2 Z" id="Oval" fill="#FFFFFF" fill-rule="nonzero"></path>
        <path d="M17.3265,23.4695 C17.9895,23.4695 18.5915833,23.359 19.13275,23.138 C19.6739167,22.917 20.1385833,22.6166667 20.52675,22.237 C20.9149167,21.8573333 21.21525,21.4125 21.42775,20.9025 C21.64025,20.3925 21.7465,19.8513333 21.7465,19.279 C21.7465,18.6556667 21.6430833,18.1130833 21.43625,17.65125 C21.2294167,17.1894167 20.956,16.8055 20.616,16.4995 C20.276,16.1935 19.8878333,15.964 19.4515,15.811 C19.0151667,15.658 18.5675,15.5815 18.1085,15.5815 C17.8195,15.5815 17.5503333,15.607 17.301,15.658 C17.0516667,15.709 16.8193333,15.7826667 16.604,15.879 L16.604,15.879 L16.978,15.4285 L20.633,11 L18.5505,11 C18.2671667,11 18.015,11.0538333 17.794,11.1615 C17.573,11.2691667 17.4058333,11.3966667 17.2925,11.544 L17.2925,11.544 L14.428,15.403 C13.9463333,16.049 13.5879167,16.678 13.35275,17.29 C13.1175833,17.902 13,18.5055 13,19.1005 C13,19.7465 13.0991667,20.33725 13.2975,20.87275 C13.4958333,21.40825 13.782,21.8686667 14.156,22.254 C14.53,22.6393333 14.9833333,22.93825 15.516,23.15075 C16.0486667,23.36325 16.6521667,23.4695 17.3265,23.4695 Z M17.284,21.5825 C16.944,21.5825 16.6479167,21.5315 16.39575,21.4295 C16.1435833,21.3275 15.9325,21.183 15.7625,20.996 C15.5925,20.809 15.465,20.58375 15.38,20.32025 C15.295,20.05675 15.2525,19.7635 15.2525,19.4405 C15.2525,19.1288333 15.3020833,18.8426667 15.40125,18.582 C15.5004167,18.3213333 15.63925,18.0960833 15.81775,17.90625 C15.99625,17.7164167 16.2101667,17.5690833 16.4595,17.46425 C16.7088333,17.3594167 16.9836667,17.307 17.284,17.307 C17.6013333,17.307 17.8903333,17.3551667 18.151,17.4515 C18.4116667,17.5478333 18.6355,17.6880833 18.8225,17.87225 C19.0095,18.0564167 19.154,18.2816667 19.256,18.548 C19.358,18.8143333 19.409,19.1146667 19.409,19.449 C19.409,19.755 19.3551667,20.0369167 19.2475,20.29475 C19.1398333,20.5525833 18.9925,20.7778333 18.8055,20.9705 C18.6185,21.1631667 18.3946667,21.3133333 18.134,21.421 C17.8733333,21.5286667 17.59,21.5825 17.284,21.5825 Z" id="6" fill="#FFFFFF" fill-rule="nonzero"></path>
    </g>
</svg>