<?xml version="1.0" encoding="UTF-8"?>
<svg width="34px" height="34px" viewBox="0 0 34 34" version="1.1" xmlns="http://www.w3.org/2000/svg" xmlns:xlink="http://www.w3.org/1999/xlink">
    <title>ic/grade bubble/60</title>
    <g id="ic/grade-bubble/60" stroke="none" stroke-width="1" fill="none" fill-rule="evenodd">
        <circle id="Oval" fill="#9E6711" cx="17.5" cy="17.5" r="16.5"></circle>
        <path d="M17,0 C26.3888407,0 34,7.61115925 34,17 C34,26.3888407 26.3888407,34 17,34 C7.61115925,34 0,26.3888407 0,17 C0,7.61115925 7.61115925,0 17,0 Z M17,2 C8.71572875,2 2,8.71572875 2,17 C2,25.2842712 8.71572875,32 17,32 C25.2842712,32 32,25.2842712 32,17 C32,8.71572875 25.2842712,2 17,2 Z" id="Oval" fill="#FFFFFF" fill-rule="nonzero"></path>
        <path d="M12.3265,23.6055 C12.9895,23.6055 13.5915833,23.495 14.13275,23.274 C14.6739167,23.053 15.1385833,22.7526667 15.52675,22.373 C15.9149167,21.9933333 16.21525,21.5485 16.42775,21.0385 C16.64025,20.5285 16.7465,19.9873333 16.7465,19.415 C16.7465,18.7916667 16.6430833,18.2490833 16.43625,17.78725 C16.2294167,17.3254167 15.956,16.9415 15.616,16.6355 C15.276,16.3295 14.8878333,16.1 14.4515,15.947 C14.0151667,15.794 13.5675,15.7175 13.1085,15.7175 C12.8195,15.7175 12.5503333,15.743 12.301,15.794 C12.0516667,15.845 11.8193333,15.9186667 11.604,16.015 L11.604,16.015 L11.978,15.5645 L15.633,11.136 L13.5505,11.136 C13.2671667,11.136 13.015,11.1898333 12.794,11.2975 C12.573,11.4051667 12.4058333,11.5326667 12.2925,11.68 L12.2925,11.68 L9.428,15.539 C8.94633333,16.185 8.58791667,16.814 8.35275,17.426 C8.11758333,18.038 8,18.6415 8,19.2365 C8,19.8825 8.09916667,20.47325 8.2975,21.00875 C8.49583333,21.54425 8.782,22.0046667 9.156,22.39 C9.53,22.7753333 9.98333333,23.07425 10.516,23.28675 C11.0486667,23.49925 11.6521667,23.6055 12.3265,23.6055 Z M12.284,21.7185 C11.944,21.7185 11.6479167,21.6675 11.39575,21.5655 C11.1435833,21.4635 10.9325,21.319 10.7625,21.132 C10.5925,20.945 10.465,20.71975 10.38,20.45625 C10.295,20.19275 10.2525,19.8995 10.2525,19.5765 C10.2525,19.2648333 10.3020833,18.9786667 10.40125,18.718 C10.5004167,18.4573333 10.63925,18.2320833 10.81775,18.04225 C10.99625,17.8524167 11.2101667,17.7050833 11.4595,17.60025 C11.7088333,17.4954167 11.9836667,17.443 12.284,17.443 C12.6013333,17.443 12.8903333,17.4911667 13.151,17.5875 C13.4116667,17.6838333 13.6355,17.8240833 13.8225,18.00825 C14.0095,18.1924167 14.154,18.4176667 14.256,18.684 C14.358,18.9503333 14.409,19.2506667 14.409,19.585 C14.409,19.891 14.3551667,20.1729167 14.2475,20.43075 C14.1398333,20.6885833 13.9925,20.9138333 13.8055,21.1065 C13.6185,21.2991667 13.3946667,21.4493333 13.134,21.557 C12.8733333,21.6646667 12.59,21.7185 12.284,21.7185 Z M22.144,23.6055 C22.79,23.6055 23.3920833,23.4794167 23.95025,23.22725 C24.5084167,22.9750833 24.9915,22.58975 25.3995,22.07125 C25.8075,21.55275 26.1276667,20.8968333 26.36,20.1035 C26.5923333,19.3101667 26.7085,18.3751667 26.7085,17.2985 C26.7085,16.2218333 26.5923333,15.28825 26.36,14.49775 C26.1276667,13.70725 25.8075,13.05275 25.3995,12.53425 C24.9915,12.01575 24.5084167,11.6304167 23.95025,11.37825 C23.3920833,11.1260833 22.79,11 22.144,11 C21.498,11 20.8973333,11.1260833 20.342,11.37825 C19.7866667,11.6304167 19.3078333,12.01575 18.9055,12.53425 C18.5031667,13.05275 18.18725,13.70725 17.95775,14.49775 C17.72825,15.28825 17.6135,16.2218333 17.6135,17.2985 C17.6135,18.3751667 17.72825,19.3101667 17.95775,20.1035 C18.18725,20.8968333 18.5031667,21.55275 18.9055,22.07125 C19.3078333,22.58975 19.7866667,22.9750833 20.342,23.22725 C20.8973333,23.4794167 21.498,23.6055 22.144,23.6055 Z M22.144,21.693 C21.872,21.693 21.6099167,21.6278333 21.35775,21.4975 C21.1055833,21.3671667 20.88175,21.1376667 20.68625,20.809 C20.49075,20.4803333 20.3335,20.0326667 20.2145,19.466 C20.0955,18.8993333 20.036,18.1768333 20.036,17.2985 C20.036,16.4258333 20.0955,15.7061667 20.2145,15.1395 C20.3335,14.5728333 20.49075,14.1251667 20.68625,13.7965 C20.88175,13.4678333 21.1055833,13.2383333 21.35775,13.108 C21.6099167,12.9776667 21.872,12.9125 22.144,12.9125 C22.416,12.9125 22.6809167,12.9776667 22.93875,13.108 C23.1965833,13.2383333 23.4246667,13.4678333 23.623,13.7965 C23.8213333,14.1251667 23.9814167,14.5728333 24.10325,15.1395 C24.2250833,15.7061667 24.286,16.4258333 24.286,17.2985 C24.286,18.1768333 24.2250833,18.8993333 24.10325,19.466 C23.9814167,20.0326667 23.8213333,20.4803333 23.623,20.809 C23.4246667,21.1376667 23.1965833,21.3671667 22.93875,21.4975 C22.6809167,21.6278333 22.416,21.693 22.144,21.693 Z" id="60" fill="#FFFFFF" fill-rule="nonzero"></path>
    </g>
</svg>