<?xml version="1.0" encoding="UTF-8"?>
<svg width="34px" height="34px" viewBox="0 0 34 34" version="1.1" xmlns="http://www.w3.org/2000/svg" xmlns:xlink="http://www.w3.org/1999/xlink">
    <title>ic/grade bubble/61</title>
    <g id="ic/grade-bubble/61" stroke="none" stroke-width="1" fill="none" fill-rule="evenodd">
        <circle id="Oval" fill="#9E6711" cx="17.5" cy="17.5" r="16.5"></circle>
        <path d="M17,0 C26.3888407,0 34,7.61115925 34,17 C34,26.3888407 26.3888407,34 17,34 C7.61115925,34 0,26.3888407 0,17 C0,7.61115925 7.61115925,0 17,0 Z M17,2 C8.71572875,2 2,8.71572875 2,17 C2,25.2842712 8.71572875,32 17,32 C25.2842712,32 32,25.2842712 32,17 C32,8.71572875 25.2842712,2 17,2 Z" id="Oval" fill="#FFFFFF" fill-rule="nonzero"></path>
        <path d="M12.3265,23.478 C12.9895,23.478 13.5915833,23.3675 14.13275,23.1465 C14.6739167,22.9255 15.1385833,22.6251667 15.52675,22.2455 C15.9149167,21.8658333 16.21525,21.421 16.42775,20.911 C16.64025,20.401 16.7465,19.8598333 16.7465,19.2875 C16.7465,18.6641667 16.6430833,18.1215833 16.43625,17.65975 C16.2294167,17.1979167 15.956,16.814 15.616,16.508 C15.276,16.202 14.8878333,15.9725 14.4515,15.8195 C14.0151667,15.6665 13.5675,15.59 13.1085,15.59 C12.8195,15.59 12.5503333,15.6155 12.301,15.6665 C12.0516667,15.7175 11.8193333,15.7911667 11.604,15.8875 L11.604,15.8875 L11.978,15.437 L15.633,11.0085 L13.5505,11.0085 C13.2671667,11.0085 13.015,11.0623333 12.794,11.17 C12.573,11.2776667 12.4058333,11.4051667 12.2925,11.5525 L12.2925,11.5525 L9.428,15.4115 C8.94633333,16.0575 8.58791667,16.6865 8.35275,17.2985 C8.11758333,17.9105 8,18.514 8,19.109 C8,19.755 8.09916667,20.34575 8.2975,20.88125 C8.49583333,21.41675 8.782,21.8771667 9.156,22.2625 C9.53,22.6478333 9.98333333,22.94675 10.516,23.15925 C11.0486667,23.37175 11.6521667,23.478 12.3265,23.478 Z M12.284,21.591 C11.944,21.591 11.6479167,21.54 11.39575,21.438 C11.1435833,21.336 10.9325,21.1915 10.7625,21.0045 C10.5925,20.8175 10.465,20.59225 10.38,20.32875 C10.295,20.06525 10.2525,19.772 10.2525,19.449 C10.2525,19.1373333 10.3020833,18.8511667 10.40125,18.5905 C10.5004167,18.3298333 10.63925,18.1045833 10.81775,17.91475 C10.99625,17.7249167 11.2101667,17.5775833 11.4595,17.47275 C11.7088333,17.3679167 11.9836667,17.3155 12.284,17.3155 C12.6013333,17.3155 12.8903333,17.3636667 13.151,17.46 C13.4116667,17.5563333 13.6355,17.6965833 13.8225,17.88075 C14.0095,18.0649167 14.154,18.2901667 14.256,18.5565 C14.358,18.8228333 14.409,19.1231667 14.409,19.4575 C14.409,19.7635 14.3551667,20.0454167 14.2475,20.30325 C14.1398333,20.5610833 13.9925,20.7863333 13.8055,20.979 C13.6185,21.1716667 13.3946667,21.3218333 13.134,21.4295 C12.8733333,21.5371667 12.59,21.591 12.284,21.591 Z M26.088,23.342 L26.088,21.6165 L23.9545,21.6165 L23.9545,11 L22.025,11 L18.234,14.213 L18.9735,15.2075 C19.0131667,15.2585 19.0698333,15.3080833 19.1435,15.35625 C19.2171667,15.4044167 19.3021667,15.4384167 19.3985,15.45825 C19.4948333,15.4780833 19.5968333,15.4766667 19.7045,15.454 C19.8121667,15.4313333 19.9226667,15.3775 20.036,15.2925 L20.036,15.2925 L21.651,13.9495 C21.6396667,14.1081667 21.6311667,14.264 21.6255,14.417 C21.6198333,14.57 21.617,14.7201667 21.617,14.8675 L21.617,14.8675 L21.617,21.6165 L19.169,21.6165 L19.169,23.342 L26.088,23.342 Z" id="61" fill="#FFFFFF" fill-rule="nonzero"></path>
    </g>
</svg>