<?xml version="1.0" encoding="UTF-8"?>
<svg width="34px" height="34px" viewBox="0 0 34 34" version="1.1" xmlns="http://www.w3.org/2000/svg" xmlns:xlink="http://www.w3.org/1999/xlink">
    <title>ic/grade bubble/63</title>
    <g id="ic/grade-bubble/63" stroke="none" stroke-width="1" fill="none" fill-rule="evenodd">
        <circle id="Oval" fill="#9E6711" cx="17.5" cy="17.5" r="16.5"></circle>
        <path d="M17,0 C26.3888407,0 34,7.61115925 34,17 C34,26.3888407 26.3888407,34 17,34 C7.61115925,34 0,26.3888407 0,17 C0,7.61115925 7.61115925,0 17,0 Z M17,2 C8.71572875,2 2,8.71572875 2,17 C2,25.2842712 8.71572875,32 17,32 C25.2842712,32 32,25.2842712 32,17 C32,8.71572875 25.2842712,2 17,2 Z" id="Oval" fill="#FFFFFF" fill-rule="nonzero"></path>
        <path d="M12.3265,23.6055 C12.9895,23.6055 13.5915833,23.495 14.13275,23.274 C14.6739167,23.053 15.1385833,22.7526667 15.52675,22.373 C15.9149167,21.9933333 16.21525,21.5485 16.42775,21.0385 C16.64025,20.5285 16.7465,19.9873333 16.7465,19.415 C16.7465,18.7916667 16.6430833,18.2490833 16.43625,17.78725 C16.2294167,17.3254167 15.956,16.9415 15.616,16.6355 C15.276,16.3295 14.8878333,16.1 14.4515,15.947 C14.0151667,15.794 13.5675,15.7175 13.1085,15.7175 C12.8195,15.7175 12.5503333,15.743 12.301,15.794 C12.0516667,15.845 11.8193333,15.9186667 11.604,16.015 L11.604,16.015 L11.978,15.5645 L15.633,11.136 L13.5505,11.136 C13.2671667,11.136 13.015,11.1898333 12.794,11.2975 C12.573,11.4051667 12.4058333,11.5326667 12.2925,11.68 L12.2925,11.68 L9.428,15.539 C8.94633333,16.185 8.58791667,16.814 8.35275,17.426 C8.11758333,18.038 8,18.6415 8,19.2365 C8,19.8825 8.09916667,20.47325 8.2975,21.00875 C8.49583333,21.54425 8.782,22.0046667 9.156,22.39 C9.53,22.7753333 9.98333333,23.07425 10.516,23.28675 C11.0486667,23.49925 11.6521667,23.6055 12.3265,23.6055 Z M12.284,21.7185 C11.944,21.7185 11.6479167,21.6675 11.39575,21.5655 C11.1435833,21.4635 10.9325,21.319 10.7625,21.132 C10.5925,20.945 10.465,20.71975 10.38,20.45625 C10.295,20.19275 10.2525,19.8995 10.2525,19.5765 C10.2525,19.2648333 10.3020833,18.9786667 10.40125,18.718 C10.5004167,18.4573333 10.63925,18.2320833 10.81775,18.04225 C10.99625,17.8524167 11.2101667,17.7050833 11.4595,17.60025 C11.7088333,17.4954167 11.9836667,17.443 12.284,17.443 C12.6013333,17.443 12.8903333,17.4911667 13.151,17.5875 C13.4116667,17.6838333 13.6355,17.8240833 13.8225,18.00825 C14.0095,18.1924167 14.154,18.4176667 14.256,18.684 C14.358,18.9503333 14.409,19.2506667 14.409,19.585 C14.409,19.891 14.3551667,20.1729167 14.2475,20.43075 C14.1398333,20.6885833 13.9925,20.9138333 13.8055,21.1065 C13.6185,21.2991667 13.3946667,21.4493333 13.134,21.557 C12.8733333,21.6646667 12.59,21.7185 12.284,21.7185 Z M22.076,23.6055 C22.6426667,23.6055 23.18525,23.52475 23.70375,23.36325 C24.22225,23.20175 24.677,22.9595 25.068,22.6365 C25.459,22.3135 25.7706667,21.9125833 26.003,21.43375 C26.2353333,20.9549167 26.3515,20.401 26.3515,19.772 C26.3515,18.3496667 25.6431667,17.4061667 24.2265,16.9415 C24.5325,16.8395 24.8030833,16.712 25.03825,16.559 C25.2734167,16.406 25.47175,16.219 25.63325,15.998 C25.79475,15.777 25.9165833,15.51775 25.99875,15.22025 C26.0809167,14.92275 26.122,14.5785 26.122,14.1875 C26.122,13.7455 26.0355833,13.3318333 25.86275,12.9465 C25.6899167,12.5611667 25.442,12.224 25.119,11.935 C24.796,11.646 24.40075,11.4179167 23.93325,11.25075 C23.46575,11.0835833 22.9373333,11 22.348,11 C21.7926667,11 21.2755833,11.0750833 20.79675,11.22525 C20.3179167,11.3754167 19.8915,11.6006667 19.5175,11.901 C19.1435,12.2013333 18.8318333,12.5781667 18.5825,13.0315 C18.3331667,13.4848333 18.1631667,14.0118333 18.0725,14.6125 L18.0725,14.6125 L19.305,14.8335 C19.628,14.8845 19.8745,14.86325 20.0445,14.76975 C20.2145,14.67625 20.3533333,14.4878333 20.461,14.2045 C20.512,14.0231667 20.5913333,13.856 20.699,13.703 C20.8066667,13.55 20.9355833,13.4168333 21.08575,13.3035 C21.2359167,13.1901667 21.4059167,13.1009167 21.59575,13.03575 C21.7855833,12.9705833 21.9938333,12.938 22.2205,12.938 C22.7361667,12.938 23.13425,13.0796667 23.41475,13.363 C23.69525,13.6463333 23.8355,14.0571667 23.8355,14.5955 C23.8355,14.8505 23.8000833,15.0856667 23.72925,15.301 C23.6584167,15.5163333 23.5295,15.7005 23.3425,15.8535 C23.1555,16.0065 22.8976667,16.1255 22.569,16.2105 C22.2403333,16.2955 21.8181667,16.338 21.3025,16.338 L21.3025,16.338 L21.3025,17.987 C21.9201667,17.987 22.4089167,18.0309167 22.76875,18.11875 C23.1285833,18.2065833 23.4005833,18.33125 23.58475,18.49275 C23.7689167,18.65425 23.8865,18.84975 23.9375,19.07925 C23.9885,19.30875 24.014,19.5651667 24.014,19.8485 C24.014,20.0638333 23.9729167,20.2805833 23.89075,20.49875 C23.8085833,20.7169167 23.6853333,20.9124167 23.521,21.08525 C23.3566667,21.2580833 23.1526667,21.3983333 22.909,21.506 C22.6653333,21.6136667 22.3791667,21.6675 22.0505,21.6675 C21.7898333,21.6675 21.5589167,21.6306667 21.35775,21.557 C21.1565833,21.4833333 20.9766667,21.3799167 20.818,21.24675 C20.6593333,21.1135833 20.51625,20.9563333 20.38875,20.775 C20.26125,20.5936667 20.1408333,20.3953333 20.0275,20.18 C19.9255,19.9816667 19.7569167,19.857 19.52175,19.806 C19.2865833,19.755 19.033,19.7861667 18.761,19.8995 L18.761,19.8995 L17.724,20.3245 C17.911,20.8741667 18.1291667,21.3544167 18.3785,21.76525 C18.6278333,22.1760833 18.92675,22.5175 19.27525,22.7895 C19.62375,23.0615 20.0275,23.2655 20.4865,23.4015 C20.9455,23.5375 21.4753333,23.6055 22.076,23.6055 Z" id="63" fill="#FFFFFF" fill-rule="nonzero"></path>
    </g>
</svg>