<?xml version="1.0" encoding="UTF-8"?>
<svg width="34px" height="34px" viewBox="0 0 34 34" version="1.1" xmlns="http://www.w3.org/2000/svg" xmlns:xlink="http://www.w3.org/1999/xlink">
    <title>ic/grade bubble/65</title>
    <g id="ic/grade-bubble/65" stroke="none" stroke-width="1" fill="none" fill-rule="evenodd">
        <circle id="Oval" fill="#9E6711" cx="17.5" cy="17.5" r="16.5"></circle>
        <path d="M17,0 C26.3888407,0 34,7.61115925 34,17 C34,26.3888407 26.3888407,34 17,34 C7.61115925,34 0,26.3888407 0,17 C0,7.61115925 7.61115925,0 17,0 Z M17,2 C8.71572875,2 2,8.71572875 2,17 C2,25.2842712 8.71572875,32 17,32 C25.2842712,32 32,25.2842712 32,17 C32,8.71572875 25.2842712,2 17,2 Z" id="Oval" fill="#FFFFFF" fill-rule="nonzero"></path>
        <path d="M12.3265,23.4695 C12.9895,23.4695 13.5915833,23.359 14.13275,23.138 C14.6739167,22.917 15.1385833,22.6166667 15.52675,22.237 C15.9149167,21.8573333 16.21525,21.4125 16.42775,20.9025 C16.64025,20.3925 16.7465,19.8513333 16.7465,19.279 C16.7465,18.6556667 16.6430833,18.1130833 16.43625,17.65125 C16.2294167,17.1894167 15.956,16.8055 15.616,16.4995 C15.276,16.1935 14.8878333,15.964 14.4515,15.811 C14.0151667,15.658 13.5675,15.5815 13.1085,15.5815 C12.8195,15.5815 12.5503333,15.607 12.301,15.658 C12.0516667,15.709 11.8193333,15.7826667 11.604,15.879 L11.604,15.879 L11.978,15.4285 L15.633,11 L13.5505,11 C13.2671667,11 13.015,11.0538333 12.794,11.1615 C12.573,11.2691667 12.4058333,11.3966667 12.2925,11.544 L12.2925,11.544 L9.428,15.403 C8.94633333,16.049 8.58791667,16.678 8.35275,17.29 C8.11758333,17.902 8,18.5055 8,19.1005 C8,19.7465 8.09916667,20.33725 8.2975,20.87275 C8.49583333,21.40825 8.782,21.8686667 9.156,22.254 C9.53,22.6393333 9.98333333,22.93825 10.516,23.15075 C11.0486667,23.36325 11.6521667,23.4695 12.3265,23.4695 Z M12.284,21.5825 C11.944,21.5825 11.6479167,21.5315 11.39575,21.4295 C11.1435833,21.3275 10.9325,21.183 10.7625,20.996 C10.5925,20.809 10.465,20.58375 10.38,20.32025 C10.295,20.05675 10.2525,19.7635 10.2525,19.4405 C10.2525,19.1288333 10.3020833,18.8426667 10.40125,18.582 C10.5004167,18.3213333 10.63925,18.0960833 10.81775,17.90625 C10.99625,17.7164167 11.2101667,17.5690833 11.4595,17.46425 C11.7088333,17.3594167 11.9836667,17.307 12.284,17.307 C12.6013333,17.307 12.8903333,17.3551667 13.151,17.4515 C13.4116667,17.5478333 13.6355,17.6880833 13.8225,17.87225 C14.0095,18.0564167 14.154,18.2816667 14.256,18.548 C14.358,18.8143333 14.409,19.1146667 14.409,19.449 C14.409,19.755 14.3551667,20.0369167 14.2475,20.29475 C14.1398333,20.5525833 13.9925,20.7778333 13.8055,20.9705 C13.6185,21.1631667 13.3946667,21.3133333 13.134,21.421 C12.8733333,21.5286667 12.59,21.5825 12.284,21.5825 Z M21.5745,23.4695 C22.2488333,23.4695 22.87075,23.3618333 23.44025,23.1465 C24.00975,22.9311667 24.4999167,22.6294167 24.91075,22.24125 C25.3215833,21.8530833 25.6431667,21.3884167 25.8755,20.84725 C26.1078333,20.3060833 26.224,19.7068333 26.224,19.0495 C26.224,18.5225 26.139,18.0295 25.969,17.5705 C25.799,17.1115 25.5454167,16.712 25.20825,16.372 C24.8710833,16.032 24.4545833,15.76425 23.95875,15.56875 C23.4629167,15.37325 22.892,15.2755 22.246,15.2755 C22.025,15.2755 21.7969167,15.2868333 21.56175,15.3095 C21.3265833,15.3321667 21.0815,15.369 20.8265,15.42 L20.8265,15.42 L21.226,13.091 L24.4135,13.091 C24.6628333,13.091 24.8739167,13.0640833 25.04675,13.01025 C25.2195833,12.9564167 25.36125,12.8799167 25.47175,12.78075 C25.58225,12.6815833 25.6615833,12.5654167 25.70975,12.43225 C25.7579167,12.2990833 25.782,12.1503333 25.782,11.986 L25.782,11.986 L25.782,11 L19.594,11 L18.557,17.069 L20.0105,17.477 C20.5885,17.2616667 21.1636667,17.154 21.736,17.154 C22.433,17.154 22.96425,17.32825 23.32975,17.67675 C23.69525,18.02525 23.878,18.5196667 23.878,19.16 C23.878,19.4943333 23.8340833,19.8074167 23.74625,20.09925 C23.6584167,20.3910833 23.52525,20.64325 23.34675,20.85575 C23.16825,21.06825 22.943,21.2354167 22.671,21.35725 C22.399,21.4790833 22.0788333,21.54 21.7105,21.54 C21.3535,21.54 21.0503333,21.4946667 20.801,21.404 C20.5516667,21.3133333 20.3335,21.21275 20.1465,21.10225 C19.9595,20.99175 19.7923333,20.8911667 19.645,20.8005 C19.4976667,20.7098333 19.3475,20.6645 19.1945,20.6645 C18.9508333,20.6645 18.7525,20.7693333 18.5995,20.979 L18.5995,20.979 L17.877,21.965 C18.0866667,22.1633333 18.3246667,22.3531667 18.591,22.5345 C18.8573333,22.7158333 19.1449167,22.8759167 19.45375,23.01475 C19.7625833,23.1535833 20.0955,23.2640833 20.4525,23.34625 C20.8095,23.4284167 21.1835,23.4695 21.5745,23.4695 Z" id="65" fill="#FFFFFF" fill-rule="nonzero"></path>
    </g>
</svg>