<?xml version="1.0" encoding="UTF-8"?>
<svg width="34px" height="34px" viewBox="0 0 34 34" version="1.1" xmlns="http://www.w3.org/2000/svg" xmlns:xlink="http://www.w3.org/1999/xlink">
    <title>ic/grade bubble/66</title>
    <g id="ic/grade-bubble/66" stroke="none" stroke-width="1" fill="none" fill-rule="evenodd">
        <circle id="Oval" fill="#9E6711" cx="17.5" cy="17.5" r="16.5"></circle>
        <path d="M17,0 C26.3888407,0 34,7.61115925 34,17 C34,26.3888407 26.3888407,34 17,34 C7.61115925,34 0,26.3888407 0,17 C0,7.61115925 7.61115925,0 17,0 Z M17,2 C8.71572875,2 2,8.71572875 2,17 C2,25.2842712 8.71572875,32 17,32 C25.2842712,32 32,25.2842712 32,17 C32,8.71572875 25.2842712,2 17,2 Z" id="Oval" fill="#FFFFFF" fill-rule="nonzero"></path>
        <path d="M12.3265,23.4695 C12.9895,23.4695 13.5915833,23.359 14.13275,23.138 C14.6739167,22.917 15.1385833,22.6166667 15.52675,22.237 C15.9149167,21.8573333 16.21525,21.4125 16.42775,20.9025 C16.64025,20.3925 16.7465,19.8513333 16.7465,19.279 C16.7465,18.6556667 16.6430833,18.1130833 16.43625,17.65125 C16.2294167,17.1894167 15.956,16.8055 15.616,16.4995 C15.276,16.1935 14.8878333,15.964 14.4515,15.811 C14.0151667,15.658 13.5675,15.5815 13.1085,15.5815 C12.8195,15.5815 12.5503333,15.607 12.301,15.658 C12.0516667,15.709 11.8193333,15.7826667 11.604,15.879 L11.604,15.879 L11.978,15.4285 L15.633,11 L13.5505,11 C13.2671667,11 13.015,11.0538333 12.794,11.1615 C12.573,11.2691667 12.4058333,11.3966667 12.2925,11.544 L12.2925,11.544 L9.428,15.403 C8.94633333,16.049 8.58791667,16.678 8.35275,17.29 C8.11758333,17.902 8,18.5055 8,19.1005 C8,19.7465 8.09916667,20.33725 8.2975,20.87275 C8.49583333,21.40825 8.782,21.8686667 9.156,22.254 C9.53,22.6393333 9.98333333,22.93825 10.516,23.15075 C11.0486667,23.36325 11.6521667,23.4695 12.3265,23.4695 Z M12.284,21.5825 C11.944,21.5825 11.6479167,21.5315 11.39575,21.4295 C11.1435833,21.3275 10.9325,21.183 10.7625,20.996 C10.5925,20.809 10.465,20.58375 10.38,20.32025 C10.295,20.05675 10.2525,19.7635 10.2525,19.4405 C10.2525,19.1288333 10.3020833,18.8426667 10.40125,18.582 C10.5004167,18.3213333 10.63925,18.0960833 10.81775,17.90625 C10.99625,17.7164167 11.2101667,17.5690833 11.4595,17.46425 C11.7088333,17.3594167 11.9836667,17.307 12.284,17.307 C12.6013333,17.307 12.8903333,17.3551667 13.151,17.4515 C13.4116667,17.5478333 13.6355,17.6880833 13.8225,17.87225 C14.0095,18.0564167 14.154,18.2816667 14.256,18.548 C14.358,18.8143333 14.409,19.1146667 14.409,19.449 C14.409,19.755 14.3551667,20.0369167 14.2475,20.29475 C14.1398333,20.5525833 13.9925,20.7778333 13.8055,20.9705 C13.6185,21.1631667 13.3946667,21.3133333 13.134,21.421 C12.8733333,21.5286667 12.59,21.5825 12.284,21.5825 Z M22.1865,23.4695 C22.8495,23.4695 23.4515833,23.359 23.99275,23.138 C24.5339167,22.917 24.9985833,22.6166667 25.38675,22.237 C25.7749167,21.8573333 26.07525,21.4125 26.28775,20.9025 C26.50025,20.3925 26.6065,19.8513333 26.6065,19.279 C26.6065,18.6556667 26.5030833,18.1130833 26.29625,17.65125 C26.0894167,17.1894167 25.816,16.8055 25.476,16.4995 C25.136,16.1935 24.7478333,15.964 24.3115,15.811 C23.8751667,15.658 23.4275,15.5815 22.9685,15.5815 C22.6795,15.5815 22.4103333,15.607 22.161,15.658 C21.9116667,15.709 21.6793333,15.7826667 21.464,15.879 L21.464,15.879 L21.838,15.4285 L25.493,11 L23.4105,11 C23.1271667,11 22.875,11.0538333 22.654,11.1615 C22.433,11.2691667 22.2658333,11.3966667 22.1525,11.544 L22.1525,11.544 L19.288,15.403 C18.8063333,16.049 18.4479167,16.678 18.21275,17.29 C17.9775833,17.902 17.86,18.5055 17.86,19.1005 C17.86,19.7465 17.9591667,20.33725 18.1575,20.87275 C18.3558333,21.40825 18.642,21.8686667 19.016,22.254 C19.39,22.6393333 19.8433333,22.93825 20.376,23.15075 C20.9086667,23.36325 21.5121667,23.4695 22.1865,23.4695 Z M22.144,21.5825 C21.804,21.5825 21.5079167,21.5315 21.25575,21.4295 C21.0035833,21.3275 20.7925,21.183 20.6225,20.996 C20.4525,20.809 20.325,20.58375 20.24,20.32025 C20.155,20.05675 20.1125,19.7635 20.1125,19.4405 C20.1125,19.1288333 20.1620833,18.8426667 20.26125,18.582 C20.3604167,18.3213333 20.49925,18.0960833 20.67775,17.90625 C20.85625,17.7164167 21.0701667,17.5690833 21.3195,17.46425 C21.5688333,17.3594167 21.8436667,17.307 22.144,17.307 C22.4613333,17.307 22.7503333,17.3551667 23.011,17.4515 C23.2716667,17.5478333 23.4955,17.6880833 23.6825,17.87225 C23.8695,18.0564167 24.014,18.2816667 24.116,18.548 C24.218,18.8143333 24.269,19.1146667 24.269,19.449 C24.269,19.755 24.2151667,20.0369167 24.1075,20.29475 C23.9998333,20.5525833 23.8525,20.7778333 23.6655,20.9705 C23.4785,21.1631667 23.2546667,21.3133333 22.994,21.421 C22.7333333,21.5286667 22.45,21.5825 22.144,21.5825 Z" id="66" fill="#FFFFFF" fill-rule="nonzero"></path>
    </g>
</svg>