<?xml version="1.0" encoding="UTF-8"?>
<svg width="34px" height="34px" viewBox="0 0 34 34" version="1.1" xmlns="http://www.w3.org/2000/svg" xmlns:xlink="http://www.w3.org/1999/xlink">
    <title>ic/grade bubble/68</title>
    <g id="ic/grade-bubble/68" stroke="none" stroke-width="1" fill="none" fill-rule="evenodd">
        <circle id="Oval" fill="#9E6711" cx="17.5" cy="17.5" r="16.5"></circle>
        <path d="M17,0 C26.3888407,0 34,7.61115925 34,17 C34,26.3888407 26.3888407,34 17,34 C7.61115925,34 0,26.3888407 0,17 C0,7.61115925 7.61115925,0 17,0 Z M17,2 C8.71572875,2 2,8.71572875 2,17 C2,25.2842712 8.71572875,32 17,32 C25.2842712,32 32,25.2842712 32,17 C32,8.71572875 25.2842712,2 17,2 Z" id="Oval" fill="#FFFFFF" fill-rule="nonzero"></path>
        <path d="M12.3265,23.6055 C12.9895,23.6055 13.5915833,23.495 14.13275,23.274 C14.6739167,23.053 15.1385833,22.7526667 15.52675,22.373 C15.9149167,21.9933333 16.21525,21.5485 16.42775,21.0385 C16.64025,20.5285 16.7465,19.9873333 16.7465,19.415 C16.7465,18.7916667 16.6430833,18.2490833 16.43625,17.78725 C16.2294167,17.3254167 15.956,16.9415 15.616,16.6355 C15.276,16.3295 14.8878333,16.1 14.4515,15.947 C14.0151667,15.794 13.5675,15.7175 13.1085,15.7175 C12.8195,15.7175 12.5503333,15.743 12.301,15.794 C12.0516667,15.845 11.8193333,15.9186667 11.604,16.015 L11.604,16.015 L11.978,15.5645 L15.633,11.136 L13.5505,11.136 C13.2671667,11.136 13.015,11.1898333 12.794,11.2975 C12.573,11.4051667 12.4058333,11.5326667 12.2925,11.68 L12.2925,11.68 L9.428,15.539 C8.94633333,16.185 8.58791667,16.814 8.35275,17.426 C8.11758333,18.038 8,18.6415 8,19.2365 C8,19.8825 8.09916667,20.47325 8.2975,21.00875 C8.49583333,21.54425 8.782,22.0046667 9.156,22.39 C9.53,22.7753333 9.98333333,23.07425 10.516,23.28675 C11.0486667,23.49925 11.6521667,23.6055 12.3265,23.6055 Z M12.284,21.7185 C11.944,21.7185 11.6479167,21.6675 11.39575,21.5655 C11.1435833,21.4635 10.9325,21.319 10.7625,21.132 C10.5925,20.945 10.465,20.71975 10.38,20.45625 C10.295,20.19275 10.2525,19.8995 10.2525,19.5765 C10.2525,19.2648333 10.3020833,18.9786667 10.40125,18.718 C10.5004167,18.4573333 10.63925,18.2320833 10.81775,18.04225 C10.99625,17.8524167 11.2101667,17.7050833 11.4595,17.60025 C11.7088333,17.4954167 11.9836667,17.443 12.284,17.443 C12.6013333,17.443 12.8903333,17.4911667 13.151,17.5875 C13.4116667,17.6838333 13.6355,17.8240833 13.8225,18.00825 C14.0095,18.1924167 14.154,18.4176667 14.256,18.684 C14.358,18.9503333 14.409,19.2506667 14.409,19.585 C14.409,19.891 14.3551667,20.1729167 14.2475,20.43075 C14.1398333,20.6885833 13.9925,20.9138333 13.8055,21.1065 C13.6185,21.2991667 13.3946667,21.4493333 13.134,21.557 C12.8733333,21.6646667 12.59,21.7185 12.284,21.7185 Z M22.161,23.6055 C22.807,23.6055 23.3963333,23.5190833 23.929,23.34625 C24.4616667,23.1734167 24.9178333,22.92975 25.2975,22.61525 C25.6771667,22.30075 25.9718333,21.9196667 26.1815,21.472 C26.3911667,21.0243333 26.496,20.5256667 26.496,19.976 C26.496,19.2733333 26.326,18.67125 25.986,18.16975 C25.646,17.66825 25.102,17.2928333 24.354,17.0435 C24.9376667,16.7885 25.3725833,16.4315 25.65875,15.9725 C25.9449167,15.5135 26.088,14.9666667 26.088,14.332 C26.088,13.856 25.9916667,13.4154167 25.799,13.01025 C25.6063333,12.6050833 25.33575,12.25375 24.98725,11.95625 C24.63875,11.65875 24.2236667,11.425 23.742,11.255 C23.2603333,11.085 22.7333333,11 22.161,11 C21.5886667,11 21.0616667,11.085 20.58,11.255 C20.0983333,11.425 19.68325,11.65875 19.33475,11.95625 C18.98625,12.25375 18.7156667,12.6050833 18.523,13.01025 C18.3303333,13.4154167 18.234,13.856 18.234,14.332 C18.234,14.9666667 18.3770833,15.5135 18.66325,15.9725 C18.9494167,16.4315 19.3843333,16.7885 19.968,17.0435 C19.22,17.2928333 18.676,17.66825 18.336,18.16975 C17.996,18.67125 17.826,19.2733333 17.826,19.976 C17.826,20.5256667 17.9308333,21.0243333 18.1405,21.472 C18.3501667,21.9196667 18.6448333,22.30075 19.0245,22.61525 C19.4041667,22.92975 19.8603333,23.1734167 20.393,23.34625 C20.9256667,23.5190833 21.515,23.6055 22.161,23.6055 Z M22.161,16.1935 C21.838,16.1935 21.5716667,16.1425 21.362,16.0405 C21.1523333,15.9385 20.9851667,15.8025 20.8605,15.6325 C20.7358333,15.4625 20.648,15.2684167 20.597,15.05025 C20.546,14.8320833 20.5205,14.6068333 20.5205,14.3745 C20.5205,14.1591667 20.5516667,13.9523333 20.614,13.754 C20.6763333,13.5556667 20.7740833,13.3814167 20.90725,13.23125 C21.0404167,13.0810833 21.2104167,12.9606667 21.41725,12.87 C21.6240833,12.7793333 21.872,12.734 22.161,12.734 C22.45,12.734 22.6979167,12.7793333 22.90475,12.87 C23.1115833,12.9606667 23.2815833,13.0810833 23.41475,13.23125 C23.5479167,13.3814167 23.6456667,13.5556667 23.708,13.754 C23.7703333,13.9523333 23.8015,14.1591667 23.8015,14.3745 C23.8015,14.6068333 23.776,14.8320833 23.725,15.05025 C23.674,15.2684167 23.5861667,15.4625 23.4615,15.6325 C23.3368333,15.8025 23.1696667,15.9385 22.96,16.0405 C22.7503333,16.1425 22.484,16.1935 22.161,16.1935 Z M22.161,21.812 C21.838,21.812 21.5560833,21.7638333 21.31525,21.6675 C21.0744167,21.5711667 20.8746667,21.4394167 20.716,21.27225 C20.5573333,21.1050833 20.4383333,20.90675 20.359,20.67725 C20.2796667,20.44775 20.24,20.1998333 20.24,19.9335 C20.24,19.3215 20.39725,18.8469167 20.71175,18.50975 C21.02625,18.1725833 21.5093333,18.004 22.161,18.004 C22.8126667,18.004 23.29575,18.1725833 23.61025,18.50975 C23.92475,18.8469167 24.082,19.3215 24.082,19.9335 C24.082,20.1998333 24.0423333,20.44775 23.963,20.67725 C23.8836667,20.90675 23.7646667,21.1050833 23.606,21.27225 C23.4473333,21.4394167 23.2475833,21.5711667 23.00675,21.6675 C22.7659167,21.7638333 22.484,21.812 22.161,21.812 Z" id="68" fill="#FFFFFF" fill-rule="nonzero"></path>
    </g>
</svg>