<?xml version="1.0" encoding="UTF-8"?>
<svg width="34px" height="34px" viewBox="0 0 34 34" version="1.1" xmlns="http://www.w3.org/2000/svg" xmlns:xlink="http://www.w3.org/1999/xlink">
    <title>ic/grade bubble/69</title>
    <g id="ic/grade-bubble/69" stroke="none" stroke-width="1" fill="none" fill-rule="evenodd">
        <circle id="Oval" fill="#9E6711" cx="17.5" cy="17.5" r="16.5"></circle>
        <path d="M17,0 C26.3888407,0 34,7.61115925 34,17 C34,26.3888407 26.3888407,34 17,34 C7.61115925,34 0,26.3888407 0,17 C0,7.61115925 7.61115925,0 17,0 Z M17,2 C8.71572875,2 2,8.71572875 2,17 C2,25.2842712 8.71572875,32 17,32 C25.2842712,32 32,25.2842712 32,17 C32,8.71572875 25.2842712,2 17,2 Z" id="Oval" fill="#FFFFFF" fill-rule="nonzero"></path>
        <path d="M12.3265,23.6055 C12.9895,23.6055 13.5915833,23.495 14.13275,23.274 C14.6739167,23.053 15.1385833,22.7526667 15.52675,22.373 C15.9149167,21.9933333 16.21525,21.5485 16.42775,21.0385 C16.64025,20.5285 16.7465,19.9873333 16.7465,19.415 C16.7465,18.7916667 16.6430833,18.2490833 16.43625,17.78725 C16.2294167,17.3254167 15.956,16.9415 15.616,16.6355 C15.276,16.3295 14.8878333,16.1 14.4515,15.947 C14.0151667,15.794 13.5675,15.7175 13.1085,15.7175 C12.8195,15.7175 12.5503333,15.743 12.301,15.794 C12.0516667,15.845 11.8193333,15.9186667 11.604,16.015 L11.604,16.015 L11.978,15.5645 L15.633,11.136 L13.5505,11.136 C13.2671667,11.136 13.015,11.1898333 12.794,11.2975 C12.573,11.4051667 12.4058333,11.5326667 12.2925,11.68 L12.2925,11.68 L9.428,15.539 C8.94633333,16.185 8.58791667,16.814 8.35275,17.426 C8.11758333,18.038 8,18.6415 8,19.2365 C8,19.8825 8.09916667,20.47325 8.2975,21.00875 C8.49583333,21.54425 8.782,22.0046667 9.156,22.39 C9.53,22.7753333 9.98333333,23.07425 10.516,23.28675 C11.0486667,23.49925 11.6521667,23.6055 12.3265,23.6055 Z M12.284,21.7185 C11.944,21.7185 11.6479167,21.6675 11.39575,21.5655 C11.1435833,21.4635 10.9325,21.319 10.7625,21.132 C10.5925,20.945 10.465,20.71975 10.38,20.45625 C10.295,20.19275 10.2525,19.8995 10.2525,19.5765 C10.2525,19.2648333 10.3020833,18.9786667 10.40125,18.718 C10.5004167,18.4573333 10.63925,18.2320833 10.81775,18.04225 C10.99625,17.8524167 11.2101667,17.7050833 11.4595,17.60025 C11.7088333,17.4954167 11.9836667,17.443 12.284,17.443 C12.6013333,17.443 12.8903333,17.4911667 13.151,17.5875 C13.4116667,17.6838333 13.6355,17.8240833 13.8225,18.00825 C14.0095,18.1924167 14.154,18.4176667 14.256,18.684 C14.358,18.9503333 14.409,19.2506667 14.409,19.585 C14.409,19.891 14.3551667,20.1729167 14.2475,20.43075 C14.1398333,20.6885833 13.9925,20.9138333 13.8055,21.1065 C13.6185,21.2991667 13.3946667,21.4493333 13.134,21.557 C12.8733333,21.6646667 12.59,21.7185 12.284,21.7185 Z M20.971,23.4695 C21.243,23.4695 21.48525,23.4185 21.69775,23.3165 C21.91025,23.2145 22.0731667,23.0898333 22.1865,22.9425 L22.1865,22.9425 L24.932,19.024 C25.1416667,18.735 25.3300833,18.4403333 25.49725,18.14 C25.6644167,17.8396667 25.8075,17.5308333 25.9265,17.2135 C26.0455,16.8961667 26.1361667,16.5618333 26.1985,16.2105 C26.2608333,15.8591667 26.292,15.488 26.292,15.097 C26.292,14.4963333 26.1956667,13.94525 26.003,13.44375 C25.8103333,12.94225 25.5355,12.5101667 25.1785,12.1475 C24.8215,11.7848333 24.3851667,11.5029167 23.8695,11.30175 C23.3538333,11.1005833 22.773,11 22.127,11 C21.4866667,11 20.9044167,11.1076667 20.38025,11.323 C19.8560833,11.5383333 19.407,11.82875 19.033,12.19425 C18.659,12.55975 18.37,12.9875833 18.166,13.47775 C17.962,13.9679167 17.86,14.4878333 17.86,15.0375 C17.86,15.6381667 17.9591667,16.1609167 18.1575,16.60575 C18.3558333,17.0505833 18.6165,17.4203333 18.9395,17.715 C19.2625,18.0096667 19.6265833,18.2306667 20.03175,18.378 C20.4369167,18.5253333 20.8463333,18.599 21.26,18.599 C21.617,18.599 21.9555833,18.5579167 22.27575,18.47575 C22.5959167,18.3935833 22.892,18.2731667 23.164,18.1145 L23.164,18.1145 L22.926,18.4205 C22.8466667,18.5225 22.7645,18.6273333 22.6795,18.735 L22.6795,18.735 L18.812,23.4695 L20.971,23.4695 Z M22.093,16.865 C21.4753333,16.865 21.0064167,16.695 20.68625,16.355 C20.3660833,16.015 20.206,15.5191667 20.206,14.8675 C20.206,14.5841667 20.2499167,14.3206667 20.33775,14.077 C20.4255833,13.8333333 20.5516667,13.62225 20.716,13.44375 C20.8803333,13.26525 21.0786667,13.1264167 21.311,13.02725 C21.5433333,12.9280833 21.8068333,12.8785 22.1015,12.8785 C22.3905,12.8785 22.654,12.9224167 22.892,13.01025 C23.13,13.0980833 23.3354167,13.227 23.50825,13.397 C23.6810833,13.567 23.8156667,13.77525 23.912,14.02175 C24.0083333,14.26825 24.0565,14.553 24.0565,14.876 C24.0565,15.165 24.0125833,15.4313333 23.92475,15.675 C23.8369167,15.9186667 23.7108333,16.1283333 23.5465,16.304 C23.3821667,16.4796667 23.17675,16.6170833 22.93025,16.71625 C22.68375,16.8154167 22.4046667,16.865 22.093,16.865 Z" id="69" fill="#FFFFFF" fill-rule="nonzero"></path>
    </g>
</svg>