<?xml version="1.0" encoding="UTF-8"?>
<svg width="34px" height="34px" viewBox="0 0 34 34" version="1.1" xmlns="http://www.w3.org/2000/svg" xmlns:xlink="http://www.w3.org/1999/xlink">
    <title>ic/grade bubble/7</title>
    <g id="ic/grade-bubble/7" stroke="none" stroke-width="1" fill="none" fill-rule="evenodd">
        <circle id="Oval" fill="#B02424" cx="17.5" cy="17.5" r="16.5"></circle>
        <path d="M17,0 C26.3888407,0 34,7.61115925 34,17 C34,26.3888407 26.3888407,34 17,34 C7.61115925,34 0,26.3888407 0,17 C0,7.61115925 7.61115925,0 17,0 Z M17,2 C8.71572875,2 2,8.71572875 2,17 C2,25.2842712 8.71572875,32 17,32 C25.2842712,32 32,25.2842712 32,17 C32,8.71572875 25.2842712,2 17,2 Z" id="Oval" fill="#FFFFFF" fill-rule="nonzero"></path>
        <path d="M15.5755,23.3335 C15.9041667,23.3335 16.1648333,23.257 16.3575,23.104 C16.5501667,22.951 16.7031667,22.7668333 16.8165,22.5515 L16.8165,22.5515 L21.3045,13.176 C21.3668333,13.0513333 21.4305833,12.8983333 21.49575,12.717 C21.5609167,12.5356667 21.5935,12.2976667 21.5935,12.003 L21.5935,12.003 L21.5935,11 L13,11 L13,12.564 C13,12.7 13.05525,12.8218333 13.16575,12.9295 C13.27625,13.0371667 13.3995,13.091 13.5355,13.091 L13.5355,13.091 L19.222,13.091 C19.0746667,13.2496667 18.9415,13.4168333 18.8225,13.5925 C18.7035,13.7681667 18.5873333,13.9636667 18.474,14.179 L18.474,14.179 L13.8755,23.3335 L15.5755,23.3335 Z" id="7" fill="#FFFFFF" fill-rule="nonzero"></path>
    </g>
</svg>