<?xml version="1.0" encoding="UTF-8"?>
<svg width="34px" height="34px" viewBox="0 0 34 34" version="1.1" xmlns="http://www.w3.org/2000/svg" xmlns:xlink="http://www.w3.org/1999/xlink">
    <title>ic/grade bubble/70</title>
    <g id="ic/grade-bubble/70" stroke="none" stroke-width="1" fill="none" fill-rule="evenodd">
        <circle id="Oval" fill="#717B02" cx="17.5" cy="17.5" r="16.5"></circle>
        <path d="M17,0 C26.3888407,0 34,7.61115925 34,17 C34,26.3888407 26.3888407,34 17,34 C7.61115925,34 0,26.3888407 0,17 C0,7.61115925 7.61115925,0 17,0 Z M17,2 C8.71572875,2 2,8.71572875 2,17 C2,25.2842712 8.71572875,32 17,32 C25.2842712,32 32,25.2842712 32,17 C32,8.71572875 25.2842712,2 17,2 Z" id="Oval" fill="#FFFFFF" fill-rule="nonzero"></path>
        <path d="M10.5755,23.4695 C10.9041667,23.4695 11.1648333,23.393 11.3575,23.24 C11.5501667,23.087 11.7031667,22.9028333 11.8165,22.6875 L11.8165,22.6875 L16.3045,13.312 C16.3668333,13.1873333 16.4305833,13.0343333 16.49575,12.853 C16.5609167,12.6716667 16.5935,12.4336667 16.5935,12.139 L16.5935,12.139 L16.5935,11.136 L8,11.136 L8,12.7 C8,12.836 8.05525,12.9578333 8.16575,13.0655 C8.27625,13.1731667 8.3995,13.227 8.5355,13.227 L8.5355,13.227 L14.222,13.227 C14.0746667,13.3856667 13.9415,13.5528333 13.8225,13.7285 C13.7035,13.9041667 13.5873333,14.0996667 13.474,14.315 L13.474,14.315 L8.8755,23.4695 L10.5755,23.4695 Z M22.042,23.6055 C22.688,23.6055 23.2900833,23.4794167 23.84825,23.22725 C24.4064167,22.9750833 24.8895,22.58975 25.2975,22.07125 C25.7055,21.55275 26.0256667,20.8968333 26.258,20.1035 C26.4903333,19.3101667 26.6065,18.3751667 26.6065,17.2985 C26.6065,16.2218333 26.4903333,15.28825 26.258,14.49775 C26.0256667,13.70725 25.7055,13.05275 25.2975,12.53425 C24.8895,12.01575 24.4064167,11.6304167 23.84825,11.37825 C23.2900833,11.1260833 22.688,11 22.042,11 C21.396,11 20.7953333,11.1260833 20.24,11.37825 C19.6846667,11.6304167 19.2058333,12.01575 18.8035,12.53425 C18.4011667,13.05275 18.08525,13.70725 17.85575,14.49775 C17.62625,15.28825 17.5115,16.2218333 17.5115,17.2985 C17.5115,18.3751667 17.62625,19.3101667 17.85575,20.1035 C18.08525,20.8968333 18.4011667,21.55275 18.8035,22.07125 C19.2058333,22.58975 19.6846667,22.9750833 20.24,23.22725 C20.7953333,23.4794167 21.396,23.6055 22.042,23.6055 Z M22.042,21.693 C21.77,21.693 21.5079167,21.6278333 21.25575,21.4975 C21.0035833,21.3671667 20.77975,21.1376667 20.58425,20.809 C20.38875,20.4803333 20.2315,20.0326667 20.1125,19.466 C19.9935,18.8993333 19.934,18.1768333 19.934,17.2985 C19.934,16.4258333 19.9935,15.7061667 20.1125,15.1395 C20.2315,14.5728333 20.38875,14.1251667 20.58425,13.7965 C20.77975,13.4678333 21.0035833,13.2383333 21.25575,13.108 C21.5079167,12.9776667 21.77,12.9125 22.042,12.9125 C22.314,12.9125 22.5789167,12.9776667 22.83675,13.108 C23.0945833,13.2383333 23.3226667,13.4678333 23.521,13.7965 C23.7193333,14.1251667 23.8794167,14.5728333 24.00125,15.1395 C24.1230833,15.7061667 24.184,16.4258333 24.184,17.2985 C24.184,18.1768333 24.1230833,18.8993333 24.00125,19.466 C23.8794167,20.0326667 23.7193333,20.4803333 23.521,20.809 C23.3226667,21.1376667 23.0945833,21.3671667 22.83675,21.4975 C22.5789167,21.6278333 22.314,21.693 22.042,21.693 Z" id="70" fill="#FFFFFF" fill-rule="nonzero"></path>
    </g>
</svg>