<?xml version="1.0" encoding="UTF-8"?>
<svg width="34px" height="34px" viewBox="0 0 34 34" version="1.1" xmlns="http://www.w3.org/2000/svg" xmlns:xlink="http://www.w3.org/1999/xlink">
    <title>ic/grade bubble/71</title>
    <g id="ic/grade-bubble/71" stroke="none" stroke-width="1" fill="none" fill-rule="evenodd">
        <circle id="Oval" fill="#717B02" cx="17.5" cy="17.5" r="16.5"></circle>
        <path d="M17,0 C26.3888407,0 34,7.61115925 34,17 C34,26.3888407 26.3888407,34 17,34 C7.61115925,34 0,26.3888407 0,17 C0,7.61115925 7.61115925,0 17,0 Z M17,2 C8.71572875,2 2,8.71572875 2,17 C2,25.2842712 8.71572875,32 17,32 C25.2842712,32 32,25.2842712 32,17 C32,8.71572875 25.2842712,2 17,2 Z" id="Oval" fill="#FFFFFF" fill-rule="nonzero"></path>
        <path d="M10.5755,23.342 C10.9041667,23.342 11.1648333,23.2655 11.3575,23.1125 C11.5501667,22.9595 11.7031667,22.7753333 11.8165,22.56 L11.8165,22.56 L16.3045,13.1845 C16.3668333,13.0598333 16.4305833,12.9068333 16.49575,12.7255 C16.5609167,12.5441667 16.5935,12.3061667 16.5935,12.0115 L16.5935,12.0115 L16.5935,11.0085 L8,11.0085 L8,12.5725 C8,12.7085 8.05525,12.8303333 8.16575,12.938 C8.27625,13.0456667 8.3995,13.0995 8.5355,13.0995 L8.5355,13.0995 L14.222,13.0995 C14.0746667,13.2581667 13.9415,13.4253333 13.8225,13.601 C13.7035,13.7766667 13.5873333,13.9721667 13.474,14.1875 L13.474,14.1875 L8.8755,23.342 L10.5755,23.342 Z M25.986,23.342 L25.986,21.6165 L23.8525,21.6165 L23.8525,11 L21.923,11 L18.132,14.213 L18.8715,15.2075 C18.9111667,15.2585 18.9678333,15.3080833 19.0415,15.35625 C19.1151667,15.4044167 19.2001667,15.4384167 19.2965,15.45825 C19.3928333,15.4780833 19.4948333,15.4766667 19.6025,15.454 C19.7101667,15.4313333 19.8206667,15.3775 19.934,15.2925 L19.934,15.2925 L21.549,13.9495 C21.5376667,14.1081667 21.5291667,14.264 21.5235,14.417 C21.5178333,14.57 21.515,14.7201667 21.515,14.8675 L21.515,14.8675 L21.515,21.6165 L19.067,21.6165 L19.067,23.342 L25.986,23.342 Z" id="71" fill="#FFFFFF" fill-rule="nonzero"></path>
    </g>
</svg>