<?xml version="1.0" encoding="UTF-8"?>
<svg width="34px" height="34px" viewBox="0 0 34 34" version="1.1" xmlns="http://www.w3.org/2000/svg" xmlns:xlink="http://www.w3.org/1999/xlink">
    <title>ic/grade bubble/72</title>
    <g id="ic/grade-bubble/72" stroke="none" stroke-width="1" fill="none" fill-rule="evenodd">
        <circle id="Oval" fill="#717B02" cx="17.5" cy="17.5" r="16.5"></circle>
        <path d="M17,0 C26.3888407,0 34,7.61115925 34,17 C34,26.3888407 26.3888407,34 17,34 C7.61115925,34 0,26.3888407 0,17 C0,7.61115925 7.61115925,0 17,0 Z M17,2 C8.71572875,2 2,8.71572875 2,17 C2,25.2842712 8.71572875,32 17,32 C25.2842712,32 32,25.2842712 32,17 C32,8.71572875 25.2842712,2 17,2 Z" id="Oval" fill="#FFFFFF" fill-rule="nonzero"></path>
        <path d="M10.5755,23.4695 C10.9041667,23.4695 11.1648333,23.393 11.3575,23.24 C11.5501667,23.087 11.7031667,22.9028333 11.8165,22.6875 L11.8165,22.6875 L16.3045,13.312 C16.3668333,13.1873333 16.4305833,13.0343333 16.49575,12.853 C16.5609167,12.6716667 16.5935,12.4336667 16.5935,12.139 L16.5935,12.139 L16.5935,11.136 L8,11.136 L8,12.7 C8,12.836 8.05525,12.9578333 8.16575,13.0655 C8.27625,13.1731667 8.3995,13.227 8.5355,13.227 L8.5355,13.227 L14.222,13.227 C14.0746667,13.3856667 13.9415,13.5528333 13.8225,13.7285 C13.7035,13.9041667 13.5873333,14.0996667 13.474,14.315 L13.474,14.315 L8.8755,23.4695 L10.5755,23.4695 Z M26.2665,23.4695 L26.2665,22.0925 C26.2665,21.8601667 26.19425,21.6731667 26.04975,21.5315 C25.90525,21.3898333 25.7055,21.319 25.4505,21.319 L25.4505,21.319 L22.6795,21.319 C22.4301667,21.319 22.1638333,21.3430833 21.8805,21.39125 C21.5971667,21.4394167 21.311,21.506 21.022,21.591 L21.022,21.591 L23.64,18.9135 C23.9686667,18.5791667 24.2803333,18.2476667 24.575,17.919 C24.8696667,17.5903333 25.1289167,17.25175 25.35275,16.90325 C25.5765833,16.55475 25.7536667,16.1878333 25.884,15.8025 C26.0143333,15.4171667 26.0795,14.9978333 26.0795,14.5445 C26.0795,14.0175 25.986,13.5358333 25.799,13.0995 C25.612,12.6631667 25.3485,12.2905833 25.0085,11.98175 C24.6685,11.6729167 24.2590833,11.4320833 23.78025,11.25925 C23.3014167,11.0864167 22.7701667,11 22.1865,11 C21.6311667,11 21.1126667,11.0750833 20.631,11.22525 C20.1493333,11.3754167 19.7215,11.6006667 19.3475,11.901 C18.9735,12.2013333 18.6618333,12.5781667 18.4125,13.0315 C18.1631667,13.4848333 17.9931667,14.0118333 17.9025,14.6125 L17.9025,14.6125 L19.1435,14.8335 C19.4608333,14.8845 19.7059167,14.86325 19.87875,14.76975 C20.0515833,14.67625 20.189,14.4878333 20.291,14.2045 C20.342,14.0231667 20.4213333,13.856 20.529,13.703 C20.6366667,13.55 20.7655833,13.4168333 20.91575,13.3035 C21.0659167,13.1901667 21.2359167,13.1009167 21.42575,13.03575 C21.6155833,12.9705833 21.8238333,12.938 22.0505,12.938 C22.5661667,12.938 22.9656667,13.0810833 23.249,13.36725 C23.5323333,13.6534167 23.674,14.0713333 23.674,14.621 C23.674,14.9326667 23.6343333,15.2301667 23.555,15.5135 C23.4756667,15.7968333 23.3566667,16.0759167 23.198,16.35075 C23.0393333,16.6255833 22.841,16.9060833 22.603,17.19225 C22.365,17.4784167 22.0901667,17.7773333 21.7785,18.089 L21.7785,18.089 L18.1235,21.7525 C17.9761667,21.8941667 17.8713333,22.0514167 17.809,22.22425 C17.7466667,22.3970833 17.7155,22.5571667 17.7155,22.7045 L17.7155,22.7045 L17.7155,23.4695 L26.2665,23.4695 Z" id="72" fill="#FFFFFF" fill-rule="nonzero"></path>
    </g>
</svg>