<?xml version="1.0" encoding="UTF-8"?>
<svg width="34px" height="34px" viewBox="0 0 34 34" version="1.1" xmlns="http://www.w3.org/2000/svg" xmlns:xlink="http://www.w3.org/1999/xlink">
    <title>ic/grade bubble/73</title>
    <g id="ic/grade-bubble/73" stroke="none" stroke-width="1" fill="none" fill-rule="evenodd">
        <circle id="Oval" fill="#717B02" cx="17.5" cy="17.5" r="16.5"></circle>
        <path d="M17,0 C26.3888407,0 34,7.61115925 34,17 C34,26.3888407 26.3888407,34 17,34 C7.61115925,34 0,26.3888407 0,17 C0,7.61115925 7.61115925,0 17,0 Z M17,2 C8.71572875,2 2,8.71572875 2,17 C2,25.2842712 8.71572875,32 17,32 C25.2842712,32 32,25.2842712 32,17 C32,8.71572875 25.2842712,2 17,2 Z" id="Oval" fill="#FFFFFF" fill-rule="nonzero"></path>
        <path d="M10.5755,23.4695 C10.9041667,23.4695 11.1648333,23.393 11.3575,23.24 C11.5501667,23.087 11.7031667,22.9028333 11.8165,22.6875 L11.8165,22.6875 L16.3045,13.312 C16.3668333,13.1873333 16.4305833,13.0343333 16.49575,12.853 C16.5609167,12.6716667 16.5935,12.4336667 16.5935,12.139 L16.5935,12.139 L16.5935,11.136 L8,11.136 L8,12.7 C8,12.836 8.05525,12.9578333 8.16575,13.0655 C8.27625,13.1731667 8.3995,13.227 8.5355,13.227 L8.5355,13.227 L14.222,13.227 C14.0746667,13.3856667 13.9415,13.5528333 13.8225,13.7285 C13.7035,13.9041667 13.5873333,14.0996667 13.474,14.315 L13.474,14.315 L8.8755,23.4695 L10.5755,23.4695 Z M21.974,23.6055 C22.5406667,23.6055 23.08325,23.52475 23.60175,23.36325 C24.12025,23.20175 24.575,22.9595 24.966,22.6365 C25.357,22.3135 25.6686667,21.9125833 25.901,21.43375 C26.1333333,20.9549167 26.2495,20.401 26.2495,19.772 C26.2495,18.3496667 25.5411667,17.4061667 24.1245,16.9415 C24.4305,16.8395 24.7010833,16.712 24.93625,16.559 C25.1714167,16.406 25.36975,16.219 25.53125,15.998 C25.69275,15.777 25.8145833,15.51775 25.89675,15.22025 C25.9789167,14.92275 26.02,14.5785 26.02,14.1875 C26.02,13.7455 25.9335833,13.3318333 25.76075,12.9465 C25.5879167,12.5611667 25.34,12.224 25.017,11.935 C24.694,11.646 24.29875,11.4179167 23.83125,11.25075 C23.36375,11.0835833 22.8353333,11 22.246,11 C21.6906667,11 21.1735833,11.0750833 20.69475,11.22525 C20.2159167,11.3754167 19.7895,11.6006667 19.4155,11.901 C19.0415,12.2013333 18.7298333,12.5781667 18.4805,13.0315 C18.2311667,13.4848333 18.0611667,14.0118333 17.9705,14.6125 L17.9705,14.6125 L19.203,14.8335 C19.526,14.8845 19.7725,14.86325 19.9425,14.76975 C20.1125,14.67625 20.2513333,14.4878333 20.359,14.2045 C20.41,14.0231667 20.4893333,13.856 20.597,13.703 C20.7046667,13.55 20.8335833,13.4168333 20.98375,13.3035 C21.1339167,13.1901667 21.3039167,13.1009167 21.49375,13.03575 C21.6835833,12.9705833 21.8918333,12.938 22.1185,12.938 C22.6341667,12.938 23.03225,13.0796667 23.31275,13.363 C23.59325,13.6463333 23.7335,14.0571667 23.7335,14.5955 C23.7335,14.8505 23.6980833,15.0856667 23.62725,15.301 C23.5564167,15.5163333 23.4275,15.7005 23.2405,15.8535 C23.0535,16.0065 22.7956667,16.1255 22.467,16.2105 C22.1383333,16.2955 21.7161667,16.338 21.2005,16.338 L21.2005,16.338 L21.2005,17.987 C21.8181667,17.987 22.3069167,18.0309167 22.66675,18.11875 C23.0265833,18.2065833 23.2985833,18.33125 23.48275,18.49275 C23.6669167,18.65425 23.7845,18.84975 23.8355,19.07925 C23.8865,19.30875 23.912,19.5651667 23.912,19.8485 C23.912,20.0638333 23.8709167,20.2805833 23.78875,20.49875 C23.7065833,20.7169167 23.5833333,20.9124167 23.419,21.08525 C23.2546667,21.2580833 23.0506667,21.3983333 22.807,21.506 C22.5633333,21.6136667 22.2771667,21.6675 21.9485,21.6675 C21.6878333,21.6675 21.4569167,21.6306667 21.25575,21.557 C21.0545833,21.4833333 20.8746667,21.3799167 20.716,21.24675 C20.5573333,21.1135833 20.41425,20.9563333 20.28675,20.775 C20.15925,20.5936667 20.0388333,20.3953333 19.9255,20.18 C19.8235,19.9816667 19.6549167,19.857 19.41975,19.806 C19.1845833,19.755 18.931,19.7861667 18.659,19.8995 L18.659,19.8995 L17.622,20.3245 C17.809,20.8741667 18.0271667,21.3544167 18.2765,21.76525 C18.5258333,22.1760833 18.82475,22.5175 19.17325,22.7895 C19.52175,23.0615 19.9255,23.2655 20.3845,23.4015 C20.8435,23.5375 21.3733333,23.6055 21.974,23.6055 Z" id="73" fill="#FFFFFF" fill-rule="nonzero"></path>
    </g>
</svg>