<?xml version="1.0" encoding="UTF-8"?>
<svg width="34px" height="34px" viewBox="0 0 34 34" version="1.1" xmlns="http://www.w3.org/2000/svg" xmlns:xlink="http://www.w3.org/1999/xlink">
    <title>ic/grade bubble/74</title>
    <g id="ic/grade-bubble/74" stroke="none" stroke-width="1" fill="none" fill-rule="evenodd">
        <circle id="Oval" fill="#717B02" cx="17.5" cy="17.5" r="16.5"></circle>
        <path d="M17,0 C26.3888407,0 34,7.61115925 34,17 C34,26.3888407 26.3888407,34 17,34 C7.61115925,34 0,26.3888407 0,17 C0,7.61115925 7.61115925,0 17,0 Z M17,2 C8.71572875,2 2,8.71572875 2,17 C2,25.2842712 8.71572875,32 17,32 C25.2842712,32 32,25.2842712 32,17 C32,8.71572875 25.2842712,2 17,2 Z" id="Oval" fill="#FFFFFF" fill-rule="nonzero"></path>
        <path d="M10.5755,23.342 C10.9041667,23.342 11.1648333,23.2655 11.3575,23.1125 C11.5501667,22.9595 11.7031667,22.7753333 11.8165,22.56 L11.8165,22.56 L16.3045,13.1845 C16.3668333,13.0598333 16.4305833,12.9068333 16.49575,12.7255 C16.5609167,12.5441667 16.5935,12.3061667 16.5935,12.0115 L16.5935,12.0115 L16.5935,11.0085 L8,11.0085 L8,12.5725 C8,12.7085 8.05525,12.8303333 8.16575,12.938 C8.27625,13.0456667 8.3995,13.0995 8.5355,13.0995 L8.5355,13.0995 L14.222,13.0995 C14.0746667,13.2581667 13.9415,13.4253333 13.8225,13.601 C13.7035,13.7766667 13.5873333,13.9721667 13.474,14.1875 L13.474,14.1875 L8.8755,23.342 L10.5755,23.342 Z M25.153,23.342 L25.153,20.4095 L26.1135,20.4095 C26.2608333,20.4095 26.3755833,20.3655833 26.45775,20.27775 C26.5399167,20.1899167 26.581,20.0836667 26.581,19.959 L26.581,19.959 L26.581,18.633 L25.153,18.633 L25.153,11 L22.926,11 L17.146,18.7435 L17.3925,19.9165 C17.4208333,20.0638333 17.4959167,20.1828333 17.61775,20.2735 C17.7395833,20.3641667 17.8741667,20.4095 18.0215,20.4095 L18.0215,20.4095 L23.113,20.4095 L23.113,23.342 L25.153,23.342 Z M23.113,18.633 L19.628,18.633 L23.198,13.6605 C23.1696667,13.8985 23.1484167,14.1265833 23.13425,14.34475 C23.1200833,14.5629167 23.113,14.7683333 23.113,14.961 L23.113,14.961 L23.113,18.633 Z" id="74" fill="#FFFFFF" fill-rule="nonzero"></path>
    </g>
</svg>