<?xml version="1.0" encoding="UTF-8"?>
<svg width="34px" height="34px" viewBox="0 0 34 34" version="1.1" xmlns="http://www.w3.org/2000/svg" xmlns:xlink="http://www.w3.org/1999/xlink">
    <title>ic/grade bubble/75</title>
    <g id="ic/grade-bubble/75" stroke="none" stroke-width="1" fill="none" fill-rule="evenodd">
        <circle id="Oval" fill="#717B02" cx="17.5" cy="17.5" r="16.5"></circle>
        <path d="M17,0 C26.3888407,0 34,7.61115925 34,17 C34,26.3888407 26.3888407,34 17,34 C7.61115925,34 0,26.3888407 0,17 C0,7.61115925 7.61115925,0 17,0 Z M17,2 C8.71572875,2 2,8.71572875 2,17 C2,25.2842712 8.71572875,32 17,32 C25.2842712,32 32,25.2842712 32,17 C32,8.71572875 25.2842712,2 17,2 Z" id="Oval" fill="#FFFFFF" fill-rule="nonzero"></path>
        <path d="M10.5755,23.3335 C10.9041667,23.3335 11.1648333,23.257 11.3575,23.104 C11.5501667,22.951 11.7031667,22.7668333 11.8165,22.5515 L11.8165,22.5515 L16.3045,13.176 C16.3668333,13.0513333 16.4305833,12.8983333 16.49575,12.717 C16.5609167,12.5356667 16.5935,12.2976667 16.5935,12.003 L16.5935,12.003 L16.5935,11 L8,11 L8,12.564 C8,12.7 8.05525,12.8218333 8.16575,12.9295 C8.27625,13.0371667 8.3995,13.091 8.5355,13.091 L8.5355,13.091 L14.222,13.091 C14.0746667,13.2496667 13.9415,13.4168333 13.8225,13.5925 C13.7035,13.7681667 13.5873333,13.9636667 13.474,14.179 L13.474,14.179 L8.8755,23.3335 L10.5755,23.3335 Z M21.4725,23.4695 C22.1468333,23.4695 22.76875,23.3618333 23.33825,23.1465 C23.90775,22.9311667 24.3979167,22.6294167 24.80875,22.24125 C25.2195833,21.8530833 25.5411667,21.3884167 25.7735,20.84725 C26.0058333,20.3060833 26.122,19.7068333 26.122,19.0495 C26.122,18.5225 26.037,18.0295 25.867,17.5705 C25.697,17.1115 25.4434167,16.712 25.10625,16.372 C24.7690833,16.032 24.3525833,15.76425 23.85675,15.56875 C23.3609167,15.37325 22.79,15.2755 22.144,15.2755 C21.923,15.2755 21.6949167,15.2868333 21.45975,15.3095 C21.2245833,15.3321667 20.9795,15.369 20.7245,15.42 L20.7245,15.42 L21.124,13.091 L24.3115,13.091 C24.5608333,13.091 24.7719167,13.0640833 24.94475,13.01025 C25.1175833,12.9564167 25.25925,12.8799167 25.36975,12.78075 C25.48025,12.6815833 25.5595833,12.5654167 25.60775,12.43225 C25.6559167,12.2990833 25.68,12.1503333 25.68,11.986 L25.68,11.986 L25.68,11 L19.492,11 L18.455,17.069 L19.9085,17.477 C20.4865,17.2616667 21.0616667,17.154 21.634,17.154 C22.331,17.154 22.86225,17.32825 23.22775,17.67675 C23.59325,18.02525 23.776,18.5196667 23.776,19.16 C23.776,19.4943333 23.7320833,19.8074167 23.64425,20.09925 C23.5564167,20.3910833 23.42325,20.64325 23.24475,20.85575 C23.06625,21.06825 22.841,21.2354167 22.569,21.35725 C22.297,21.4790833 21.9768333,21.54 21.6085,21.54 C21.2515,21.54 20.9483333,21.4946667 20.699,21.404 C20.4496667,21.3133333 20.2315,21.21275 20.0445,21.10225 C19.8575,20.99175 19.6903333,20.8911667 19.543,20.8005 C19.3956667,20.7098333 19.2455,20.6645 19.0925,20.6645 C18.8488333,20.6645 18.6505,20.7693333 18.4975,20.979 L18.4975,20.979 L17.775,21.965 C17.9846667,22.1633333 18.2226667,22.3531667 18.489,22.5345 C18.7553333,22.7158333 19.0429167,22.8759167 19.35175,23.01475 C19.6605833,23.1535833 19.9935,23.2640833 20.3505,23.34625 C20.7075,23.4284167 21.0815,23.4695 21.4725,23.4695 Z" id="75" fill="#FFFFFF" fill-rule="nonzero"></path>
    </g>
</svg>