<?xml version="1.0" encoding="UTF-8"?>
<svg width="34px" height="34px" viewBox="0 0 34 34" version="1.1" xmlns="http://www.w3.org/2000/svg" xmlns:xlink="http://www.w3.org/1999/xlink">
    <title>ic/grade bubble/76</title>
    <g id="ic/grade-bubble/76" stroke="none" stroke-width="1" fill="none" fill-rule="evenodd">
        <circle id="Oval" fill="#717B02" cx="17.5" cy="17.5" r="16.5"></circle>
        <path d="M17,0 C26.3888407,0 34,7.61115925 34,17 C34,26.3888407 26.3888407,34 17,34 C7.61115925,34 0,26.3888407 0,17 C0,7.61115925 7.61115925,0 17,0 Z M17,2 C8.71572875,2 2,8.71572875 2,17 C2,25.2842712 8.71572875,32 17,32 C25.2842712,32 32,25.2842712 32,17 C32,8.71572875 25.2842712,2 17,2 Z" id="Oval" fill="#FFFFFF" fill-rule="nonzero"></path>
        <path d="M10.5755,23.3335 C10.9041667,23.3335 11.1648333,23.257 11.3575,23.104 C11.5501667,22.951 11.7031667,22.7668333 11.8165,22.5515 L11.8165,22.5515 L16.3045,13.176 C16.3668333,13.0513333 16.4305833,12.8983333 16.49575,12.717 C16.5609167,12.5356667 16.5935,12.2976667 16.5935,12.003 L16.5935,12.003 L16.5935,11 L8,11 L8,12.564 C8,12.7 8.05525,12.8218333 8.16575,12.9295 C8.27625,13.0371667 8.3995,13.091 8.5355,13.091 L8.5355,13.091 L14.222,13.091 C14.0746667,13.2496667 13.9415,13.4168333 13.8225,13.5925 C13.7035,13.7681667 13.5873333,13.9636667 13.474,14.179 L13.474,14.179 L8.8755,23.3335 L10.5755,23.3335 Z M22.0845,23.4695 C22.7475,23.4695 23.3495833,23.359 23.89075,23.138 C24.4319167,22.917 24.8965833,22.6166667 25.28475,22.237 C25.6729167,21.8573333 25.97325,21.4125 26.18575,20.9025 C26.39825,20.3925 26.5045,19.8513333 26.5045,19.279 C26.5045,18.6556667 26.4010833,18.1130833 26.19425,17.65125 C25.9874167,17.1894167 25.714,16.8055 25.374,16.4995 C25.034,16.1935 24.6458333,15.964 24.2095,15.811 C23.7731667,15.658 23.3255,15.5815 22.8665,15.5815 C22.5775,15.5815 22.3083333,15.607 22.059,15.658 C21.8096667,15.709 21.5773333,15.7826667 21.362,15.879 L21.362,15.879 L21.736,15.4285 L25.391,11 L23.3085,11 C23.0251667,11 22.773,11.0538333 22.552,11.1615 C22.331,11.2691667 22.1638333,11.3966667 22.0505,11.544 L22.0505,11.544 L19.186,15.403 C18.7043333,16.049 18.3459167,16.678 18.11075,17.29 C17.8755833,17.902 17.758,18.5055 17.758,19.1005 C17.758,19.7465 17.8571667,20.33725 18.0555,20.87275 C18.2538333,21.40825 18.54,21.8686667 18.914,22.254 C19.288,22.6393333 19.7413333,22.93825 20.274,23.15075 C20.8066667,23.36325 21.4101667,23.4695 22.0845,23.4695 Z M22.042,21.5825 C21.702,21.5825 21.4059167,21.5315 21.15375,21.4295 C20.9015833,21.3275 20.6905,21.183 20.5205,20.996 C20.3505,20.809 20.223,20.58375 20.138,20.32025 C20.053,20.05675 20.0105,19.7635 20.0105,19.4405 C20.0105,19.1288333 20.0600833,18.8426667 20.15925,18.582 C20.2584167,18.3213333 20.39725,18.0960833 20.57575,17.90625 C20.75425,17.7164167 20.9681667,17.5690833 21.2175,17.46425 C21.4668333,17.3594167 21.7416667,17.307 22.042,17.307 C22.3593333,17.307 22.6483333,17.3551667 22.909,17.4515 C23.1696667,17.5478333 23.3935,17.6880833 23.5805,17.87225 C23.7675,18.0564167 23.912,18.2816667 24.014,18.548 C24.116,18.8143333 24.167,19.1146667 24.167,19.449 C24.167,19.755 24.1131667,20.0369167 24.0055,20.29475 C23.8978333,20.5525833 23.7505,20.7778333 23.5635,20.9705 C23.3765,21.1631667 23.1526667,21.3133333 22.892,21.421 C22.6313333,21.5286667 22.348,21.5825 22.042,21.5825 Z" id="76" fill="#FFFFFF" fill-rule="nonzero"></path>
    </g>
</svg>