<?xml version="1.0" encoding="UTF-8"?>
<svg width="34px" height="34px" viewBox="0 0 34 34" version="1.1" xmlns="http://www.w3.org/2000/svg" xmlns:xlink="http://www.w3.org/1999/xlink">
    <title>ic/grade bubble/77</title>
    <g id="ic/grade-bubble/77" stroke="none" stroke-width="1" fill="none" fill-rule="evenodd">
        <circle id="Oval" fill="#717B02" cx="17.5" cy="17.5" r="16.5"></circle>
        <path d="M17,0 C26.3888407,0 34,7.61115925 34,17 C34,26.3888407 26.3888407,34 17,34 C7.61115925,34 0,26.3888407 0,17 C0,7.61115925 7.61115925,0 17,0 Z M17,2 C8.71572875,2 2,8.71572875 2,17 C2,25.2842712 8.71572875,32 17,32 C25.2842712,32 32,25.2842712 32,17 C32,8.71572875 25.2842712,2 17,2 Z" id="Oval" fill="#FFFFFF" fill-rule="nonzero"></path>
        <path d="M10.5755,23.3335 C10.9041667,23.3335 11.1648333,23.257 11.3575,23.104 C11.5501667,22.951 11.7031667,22.7668333 11.8165,22.5515 L11.8165,22.5515 L16.3045,13.176 C16.3668333,13.0513333 16.4305833,12.8983333 16.49575,12.717 C16.5609167,12.5356667 16.5935,12.2976667 16.5935,12.003 L16.5935,12.003 L16.5935,11 L8,11 L8,12.564 C8,12.7 8.05525,12.8218333 8.16575,12.9295 C8.27625,13.0371667 8.3995,13.091 8.5355,13.091 L8.5355,13.091 L14.222,13.091 C14.0746667,13.2496667 13.9415,13.4168333 13.8225,13.5925 C13.7035,13.7681667 13.5873333,13.9636667 13.474,14.179 L13.474,14.179 L8.8755,23.3335 L10.5755,23.3335 Z M20.4355,23.3335 C20.7641667,23.3335 21.0248333,23.257 21.2175,23.104 C21.4101667,22.951 21.5631667,22.7668333 21.6765,22.5515 L21.6765,22.5515 L26.1645,13.176 C26.2268333,13.0513333 26.2905833,12.8983333 26.35575,12.717 C26.4209167,12.5356667 26.4535,12.2976667 26.4535,12.003 L26.4535,12.003 L26.4535,11 L17.86,11 L17.86,12.564 C17.86,12.7 17.91525,12.8218333 18.02575,12.9295 C18.13625,13.0371667 18.2595,13.091 18.3955,13.091 L18.3955,13.091 L24.082,13.091 C23.9346667,13.2496667 23.8015,13.4168333 23.6825,13.5925 C23.5635,13.7681667 23.4473333,13.9636667 23.334,14.179 L23.334,14.179 L18.7355,23.3335 L20.4355,23.3335 Z" id="77" fill="#FFFFFF" fill-rule="nonzero"></path>
    </g>
</svg>