<?xml version="1.0" encoding="UTF-8"?>
<svg width="34px" height="34px" viewBox="0 0 34 34" version="1.1" xmlns="http://www.w3.org/2000/svg" xmlns:xlink="http://www.w3.org/1999/xlink">
    <title>ic/grade bubble/78</title>
    <g id="ic/grade-bubble/78" stroke="none" stroke-width="1" fill="none" fill-rule="evenodd">
        <circle id="Oval" fill="#717B02" cx="17.5" cy="17.5" r="16.5"></circle>
        <path d="M17,0 C26.3888407,0 34,7.61115925 34,17 C34,26.3888407 26.3888407,34 17,34 C7.61115925,34 0,26.3888407 0,17 C0,7.61115925 7.61115925,0 17,0 Z M17,2 C8.71572875,2 2,8.71572875 2,17 C2,25.2842712 8.71572875,32 17,32 C25.2842712,32 32,25.2842712 32,17 C32,8.71572875 25.2842712,2 17,2 Z" id="Oval" fill="#FFFFFF" fill-rule="nonzero"></path>
        <path d="M10.5755,23.4695 C10.9041667,23.4695 11.1648333,23.393 11.3575,23.24 C11.5501667,23.087 11.7031667,22.9028333 11.8165,22.6875 L11.8165,22.6875 L16.3045,13.312 C16.3668333,13.1873333 16.4305833,13.0343333 16.49575,12.853 C16.5609167,12.6716667 16.5935,12.4336667 16.5935,12.139 L16.5935,12.139 L16.5935,11.136 L8,11.136 L8,12.7 C8,12.836 8.05525,12.9578333 8.16575,13.0655 C8.27625,13.1731667 8.3995,13.227 8.5355,13.227 L8.5355,13.227 L14.222,13.227 C14.0746667,13.3856667 13.9415,13.5528333 13.8225,13.7285 C13.7035,13.9041667 13.5873333,14.0996667 13.474,14.315 L13.474,14.315 L8.8755,23.4695 L10.5755,23.4695 Z M22.059,23.6055 C22.705,23.6055 23.2943333,23.5190833 23.827,23.34625 C24.3596667,23.1734167 24.8158333,22.92975 25.1955,22.61525 C25.5751667,22.30075 25.8698333,21.9196667 26.0795,21.472 C26.2891667,21.0243333 26.394,20.5256667 26.394,19.976 C26.394,19.2733333 26.224,18.67125 25.884,18.16975 C25.544,17.66825 25,17.2928333 24.252,17.0435 C24.8356667,16.7885 25.2705833,16.4315 25.55675,15.9725 C25.8429167,15.5135 25.986,14.9666667 25.986,14.332 C25.986,13.856 25.8896667,13.4154167 25.697,13.01025 C25.5043333,12.6050833 25.23375,12.25375 24.88525,11.95625 C24.53675,11.65875 24.1216667,11.425 23.64,11.255 C23.1583333,11.085 22.6313333,11 22.059,11 C21.4866667,11 20.9596667,11.085 20.478,11.255 C19.9963333,11.425 19.58125,11.65875 19.23275,11.95625 C18.88425,12.25375 18.6136667,12.6050833 18.421,13.01025 C18.2283333,13.4154167 18.132,13.856 18.132,14.332 C18.132,14.9666667 18.2750833,15.5135 18.56125,15.9725 C18.8474167,16.4315 19.2823333,16.7885 19.866,17.0435 C19.118,17.2928333 18.574,17.66825 18.234,18.16975 C17.894,18.67125 17.724,19.2733333 17.724,19.976 C17.724,20.5256667 17.8288333,21.0243333 18.0385,21.472 C18.2481667,21.9196667 18.5428333,22.30075 18.9225,22.61525 C19.3021667,22.92975 19.7583333,23.1734167 20.291,23.34625 C20.8236667,23.5190833 21.413,23.6055 22.059,23.6055 Z M22.059,16.1935 C21.736,16.1935 21.4696667,16.1425 21.26,16.0405 C21.0503333,15.9385 20.8831667,15.8025 20.7585,15.6325 C20.6338333,15.4625 20.546,15.2684167 20.495,15.05025 C20.444,14.8320833 20.4185,14.6068333 20.4185,14.3745 C20.4185,14.1591667 20.4496667,13.9523333 20.512,13.754 C20.5743333,13.5556667 20.6720833,13.3814167 20.80525,13.23125 C20.9384167,13.0810833 21.1084167,12.9606667 21.31525,12.87 C21.5220833,12.7793333 21.77,12.734 22.059,12.734 C22.348,12.734 22.5959167,12.7793333 22.80275,12.87 C23.0095833,12.9606667 23.1795833,13.0810833 23.31275,13.23125 C23.4459167,13.3814167 23.5436667,13.5556667 23.606,13.754 C23.6683333,13.9523333 23.6995,14.1591667 23.6995,14.3745 C23.6995,14.6068333 23.674,14.8320833 23.623,15.05025 C23.572,15.2684167 23.4841667,15.4625 23.3595,15.6325 C23.2348333,15.8025 23.0676667,15.9385 22.858,16.0405 C22.6483333,16.1425 22.382,16.1935 22.059,16.1935 Z M22.059,21.812 C21.736,21.812 21.4540833,21.7638333 21.21325,21.6675 C20.9724167,21.5711667 20.7726667,21.4394167 20.614,21.27225 C20.4553333,21.1050833 20.3363333,20.90675 20.257,20.67725 C20.1776667,20.44775 20.138,20.1998333 20.138,19.9335 C20.138,19.3215 20.29525,18.8469167 20.60975,18.50975 C20.92425,18.1725833 21.4073333,18.004 22.059,18.004 C22.7106667,18.004 23.19375,18.1725833 23.50825,18.50975 C23.82275,18.8469167 23.98,19.3215 23.98,19.9335 C23.98,20.1998333 23.9403333,20.44775 23.861,20.67725 C23.7816667,20.90675 23.6626667,21.1050833 23.504,21.27225 C23.3453333,21.4394167 23.1455833,21.5711667 22.90475,21.6675 C22.6639167,21.7638333 22.382,21.812 22.059,21.812 Z" id="78" fill="#FFFFFF" fill-rule="nonzero"></path>
    </g>
</svg>