<?xml version="1.0" encoding="UTF-8"?>
<svg width="34px" height="34px" viewBox="0 0 34 34" version="1.1" xmlns="http://www.w3.org/2000/svg" xmlns:xlink="http://www.w3.org/1999/xlink">
    <title>ic/grade bubble/79</title>
    <g id="ic/grade-bubble/79" stroke="none" stroke-width="1" fill="none" fill-rule="evenodd">
        <circle id="Oval" fill="#717B02" cx="17.5" cy="17.5" r="16.5"></circle>
        <path d="M17,0 C26.3888407,0 34,7.61115925 34,17 C34,26.3888407 26.3888407,34 17,34 C7.61115925,34 0,26.3888407 0,17 C0,7.61115925 7.61115925,0 17,0 Z M17,2 C8.71572875,2 2,8.71572875 2,17 C2,25.2842712 8.71572875,32 17,32 C25.2842712,32 32,25.2842712 32,17 C32,8.71572875 25.2842712,2 17,2 Z" id="Oval" fill="#FFFFFF" fill-rule="nonzero"></path>
        <path d="M10.5755,23.4695 C10.9041667,23.4695 11.1648333,23.393 11.3575,23.24 C11.5501667,23.087 11.7031667,22.9028333 11.8165,22.6875 L11.8165,22.6875 L16.3045,13.312 C16.3668333,13.1873333 16.4305833,13.0343333 16.49575,12.853 C16.5609167,12.6716667 16.5935,12.4336667 16.5935,12.139 L16.5935,12.139 L16.5935,11.136 L8,11.136 L8,12.7 C8,12.836 8.05525,12.9578333 8.16575,13.0655 C8.27625,13.1731667 8.3995,13.227 8.5355,13.227 L8.5355,13.227 L14.222,13.227 C14.0746667,13.3856667 13.9415,13.5528333 13.8225,13.7285 C13.7035,13.9041667 13.5873333,14.0996667 13.474,14.315 L13.474,14.315 L8.8755,23.4695 L10.5755,23.4695 Z M20.869,23.4695 C21.141,23.4695 21.38325,23.4185 21.59575,23.3165 C21.80825,23.2145 21.9711667,23.0898333 22.0845,22.9425 L22.0845,22.9425 L24.83,19.024 C25.0396667,18.735 25.2280833,18.4403333 25.39525,18.14 C25.5624167,17.8396667 25.7055,17.5308333 25.8245,17.2135 C25.9435,16.8961667 26.0341667,16.5618333 26.0965,16.2105 C26.1588333,15.8591667 26.19,15.488 26.19,15.097 C26.19,14.4963333 26.0936667,13.94525 25.901,13.44375 C25.7083333,12.94225 25.4335,12.5101667 25.0765,12.1475 C24.7195,11.7848333 24.2831667,11.5029167 23.7675,11.30175 C23.2518333,11.1005833 22.671,11 22.025,11 C21.3846667,11 20.8024167,11.1076667 20.27825,11.323 C19.7540833,11.5383333 19.305,11.82875 18.931,12.19425 C18.557,12.55975 18.268,12.9875833 18.064,13.47775 C17.86,13.9679167 17.758,14.4878333 17.758,15.0375 C17.758,15.6381667 17.8571667,16.1609167 18.0555,16.60575 C18.2538333,17.0505833 18.5145,17.4203333 18.8375,17.715 C19.1605,18.0096667 19.5245833,18.2306667 19.92975,18.378 C20.3349167,18.5253333 20.7443333,18.599 21.158,18.599 C21.515,18.599 21.8535833,18.5579167 22.17375,18.47575 C22.4939167,18.3935833 22.79,18.2731667 23.062,18.1145 L23.062,18.1145 L22.824,18.4205 C22.7446667,18.5225 22.6625,18.6273333 22.5775,18.735 L22.5775,18.735 L18.71,23.4695 L20.869,23.4695 Z M21.991,16.865 C21.3733333,16.865 20.9044167,16.695 20.58425,16.355 C20.2640833,16.015 20.104,15.5191667 20.104,14.8675 C20.104,14.5841667 20.1479167,14.3206667 20.23575,14.077 C20.3235833,13.8333333 20.4496667,13.62225 20.614,13.44375 C20.7783333,13.26525 20.9766667,13.1264167 21.209,13.02725 C21.4413333,12.9280833 21.7048333,12.8785 21.9995,12.8785 C22.2885,12.8785 22.552,12.9224167 22.79,13.01025 C23.028,13.0980833 23.2334167,13.227 23.40625,13.397 C23.5790833,13.567 23.7136667,13.77525 23.81,14.02175 C23.9063333,14.26825 23.9545,14.553 23.9545,14.876 C23.9545,15.165 23.9105833,15.4313333 23.82275,15.675 C23.7349167,15.9186667 23.6088333,16.1283333 23.4445,16.304 C23.2801667,16.4796667 23.07475,16.6170833 22.82825,16.71625 C22.58175,16.8154167 22.3026667,16.865 21.991,16.865 Z" id="79" fill="#FFFFFF" fill-rule="nonzero"></path>
    </g>
</svg>