<?xml version="1.0" encoding="UTF-8"?>
<svg width="34px" height="34px" viewBox="0 0 34 34" version="1.1" xmlns="http://www.w3.org/2000/svg" xmlns:xlink="http://www.w3.org/1999/xlink">
    <title>ic/grade bubble/8</title>
    <g id="ic/grade-bubble/8" stroke="none" stroke-width="1" fill="none" fill-rule="evenodd">
        <circle id="Oval" fill="#B02424" cx="17.5" cy="17.5" r="16.5"></circle>
        <path d="M17,0 C26.3888407,0 34,7.61115925 34,17 C34,26.3888407 26.3888407,34 17,34 C7.61115925,34 0,26.3888407 0,17 C0,7.61115925 7.61115925,0 17,0 Z M17,2 C8.71572875,2 2,8.71572875 2,17 C2,25.2842712 8.71572875,32 17,32 C25.2842712,32 32,25.2842712 32,17 C32,8.71572875 25.2842712,2 17,2 Z" id="Oval" fill="#FFFFFF" fill-rule="nonzero"></path>
        <path d="M17.335,23.6055 C17.981,23.6055 18.5703333,23.5190833 19.103,23.34625 C19.6356667,23.1734167 20.0918333,22.92975 20.4715,22.61525 C20.8511667,22.30075 21.1458333,21.9196667 21.3555,21.472 C21.5651667,21.0243333 21.67,20.5256667 21.67,19.976 C21.67,19.2733333 21.5,18.67125 21.16,18.16975 C20.82,17.66825 20.276,17.2928333 19.528,17.0435 C20.1116667,16.7885 20.5465833,16.4315 20.83275,15.9725 C21.1189167,15.5135 21.262,14.9666667 21.262,14.332 C21.262,13.856 21.1656667,13.4154167 20.973,13.01025 C20.7803333,12.6050833 20.50975,12.25375 20.16125,11.95625 C19.81275,11.65875 19.3976667,11.425 18.916,11.255 C18.4343333,11.085 17.9073333,11 17.335,11 C16.7626667,11 16.2356667,11.085 15.754,11.255 C15.2723333,11.425 14.85725,11.65875 14.50875,11.95625 C14.16025,12.25375 13.8896667,12.6050833 13.697,13.01025 C13.5043333,13.4154167 13.408,13.856 13.408,14.332 C13.408,14.9666667 13.5510833,15.5135 13.83725,15.9725 C14.1234167,16.4315 14.5583333,16.7885 15.142,17.0435 C14.394,17.2928333 13.85,17.66825 13.51,18.16975 C13.17,18.67125 13,19.2733333 13,19.976 C13,20.5256667 13.1048333,21.0243333 13.3145,21.472 C13.5241667,21.9196667 13.8188333,22.30075 14.1985,22.61525 C14.5781667,22.92975 15.0343333,23.1734167 15.567,23.34625 C16.0996667,23.5190833 16.689,23.6055 17.335,23.6055 Z M17.335,16.1935 C17.012,16.1935 16.7456667,16.1425 16.536,16.0405 C16.3263333,15.9385 16.1591667,15.8025 16.0345,15.6325 C15.9098333,15.4625 15.822,15.2684167 15.771,15.05025 C15.72,14.8320833 15.6945,14.6068333 15.6945,14.3745 C15.6945,14.1591667 15.7256667,13.9523333 15.788,13.754 C15.8503333,13.5556667 15.9480833,13.3814167 16.08125,13.23125 C16.2144167,13.0810833 16.3844167,12.9606667 16.59125,12.87 C16.7980833,12.7793333 17.046,12.734 17.335,12.734 C17.624,12.734 17.8719167,12.7793333 18.07875,12.87 C18.2855833,12.9606667 18.4555833,13.0810833 18.58875,13.23125 C18.7219167,13.3814167 18.8196667,13.5556667 18.882,13.754 C18.9443333,13.9523333 18.9755,14.1591667 18.9755,14.3745 C18.9755,14.6068333 18.95,14.8320833 18.899,15.05025 C18.848,15.2684167 18.7601667,15.4625 18.6355,15.6325 C18.5108333,15.8025 18.3436667,15.9385 18.134,16.0405 C17.9243333,16.1425 17.658,16.1935 17.335,16.1935 Z M17.335,21.812 C17.012,21.812 16.7300833,21.7638333 16.48925,21.6675 C16.2484167,21.5711667 16.0486667,21.4394167 15.89,21.27225 C15.7313333,21.1050833 15.6123333,20.90675 15.533,20.67725 C15.4536667,20.44775 15.414,20.1998333 15.414,19.9335 C15.414,19.3215 15.57125,18.8469167 15.88575,18.50975 C16.20025,18.1725833 16.6833333,18.004 17.335,18.004 C17.9866667,18.004 18.46975,18.1725833 18.78425,18.50975 C19.09875,18.8469167 19.256,19.3215 19.256,19.9335 C19.256,20.1998333 19.2163333,20.44775 19.137,20.67725 C19.0576667,20.90675 18.9386667,21.1050833 18.78,21.27225 C18.6213333,21.4394167 18.4215833,21.5711667 18.18075,21.6675 C17.9399167,21.7638333 17.658,21.812 17.335,21.812 Z" id="8" fill="#FFFFFF" fill-rule="nonzero"></path>
    </g>
</svg>