<?xml version="1.0" encoding="UTF-8"?>
<svg width="34px" height="34px" viewBox="0 0 34 34" version="1.1" xmlns="http://www.w3.org/2000/svg" xmlns:xlink="http://www.w3.org/1999/xlink">
    <title>ic/grade bubble/80</title>
    <g id="ic/grade-bubble/80" stroke="none" stroke-width="1" fill="none" fill-rule="evenodd">
        <circle id="Oval" fill="#537C15" cx="17.5" cy="17.5" r="16.5"></circle>
        <path d="M17,0 C26.3888407,0 34,7.61115925 34,17 C34,26.3888407 26.3888407,34 17,34 C7.61115925,34 0,26.3888407 0,17 C0,7.61115925 7.61115925,0 17,0 Z M17,2 C8.71572875,2 2,8.71572875 2,17 C2,25.2842712 8.71572875,32 17,32 C25.2842712,32 32,25.2842712 32,17 C32,8.71572875 25.2842712,2 17,2 Z" id="Oval" fill="#FFFFFF" fill-rule="nonzero"></path>
        <path d="M12.335,24.136 C12.981,24.136 13.5703333,24.0495833 14.103,23.87675 C14.6356667,23.7039167 15.0918333,23.46025 15.4715,23.14575 C15.8511667,22.83125 16.1458333,22.4501667 16.3555,22.0025 C16.5651667,21.5548333 16.67,21.0561667 16.67,20.5065 C16.67,19.8038333 16.5,19.20175 16.16,18.70025 C15.82,18.19875 15.276,17.8233333 14.528,17.574 C15.1116667,17.319 15.5465833,16.962 15.83275,16.503 C16.1189167,16.044 16.262,15.4971667 16.262,14.8625 C16.262,14.3865 16.1656667,13.9459167 15.973,13.54075 C15.7803333,13.1355833 15.50975,12.78425 15.16125,12.48675 C14.81275,12.18925 14.3976667,11.9555 13.916,11.7855 C13.4343333,11.6155 12.9073333,11.5305 12.335,11.5305 C11.7626667,11.5305 11.2356667,11.6155 10.754,11.7855 C10.2723333,11.9555 9.85725,12.18925 9.50875,12.48675 C9.16025,12.78425 8.88966667,13.1355833 8.697,13.54075 C8.50433333,13.9459167 8.408,14.3865 8.408,14.8625 C8.408,15.4971667 8.55108333,16.044 8.83725,16.503 C9.12341667,16.962 9.55833333,17.319 10.142,17.574 C9.394,17.8233333 8.85,18.19875 8.51,18.70025 C8.17,19.20175 8,19.8038333 8,20.5065 C8,21.0561667 8.10483333,21.5548333 8.3145,22.0025 C8.52416667,22.4501667 8.81883333,22.83125 9.1985,23.14575 C9.57816667,23.46025 10.0343333,23.7039167 10.567,23.87675 C11.0996667,24.0495833 11.689,24.136 12.335,24.136 Z M12.335,16.724 C12.012,16.724 11.7456667,16.673 11.536,16.571 C11.3263333,16.469 11.1591667,16.333 11.0345,16.163 C10.9098333,15.993 10.822,15.7989167 10.771,15.58075 C10.72,15.3625833 10.6945,15.1373333 10.6945,14.905 C10.6945,14.6896667 10.7256667,14.4828333 10.788,14.2845 C10.8503333,14.0861667 10.9480833,13.9119167 11.08125,13.76175 C11.2144167,13.6115833 11.3844167,13.4911667 11.59125,13.4005 C11.7980833,13.3098333 12.046,13.2645 12.335,13.2645 C12.624,13.2645 12.8719167,13.3098333 13.07875,13.4005 C13.2855833,13.4911667 13.4555833,13.6115833 13.58875,13.76175 C13.7219167,13.9119167 13.8196667,14.0861667 13.882,14.2845 C13.9443333,14.4828333 13.9755,14.6896667 13.9755,14.905 C13.9755,15.1373333 13.95,15.3625833 13.899,15.58075 C13.848,15.7989167 13.7601667,15.993 13.6355,16.163 C13.5108333,16.333 13.3436667,16.469 13.134,16.571 C12.9243333,16.673 12.658,16.724 12.335,16.724 Z M12.335,22.3425 C12.012,22.3425 11.7300833,22.2943333 11.48925,22.198 C11.2484167,22.1016667 11.0486667,21.9699167 10.89,21.80275 C10.7313333,21.6355833 10.6123333,21.43725 10.533,21.20775 C10.4536667,20.97825 10.414,20.7303333 10.414,20.464 C10.414,19.852 10.57125,19.3774167 10.88575,19.04025 C11.20025,18.7030833 11.6833333,18.5345 12.335,18.5345 C12.9866667,18.5345 13.46975,18.7030833 13.78425,19.04025 C14.09875,19.3774167 14.256,19.852 14.256,20.464 C14.256,20.7303333 14.2163333,20.97825 14.137,21.20775 C14.0576667,21.43725 13.9386667,21.6355833 13.78,21.80275 C13.6213333,21.9699167 13.4215833,22.1016667 13.18075,22.198 C12.9399167,22.2943333 12.658,22.3425 12.335,22.3425 Z M22.178,24.136 C22.824,24.136 23.4260833,24.0099167 23.98425,23.75775 C24.5424167,23.5055833 25.0255,23.12025 25.4335,22.60175 C25.8415,22.08325 26.1616667,21.4273333 26.394,20.634 C26.6263333,19.8406667 26.7425,18.9056667 26.7425,17.829 C26.7425,16.7523333 26.6263333,15.81875 26.394,15.02825 C26.1616667,14.23775 25.8415,13.58325 25.4335,13.06475 C25.0255,12.54625 24.5424167,12.1609167 23.98425,11.90875 C23.4260833,11.6565833 22.824,11.5305 22.178,11.5305 C21.532,11.5305 20.9313333,11.6565833 20.376,11.90875 C19.8206667,12.1609167 19.3418333,12.54625 18.9395,13.06475 C18.5371667,13.58325 18.22125,14.23775 17.99175,15.02825 C17.76225,15.81875 17.6475,16.7523333 17.6475,17.829 C17.6475,18.9056667 17.76225,19.8406667 17.99175,20.634 C18.22125,21.4273333 18.5371667,22.08325 18.9395,22.60175 C19.3418333,23.12025 19.8206667,23.5055833 20.376,23.75775 C20.9313333,24.0099167 21.532,24.136 22.178,24.136 Z M22.178,22.2235 C21.906,22.2235 21.6439167,22.1583333 21.39175,22.028 C21.1395833,21.8976667 20.91575,21.6681667 20.72025,21.3395 C20.52475,21.0108333 20.3675,20.5631667 20.2485,19.9965 C20.1295,19.4298333 20.07,18.7073333 20.07,17.829 C20.07,16.9563333 20.1295,16.2366667 20.2485,15.67 C20.3675,15.1033333 20.52475,14.6556667 20.72025,14.327 C20.91575,13.9983333 21.1395833,13.7688333 21.39175,13.6385 C21.6439167,13.5081667 21.906,13.443 22.178,13.443 C22.45,13.443 22.7149167,13.5081667 22.97275,13.6385 C23.2305833,13.7688333 23.4586667,13.9983333 23.657,14.327 C23.8553333,14.6556667 24.0154167,15.1033333 24.13725,15.67 C24.2590833,16.2366667 24.32,16.9563333 24.32,17.829 C24.32,18.7073333 24.2590833,19.4298333 24.13725,19.9965 C24.0154167,20.5631667 23.8553333,21.0108333 23.657,21.3395 C23.4586667,21.6681667 23.2305833,21.8976667 22.97275,22.028 C22.7149167,22.1583333 22.45,22.2235 22.178,22.2235 Z" id="80" fill="#FFFFFF" fill-rule="nonzero"></path>
    </g>
</svg>