<?xml version="1.0" encoding="UTF-8"?>
<svg width="34px" height="34px" viewBox="0 0 34 34" version="1.1" xmlns="http://www.w3.org/2000/svg" xmlns:xlink="http://www.w3.org/1999/xlink">
    <title>ic/grade bubble/83</title>
    <g id="ic/grade-bubble/83" stroke="none" stroke-width="1" fill="none" fill-rule="evenodd">
        <circle id="Oval" fill="#537C15" cx="17.5" cy="17.5" r="16.5"></circle>
        <path d="M17,0 C26.3888407,0 34,7.61115925 34,17 C34,26.3888407 26.3888407,34 17,34 C7.61115925,34 0,26.3888407 0,17 C0,7.61115925 7.61115925,0 17,0 Z M17,2 C8.71572875,2 2,8.71572875 2,17 C2,25.2842712 8.71572875,32 17,32 C25.2842712,32 32,25.2842712 32,17 C32,8.71572875 25.2842712,2 17,2 Z" id="Oval" fill="#FFFFFF" fill-rule="nonzero"></path>
        <path d="M12.335,23.6055 C12.981,23.6055 13.5703333,23.5190833 14.103,23.34625 C14.6356667,23.1734167 15.0918333,22.92975 15.4715,22.61525 C15.8511667,22.30075 16.1458333,21.9196667 16.3555,21.472 C16.5651667,21.0243333 16.67,20.5256667 16.67,19.976 C16.67,19.2733333 16.5,18.67125 16.16,18.16975 C15.82,17.66825 15.276,17.2928333 14.528,17.0435 C15.1116667,16.7885 15.5465833,16.4315 15.83275,15.9725 C16.1189167,15.5135 16.262,14.9666667 16.262,14.332 C16.262,13.856 16.1656667,13.4154167 15.973,13.01025 C15.7803333,12.6050833 15.50975,12.25375 15.16125,11.95625 C14.81275,11.65875 14.3976667,11.425 13.916,11.255 C13.4343333,11.085 12.9073333,11 12.335,11 C11.7626667,11 11.2356667,11.085 10.754,11.255 C10.2723333,11.425 9.85725,11.65875 9.50875,11.95625 C9.16025,12.25375 8.88966667,12.6050833 8.697,13.01025 C8.50433333,13.4154167 8.408,13.856 8.408,14.332 C8.408,14.9666667 8.55108333,15.5135 8.83725,15.9725 C9.12341667,16.4315 9.55833333,16.7885 10.142,17.0435 C9.394,17.2928333 8.85,17.66825 8.51,18.16975 C8.17,18.67125 8,19.2733333 8,19.976 C8,20.5256667 8.10483333,21.0243333 8.3145,21.472 C8.52416667,21.9196667 8.81883333,22.30075 9.1985,22.61525 C9.57816667,22.92975 10.0343333,23.1734167 10.567,23.34625 C11.0996667,23.5190833 11.689,23.6055 12.335,23.6055 Z M12.335,16.1935 C12.012,16.1935 11.7456667,16.1425 11.536,16.0405 C11.3263333,15.9385 11.1591667,15.8025 11.0345,15.6325 C10.9098333,15.4625 10.822,15.2684167 10.771,15.05025 C10.72,14.8320833 10.6945,14.6068333 10.6945,14.3745 C10.6945,14.1591667 10.7256667,13.9523333 10.788,13.754 C10.8503333,13.5556667 10.9480833,13.3814167 11.08125,13.23125 C11.2144167,13.0810833 11.3844167,12.9606667 11.59125,12.87 C11.7980833,12.7793333 12.046,12.734 12.335,12.734 C12.624,12.734 12.8719167,12.7793333 13.07875,12.87 C13.2855833,12.9606667 13.4555833,13.0810833 13.58875,13.23125 C13.7219167,13.3814167 13.8196667,13.5556667 13.882,13.754 C13.9443333,13.9523333 13.9755,14.1591667 13.9755,14.3745 C13.9755,14.6068333 13.95,14.8320833 13.899,15.05025 C13.848,15.2684167 13.7601667,15.4625 13.6355,15.6325 C13.5108333,15.8025 13.3436667,15.9385 13.134,16.0405 C12.9243333,16.1425 12.658,16.1935 12.335,16.1935 Z M12.335,21.812 C12.012,21.812 11.7300833,21.7638333 11.48925,21.6675 C11.2484167,21.5711667 11.0486667,21.4394167 10.89,21.27225 C10.7313333,21.1050833 10.6123333,20.90675 10.533,20.67725 C10.4536667,20.44775 10.414,20.1998333 10.414,19.9335 C10.414,19.3215 10.57125,18.8469167 10.88575,18.50975 C11.20025,18.1725833 11.6833333,18.004 12.335,18.004 C12.9866667,18.004 13.46975,18.1725833 13.78425,18.50975 C14.09875,18.8469167 14.256,19.3215 14.256,19.9335 C14.256,20.1998333 14.2163333,20.44775 14.137,20.67725 C14.0576667,20.90675 13.9386667,21.1050833 13.78,21.27225 C13.6213333,21.4394167 13.4215833,21.5711667 13.18075,21.6675 C12.9399167,21.7638333 12.658,21.812 12.335,21.812 Z M22.11,23.6055 C22.6766667,23.6055 23.21925,23.52475 23.73775,23.36325 C24.25625,23.20175 24.711,22.9595 25.102,22.6365 C25.493,22.3135 25.8046667,21.9125833 26.037,21.43375 C26.2693333,20.9549167 26.3855,20.401 26.3855,19.772 C26.3855,18.3496667 25.6771667,17.4061667 24.2605,16.9415 C24.5665,16.8395 24.8370833,16.712 25.07225,16.559 C25.3074167,16.406 25.50575,16.219 25.66725,15.998 C25.82875,15.777 25.9505833,15.51775 26.03275,15.22025 C26.1149167,14.92275 26.156,14.5785 26.156,14.1875 C26.156,13.7455 26.0695833,13.3318333 25.89675,12.9465 C25.7239167,12.5611667 25.476,12.224 25.153,11.935 C24.83,11.646 24.43475,11.4179167 23.96725,11.25075 C23.49975,11.0835833 22.9713333,11 22.382,11 C21.8266667,11 21.3095833,11.0750833 20.83075,11.22525 C20.3519167,11.3754167 19.9255,11.6006667 19.5515,11.901 C19.1775,12.2013333 18.8658333,12.5781667 18.6165,13.0315 C18.3671667,13.4848333 18.1971667,14.0118333 18.1065,14.6125 L18.1065,14.6125 L19.339,14.8335 C19.662,14.8845 19.9085,14.86325 20.0785,14.76975 C20.2485,14.67625 20.3873333,14.4878333 20.495,14.2045 C20.546,14.0231667 20.6253333,13.856 20.733,13.703 C20.8406667,13.55 20.9695833,13.4168333 21.11975,13.3035 C21.2699167,13.1901667 21.4399167,13.1009167 21.62975,13.03575 C21.8195833,12.9705833 22.0278333,12.938 22.2545,12.938 C22.7701667,12.938 23.16825,13.0796667 23.44875,13.363 C23.72925,13.6463333 23.8695,14.0571667 23.8695,14.5955 C23.8695,14.8505 23.8340833,15.0856667 23.76325,15.301 C23.6924167,15.5163333 23.5635,15.7005 23.3765,15.8535 C23.1895,16.0065 22.9316667,16.1255 22.603,16.2105 C22.2743333,16.2955 21.8521667,16.338 21.3365,16.338 L21.3365,16.338 L21.3365,17.987 C21.9541667,17.987 22.4429167,18.0309167 22.80275,18.11875 C23.1625833,18.2065833 23.4345833,18.33125 23.61875,18.49275 C23.8029167,18.65425 23.9205,18.84975 23.9715,19.07925 C24.0225,19.30875 24.048,19.5651667 24.048,19.8485 C24.048,20.0638333 24.0069167,20.2805833 23.92475,20.49875 C23.8425833,20.7169167 23.7193333,20.9124167 23.555,21.08525 C23.3906667,21.2580833 23.1866667,21.3983333 22.943,21.506 C22.6993333,21.6136667 22.4131667,21.6675 22.0845,21.6675 C21.8238333,21.6675 21.5929167,21.6306667 21.39175,21.557 C21.1905833,21.4833333 21.0106667,21.3799167 20.852,21.24675 C20.6933333,21.1135833 20.55025,20.9563333 20.42275,20.775 C20.29525,20.5936667 20.1748333,20.3953333 20.0615,20.18 C19.9595,19.9816667 19.7909167,19.857 19.55575,19.806 C19.3205833,19.755 19.067,19.7861667 18.795,19.8995 L18.795,19.8995 L17.758,20.3245 C17.945,20.8741667 18.1631667,21.3544167 18.4125,21.76525 C18.6618333,22.1760833 18.96075,22.5175 19.30925,22.7895 C19.65775,23.0615 20.0615,23.2655 20.5205,23.4015 C20.9795,23.5375 21.5093333,23.6055 22.11,23.6055 Z" id="83" fill="#FFFFFF" fill-rule="nonzero"></path>
    </g>
</svg>