<?xml version="1.0" encoding="UTF-8"?>
<svg width="34px" height="34px" viewBox="0 0 34 34" version="1.1" xmlns="http://www.w3.org/2000/svg" xmlns:xlink="http://www.w3.org/1999/xlink">
    <title>ic/grade bubble/85</title>
    <g id="ic/grade-bubble/85" stroke="none" stroke-width="1" fill="none" fill-rule="evenodd">
        <circle id="Oval" fill="#537C15" cx="17.5" cy="17.5" r="16.5"></circle>
        <path d="M17,0 C26.3888407,0 34,7.61115925 34,17 C34,26.3888407 26.3888407,34 17,34 C7.61115925,34 0,26.3888407 0,17 C0,7.61115925 7.61115925,0 17,0 Z M17,2 C8.71572875,2 2,8.71572875 2,17 C2,25.2842712 8.71572875,32 17,32 C25.2842712,32 32,25.2842712 32,17 C32,8.71572875 25.2842712,2 17,2 Z" id="Oval" fill="#FFFFFF" fill-rule="nonzero"></path>
        <path d="M12.335,23.6055 C12.981,23.6055 13.5703333,23.5190833 14.103,23.34625 C14.6356667,23.1734167 15.0918333,22.92975 15.4715,22.61525 C15.8511667,22.30075 16.1458333,21.9196667 16.3555,21.472 C16.5651667,21.0243333 16.67,20.5256667 16.67,19.976 C16.67,19.2733333 16.5,18.67125 16.16,18.16975 C15.82,17.66825 15.276,17.2928333 14.528,17.0435 C15.1116667,16.7885 15.5465833,16.4315 15.83275,15.9725 C16.1189167,15.5135 16.262,14.9666667 16.262,14.332 C16.262,13.856 16.1656667,13.4154167 15.973,13.01025 C15.7803333,12.6050833 15.50975,12.25375 15.16125,11.95625 C14.81275,11.65875 14.3976667,11.425 13.916,11.255 C13.4343333,11.085 12.9073333,11 12.335,11 C11.7626667,11 11.2356667,11.085 10.754,11.255 C10.2723333,11.425 9.85725,11.65875 9.50875,11.95625 C9.16025,12.25375 8.88966667,12.6050833 8.697,13.01025 C8.50433333,13.4154167 8.408,13.856 8.408,14.332 C8.408,14.9666667 8.55108333,15.5135 8.83725,15.9725 C9.12341667,16.4315 9.55833333,16.7885 10.142,17.0435 C9.394,17.2928333 8.85,17.66825 8.51,18.16975 C8.17,18.67125 8,19.2733333 8,19.976 C8,20.5256667 8.10483333,21.0243333 8.3145,21.472 C8.52416667,21.9196667 8.81883333,22.30075 9.1985,22.61525 C9.57816667,22.92975 10.0343333,23.1734167 10.567,23.34625 C11.0996667,23.5190833 11.689,23.6055 12.335,23.6055 Z M12.335,16.1935 C12.012,16.1935 11.7456667,16.1425 11.536,16.0405 C11.3263333,15.9385 11.1591667,15.8025 11.0345,15.6325 C10.9098333,15.4625 10.822,15.2684167 10.771,15.05025 C10.72,14.8320833 10.6945,14.6068333 10.6945,14.3745 C10.6945,14.1591667 10.7256667,13.9523333 10.788,13.754 C10.8503333,13.5556667 10.9480833,13.3814167 11.08125,13.23125 C11.2144167,13.0810833 11.3844167,12.9606667 11.59125,12.87 C11.7980833,12.7793333 12.046,12.734 12.335,12.734 C12.624,12.734 12.8719167,12.7793333 13.07875,12.87 C13.2855833,12.9606667 13.4555833,13.0810833 13.58875,13.23125 C13.7219167,13.3814167 13.8196667,13.5556667 13.882,13.754 C13.9443333,13.9523333 13.9755,14.1591667 13.9755,14.3745 C13.9755,14.6068333 13.95,14.8320833 13.899,15.05025 C13.848,15.2684167 13.7601667,15.4625 13.6355,15.6325 C13.5108333,15.8025 13.3436667,15.9385 13.134,16.0405 C12.9243333,16.1425 12.658,16.1935 12.335,16.1935 Z M12.335,21.812 C12.012,21.812 11.7300833,21.7638333 11.48925,21.6675 C11.2484167,21.5711667 11.0486667,21.4394167 10.89,21.27225 C10.7313333,21.1050833 10.6123333,20.90675 10.533,20.67725 C10.4536667,20.44775 10.414,20.1998333 10.414,19.9335 C10.414,19.3215 10.57125,18.8469167 10.88575,18.50975 C11.20025,18.1725833 11.6833333,18.004 12.335,18.004 C12.9866667,18.004 13.46975,18.1725833 13.78425,18.50975 C14.09875,18.8469167 14.256,19.3215 14.256,19.9335 C14.256,20.1998333 14.2163333,20.44775 14.137,20.67725 C14.0576667,20.90675 13.9386667,21.1050833 13.78,21.27225 C13.6213333,21.4394167 13.4215833,21.5711667 13.18075,21.6675 C12.9399167,21.7638333 12.658,21.812 12.335,21.812 Z M21.6085,23.6055 C22.2828333,23.6055 22.90475,23.4978333 23.47425,23.2825 C24.04375,23.0671667 24.5339167,22.7654167 24.94475,22.37725 C25.3555833,21.9890833 25.6771667,21.5244167 25.9095,20.98325 C26.1418333,20.4420833 26.258,19.8428333 26.258,19.1855 C26.258,18.6585 26.173,18.1655 26.003,17.7065 C25.833,17.2475 25.5794167,16.848 25.24225,16.508 C24.9050833,16.168 24.4885833,15.90025 23.99275,15.70475 C23.4969167,15.50925 22.926,15.4115 22.28,15.4115 C22.059,15.4115 21.8309167,15.4228333 21.59575,15.4455 C21.3605833,15.4681667 21.1155,15.505 20.8605,15.556 L20.8605,15.556 L21.26,13.227 L24.4475,13.227 C24.6968333,13.227 24.9079167,13.2000833 25.08075,13.14625 C25.2535833,13.0924167 25.39525,13.0159167 25.50575,12.91675 C25.61625,12.8175833 25.6955833,12.7014167 25.74375,12.56825 C25.7919167,12.4350833 25.816,12.2863333 25.816,12.122 L25.816,12.122 L25.816,11.136 L19.628,11.136 L18.591,17.205 L20.0445,17.613 C20.6225,17.3976667 21.1976667,17.29 21.77,17.29 C22.467,17.29 22.99825,17.46425 23.36375,17.81275 C23.72925,18.16125 23.912,18.6556667 23.912,19.296 C23.912,19.6303333 23.8680833,19.9434167 23.78025,20.23525 C23.6924167,20.5270833 23.55925,20.77925 23.38075,20.99175 C23.20225,21.20425 22.977,21.3714167 22.705,21.49325 C22.433,21.6150833 22.1128333,21.676 21.7445,21.676 C21.3875,21.676 21.0843333,21.6306667 20.835,21.54 C20.5856667,21.4493333 20.3675,21.34875 20.1805,21.23825 C19.9935,21.12775 19.8263333,21.0271667 19.679,20.9365 C19.5316667,20.8458333 19.3815,20.8005 19.2285,20.8005 C18.9848333,20.8005 18.7865,20.9053333 18.6335,21.115 L18.6335,21.115 L17.911,22.101 C18.1206667,22.2993333 18.3586667,22.4891667 18.625,22.6705 C18.8913333,22.8518333 19.1789167,23.0119167 19.48775,23.15075 C19.7965833,23.2895833 20.1295,23.4000833 20.4865,23.48225 C20.8435,23.5644167 21.2175,23.6055 21.6085,23.6055 Z" id="85" fill="#FFFFFF" fill-rule="nonzero"></path>
    </g>
</svg>