<?xml version="1.0" encoding="UTF-8"?>
<svg width="34px" height="34px" viewBox="0 0 34 34" version="1.1" xmlns="http://www.w3.org/2000/svg" xmlns:xlink="http://www.w3.org/1999/xlink">
    <title>ic/grade bubble/86</title>
    <g id="ic/grade-bubble/86" stroke="none" stroke-width="1" fill="none" fill-rule="evenodd">
        <circle id="Oval" fill="#537C15" cx="17.5" cy="17.5" r="16.5"></circle>
        <path d="M17,0 C26.3888407,0 34,7.61115925 34,17 C34,26.3888407 26.3888407,34 17,34 C7.61115925,34 0,26.3888407 0,17 C0,7.61115925 7.61115925,0 17,0 Z M17,2 C8.71572875,2 2,8.71572875 2,17 C2,25.2842712 8.71572875,32 17,32 C25.2842712,32 32,25.2842712 32,17 C32,8.71572875 25.2842712,2 17,2 Z" id="Oval" fill="#FFFFFF" fill-rule="nonzero"></path>
        <path d="M12.335,23.6055 C12.981,23.6055 13.5703333,23.5190833 14.103,23.34625 C14.6356667,23.1734167 15.0918333,22.92975 15.4715,22.61525 C15.8511667,22.30075 16.1458333,21.9196667 16.3555,21.472 C16.5651667,21.0243333 16.67,20.5256667 16.67,19.976 C16.67,19.2733333 16.5,18.67125 16.16,18.16975 C15.82,17.66825 15.276,17.2928333 14.528,17.0435 C15.1116667,16.7885 15.5465833,16.4315 15.83275,15.9725 C16.1189167,15.5135 16.262,14.9666667 16.262,14.332 C16.262,13.856 16.1656667,13.4154167 15.973,13.01025 C15.7803333,12.6050833 15.50975,12.25375 15.16125,11.95625 C14.81275,11.65875 14.3976667,11.425 13.916,11.255 C13.4343333,11.085 12.9073333,11 12.335,11 C11.7626667,11 11.2356667,11.085 10.754,11.255 C10.2723333,11.425 9.85725,11.65875 9.50875,11.95625 C9.16025,12.25375 8.88966667,12.6050833 8.697,13.01025 C8.50433333,13.4154167 8.408,13.856 8.408,14.332 C8.408,14.9666667 8.55108333,15.5135 8.83725,15.9725 C9.12341667,16.4315 9.55833333,16.7885 10.142,17.0435 C9.394,17.2928333 8.85,17.66825 8.51,18.16975 C8.17,18.67125 8,19.2733333 8,19.976 C8,20.5256667 8.10483333,21.0243333 8.3145,21.472 C8.52416667,21.9196667 8.81883333,22.30075 9.1985,22.61525 C9.57816667,22.92975 10.0343333,23.1734167 10.567,23.34625 C11.0996667,23.5190833 11.689,23.6055 12.335,23.6055 Z M12.335,16.1935 C12.012,16.1935 11.7456667,16.1425 11.536,16.0405 C11.3263333,15.9385 11.1591667,15.8025 11.0345,15.6325 C10.9098333,15.4625 10.822,15.2684167 10.771,15.05025 C10.72,14.8320833 10.6945,14.6068333 10.6945,14.3745 C10.6945,14.1591667 10.7256667,13.9523333 10.788,13.754 C10.8503333,13.5556667 10.9480833,13.3814167 11.08125,13.23125 C11.2144167,13.0810833 11.3844167,12.9606667 11.59125,12.87 C11.7980833,12.7793333 12.046,12.734 12.335,12.734 C12.624,12.734 12.8719167,12.7793333 13.07875,12.87 C13.2855833,12.9606667 13.4555833,13.0810833 13.58875,13.23125 C13.7219167,13.3814167 13.8196667,13.5556667 13.882,13.754 C13.9443333,13.9523333 13.9755,14.1591667 13.9755,14.3745 C13.9755,14.6068333 13.95,14.8320833 13.899,15.05025 C13.848,15.2684167 13.7601667,15.4625 13.6355,15.6325 C13.5108333,15.8025 13.3436667,15.9385 13.134,16.0405 C12.9243333,16.1425 12.658,16.1935 12.335,16.1935 Z M12.335,21.812 C12.012,21.812 11.7300833,21.7638333 11.48925,21.6675 C11.2484167,21.5711667 11.0486667,21.4394167 10.89,21.27225 C10.7313333,21.1050833 10.6123333,20.90675 10.533,20.67725 C10.4536667,20.44775 10.414,20.1998333 10.414,19.9335 C10.414,19.3215 10.57125,18.8469167 10.88575,18.50975 C11.20025,18.1725833 11.6833333,18.004 12.335,18.004 C12.9866667,18.004 13.46975,18.1725833 13.78425,18.50975 C14.09875,18.8469167 14.256,19.3215 14.256,19.9335 C14.256,20.1998333 14.2163333,20.44775 14.137,20.67725 C14.0576667,20.90675 13.9386667,21.1050833 13.78,21.27225 C13.6213333,21.4394167 13.4215833,21.5711667 13.18075,21.6675 C12.9399167,21.7638333 12.658,21.812 12.335,21.812 Z M22.2205,23.6055 C22.8835,23.6055 23.4855833,23.495 24.02675,23.274 C24.5679167,23.053 25.0325833,22.7526667 25.42075,22.373 C25.8089167,21.9933333 26.10925,21.5485 26.32175,21.0385 C26.53425,20.5285 26.6405,19.9873333 26.6405,19.415 C26.6405,18.7916667 26.5370833,18.2490833 26.33025,17.78725 C26.1234167,17.3254167 25.85,16.9415 25.51,16.6355 C25.17,16.3295 24.7818333,16.1 24.3455,15.947 C23.9091667,15.794 23.4615,15.7175 23.0025,15.7175 C22.7135,15.7175 22.4443333,15.743 22.195,15.794 C21.9456667,15.845 21.7133333,15.9186667 21.498,16.015 L21.498,16.015 L21.872,15.5645 L25.527,11.136 L23.4445,11.136 C23.1611667,11.136 22.909,11.1898333 22.688,11.2975 C22.467,11.4051667 22.2998333,11.5326667 22.1865,11.68 L22.1865,11.68 L19.322,15.539 C18.8403333,16.185 18.4819167,16.814 18.24675,17.426 C18.0115833,18.038 17.894,18.6415 17.894,19.2365 C17.894,19.8825 17.9931667,20.47325 18.1915,21.00875 C18.3898333,21.54425 18.676,22.0046667 19.05,22.39 C19.424,22.7753333 19.8773333,23.07425 20.41,23.28675 C20.9426667,23.49925 21.5461667,23.6055 22.2205,23.6055 Z M22.178,21.7185 C21.838,21.7185 21.5419167,21.6675 21.28975,21.5655 C21.0375833,21.4635 20.8265,21.319 20.6565,21.132 C20.4865,20.945 20.359,20.71975 20.274,20.45625 C20.189,20.19275 20.1465,19.8995 20.1465,19.5765 C20.1465,19.2648333 20.1960833,18.9786667 20.29525,18.718 C20.3944167,18.4573333 20.53325,18.2320833 20.71175,18.04225 C20.89025,17.8524167 21.1041667,17.7050833 21.3535,17.60025 C21.6028333,17.4954167 21.8776667,17.443 22.178,17.443 C22.4953333,17.443 22.7843333,17.4911667 23.045,17.5875 C23.3056667,17.6838333 23.5295,17.8240833 23.7165,18.00825 C23.9035,18.1924167 24.048,18.4176667 24.15,18.684 C24.252,18.9503333 24.303,19.2506667 24.303,19.585 C24.303,19.891 24.2491667,20.1729167 24.1415,20.43075 C24.0338333,20.6885833 23.8865,20.9138333 23.6995,21.1065 C23.5125,21.2991667 23.2886667,21.4493333 23.028,21.557 C22.7673333,21.6646667 22.484,21.7185 22.178,21.7185 Z" id="86" fill="#FFFFFF" fill-rule="nonzero"></path>
    </g>
</svg>