<?xml version="1.0" encoding="UTF-8"?>
<svg width="34px" height="34px" viewBox="0 0 34 34" version="1.1" xmlns="http://www.w3.org/2000/svg" xmlns:xlink="http://www.w3.org/1999/xlink">
    <title>ic/grade bubble/89</title>
    <g id="ic/grade-bubble/89" stroke="none" stroke-width="1" fill="none" fill-rule="evenodd">
        <circle id="Oval" fill="#537C15" cx="17.5" cy="17.5" r="16.5"></circle>
        <path d="M17,0 C26.3888407,0 34,7.61115925 34,17 C34,26.3888407 26.3888407,34 17,34 C7.61115925,34 0,26.3888407 0,17 C0,7.61115925 7.61115925,0 17,0 Z M17,2 C8.71572875,2 2,8.71572875 2,17 C2,25.2842712 8.71572875,32 17,32 C25.2842712,32 32,25.2842712 32,17 C32,8.71572875 25.2842712,2 17,2 Z" id="Oval" fill="#FFFFFF" fill-rule="nonzero"></path>
        <path d="M12.335,23.6055 C12.981,23.6055 13.5703333,23.5190833 14.103,23.34625 C14.6356667,23.1734167 15.0918333,22.92975 15.4715,22.61525 C15.8511667,22.30075 16.1458333,21.9196667 16.3555,21.472 C16.5651667,21.0243333 16.67,20.5256667 16.67,19.976 C16.67,19.2733333 16.5,18.67125 16.16,18.16975 C15.82,17.66825 15.276,17.2928333 14.528,17.0435 C15.1116667,16.7885 15.5465833,16.4315 15.83275,15.9725 C16.1189167,15.5135 16.262,14.9666667 16.262,14.332 C16.262,13.856 16.1656667,13.4154167 15.973,13.01025 C15.7803333,12.6050833 15.50975,12.25375 15.16125,11.95625 C14.81275,11.65875 14.3976667,11.425 13.916,11.255 C13.4343333,11.085 12.9073333,11 12.335,11 C11.7626667,11 11.2356667,11.085 10.754,11.255 C10.2723333,11.425 9.85725,11.65875 9.50875,11.95625 C9.16025,12.25375 8.88966667,12.6050833 8.697,13.01025 C8.50433333,13.4154167 8.408,13.856 8.408,14.332 C8.408,14.9666667 8.55108333,15.5135 8.83725,15.9725 C9.12341667,16.4315 9.55833333,16.7885 10.142,17.0435 C9.394,17.2928333 8.85,17.66825 8.51,18.16975 C8.17,18.67125 8,19.2733333 8,19.976 C8,20.5256667 8.10483333,21.0243333 8.3145,21.472 C8.52416667,21.9196667 8.81883333,22.30075 9.1985,22.61525 C9.57816667,22.92975 10.0343333,23.1734167 10.567,23.34625 C11.0996667,23.5190833 11.689,23.6055 12.335,23.6055 Z M12.335,16.1935 C12.012,16.1935 11.7456667,16.1425 11.536,16.0405 C11.3263333,15.9385 11.1591667,15.8025 11.0345,15.6325 C10.9098333,15.4625 10.822,15.2684167 10.771,15.05025 C10.72,14.8320833 10.6945,14.6068333 10.6945,14.3745 C10.6945,14.1591667 10.7256667,13.9523333 10.788,13.754 C10.8503333,13.5556667 10.9480833,13.3814167 11.08125,13.23125 C11.2144167,13.0810833 11.3844167,12.9606667 11.59125,12.87 C11.7980833,12.7793333 12.046,12.734 12.335,12.734 C12.624,12.734 12.8719167,12.7793333 13.07875,12.87 C13.2855833,12.9606667 13.4555833,13.0810833 13.58875,13.23125 C13.7219167,13.3814167 13.8196667,13.5556667 13.882,13.754 C13.9443333,13.9523333 13.9755,14.1591667 13.9755,14.3745 C13.9755,14.6068333 13.95,14.8320833 13.899,15.05025 C13.848,15.2684167 13.7601667,15.4625 13.6355,15.6325 C13.5108333,15.8025 13.3436667,15.9385 13.134,16.0405 C12.9243333,16.1425 12.658,16.1935 12.335,16.1935 Z M12.335,21.812 C12.012,21.812 11.7300833,21.7638333 11.48925,21.6675 C11.2484167,21.5711667 11.0486667,21.4394167 10.89,21.27225 C10.7313333,21.1050833 10.6123333,20.90675 10.533,20.67725 C10.4536667,20.44775 10.414,20.1998333 10.414,19.9335 C10.414,19.3215 10.57125,18.8469167 10.88575,18.50975 C11.20025,18.1725833 11.6833333,18.004 12.335,18.004 C12.9866667,18.004 13.46975,18.1725833 13.78425,18.50975 C14.09875,18.8469167 14.256,19.3215 14.256,19.9335 C14.256,20.1998333 14.2163333,20.44775 14.137,20.67725 C14.0576667,20.90675 13.9386667,21.1050833 13.78,21.27225 C13.6213333,21.4394167 13.4215833,21.5711667 13.18075,21.6675 C12.9399167,21.7638333 12.658,21.812 12.335,21.812 Z M21.005,23.4695 C21.277,23.4695 21.51925,23.4185 21.73175,23.3165 C21.94425,23.2145 22.1071667,23.0898333 22.2205,22.9425 L22.2205,22.9425 L24.966,19.024 C25.1756667,18.735 25.3640833,18.4403333 25.53125,18.14 C25.6984167,17.8396667 25.8415,17.5308333 25.9605,17.2135 C26.0795,16.8961667 26.1701667,16.5618333 26.2325,16.2105 C26.2948333,15.8591667 26.326,15.488 26.326,15.097 C26.326,14.4963333 26.2296667,13.94525 26.037,13.44375 C25.8443333,12.94225 25.5695,12.5101667 25.2125,12.1475 C24.8555,11.7848333 24.4191667,11.5029167 23.9035,11.30175 C23.3878333,11.1005833 22.807,11 22.161,11 C21.5206667,11 20.9384167,11.1076667 20.41425,11.323 C19.8900833,11.5383333 19.441,11.82875 19.067,12.19425 C18.693,12.55975 18.404,12.9875833 18.2,13.47775 C17.996,13.9679167 17.894,14.4878333 17.894,15.0375 C17.894,15.6381667 17.9931667,16.1609167 18.1915,16.60575 C18.3898333,17.0505833 18.6505,17.4203333 18.9735,17.715 C19.2965,18.0096667 19.6605833,18.2306667 20.06575,18.378 C20.4709167,18.5253333 20.8803333,18.599 21.294,18.599 C21.651,18.599 21.9895833,18.5579167 22.30975,18.47575 C22.6299167,18.3935833 22.926,18.2731667 23.198,18.1145 L23.198,18.1145 L22.96,18.4205 C22.8806667,18.5225 22.7985,18.6273333 22.7135,18.735 L22.7135,18.735 L18.846,23.4695 L21.005,23.4695 Z M22.127,16.865 C21.5093333,16.865 21.0404167,16.695 20.72025,16.355 C20.4000833,16.015 20.24,15.5191667 20.24,14.8675 C20.24,14.5841667 20.2839167,14.3206667 20.37175,14.077 C20.4595833,13.8333333 20.5856667,13.62225 20.75,13.44375 C20.9143333,13.26525 21.1126667,13.1264167 21.345,13.02725 C21.5773333,12.9280833 21.8408333,12.8785 22.1355,12.8785 C22.4245,12.8785 22.688,12.9224167 22.926,13.01025 C23.164,13.0980833 23.3694167,13.227 23.54225,13.397 C23.7150833,13.567 23.8496667,13.77525 23.946,14.02175 C24.0423333,14.26825 24.0905,14.553 24.0905,14.876 C24.0905,15.165 24.0465833,15.4313333 23.95875,15.675 C23.8709167,15.9186667 23.7448333,16.1283333 23.5805,16.304 C23.4161667,16.4796667 23.21075,16.6170833 22.96425,16.71625 C22.71775,16.8154167 22.4386667,16.865 22.127,16.865 Z" id="89" fill="#FFFFFF" fill-rule="nonzero"></path>
    </g>
</svg>