<?xml version="1.0" encoding="UTF-8"?>
<svg width="34px" height="34px" viewBox="0 0 34 34" version="1.1" xmlns="http://www.w3.org/2000/svg" xmlns:xlink="http://www.w3.org/1999/xlink">
    <title>ic/grade bubble/9</title>
    <g id="ic/grade-bubble/9" stroke="none" stroke-width="1" fill="none" fill-rule="evenodd">
        <circle id="Oval" fill="#B02424" cx="17.5" cy="17.5" r="16.5"></circle>
        <path d="M17,0 C26.3888407,0 34,7.61115925 34,17 C34,26.3888407 26.3888407,34 17,34 C7.61115925,34 0,26.3888407 0,17 C0,7.61115925 7.61115925,0 17,0 Z M17,2 C8.71572875,2 2,8.71572875 2,17 C2,25.2842712 8.71572875,32 17,32 C25.2842712,32 32,25.2842712 32,17 C32,8.71572875 25.2842712,2 17,2 Z" id="Oval" fill="#FFFFFF" fill-rule="nonzero"></path>
        <path d="M16.111,23.4695 C16.383,23.4695 16.62525,23.4185 16.83775,23.3165 C17.05025,23.2145 17.2131667,23.0898333 17.3265,22.9425 L17.3265,22.9425 L20.072,19.024 C20.2816667,18.735 20.4700833,18.4403333 20.63725,18.14 C20.8044167,17.8396667 20.9475,17.5308333 21.0665,17.2135 C21.1855,16.8961667 21.2761667,16.5618333 21.3385,16.2105 C21.4008333,15.8591667 21.432,15.488 21.432,15.097 C21.432,14.4963333 21.3356667,13.94525 21.143,13.44375 C20.9503333,12.94225 20.6755,12.5101667 20.3185,12.1475 C19.9615,11.7848333 19.5251667,11.5029167 19.0095,11.30175 C18.4938333,11.1005833 17.913,11 17.267,11 C16.6266667,11 16.0444167,11.1076667 15.52025,11.323 C14.9960833,11.5383333 14.547,11.82875 14.173,12.19425 C13.799,12.55975 13.51,12.9875833 13.306,13.47775 C13.102,13.9679167 13,14.4878333 13,15.0375 C13,15.6381667 13.0991667,16.1609167 13.2975,16.60575 C13.4958333,17.0505833 13.7565,17.4203333 14.0795,17.715 C14.4025,18.0096667 14.7665833,18.2306667 15.17175,18.378 C15.5769167,18.5253333 15.9863333,18.599 16.4,18.599 C16.757,18.599 17.0955833,18.5579167 17.41575,18.47575 C17.7359167,18.3935833 18.032,18.2731667 18.304,18.1145 L18.304,18.1145 L18.066,18.4205 C17.9866667,18.5225 17.9045,18.6273333 17.8195,18.735 L17.8195,18.735 L13.952,23.4695 L16.111,23.4695 Z M17.233,16.865 C16.6153333,16.865 16.1464167,16.695 15.82625,16.355 C15.5060833,16.015 15.346,15.5191667 15.346,14.8675 C15.346,14.5841667 15.3899167,14.3206667 15.47775,14.077 C15.5655833,13.8333333 15.6916667,13.62225 15.856,13.44375 C16.0203333,13.26525 16.2186667,13.1264167 16.451,13.02725 C16.6833333,12.9280833 16.9468333,12.8785 17.2415,12.8785 C17.5305,12.8785 17.794,12.9224167 18.032,13.01025 C18.27,13.0980833 18.4754167,13.227 18.64825,13.397 C18.8210833,13.567 18.9556667,13.77525 19.052,14.02175 C19.1483333,14.26825 19.1965,14.553 19.1965,14.876 C19.1965,15.165 19.1525833,15.4313333 19.06475,15.675 C18.9769167,15.9186667 18.8508333,16.1283333 18.6865,16.304 C18.5221667,16.4796667 18.31675,16.6170833 18.07025,16.71625 C17.82375,16.8154167 17.5446667,16.865 17.233,16.865 Z" id="9" fill="#FFFFFF" fill-rule="nonzero"></path>
    </g>
</svg>