<?xml version="1.0" encoding="UTF-8"?>
<svg width="34px" height="34px" viewBox="0 0 34 34" version="1.1" xmlns="http://www.w3.org/2000/svg" xmlns:xlink="http://www.w3.org/1999/xlink">
    <title>ic/grade bubble/90</title>
    <g id="ic/grade-bubble/90" stroke="none" stroke-width="1" fill="none" fill-rule="evenodd">
        <circle id="Oval" fill="#1F8234" cx="17.5" cy="17.5" r="16.5"></circle>
        <path d="M17,0 C26.3888407,0 34,7.61115925 34,17 C34,26.3888407 26.3888407,34 17,34 C7.61115925,34 0,26.3888407 0,17 C0,7.61115925 7.61115925,0 17,0 Z M17,2 C8.71572875,2 2,8.71572875 2,17 C2,25.2842712 8.71572875,32 17,32 C25.2842712,32 32,25.2842712 32,17 C32,8.71572875 25.2842712,2 17,2 Z" id="Oval" fill="#FFFFFF" fill-rule="nonzero"></path>
        <path d="M11.111,23.4695 C11.383,23.4695 11.62525,23.4185 11.83775,23.3165 C12.05025,23.2145 12.2131667,23.0898333 12.3265,22.9425 L12.3265,22.9425 L15.072,19.024 C15.2816667,18.735 15.4700833,18.4403333 15.63725,18.14 C15.8044167,17.8396667 15.9475,17.5308333 16.0665,17.2135 C16.1855,16.8961667 16.2761667,16.5618333 16.3385,16.2105 C16.4008333,15.8591667 16.432,15.488 16.432,15.097 C16.432,14.4963333 16.3356667,13.94525 16.143,13.44375 C15.9503333,12.94225 15.6755,12.5101667 15.3185,12.1475 C14.9615,11.7848333 14.5251667,11.5029167 14.0095,11.30175 C13.4938333,11.1005833 12.913,11 12.267,11 C11.6266667,11 11.0444167,11.1076667 10.52025,11.323 C9.99608333,11.5383333 9.547,11.82875 9.173,12.19425 C8.799,12.55975 8.51,12.9875833 8.306,13.47775 C8.102,13.9679167 8,14.4878333 8,15.0375 C8,15.6381667 8.09916667,16.1609167 8.2975,16.60575 C8.49583333,17.0505833 8.7565,17.4203333 9.0795,17.715 C9.4025,18.0096667 9.76658333,18.2306667 10.17175,18.378 C10.5769167,18.5253333 10.9863333,18.599 11.4,18.599 C11.757,18.599 12.0955833,18.5579167 12.41575,18.47575 C12.7359167,18.3935833 13.032,18.2731667 13.304,18.1145 L13.304,18.1145 L13.066,18.4205 C12.9866667,18.5225 12.9045,18.6273333 12.8195,18.735 L12.8195,18.735 L8.952,23.4695 L11.111,23.4695 Z M12.233,16.865 C11.6153333,16.865 11.1464167,16.695 10.82625,16.355 C10.5060833,16.015 10.346,15.5191667 10.346,14.8675 C10.346,14.5841667 10.3899167,14.3206667 10.47775,14.077 C10.5655833,13.8333333 10.6916667,13.62225 10.856,13.44375 C11.0203333,13.26525 11.2186667,13.1264167 11.451,13.02725 C11.6833333,12.9280833 11.9468333,12.8785 12.2415,12.8785 C12.5305,12.8785 12.794,12.9224167 13.032,13.01025 C13.27,13.0980833 13.4754167,13.227 13.64825,13.397 C13.8210833,13.567 13.9556667,13.77525 14.052,14.02175 C14.1483333,14.26825 14.1965,14.553 14.1965,14.876 C14.1965,15.165 14.1525833,15.4313333 14.06475,15.675 C13.9769167,15.9186667 13.8508333,16.1283333 13.6865,16.304 C13.5221667,16.4796667 13.31675,16.6170833 13.07025,16.71625 C12.82375,16.8154167 12.5446667,16.865 12.233,16.865 Z M22.144,23.6055 C22.79,23.6055 23.3920833,23.4794167 23.95025,23.22725 C24.5084167,22.9750833 24.9915,22.58975 25.3995,22.07125 C25.8075,21.55275 26.1276667,20.8968333 26.36,20.1035 C26.5923333,19.3101667 26.7085,18.3751667 26.7085,17.2985 C26.7085,16.2218333 26.5923333,15.28825 26.36,14.49775 C26.1276667,13.70725 25.8075,13.05275 25.3995,12.53425 C24.9915,12.01575 24.5084167,11.6304167 23.95025,11.37825 C23.3920833,11.1260833 22.79,11 22.144,11 C21.498,11 20.8973333,11.1260833 20.342,11.37825 C19.7866667,11.6304167 19.3078333,12.01575 18.9055,12.53425 C18.5031667,13.05275 18.18725,13.70725 17.95775,14.49775 C17.72825,15.28825 17.6135,16.2218333 17.6135,17.2985 C17.6135,18.3751667 17.72825,19.3101667 17.95775,20.1035 C18.18725,20.8968333 18.5031667,21.55275 18.9055,22.07125 C19.3078333,22.58975 19.7866667,22.9750833 20.342,23.22725 C20.8973333,23.4794167 21.498,23.6055 22.144,23.6055 Z M22.144,21.693 C21.872,21.693 21.6099167,21.6278333 21.35775,21.4975 C21.1055833,21.3671667 20.88175,21.1376667 20.68625,20.809 C20.49075,20.4803333 20.3335,20.0326667 20.2145,19.466 C20.0955,18.8993333 20.036,18.1768333 20.036,17.2985 C20.036,16.4258333 20.0955,15.7061667 20.2145,15.1395 C20.3335,14.5728333 20.49075,14.1251667 20.68625,13.7965 C20.88175,13.4678333 21.1055833,13.2383333 21.35775,13.108 C21.6099167,12.9776667 21.872,12.9125 22.144,12.9125 C22.416,12.9125 22.6809167,12.9776667 22.93875,13.108 C23.1965833,13.2383333 23.4246667,13.4678333 23.623,13.7965 C23.8213333,14.1251667 23.9814167,14.5728333 24.10325,15.1395 C24.2250833,15.7061667 24.286,16.4258333 24.286,17.2985 C24.286,18.1768333 24.2250833,18.8993333 24.10325,19.466 C23.9814167,20.0326667 23.8213333,20.4803333 23.623,20.809 C23.4246667,21.1376667 23.1965833,21.3671667 22.93875,21.4975 C22.6809167,21.6278333 22.416,21.693 22.144,21.693 Z" id="90" fill="#FFFFFF" fill-rule="nonzero"></path>
    </g>
</svg>