<?xml version="1.0" encoding="UTF-8"?>
<svg width="34px" height="34px" viewBox="0 0 34 34" version="1.1" xmlns="http://www.w3.org/2000/svg" xmlns:xlink="http://www.w3.org/1999/xlink">
    <title>ic/grade bubble/92</title>
    <g id="ic/grade-bubble/92" stroke="none" stroke-width="1" fill="none" fill-rule="evenodd">
        <circle id="Oval" fill="#1F8234" cx="17.5" cy="17.5" r="16.5"></circle>
        <path d="M17,0 C26.3888407,0 34,7.61115925 34,17 C34,26.3888407 26.3888407,34 17,34 C7.61115925,34 0,26.3888407 0,17 C0,7.61115925 7.61115925,0 17,0 Z M17,2 C8.71572875,2 2,8.71572875 2,17 C2,25.2842712 8.71572875,32 17,32 C25.2842712,32 32,25.2842712 32,17 C32,8.71572875 25.2842712,2 17,2 Z" id="Oval" fill="#FFFFFF" fill-rule="nonzero"></path>
        <path d="M11.111,23.4695 C11.383,23.4695 11.62525,23.4185 11.83775,23.3165 C12.05025,23.2145 12.2131667,23.0898333 12.3265,22.9425 L12.3265,22.9425 L15.072,19.024 C15.2816667,18.735 15.4700833,18.4403333 15.63725,18.14 C15.8044167,17.8396667 15.9475,17.5308333 16.0665,17.2135 C16.1855,16.8961667 16.2761667,16.5618333 16.3385,16.2105 C16.4008333,15.8591667 16.432,15.488 16.432,15.097 C16.432,14.4963333 16.3356667,13.94525 16.143,13.44375 C15.9503333,12.94225 15.6755,12.5101667 15.3185,12.1475 C14.9615,11.7848333 14.5251667,11.5029167 14.0095,11.30175 C13.4938333,11.1005833 12.913,11 12.267,11 C11.6266667,11 11.0444167,11.1076667 10.52025,11.323 C9.99608333,11.5383333 9.547,11.82875 9.173,12.19425 C8.799,12.55975 8.51,12.9875833 8.306,13.47775 C8.102,13.9679167 8,14.4878333 8,15.0375 C8,15.6381667 8.09916667,16.1609167 8.2975,16.60575 C8.49583333,17.0505833 8.7565,17.4203333 9.0795,17.715 C9.4025,18.0096667 9.76658333,18.2306667 10.17175,18.378 C10.5769167,18.5253333 10.9863333,18.599 11.4,18.599 C11.757,18.599 12.0955833,18.5579167 12.41575,18.47575 C12.7359167,18.3935833 13.032,18.2731667 13.304,18.1145 L13.304,18.1145 L13.066,18.4205 C12.9866667,18.5225 12.9045,18.6273333 12.8195,18.735 L12.8195,18.735 L8.952,23.4695 L11.111,23.4695 Z M12.233,16.865 C11.6153333,16.865 11.1464167,16.695 10.82625,16.355 C10.5060833,16.015 10.346,15.5191667 10.346,14.8675 C10.346,14.5841667 10.3899167,14.3206667 10.47775,14.077 C10.5655833,13.8333333 10.6916667,13.62225 10.856,13.44375 C11.0203333,13.26525 11.2186667,13.1264167 11.451,13.02725 C11.6833333,12.9280833 11.9468333,12.8785 12.2415,12.8785 C12.5305,12.8785 12.794,12.9224167 13.032,13.01025 C13.27,13.0980833 13.4754167,13.227 13.64825,13.397 C13.8210833,13.567 13.9556667,13.77525 14.052,14.02175 C14.1483333,14.26825 14.1965,14.553 14.1965,14.876 C14.1965,15.165 14.1525833,15.4313333 14.06475,15.675 C13.9769167,15.9186667 13.8508333,16.1283333 13.6865,16.304 C13.5221667,16.4796667 13.31675,16.6170833 13.07025,16.71625 C12.82375,16.8154167 12.5446667,16.865 12.233,16.865 Z M26.3685,23.4695 L26.3685,22.0925 C26.3685,21.8601667 26.29625,21.6731667 26.15175,21.5315 C26.00725,21.3898333 25.8075,21.319 25.5525,21.319 L25.5525,21.319 L22.7815,21.319 C22.5321667,21.319 22.2658333,21.3430833 21.9825,21.39125 C21.6991667,21.4394167 21.413,21.506 21.124,21.591 L21.124,21.591 L23.742,18.9135 C24.0706667,18.5791667 24.3823333,18.2476667 24.677,17.919 C24.9716667,17.5903333 25.2309167,17.25175 25.45475,16.90325 C25.6785833,16.55475 25.8556667,16.1878333 25.986,15.8025 C26.1163333,15.4171667 26.1815,14.9978333 26.1815,14.5445 C26.1815,14.0175 26.088,13.5358333 25.901,13.0995 C25.714,12.6631667 25.4505,12.2905833 25.1105,11.98175 C24.7705,11.6729167 24.3610833,11.4320833 23.88225,11.25925 C23.4034167,11.0864167 22.8721667,11 22.2885,11 C21.7331667,11 21.2146667,11.0750833 20.733,11.22525 C20.2513333,11.3754167 19.8235,11.6006667 19.4495,11.901 C19.0755,12.2013333 18.7638333,12.5781667 18.5145,13.0315 C18.2651667,13.4848333 18.0951667,14.0118333 18.0045,14.6125 L18.0045,14.6125 L19.2455,14.8335 C19.5628333,14.8845 19.8079167,14.86325 19.98075,14.76975 C20.1535833,14.67625 20.291,14.4878333 20.393,14.2045 C20.444,14.0231667 20.5233333,13.856 20.631,13.703 C20.7386667,13.55 20.8675833,13.4168333 21.01775,13.3035 C21.1679167,13.1901667 21.3379167,13.1009167 21.52775,13.03575 C21.7175833,12.9705833 21.9258333,12.938 22.1525,12.938 C22.6681667,12.938 23.0676667,13.0810833 23.351,13.36725 C23.6343333,13.6534167 23.776,14.0713333 23.776,14.621 C23.776,14.9326667 23.7363333,15.2301667 23.657,15.5135 C23.5776667,15.7968333 23.4586667,16.0759167 23.3,16.35075 C23.1413333,16.6255833 22.943,16.9060833 22.705,17.19225 C22.467,17.4784167 22.1921667,17.7773333 21.8805,18.089 L21.8805,18.089 L18.2255,21.7525 C18.0781667,21.8941667 17.9733333,22.0514167 17.911,22.22425 C17.8486667,22.3970833 17.8175,22.5571667 17.8175,22.7045 L17.8175,22.7045 L17.8175,23.4695 L26.3685,23.4695 Z" id="92" fill="#FFFFFF" fill-rule="nonzero"></path>
    </g>
</svg>