<?xml version="1.0" encoding="UTF-8"?>
<svg width="34px" height="34px" viewBox="0 0 34 34" version="1.1" xmlns="http://www.w3.org/2000/svg" xmlns:xlink="http://www.w3.org/1999/xlink">
    <title>ic/grade bubble/93</title>
    <g id="ic/grade-bubble/93" stroke="none" stroke-width="1" fill="none" fill-rule="evenodd">
        <circle id="Oval" fill="#1F8234" cx="17.5" cy="17.5" r="16.5"></circle>
        <path d="M17,0 C26.3888407,0 34,7.61115925 34,17 C34,26.3888407 26.3888407,34 17,34 C7.61115925,34 0,26.3888407 0,17 C0,7.61115925 7.61115925,0 17,0 Z M17,2 C8.71572875,2 2,8.71572875 2,17 C2,25.2842712 8.71572875,32 17,32 C25.2842712,32 32,25.2842712 32,17 C32,8.71572875 25.2842712,2 17,2 Z" id="Oval" fill="#FFFFFF" fill-rule="nonzero"></path>
        <path d="M11.111,23.4695 C11.383,23.4695 11.62525,23.4185 11.83775,23.3165 C12.05025,23.2145 12.2131667,23.0898333 12.3265,22.9425 L12.3265,22.9425 L15.072,19.024 C15.2816667,18.735 15.4700833,18.4403333 15.63725,18.14 C15.8044167,17.8396667 15.9475,17.5308333 16.0665,17.2135 C16.1855,16.8961667 16.2761667,16.5618333 16.3385,16.2105 C16.4008333,15.8591667 16.432,15.488 16.432,15.097 C16.432,14.4963333 16.3356667,13.94525 16.143,13.44375 C15.9503333,12.94225 15.6755,12.5101667 15.3185,12.1475 C14.9615,11.7848333 14.5251667,11.5029167 14.0095,11.30175 C13.4938333,11.1005833 12.913,11 12.267,11 C11.6266667,11 11.0444167,11.1076667 10.52025,11.323 C9.99608333,11.5383333 9.547,11.82875 9.173,12.19425 C8.799,12.55975 8.51,12.9875833 8.306,13.47775 C8.102,13.9679167 8,14.4878333 8,15.0375 C8,15.6381667 8.09916667,16.1609167 8.2975,16.60575 C8.49583333,17.0505833 8.7565,17.4203333 9.0795,17.715 C9.4025,18.0096667 9.76658333,18.2306667 10.17175,18.378 C10.5769167,18.5253333 10.9863333,18.599 11.4,18.599 C11.757,18.599 12.0955833,18.5579167 12.41575,18.47575 C12.7359167,18.3935833 13.032,18.2731667 13.304,18.1145 L13.304,18.1145 L13.066,18.4205 C12.9866667,18.5225 12.9045,18.6273333 12.8195,18.735 L12.8195,18.735 L8.952,23.4695 L11.111,23.4695 Z M12.233,16.865 C11.6153333,16.865 11.1464167,16.695 10.82625,16.355 C10.5060833,16.015 10.346,15.5191667 10.346,14.8675 C10.346,14.5841667 10.3899167,14.3206667 10.47775,14.077 C10.5655833,13.8333333 10.6916667,13.62225 10.856,13.44375 C11.0203333,13.26525 11.2186667,13.1264167 11.451,13.02725 C11.6833333,12.9280833 11.9468333,12.8785 12.2415,12.8785 C12.5305,12.8785 12.794,12.9224167 13.032,13.01025 C13.27,13.0980833 13.4754167,13.227 13.64825,13.397 C13.8210833,13.567 13.9556667,13.77525 14.052,14.02175 C14.1483333,14.26825 14.1965,14.553 14.1965,14.876 C14.1965,15.165 14.1525833,15.4313333 14.06475,15.675 C13.9769167,15.9186667 13.8508333,16.1283333 13.6865,16.304 C13.5221667,16.4796667 13.31675,16.6170833 13.07025,16.71625 C12.82375,16.8154167 12.5446667,16.865 12.233,16.865 Z M22.076,23.6055 C22.6426667,23.6055 23.18525,23.52475 23.70375,23.36325 C24.22225,23.20175 24.677,22.9595 25.068,22.6365 C25.459,22.3135 25.7706667,21.9125833 26.003,21.43375 C26.2353333,20.9549167 26.3515,20.401 26.3515,19.772 C26.3515,18.3496667 25.6431667,17.4061667 24.2265,16.9415 C24.5325,16.8395 24.8030833,16.712 25.03825,16.559 C25.2734167,16.406 25.47175,16.219 25.63325,15.998 C25.79475,15.777 25.9165833,15.51775 25.99875,15.22025 C26.0809167,14.92275 26.122,14.5785 26.122,14.1875 C26.122,13.7455 26.0355833,13.3318333 25.86275,12.9465 C25.6899167,12.5611667 25.442,12.224 25.119,11.935 C24.796,11.646 24.40075,11.4179167 23.93325,11.25075 C23.46575,11.0835833 22.9373333,11 22.348,11 C21.7926667,11 21.2755833,11.0750833 20.79675,11.22525 C20.3179167,11.3754167 19.8915,11.6006667 19.5175,11.901 C19.1435,12.2013333 18.8318333,12.5781667 18.5825,13.0315 C18.3331667,13.4848333 18.1631667,14.0118333 18.0725,14.6125 L18.0725,14.6125 L19.305,14.8335 C19.628,14.8845 19.8745,14.86325 20.0445,14.76975 C20.2145,14.67625 20.3533333,14.4878333 20.461,14.2045 C20.512,14.0231667 20.5913333,13.856 20.699,13.703 C20.8066667,13.55 20.9355833,13.4168333 21.08575,13.3035 C21.2359167,13.1901667 21.4059167,13.1009167 21.59575,13.03575 C21.7855833,12.9705833 21.9938333,12.938 22.2205,12.938 C22.7361667,12.938 23.13425,13.0796667 23.41475,13.363 C23.69525,13.6463333 23.8355,14.0571667 23.8355,14.5955 C23.8355,14.8505 23.8000833,15.0856667 23.72925,15.301 C23.6584167,15.5163333 23.5295,15.7005 23.3425,15.8535 C23.1555,16.0065 22.8976667,16.1255 22.569,16.2105 C22.2403333,16.2955 21.8181667,16.338 21.3025,16.338 L21.3025,16.338 L21.3025,17.987 C21.9201667,17.987 22.4089167,18.0309167 22.76875,18.11875 C23.1285833,18.2065833 23.4005833,18.33125 23.58475,18.49275 C23.7689167,18.65425 23.8865,18.84975 23.9375,19.07925 C23.9885,19.30875 24.014,19.5651667 24.014,19.8485 C24.014,20.0638333 23.9729167,20.2805833 23.89075,20.49875 C23.8085833,20.7169167 23.6853333,20.9124167 23.521,21.08525 C23.3566667,21.2580833 23.1526667,21.3983333 22.909,21.506 C22.6653333,21.6136667 22.3791667,21.6675 22.0505,21.6675 C21.7898333,21.6675 21.5589167,21.6306667 21.35775,21.557 C21.1565833,21.4833333 20.9766667,21.3799167 20.818,21.24675 C20.6593333,21.1135833 20.51625,20.9563333 20.38875,20.775 C20.26125,20.5936667 20.1408333,20.3953333 20.0275,20.18 C19.9255,19.9816667 19.7569167,19.857 19.52175,19.806 C19.2865833,19.755 19.033,19.7861667 18.761,19.8995 L18.761,19.8995 L17.724,20.3245 C17.911,20.8741667 18.1291667,21.3544167 18.3785,21.76525 C18.6278333,22.1760833 18.92675,22.5175 19.27525,22.7895 C19.62375,23.0615 20.0275,23.2655 20.4865,23.4015 C20.9455,23.5375 21.4753333,23.6055 22.076,23.6055 Z" id="93" fill="#FFFFFF" fill-rule="nonzero"></path>
    </g>
</svg>