<?xml version="1.0" encoding="UTF-8"?>
<svg width="34px" height="34px" viewBox="0 0 34 34" version="1.1" xmlns="http://www.w3.org/2000/svg" xmlns:xlink="http://www.w3.org/1999/xlink">
    <title>ic/grade bubble/95</title>
    <g id="ic/grade-bubble/95" stroke="none" stroke-width="1" fill="none" fill-rule="evenodd">
        <circle id="Oval" fill="#1F8234" cx="17.5" cy="17.5" r="16.5"></circle>
        <path d="M17,0 C26.3888407,0 34,7.61115925 34,17 C34,26.3888407 26.3888407,34 17,34 C7.61115925,34 0,26.3888407 0,17 C0,7.61115925 7.61115925,0 17,0 Z M17,2 C8.71572875,2 2,8.71572875 2,17 C2,25.2842712 8.71572875,32 17,32 C25.2842712,32 32,25.2842712 32,17 C32,8.71572875 25.2842712,2 17,2 Z" id="Oval" fill="#FFFFFF" fill-rule="nonzero"></path>
        <path d="M11.111,23.4695 C11.383,23.4695 11.62525,23.4185 11.83775,23.3165 C12.05025,23.2145 12.2131667,23.0898333 12.3265,22.9425 L12.3265,22.9425 L15.072,19.024 C15.2816667,18.735 15.4700833,18.4403333 15.63725,18.14 C15.8044167,17.8396667 15.9475,17.5308333 16.0665,17.2135 C16.1855,16.8961667 16.2761667,16.5618333 16.3385,16.2105 C16.4008333,15.8591667 16.432,15.488 16.432,15.097 C16.432,14.4963333 16.3356667,13.94525 16.143,13.44375 C15.9503333,12.94225 15.6755,12.5101667 15.3185,12.1475 C14.9615,11.7848333 14.5251667,11.5029167 14.0095,11.30175 C13.4938333,11.1005833 12.913,11 12.267,11 C11.6266667,11 11.0444167,11.1076667 10.52025,11.323 C9.99608333,11.5383333 9.547,11.82875 9.173,12.19425 C8.799,12.55975 8.51,12.9875833 8.306,13.47775 C8.102,13.9679167 8,14.4878333 8,15.0375 C8,15.6381667 8.09916667,16.1609167 8.2975,16.60575 C8.49583333,17.0505833 8.7565,17.4203333 9.0795,17.715 C9.4025,18.0096667 9.76658333,18.2306667 10.17175,18.378 C10.5769167,18.5253333 10.9863333,18.599 11.4,18.599 C11.757,18.599 12.0955833,18.5579167 12.41575,18.47575 C12.7359167,18.3935833 13.032,18.2731667 13.304,18.1145 L13.304,18.1145 L13.066,18.4205 C12.9866667,18.5225 12.9045,18.6273333 12.8195,18.735 L12.8195,18.735 L8.952,23.4695 L11.111,23.4695 Z M12.233,16.865 C11.6153333,16.865 11.1464167,16.695 10.82625,16.355 C10.5060833,16.015 10.346,15.5191667 10.346,14.8675 C10.346,14.5841667 10.3899167,14.3206667 10.47775,14.077 C10.5655833,13.8333333 10.6916667,13.62225 10.856,13.44375 C11.0203333,13.26525 11.2186667,13.1264167 11.451,13.02725 C11.6833333,12.9280833 11.9468333,12.8785 12.2415,12.8785 C12.5305,12.8785 12.794,12.9224167 13.032,13.01025 C13.27,13.0980833 13.4754167,13.227 13.64825,13.397 C13.8210833,13.567 13.9556667,13.77525 14.052,14.02175 C14.1483333,14.26825 14.1965,14.553 14.1965,14.876 C14.1965,15.165 14.1525833,15.4313333 14.06475,15.675 C13.9769167,15.9186667 13.8508333,16.1283333 13.6865,16.304 C13.5221667,16.4796667 13.31675,16.6170833 13.07025,16.71625 C12.82375,16.8154167 12.5446667,16.865 12.233,16.865 Z M21.5745,23.6055 C22.2488333,23.6055 22.87075,23.4978333 23.44025,23.2825 C24.00975,23.0671667 24.4999167,22.7654167 24.91075,22.37725 C25.3215833,21.9890833 25.6431667,21.5244167 25.8755,20.98325 C26.1078333,20.4420833 26.224,19.8428333 26.224,19.1855 C26.224,18.6585 26.139,18.1655 25.969,17.7065 C25.799,17.2475 25.5454167,16.848 25.20825,16.508 C24.8710833,16.168 24.4545833,15.90025 23.95875,15.70475 C23.4629167,15.50925 22.892,15.4115 22.246,15.4115 C22.025,15.4115 21.7969167,15.4228333 21.56175,15.4455 C21.3265833,15.4681667 21.0815,15.505 20.8265,15.556 L20.8265,15.556 L21.226,13.227 L24.4135,13.227 C24.6628333,13.227 24.8739167,13.2000833 25.04675,13.14625 C25.2195833,13.0924167 25.36125,13.0159167 25.47175,12.91675 C25.58225,12.8175833 25.6615833,12.7014167 25.70975,12.56825 C25.7579167,12.4350833 25.782,12.2863333 25.782,12.122 L25.782,12.122 L25.782,11.136 L19.594,11.136 L18.557,17.205 L20.0105,17.613 C20.5885,17.3976667 21.1636667,17.29 21.736,17.29 C22.433,17.29 22.96425,17.46425 23.32975,17.81275 C23.69525,18.16125 23.878,18.6556667 23.878,19.296 C23.878,19.6303333 23.8340833,19.9434167 23.74625,20.23525 C23.6584167,20.5270833 23.52525,20.77925 23.34675,20.99175 C23.16825,21.20425 22.943,21.3714167 22.671,21.49325 C22.399,21.6150833 22.0788333,21.676 21.7105,21.676 C21.3535,21.676 21.0503333,21.6306667 20.801,21.54 C20.5516667,21.4493333 20.3335,21.34875 20.1465,21.23825 C19.9595,21.12775 19.7923333,21.0271667 19.645,20.9365 C19.4976667,20.8458333 19.3475,20.8005 19.1945,20.8005 C18.9508333,20.8005 18.7525,20.9053333 18.5995,21.115 L18.5995,21.115 L17.877,22.101 C18.0866667,22.2993333 18.3246667,22.4891667 18.591,22.6705 C18.8573333,22.8518333 19.1449167,23.0119167 19.45375,23.15075 C19.7625833,23.2895833 20.0955,23.4000833 20.4525,23.48225 C20.8095,23.5644167 21.1835,23.6055 21.5745,23.6055 Z" id="95" fill="#FFFFFF" fill-rule="nonzero"></path>
    </g>
</svg>