<?xml version="1.0" encoding="UTF-8"?>
<svg width="34px" height="34px" viewBox="0 0 34 34" version="1.1" xmlns="http://www.w3.org/2000/svg" xmlns:xlink="http://www.w3.org/1999/xlink">
    <title>ic/grade bubble/96</title>
    <g id="ic/grade-bubble/96" stroke="none" stroke-width="1" fill="none" fill-rule="evenodd">
        <circle id="Oval" fill="#1F8234" cx="17.5" cy="17.5" r="16.5"></circle>
        <path d="M17,0 C26.3888407,0 34,7.61115925 34,17 C34,26.3888407 26.3888407,34 17,34 C7.61115925,34 0,26.3888407 0,17 C0,7.61115925 7.61115925,0 17,0 Z M17,2 C8.71572875,2 2,8.71572875 2,17 C2,25.2842712 8.71572875,32 17,32 C25.2842712,32 32,25.2842712 32,17 C32,8.71572875 25.2842712,2 17,2 Z" id="Oval" fill="#FFFFFF" fill-rule="nonzero"></path>
        <path d="M11.111,23.4695 C11.383,23.4695 11.62525,23.4185 11.83775,23.3165 C12.05025,23.2145 12.2131667,23.0898333 12.3265,22.9425 L12.3265,22.9425 L15.072,19.024 C15.2816667,18.735 15.4700833,18.4403333 15.63725,18.14 C15.8044167,17.8396667 15.9475,17.5308333 16.0665,17.2135 C16.1855,16.8961667 16.2761667,16.5618333 16.3385,16.2105 C16.4008333,15.8591667 16.432,15.488 16.432,15.097 C16.432,14.4963333 16.3356667,13.94525 16.143,13.44375 C15.9503333,12.94225 15.6755,12.5101667 15.3185,12.1475 C14.9615,11.7848333 14.5251667,11.5029167 14.0095,11.30175 C13.4938333,11.1005833 12.913,11 12.267,11 C11.6266667,11 11.0444167,11.1076667 10.52025,11.323 C9.99608333,11.5383333 9.547,11.82875 9.173,12.19425 C8.799,12.55975 8.51,12.9875833 8.306,13.47775 C8.102,13.9679167 8,14.4878333 8,15.0375 C8,15.6381667 8.09916667,16.1609167 8.2975,16.60575 C8.49583333,17.0505833 8.7565,17.4203333 9.0795,17.715 C9.4025,18.0096667 9.76658333,18.2306667 10.17175,18.378 C10.5769167,18.5253333 10.9863333,18.599 11.4,18.599 C11.757,18.599 12.0955833,18.5579167 12.41575,18.47575 C12.7359167,18.3935833 13.032,18.2731667 13.304,18.1145 L13.304,18.1145 L13.066,18.4205 C12.9866667,18.5225 12.9045,18.6273333 12.8195,18.735 L12.8195,18.735 L8.952,23.4695 L11.111,23.4695 Z M12.233,16.865 C11.6153333,16.865 11.1464167,16.695 10.82625,16.355 C10.5060833,16.015 10.346,15.5191667 10.346,14.8675 C10.346,14.5841667 10.3899167,14.3206667 10.47775,14.077 C10.5655833,13.8333333 10.6916667,13.62225 10.856,13.44375 C11.0203333,13.26525 11.2186667,13.1264167 11.451,13.02725 C11.6833333,12.9280833 11.9468333,12.8785 12.2415,12.8785 C12.5305,12.8785 12.794,12.9224167 13.032,13.01025 C13.27,13.0980833 13.4754167,13.227 13.64825,13.397 C13.8210833,13.567 13.9556667,13.77525 14.052,14.02175 C14.1483333,14.26825 14.1965,14.553 14.1965,14.876 C14.1965,15.165 14.1525833,15.4313333 14.06475,15.675 C13.9769167,15.9186667 13.8508333,16.1283333 13.6865,16.304 C13.5221667,16.4796667 13.31675,16.6170833 13.07025,16.71625 C12.82375,16.8154167 12.5446667,16.865 12.233,16.865 Z M22.1865,23.6055 C22.8495,23.6055 23.4515833,23.495 23.99275,23.274 C24.5339167,23.053 24.9985833,22.7526667 25.38675,22.373 C25.7749167,21.9933333 26.07525,21.5485 26.28775,21.0385 C26.50025,20.5285 26.6065,19.9873333 26.6065,19.415 C26.6065,18.7916667 26.5030833,18.2490833 26.29625,17.78725 C26.0894167,17.3254167 25.816,16.9415 25.476,16.6355 C25.136,16.3295 24.7478333,16.1 24.3115,15.947 C23.8751667,15.794 23.4275,15.7175 22.9685,15.7175 C22.6795,15.7175 22.4103333,15.743 22.161,15.794 C21.9116667,15.845 21.6793333,15.9186667 21.464,16.015 L21.464,16.015 L21.838,15.5645 L25.493,11.136 L23.4105,11.136 C23.1271667,11.136 22.875,11.1898333 22.654,11.2975 C22.433,11.4051667 22.2658333,11.5326667 22.1525,11.68 L22.1525,11.68 L19.288,15.539 C18.8063333,16.185 18.4479167,16.814 18.21275,17.426 C17.9775833,18.038 17.86,18.6415 17.86,19.2365 C17.86,19.8825 17.9591667,20.47325 18.1575,21.00875 C18.3558333,21.54425 18.642,22.0046667 19.016,22.39 C19.39,22.7753333 19.8433333,23.07425 20.376,23.28675 C20.9086667,23.49925 21.5121667,23.6055 22.1865,23.6055 Z M22.144,21.7185 C21.804,21.7185 21.5079167,21.6675 21.25575,21.5655 C21.0035833,21.4635 20.7925,21.319 20.6225,21.132 C20.4525,20.945 20.325,20.71975 20.24,20.45625 C20.155,20.19275 20.1125,19.8995 20.1125,19.5765 C20.1125,19.2648333 20.1620833,18.9786667 20.26125,18.718 C20.3604167,18.4573333 20.49925,18.2320833 20.67775,18.04225 C20.85625,17.8524167 21.0701667,17.7050833 21.3195,17.60025 C21.5688333,17.4954167 21.8436667,17.443 22.144,17.443 C22.4613333,17.443 22.7503333,17.4911667 23.011,17.5875 C23.2716667,17.6838333 23.4955,17.8240833 23.6825,18.00825 C23.8695,18.1924167 24.014,18.4176667 24.116,18.684 C24.218,18.9503333 24.269,19.2506667 24.269,19.585 C24.269,19.891 24.2151667,20.1729167 24.1075,20.43075 C23.9998333,20.6885833 23.8525,20.9138333 23.6655,21.1065 C23.4785,21.2991667 23.2546667,21.4493333 22.994,21.557 C22.7333333,21.6646667 22.45,21.7185 22.144,21.7185 Z" id="96" fill="#FFFFFF" fill-rule="nonzero"></path>
    </g>
</svg>