<?xml version="1.0" encoding="UTF-8"?>
<svg width="34px" height="34px" viewBox="0 0 34 34" version="1.1" xmlns="http://www.w3.org/2000/svg" xmlns:xlink="http://www.w3.org/1999/xlink">
    <title>ic/grade bubble/98</title>
    <g id="ic/grade-bubble/98" stroke="none" stroke-width="1" fill="none" fill-rule="evenodd">
        <circle id="Oval" fill="#1F8234" cx="17.5" cy="17.5" r="16.5"></circle>
        <path d="M17,0 C26.3888407,0 34,7.61115925 34,17 C34,26.3888407 26.3888407,34 17,34 C7.61115925,34 0,26.3888407 0,17 C0,7.61115925 7.61115925,0 17,0 Z M17,2 C8.71572875,2 2,8.71572875 2,17 C2,25.2842712 8.71572875,32 17,32 C25.2842712,32 32,25.2842712 32,17 C32,8.71572875 25.2842712,2 17,2 Z" id="Oval" fill="#FFFFFF" fill-rule="nonzero"></path>
        <path d="M11.111,23.4695 C11.383,23.4695 11.62525,23.4185 11.83775,23.3165 C12.05025,23.2145 12.2131667,23.0898333 12.3265,22.9425 L12.3265,22.9425 L15.072,19.024 C15.2816667,18.735 15.4700833,18.4403333 15.63725,18.14 C15.8044167,17.8396667 15.9475,17.5308333 16.0665,17.2135 C16.1855,16.8961667 16.2761667,16.5618333 16.3385,16.2105 C16.4008333,15.8591667 16.432,15.488 16.432,15.097 C16.432,14.4963333 16.3356667,13.94525 16.143,13.44375 C15.9503333,12.94225 15.6755,12.5101667 15.3185,12.1475 C14.9615,11.7848333 14.5251667,11.5029167 14.0095,11.30175 C13.4938333,11.1005833 12.913,11 12.267,11 C11.6266667,11 11.0444167,11.1076667 10.52025,11.323 C9.99608333,11.5383333 9.547,11.82875 9.173,12.19425 C8.799,12.55975 8.51,12.9875833 8.306,13.47775 C8.102,13.9679167 8,14.4878333 8,15.0375 C8,15.6381667 8.09916667,16.1609167 8.2975,16.60575 C8.49583333,17.0505833 8.7565,17.4203333 9.0795,17.715 C9.4025,18.0096667 9.76658333,18.2306667 10.17175,18.378 C10.5769167,18.5253333 10.9863333,18.599 11.4,18.599 C11.757,18.599 12.0955833,18.5579167 12.41575,18.47575 C12.7359167,18.3935833 13.032,18.2731667 13.304,18.1145 L13.304,18.1145 L13.066,18.4205 C12.9866667,18.5225 12.9045,18.6273333 12.8195,18.735 L12.8195,18.735 L8.952,23.4695 L11.111,23.4695 Z M12.233,16.865 C11.6153333,16.865 11.1464167,16.695 10.82625,16.355 C10.5060833,16.015 10.346,15.5191667 10.346,14.8675 C10.346,14.5841667 10.3899167,14.3206667 10.47775,14.077 C10.5655833,13.8333333 10.6916667,13.62225 10.856,13.44375 C11.0203333,13.26525 11.2186667,13.1264167 11.451,13.02725 C11.6833333,12.9280833 11.9468333,12.8785 12.2415,12.8785 C12.5305,12.8785 12.794,12.9224167 13.032,13.01025 C13.27,13.0980833 13.4754167,13.227 13.64825,13.397 C13.8210833,13.567 13.9556667,13.77525 14.052,14.02175 C14.1483333,14.26825 14.1965,14.553 14.1965,14.876 C14.1965,15.165 14.1525833,15.4313333 14.06475,15.675 C13.9769167,15.9186667 13.8508333,16.1283333 13.6865,16.304 C13.5221667,16.4796667 13.31675,16.6170833 13.07025,16.71625 C12.82375,16.8154167 12.5446667,16.865 12.233,16.865 Z M22.161,23.6055 C22.807,23.6055 23.3963333,23.5190833 23.929,23.34625 C24.4616667,23.1734167 24.9178333,22.92975 25.2975,22.61525 C25.6771667,22.30075 25.9718333,21.9196667 26.1815,21.472 C26.3911667,21.0243333 26.496,20.5256667 26.496,19.976 C26.496,19.2733333 26.326,18.67125 25.986,18.16975 C25.646,17.66825 25.102,17.2928333 24.354,17.0435 C24.9376667,16.7885 25.3725833,16.4315 25.65875,15.9725 C25.9449167,15.5135 26.088,14.9666667 26.088,14.332 C26.088,13.856 25.9916667,13.4154167 25.799,13.01025 C25.6063333,12.6050833 25.33575,12.25375 24.98725,11.95625 C24.63875,11.65875 24.2236667,11.425 23.742,11.255 C23.2603333,11.085 22.7333333,11 22.161,11 C21.5886667,11 21.0616667,11.085 20.58,11.255 C20.0983333,11.425 19.68325,11.65875 19.33475,11.95625 C18.98625,12.25375 18.7156667,12.6050833 18.523,13.01025 C18.3303333,13.4154167 18.234,13.856 18.234,14.332 C18.234,14.9666667 18.3770833,15.5135 18.66325,15.9725 C18.9494167,16.4315 19.3843333,16.7885 19.968,17.0435 C19.22,17.2928333 18.676,17.66825 18.336,18.16975 C17.996,18.67125 17.826,19.2733333 17.826,19.976 C17.826,20.5256667 17.9308333,21.0243333 18.1405,21.472 C18.3501667,21.9196667 18.6448333,22.30075 19.0245,22.61525 C19.4041667,22.92975 19.8603333,23.1734167 20.393,23.34625 C20.9256667,23.5190833 21.515,23.6055 22.161,23.6055 Z M22.161,16.1935 C21.838,16.1935 21.5716667,16.1425 21.362,16.0405 C21.1523333,15.9385 20.9851667,15.8025 20.8605,15.6325 C20.7358333,15.4625 20.648,15.2684167 20.597,15.05025 C20.546,14.8320833 20.5205,14.6068333 20.5205,14.3745 C20.5205,14.1591667 20.5516667,13.9523333 20.614,13.754 C20.6763333,13.5556667 20.7740833,13.3814167 20.90725,13.23125 C21.0404167,13.0810833 21.2104167,12.9606667 21.41725,12.87 C21.6240833,12.7793333 21.872,12.734 22.161,12.734 C22.45,12.734 22.6979167,12.7793333 22.90475,12.87 C23.1115833,12.9606667 23.2815833,13.0810833 23.41475,13.23125 C23.5479167,13.3814167 23.6456667,13.5556667 23.708,13.754 C23.7703333,13.9523333 23.8015,14.1591667 23.8015,14.3745 C23.8015,14.6068333 23.776,14.8320833 23.725,15.05025 C23.674,15.2684167 23.5861667,15.4625 23.4615,15.6325 C23.3368333,15.8025 23.1696667,15.9385 22.96,16.0405 C22.7503333,16.1425 22.484,16.1935 22.161,16.1935 Z M22.161,21.812 C21.838,21.812 21.5560833,21.7638333 21.31525,21.6675 C21.0744167,21.5711667 20.8746667,21.4394167 20.716,21.27225 C20.5573333,21.1050833 20.4383333,20.90675 20.359,20.67725 C20.2796667,20.44775 20.24,20.1998333 20.24,19.9335 C20.24,19.3215 20.39725,18.8469167 20.71175,18.50975 C21.02625,18.1725833 21.5093333,18.004 22.161,18.004 C22.8126667,18.004 23.29575,18.1725833 23.61025,18.50975 C23.92475,18.8469167 24.082,19.3215 24.082,19.9335 C24.082,20.1998333 24.0423333,20.44775 23.963,20.67725 C23.8836667,20.90675 23.7646667,21.1050833 23.606,21.27225 C23.4473333,21.4394167 23.2475833,21.5711667 23.00675,21.6675 C22.7659167,21.7638333 22.484,21.812 22.161,21.812 Z" id="98" fill="#FFFFFF" fill-rule="nonzero"></path>
    </g>
</svg>