<?xml version="1.0" encoding="UTF-8"?>
<svg width="34px" height="34px" viewBox="0 0 34 34" version="1.1" xmlns="http://www.w3.org/2000/svg" xmlns:xlink="http://www.w3.org/1999/xlink">
    <title>ic/grade bubble/99</title>
    <g id="ic/grade-bubble/99" stroke="none" stroke-width="1" fill="none" fill-rule="evenodd">
        <circle id="Oval" fill="#1F8234" cx="17.5" cy="17.5" r="16.5"></circle>
        <path d="M17,0 C26.3888407,0 34,7.61115925 34,17 C34,26.3888407 26.3888407,34 17,34 C7.61115925,34 0,26.3888407 0,17 C0,7.61115925 7.61115925,0 17,0 Z M17,2 C8.71572875,2 2,8.71572875 2,17 C2,25.2842712 8.71572875,32 17,32 C25.2842712,32 32,25.2842712 32,17 C32,8.71572875 25.2842712,2 17,2 Z" id="Oval" fill="#FFFFFF" fill-rule="nonzero"></path>
        <path d="M11.111,23.4695 C11.383,23.4695 11.62525,23.4185 11.83775,23.3165 C12.05025,23.2145 12.2131667,23.0898333 12.3265,22.9425 L12.3265,22.9425 L15.072,19.024 C15.2816667,18.735 15.4700833,18.4403333 15.63725,18.14 C15.8044167,17.8396667 15.9475,17.5308333 16.0665,17.2135 C16.1855,16.8961667 16.2761667,16.5618333 16.3385,16.2105 C16.4008333,15.8591667 16.432,15.488 16.432,15.097 C16.432,14.4963333 16.3356667,13.94525 16.143,13.44375 C15.9503333,12.94225 15.6755,12.5101667 15.3185,12.1475 C14.9615,11.7848333 14.5251667,11.5029167 14.0095,11.30175 C13.4938333,11.1005833 12.913,11 12.267,11 C11.6266667,11 11.0444167,11.1076667 10.52025,11.323 C9.99608333,11.5383333 9.547,11.82875 9.173,12.19425 C8.799,12.55975 8.51,12.9875833 8.306,13.47775 C8.102,13.9679167 8,14.4878333 8,15.0375 C8,15.6381667 8.09916667,16.1609167 8.2975,16.60575 C8.49583333,17.0505833 8.7565,17.4203333 9.0795,17.715 C9.4025,18.0096667 9.76658333,18.2306667 10.17175,18.378 C10.5769167,18.5253333 10.9863333,18.599 11.4,18.599 C11.757,18.599 12.0955833,18.5579167 12.41575,18.47575 C12.7359167,18.3935833 13.032,18.2731667 13.304,18.1145 L13.304,18.1145 L13.066,18.4205 C12.9866667,18.5225 12.9045,18.6273333 12.8195,18.735 L12.8195,18.735 L8.952,23.4695 L11.111,23.4695 Z M12.233,16.865 C11.6153333,16.865 11.1464167,16.695 10.82625,16.355 C10.5060833,16.015 10.346,15.5191667 10.346,14.8675 C10.346,14.5841667 10.3899167,14.3206667 10.47775,14.077 C10.5655833,13.8333333 10.6916667,13.62225 10.856,13.44375 C11.0203333,13.26525 11.2186667,13.1264167 11.451,13.02725 C11.6833333,12.9280833 11.9468333,12.8785 12.2415,12.8785 C12.5305,12.8785 12.794,12.9224167 13.032,13.01025 C13.27,13.0980833 13.4754167,13.227 13.64825,13.397 C13.8210833,13.567 13.9556667,13.77525 14.052,14.02175 C14.1483333,14.26825 14.1965,14.553 14.1965,14.876 C14.1965,15.165 14.1525833,15.4313333 14.06475,15.675 C13.9769167,15.9186667 13.8508333,16.1283333 13.6865,16.304 C13.5221667,16.4796667 13.31675,16.6170833 13.07025,16.71625 C12.82375,16.8154167 12.5446667,16.865 12.233,16.865 Z M20.971,23.4695 C21.243,23.4695 21.48525,23.4185 21.69775,23.3165 C21.91025,23.2145 22.0731667,23.0898333 22.1865,22.9425 L22.1865,22.9425 L24.932,19.024 C25.1416667,18.735 25.3300833,18.4403333 25.49725,18.14 C25.6644167,17.8396667 25.8075,17.5308333 25.9265,17.2135 C26.0455,16.8961667 26.1361667,16.5618333 26.1985,16.2105 C26.2608333,15.8591667 26.292,15.488 26.292,15.097 C26.292,14.4963333 26.1956667,13.94525 26.003,13.44375 C25.8103333,12.94225 25.5355,12.5101667 25.1785,12.1475 C24.8215,11.7848333 24.3851667,11.5029167 23.8695,11.30175 C23.3538333,11.1005833 22.773,11 22.127,11 C21.4866667,11 20.9044167,11.1076667 20.38025,11.323 C19.8560833,11.5383333 19.407,11.82875 19.033,12.19425 C18.659,12.55975 18.37,12.9875833 18.166,13.47775 C17.962,13.9679167 17.86,14.4878333 17.86,15.0375 C17.86,15.6381667 17.9591667,16.1609167 18.1575,16.60575 C18.3558333,17.0505833 18.6165,17.4203333 18.9395,17.715 C19.2625,18.0096667 19.6265833,18.2306667 20.03175,18.378 C20.4369167,18.5253333 20.8463333,18.599 21.26,18.599 C21.617,18.599 21.9555833,18.5579167 22.27575,18.47575 C22.5959167,18.3935833 22.892,18.2731667 23.164,18.1145 L23.164,18.1145 L22.926,18.4205 C22.8466667,18.5225 22.7645,18.6273333 22.6795,18.735 L22.6795,18.735 L18.812,23.4695 L20.971,23.4695 Z M22.093,16.865 C21.4753333,16.865 21.0064167,16.695 20.68625,16.355 C20.3660833,16.015 20.206,15.5191667 20.206,14.8675 C20.206,14.5841667 20.2499167,14.3206667 20.33775,14.077 C20.4255833,13.8333333 20.5516667,13.62225 20.716,13.44375 C20.8803333,13.26525 21.0786667,13.1264167 21.311,13.02725 C21.5433333,12.9280833 21.8068333,12.8785 22.1015,12.8785 C22.3905,12.8785 22.654,12.9224167 22.892,13.01025 C23.13,13.0980833 23.3354167,13.227 23.50825,13.397 C23.6810833,13.567 23.8156667,13.77525 23.912,14.02175 C24.0083333,14.26825 24.0565,14.553 24.0565,14.876 C24.0565,15.165 24.0125833,15.4313333 23.92475,15.675 C23.8369167,15.9186667 23.7108333,16.1283333 23.5465,16.304 C23.3821667,16.4796667 23.17675,16.6170833 22.93025,16.71625 C22.68375,16.8154167 22.4046667,16.865 22.093,16.865 Z" id="99" fill="#FFFFFF" fill-rule="nonzero"></path>
    </g>
</svg>