<svg width="34" height="34" xmlns="http://www.w3.org/2000/svg"><g fill="none" fill-rule="evenodd"><circle fill="#7C8894" cx="17.5" cy="17.5" r="16.5"/><path d="M17 0c9.389 0 17 7.611 17 17s-7.611 17-17 17S0 26.389 0 17 7.611 0 17 0zm0 2C8.716 2 2 8.716 2 17c0 8.284 6.716 15 15 15 8.284 0 15-6.716 15-15 0-8.284-6.716-15-15-15z" fill="#FFF" fill-rule="nonzero"/><path d="M18.352 22.088v-2.88c0-.437-.064-.843-.192-1.216.128.15.277.285.448.408.17.123.352.243.544.36l2.448 1.456 1.024-1.744-2.448-1.456a3.22 3.22 0 00-1.184-.464 3.53 3.53 0 00.6-.184c.197-.08.392-.179.584-.296l2.448-1.424-1.04-1.728-2.432 1.424c-.192.107-.37.219-.536.336-.165.117-.312.25-.44.4.064-.181.11-.376.136-.584.027-.208.04-.419.04-.632V11h-2.096v2.896c0 .437.064.837.192 1.2a3.541 3.541 0 00-.976-.752l-2.448-1.456L12 14.616l2.448 1.456c.192.117.39.219.592.304.203.085.405.144.608.176a2.724 2.724 0 00-.6.168c-.197.08-.397.179-.6.296L12 18.44l1.04 1.744 2.432-1.424c.395-.213.715-.459.96-.736-.064.181-.11.376-.136.584-.027.208-.04.419-.04.632v2.848h2.096z" fill="#FFF" fill-rule="nonzero"/></g></svg>