<?xml version="1.0" encoding="UTF-8"?>
<svg width="34px" height="34px" viewBox="0 0 34 34" version="1.1" xmlns="http://www.w3.org/2000/svg" xmlns:xlink="http://www.w3.org/1999/xlink">
    <title>ic/grade bubble/unknown</title>
    <g id="ic/grade-bubble/unknown" stroke="none" stroke-width="1" fill="none" fill-rule="evenodd">
        <circle id="Oval" fill="#57708A" cx="17.5" cy="17.5" r="16.5"></circle>
        <path d="M17,0 C26.3888407,0 34,7.61115925 34,17 C34,26.3888407 26.3888407,34 17,34 C7.61115925,34 0,26.3888407 0,17 C0,7.61115925 7.61115925,0 17,0 Z M17,2 C8.71572875,2 2,8.71572875 2,17 C2,25.2842712 8.71572875,32 17,32 C25.2842712,32 32,25.2842712 32,17 C32,8.71572875 25.2842712,2 17,2 Z" id="Oval" fill="#FFFFFF" fill-rule="nonzero"></path>
        <path d="M18.352,22.088 L18.352,19.208 C18.352,18.7706667 18.288,18.3653333 18.16,17.992 C18.288,18.1413333 18.4373333,18.2773333 18.608,18.4 C18.7786667,18.5226667 18.96,18.6426667 19.152,18.76 L19.152,18.76 L21.6,20.216 L22.624,18.472 L20.176,17.016 C19.7813333,16.7706667 19.3866667,16.616 18.992,16.552 C19.1946667,16.5093333 19.3946667,16.448 19.592,16.368 C19.7893333,16.288 19.984,16.1893333 20.176,16.072 L20.176,16.072 L22.624,14.648 L21.584,12.92 L19.152,14.344 C18.96,14.4506667 18.7813333,14.5626667 18.616,14.68 C18.4506667,14.7973333 18.304,14.9306667 18.176,15.08 C18.24,14.8986667 18.2853333,14.704 18.312,14.496 C18.3386667,14.288 18.352,14.0773333 18.352,13.864 L18.352,13.864 L18.352,11 L16.256,11 L16.256,13.896 C16.256,14.3333333 16.32,14.7333333 16.448,15.096 C16.192,14.808 15.8666667,14.5573333 15.472,14.344 L15.472,14.344 L13.024,12.888 L12,14.616 L14.448,16.072 C14.64,16.1893333 14.8373333,16.2906667 15.04,16.376 C15.2426667,16.4613333 15.4453333,16.52 15.648,16.552 C15.4453333,16.584 15.2453333,16.64 15.048,16.72 C14.8506667,16.8 14.6506667,16.8986667 14.448,17.016 L14.448,17.016 L12,18.44 L13.04,20.184 L15.472,18.76 C15.8666667,18.5466667 16.1866667,18.3013333 16.432,18.024 C16.368,18.2053333 16.3226667,18.4 16.296,18.608 C16.2693333,18.816 16.256,19.0266667 16.256,19.24 L16.256,19.24 L16.256,22.088 L18.352,22.088 Z" id="*" fill="#FFFFFF" fill-rule="nonzero"></path>
    </g>
</svg>